<svg width="285" height="309" viewBox="0 0 285 309" fill="none" xmlns="http://www.w3.org/2000/svg">
<path fill-rule="evenodd" clip-rule="evenodd" d="M0 0H285V308.266H0V0Z" fill="white"/>
<path fill-rule="evenodd" clip-rule="evenodd" d="M42.3956 167.888C30.2555 177.691 17.921 199.066 11.2681 219.533C4.61514 240.001 -4.40851 277.731 2.47795 290.693C9.36441 303.656 31.8963 294.863 52.5868 297.31C73.2774 299.758 99.2261 303.636 126.621 305.379C154.017 307.122 191.128 309.24 216.958 307.771C242.788 306.301 272.435 309.914 281.602 296.563C290.769 283.213 279.229 248.018 271.96 227.668C264.69 207.318 248.25 184.874 237.983 174.462C227.715 164.051 236.001 167.49 210.356 165.198C184.71 162.907 112.102 160.266 84.1084 160.715C56.115 161.163 54.5356 158.085 42.3956 167.888H42.3956Z" fill="#D5C8B5"/>
<path fill-rule="evenodd" clip-rule="evenodd" d="M123.582 182.384C126.437 188.86 138.66 207.64 145.405 216.158C152.151 224.677 156.618 229.26 164.054 233.494C171.49 237.728 183.092 240.668 190.021 241.564C196.95 242.461 201.555 241.714 205.629 238.875C209.704 236.035 212.26 229.46 214.47 224.528C216.68 219.597 222.112 212.772 218.889 209.285C215.666 205.797 206.043 204.551 195.131 203.604C184.219 202.657 162.993 207.988 153.417 203.604C143.84 199.221 141.861 181.686 137.671 177.303C133.481 172.919 130.627 176.456 128.279 177.303C125.93 178.15 120.728 175.908 123.582 182.384H123.582Z" fill="#8B786A"/>
<path fill-rule="evenodd" clip-rule="evenodd" d="M195.161 134.86C195.23 140.688 191.939 154.837 191.432 160.566C190.926 166.294 190.304 167.59 192.123 169.233C193.942 170.877 195.277 167.215 202.345 170.428C209.412 173.641 230.914 181.537 234.528 188.511C238.142 195.486 228.749 206.446 224.03 212.275C219.31 218.103 210.655 220.02 206.212 223.482C201.769 226.945 201.838 232.026 197.372 233.047C192.906 234.069 186.184 232.674 179.416 229.611C172.647 226.547 163.484 221.241 156.762 214.665C150.04 208.089 143.088 197.105 139.083 190.156C135.077 183.207 134.455 182.684 132.728 172.97C131.001 163.256 127.917 142.282 128.723 131.871C129.528 121.459 127.18 111.547 137.563 110.501C147.945 109.455 181.417 121.535 191.017 125.594C200.617 129.654 195.092 129.031 195.161 134.86Z" fill="#D9AEAA"/>
<path fill-rule="evenodd" clip-rule="evenodd" d="M210.906 109.454C205.151 107.312 189.91 115.88 184.938 123.502C179.965 131.124 179.367 144.773 181.071 155.185C182.774 165.596 190.141 182.983 195.159 185.972C200.178 188.96 207.13 181.387 211.182 173.118C215.234 164.848 219.516 146.965 219.47 136.354C219.424 125.744 216.662 111.596 210.906 109.454Z" fill="#42241A"/>
<path fill-rule="evenodd" clip-rule="evenodd" d="M254.111 234.391C255.953 234.74 261.801 258.055 264.057 268.167C266.313 278.28 269.697 290.136 267.648 295.068C265.599 300 254.204 302.59 251.764 297.758C249.323 292.925 252.615 276.635 253.007 266.074C253.398 255.513 252.269 234.042 254.111 234.391Z" fill="#B3A394"/>
<path fill-rule="evenodd" clip-rule="evenodd" d="M133.142 152.942C136.641 153.938 144.49 153.491 150.821 156.231C157.152 158.971 166.245 165.123 171.126 169.382C176.007 173.641 179.069 177.028 180.105 181.785C181.141 186.542 174.119 195.983 177.342 197.926C180.565 199.869 194.999 198.125 199.442 193.442C203.885 188.759 205.226 173.978 204 169.83C202.774 165.682 193.97 172.007 192.088 168.556C190.206 165.105 192.237 155.652 192.709 149.127C193.181 142.601 195.869 132.725 194.919 129.401C193.969 126.076 193.209 129.391 187.01 129.18C180.811 128.969 165.762 128.308 157.728 128.133C149.694 127.959 143.8 127.436 138.804 128.133C133.809 128.831 129.251 128.633 127.755 132.319C126.259 136.006 128.929 146.815 129.827 150.252C130.725 153.69 129.643 151.946 133.142 152.942Z" fill="#BC8C85"/>
<path fill-rule="evenodd" clip-rule="evenodd" d="M156.212 3.34568C159.343 2.997 161.023 -0.464551 165.604 0.0586048C170.186 0.581761 177.967 2.64887 183.699 6.48462C189.431 10.3204 195.187 16.1239 199.998 23.0731C204.81 30.0223 209.045 39.0386 212.567 48.1797C216.09 57.3208 218.393 67.4333 221.132 77.9197C223.872 88.4062 227.232 101.957 229.005 111.098C230.778 120.24 230.272 126.261 231.768 132.768C233.263 139.276 235.539 143.941 237.979 150.143C240.419 156.345 241.942 160.448 246.409 169.981C250.876 179.514 259.094 194.639 264.78 207.342C270.466 220.045 277.51 236.236 280.526 246.199C283.541 256.163 284.233 269.438 282.875 267.122C281.516 264.805 277.74 243.733 272.376 232.301C267.012 220.868 253.943 202.17 250.691 198.524C247.44 194.879 251.216 203.013 252.868 210.427C254.52 217.841 260.245 229.052 260.603 243.008C260.96 256.964 257.933 286.583 255.015 294.164C252.097 301.745 246.876 293.524 243.094 288.494C239.311 283.463 237.822 272.875 232.32 263.983C226.818 255.091 216.642 245.95 210.081 235.14C203.521 224.33 195.533 210.033 192.955 199.124C190.376 188.214 193.069 178.723 194.611 169.681C196.154 160.64 200.39 154.138 202.209 144.873C204.027 135.607 207.711 124.624 205.524 114.087C203.336 103.551 200.297 80.2864 189.086 81.6562C177.875 83.0259 146.428 111.321 138.256 122.306C130.083 133.291 140.166 137.476 140.051 147.564C139.936 157.652 141.916 174.663 137.565 182.833C133.214 191.003 122.256 198.101 113.945 196.582C105.635 195.063 95.0367 179.218 87.7012 173.717C80.3657 168.216 75.9177 164.623 69.9323 163.576C63.947 162.53 57.6909 163.483 51.7892 167.44C45.8875 171.396 40.5769 178.973 34.5224 187.317C28.4678 195.661 15.8531 219.273 15.4619 217.505C15.0706 215.736 26.2989 187.242 32.175 176.705C38.051 166.168 44.5544 158.669 50.7182 154.285C56.882 149.9 63.3344 151.003 69.158 150.398C74.9816 149.793 81.6943 151.427 85.6596 150.655C89.6249 149.884 91.2743 149.523 92.9497 145.77C94.6252 142.016 94.5844 135.557 95.7124 128.134C96.8405 120.712 98.1065 112.218 99.7181 101.234C101.33 90.2494 102.935 74.1229 105.382 62.2283C107.829 50.3337 110.094 38.6339 114.399 29.8662C118.703 21.0984 125.807 14.2412 131.211 9.62191C136.614 5.00266 142.652 3.19671 146.819 2.15068C150.986 1.10464 153.081 3.69436 156.212 3.34568V3.34568Z" fill="#A26044"/>
<path fill-rule="evenodd" clip-rule="evenodd" d="M154.275 35.0281C157.774 32.9111 160.26 31.3926 164.772 31.1436C169.284 30.8945 176.813 31.267 181.348 33.5336C185.884 35.8001 188.899 38.7648 191.984 44.7429C195.068 50.7209 198.199 63.7227 199.856 69.4017C201.514 75.0807 201.1 74.8566 201.928 78.8169C202.757 82.7772 203.978 87.2604 204.83 93.1635C205.682 99.0666 207.316 108.158 207.04 114.236C206.764 120.313 205.612 125.071 203.171 129.629C200.731 134.188 196.679 137.924 192.397 141.586C188.116 145.247 182.753 150.477 177.481 151.598C172.209 152.719 166.683 150.354 160.766 148.311C154.85 146.269 146.816 142.906 141.981 139.344C137.147 135.782 134.409 133.789 131.761 126.94C129.114 120.09 125.775 107.635 126.097 98.2447C126.42 88.8542 130.748 79.6632 133.695 70.5967C136.642 61.5302 140.348 49.7739 143.778 43.8458C147.208 37.9177 150.776 37.1452 154.275 35.0281V35.0281Z" fill="#D9AEAA"/>
<path fill-rule="evenodd" clip-rule="evenodd" d="M68.6082 225.424C66.9048 225.748 64.2344 253.645 61.2876 264.132C58.3409 274.618 51.1808 283.087 50.9275 288.343C50.6742 293.599 56.8211 295.566 59.7679 295.666C62.7146 295.766 66.6515 294.52 68.6082 288.94C70.5649 283.361 71.5078 272.776 71.5078 262.19C71.5078 251.603 70.3116 225.1 68.6082 225.424Z" fill="#B3A394"/>
<path fill-rule="evenodd" clip-rule="evenodd" d="M157.353 66.5616C156.156 65.952 155.189 65.7526 151.759 65.7402C148.329 65.7279 140.64 65.5784 136.773 66.4875C132.905 67.3966 128.599 70.6349 128.553 71.1951C128.507 71.7552 133.573 70.1359 136.496 69.8486C139.419 69.5614 142.352 69.5469 146.092 69.4717C149.833 69.3965 157.061 69.8826 158.938 69.3976C160.815 68.9126 158.549 67.1711 157.353 66.5616Z" fill="#8B5850"/>
<path fill-rule="evenodd" clip-rule="evenodd" d="M161.704 104.819C161.129 103.835 163.316 102.602 165.158 102.353C166.999 102.104 170.66 103.648 172.755 103.324C174.85 103.001 176.046 100.585 177.727 100.411C179.407 100.237 183.034 100.934 182.838 102.279C182.642 103.624 178.923 107.485 176.552 108.481C174.181 109.478 171.086 108.868 168.611 108.257C166.136 107.647 162.28 105.803 161.704 104.819Z" fill="#BC8C85"/>
<path fill-rule="evenodd" clip-rule="evenodd" d="M166.608 89.8756C167.114 89.7511 166.298 80.8215 164.606 77.845C162.914 74.8684 158.206 72.2406 156.456 72.0165C154.706 71.7923 153.256 75.4042 154.107 76.5002C154.959 77.5961 159.483 76.363 161.566 78.5923C163.65 80.8215 166.101 90.0002 166.608 89.8756Z" fill="#BC8C85"/>
<path fill-rule="evenodd" clip-rule="evenodd" d="M179.592 70.4487C178.199 71.0215 175.943 73.1013 175.103 75.0066C174.262 76.9118 174.124 80.087 174.55 81.8803C174.976 83.6737 176.841 85.5548 177.658 85.7666C178.475 85.9784 179.396 84.6953 179.453 83.1511C179.511 81.6068 177.336 78.4314 178.004 76.5011C178.671 74.5709 183.194 72.5784 183.459 71.5697C183.724 70.5609 180.985 69.8759 179.592 70.4487Z" fill="#BC8C85"/>
<path fill-rule="evenodd" clip-rule="evenodd" d="M176.205 67.3803C174.928 66.9816 176.503 64.0918 180.348 63.0463C184.193 62.0008 194.566 60.6706 199.275 61.1073C203.983 61.544 208.53 65.1941 208.599 65.6668C208.667 66.1394 203.118 63.9815 199.687 63.9434C196.256 63.9052 191.927 64.8651 188.014 65.438C184.1 66.0108 177.483 67.7789 176.205 67.3803Z" fill="#8B5850"/>
<path fill-rule="evenodd" clip-rule="evenodd" d="M135.082 65.3003C135.45 66.2018 133.984 70.226 133.416 71.3758C132.849 72.5255 133.09 72.2512 131.677 72.1988C130.264 72.1464 125.017 72.1 124.938 71.0614C124.859 70.0227 129.515 66.9271 131.206 65.967C132.896 65.0068 134.714 64.3989 135.082 65.3003Z" fill="#A26044"/>
<path fill-rule="evenodd" clip-rule="evenodd" d="M197.607 59.2643C197.202 60.6165 198.332 64.7441 199.274 66.0442C200.216 67.3443 201.635 66.7575 203.259 67.0647C204.883 67.372 207.925 68.6065 209.018 67.8877C210.111 67.169 211.035 64.4116 209.815 62.7522C208.596 61.0927 203.735 58.5123 201.701 57.931C199.666 57.3497 198.011 57.9121 197.607 59.2643Z" fill="#A26044"/>
<path fill-rule="evenodd" clip-rule="evenodd" d="M189.347 116.685C188.78 116.667 188.365 116.1 188.155 116.85C187.944 117.6 187.881 120.61 188.086 121.184C188.291 121.758 188.872 120.793 189.384 120.292C189.896 119.79 190.797 118.73 191.159 118.175C191.522 117.62 191.86 117.209 191.558 116.96C191.256 116.712 189.915 116.704 189.347 116.685Z" fill="#450E27"/>
<path fill-rule="evenodd" clip-rule="evenodd" d="M188.057 116.827C187.782 117.562 187.735 120.157 188.127 120.638C188.52 121.118 189.774 120.305 190.411 119.709C191.048 119.113 192.054 117.641 191.949 117.061C191.844 116.48 190.43 116.267 189.781 116.228C189.132 116.189 188.333 116.092 188.057 116.827Z" fill="#450E27"/>
<path fill-rule="evenodd" clip-rule="evenodd" d="M165.875 116.098C162.977 116.601 158.756 117.385 157.579 118.567C156.401 119.75 156.268 121.788 158.81 123.193C161.352 124.597 168.228 127.033 172.83 126.995C177.433 126.956 183.641 124.413 186.424 122.962C189.208 121.512 189.39 119.465 189.529 118.292C189.669 117.12 189.69 116.384 187.263 115.927C184.836 115.47 178.532 115.522 174.968 115.55C171.403 115.579 168.773 115.595 165.875 116.098Z" fill="#D9D9D9"/>
<path fill-rule="evenodd" clip-rule="evenodd" d="M158.389 118.195C157.807 118.132 154.188 118.688 153.628 119.255C153.067 119.823 154.152 121.005 155.026 121.601C155.9 122.196 158.524 123.157 158.873 122.829C159.223 122.501 157.204 120.406 157.124 119.634C157.043 118.862 158.972 118.258 158.389 118.195Z" fill="#450E27"/>
<path fill-rule="evenodd" clip-rule="evenodd" d="M153.629 119.255C152.908 118.767 158.527 116.575 161.288 115.576C164.05 114.577 167.791 113.558 170.197 113.26C172.604 112.962 173.84 113.824 175.727 113.787C177.615 113.75 178.785 112.541 181.523 113.036C184.262 113.532 191.605 116.029 192.159 116.758C192.713 117.487 187.508 117.406 184.849 117.408C182.19 117.41 179.412 116.588 176.206 116.771C173.001 116.954 169.377 118.09 165.614 118.504C161.851 118.918 154.35 119.743 153.629 119.255Z" fill="#BC8585"/>
<path fill-rule="evenodd" clip-rule="evenodd" d="M153.558 120.24C153.566 121.176 161.786 127.105 165.987 128.732C170.187 130.358 175.445 130.423 178.76 129.999C182.074 129.575 183.71 128.192 185.873 126.187C188.036 124.182 192.003 118.63 191.738 117.97C191.473 117.31 186.609 121.181 184.285 122.227C181.961 123.272 180.852 124.097 177.794 124.245C174.735 124.393 169.974 123.781 165.935 123.114C161.896 122.446 153.549 119.304 153.558 120.24Z" fill="#BC8585"/>
<path fill-rule="evenodd" clip-rule="evenodd" d="M160.18 34.7245C158.108 33.4541 162.809 30.6932 162.672 26.5094C162.535 22.3255 158.759 9.44691 159.357 9.62138C159.956 9.79586 163.638 23.4711 166.262 27.5562C168.887 31.6413 176.116 32.9373 175.103 34.132C174.089 35.3267 162.252 35.995 160.18 34.7245H160.18Z" fill="#D9AEAA"/>
<path fill-rule="evenodd" clip-rule="evenodd" d="M151.479 33.9772C150.213 35.3469 145.863 35.7705 142.502 39.8057C139.141 43.8409 134.766 51.2638 131.313 58.1883C127.86 65.1127 123.809 74.3534 121.783 81.3525C119.757 88.3516 118.95 93.8561 119.158 100.183C119.365 106.51 123.441 119.935 123.026 119.313C122.612 118.69 116.28 105.936 116.672 96.4464C117.063 86.9563 121.736 71.8372 125.374 62.3724C129.011 52.9076 134.376 44.7884 138.496 39.6575C142.617 34.5267 147.934 32.5339 150.098 31.5872C152.262 30.6404 152.745 32.6074 151.479 33.9772Z" fill="#CDA78A"/>
<path fill-rule="evenodd" clip-rule="evenodd" d="M168.468 23.9654C168.123 25.3604 173.672 27.6524 178.138 29.3462C182.604 31.0399 190.039 27.0042 195.265 34.1278C200.491 41.2514 208.594 71.4153 209.492 72.0879C210.39 72.7606 203.668 45.9102 200.652 38.1638C197.636 30.4174 194.805 28.4743 191.398 25.6097C187.991 22.7451 184.031 21.2503 180.21 20.9762C176.388 20.7022 168.814 22.5704 168.468 23.9654Z" fill="#CDA78A"/>
<path fill-rule="evenodd" clip-rule="evenodd" d="M210.875 130.072C210.852 128.254 210.391 137.67 208.665 143.224C206.938 148.779 202.587 156.026 200.515 163.399C198.443 170.772 194.853 179.091 196.234 187.46C197.615 195.83 208.135 212.916 208.803 213.614C209.471 214.311 201.483 198.245 200.24 191.645C198.996 185.044 199.917 180.263 201.344 174.011C202.771 167.759 207.215 161.457 208.803 154.134C210.392 146.811 210.898 131.891 210.875 130.072Z" fill="#CDA78A"/>
<path fill-rule="evenodd" clip-rule="evenodd" d="M30.2051 184.771C28.893 185.842 36.375 171.819 40.4268 166.688C44.4785 161.557 49.3361 156.052 54.5156 153.984C59.6952 151.917 65.8179 151.992 71.5041 154.284C77.1902 156.576 83.5678 162.603 88.6325 167.734C93.6972 172.864 101.386 183.973 101.892 185.069C102.399 186.165 94.7094 177.597 91.6705 174.309C88.6317 171.022 87.6188 168.482 83.6593 165.343C79.6999 162.205 73.8071 156.326 67.9138 155.479C62.0205 154.632 54.5843 155.38 48.2995 160.262C42.0148 165.144 31.5172 183.7 30.2051 184.771Z" fill="#CDA78A"/>
<path fill-rule="evenodd" clip-rule="evenodd" d="M105.415 182.679C105.438 182.131 115.602 184.634 119.504 182.53C123.406 180.425 127.504 170.263 128.828 170.051C130.152 169.839 127.044 179.864 127.446 181.259C127.849 182.654 131.004 177.535 131.245 178.419C131.487 179.304 128.102 186.464 128.896 186.564C129.69 186.663 135.883 178.432 136.01 179.017C136.137 179.602 132.891 187.548 129.657 190.076C126.423 192.605 120.794 194.448 116.604 194.187C112.414 193.925 104.989 189.006 104.517 188.508C104.045 188.01 110.917 191.26 113.771 191.197C116.626 191.135 122.428 188.757 121.646 188.134C120.863 187.511 109.455 187.847 109.075 187.461C108.695 187.075 119.977 186.614 119.367 185.817C118.757 185.02 105.392 183.227 105.415 182.679Z" fill="#CDA78A"/>
</svg>
