<svg width="323" height="309" viewBox="0 0 323 309" fill="none" xmlns="http://www.w3.org/2000/svg">
<path fill-rule="evenodd" clip-rule="evenodd" d="M0 1H323V309H0V1Z" fill="white"/>
<path fill-rule="evenodd" clip-rule="evenodd" d="M59.3956 167.888C47.2555 177.691 34.921 199.066 28.2681 219.533C21.6151 240.001 12.5915 277.731 19.478 290.693C26.3644 303.656 48.8963 294.863 69.5868 297.31C90.2774 299.758 116.226 303.636 143.621 305.379C171.017 307.122 208.128 309.24 233.958 307.771C259.788 306.301 289.435 309.914 298.602 296.563C307.769 283.213 296.229 248.018 288.96 227.668C281.69 207.318 265.25 184.874 254.983 174.462C244.715 164.051 253.001 167.49 227.356 165.198C201.71 162.907 129.102 160.266 101.108 160.715C73.115 161.163 71.5356 158.085 59.3956 167.888H59.3956Z" fill="#D5C8B5"/>
<path fill-rule="evenodd" clip-rule="evenodd" d="M140.582 182.384C143.437 188.86 155.66 207.64 162.405 216.158C169.151 224.677 173.618 229.26 181.054 233.494C188.49 237.728 200.092 240.668 207.021 241.564C213.95 242.461 218.555 241.714 222.629 238.875C226.704 236.036 229.26 229.46 231.47 224.528C233.68 219.597 239.112 212.772 235.889 209.285C232.666 205.797 223.043 204.551 212.131 203.604C201.219 202.658 179.993 207.988 170.417 203.604C160.84 199.221 158.861 181.686 154.671 177.303C150.481 172.919 147.627 176.456 145.279 177.303C142.93 178.15 137.728 175.908 140.582 182.384H140.582Z" fill="#8B786A"/>
<path fill-rule="evenodd" clip-rule="evenodd" d="M212.161 134.86C212.23 140.688 208.939 154.837 208.432 160.566C207.926 166.294 207.304 167.59 209.123 169.233C210.942 170.877 212.277 167.215 219.345 170.428C226.412 173.641 247.914 181.537 251.528 188.511C255.142 195.486 245.749 206.446 241.03 212.275C236.31 218.103 227.655 220.02 223.212 223.482C218.769 226.945 218.838 232.026 214.372 233.047C209.906 234.069 203.184 232.674 196.416 229.611C189.647 226.547 180.484 221.241 173.762 214.665C167.04 208.089 160.088 197.105 156.083 190.156C152.077 183.207 151.455 182.684 149.728 172.97C148.001 163.256 144.917 142.282 145.723 131.871C146.528 121.459 144.18 111.547 154.563 110.501C164.945 109.455 198.417 121.535 208.017 125.594C217.617 129.654 212.092 129.031 212.161 134.86V134.86Z" fill="#D9AEAA"/>
<path fill-rule="evenodd" clip-rule="evenodd" d="M227.906 109.454C222.151 107.312 206.91 115.88 201.938 123.502C196.965 131.124 196.367 144.773 198.071 155.185C199.774 165.596 207.141 182.983 212.159 185.972C217.178 188.96 224.13 181.387 228.182 173.118C232.234 164.848 236.516 146.965 236.47 136.354C236.424 125.744 233.662 111.596 227.906 109.454V109.454Z" fill="#42241A"/>
<path fill-rule="evenodd" clip-rule="evenodd" d="M271.111 234.391C272.953 234.74 278.801 258.055 281.057 268.167C283.313 278.28 286.697 290.136 284.648 295.068C282.599 300 271.204 302.59 268.764 297.758C266.323 292.925 269.615 276.635 270.007 266.074C270.398 255.513 269.269 234.042 271.111 234.391V234.391Z" fill="#B3A394"/>
<path fill-rule="evenodd" clip-rule="evenodd" d="M150.142 152.942C153.641 153.938 161.49 153.491 167.821 156.231C174.152 158.971 183.245 165.123 188.126 169.382C193.007 173.641 196.069 177.028 197.105 181.785C198.141 186.542 191.119 195.983 194.342 197.926C197.565 199.869 211.999 198.125 216.442 193.442C220.885 188.759 222.226 173.978 221 169.83C219.774 165.682 210.97 172.007 209.088 168.556C207.206 165.105 209.237 155.652 209.709 149.127C210.181 142.601 212.869 132.725 211.919 129.401C210.969 126.076 210.209 129.392 204.01 129.18C197.811 128.969 182.762 128.308 174.728 128.133C166.694 127.959 160.8 127.436 155.804 128.133C150.809 128.831 146.251 128.633 144.755 132.319C143.259 136.006 145.929 146.815 146.827 150.252C147.725 153.69 146.643 151.946 150.142 152.942V152.942Z" fill="#BC8C85"/>
<path fill-rule="evenodd" clip-rule="evenodd" d="M173.212 3.34568C176.343 2.997 178.023 -0.464551 182.604 0.0586048C187.186 0.581761 194.967 2.64887 200.699 6.48462C206.431 10.3204 212.187 16.1239 216.998 23.0731C221.81 30.0223 226.045 39.0386 229.567 48.1797C233.09 57.3208 235.393 67.4333 238.132 77.9197C240.872 88.4062 244.232 101.957 246.005 111.098C247.778 120.24 247.272 126.261 248.768 132.768C250.263 139.276 252.539 143.941 254.979 150.143C257.419 156.345 258.942 160.448 263.409 169.981C267.876 179.514 276.094 194.639 281.78 207.342C287.466 220.045 294.51 236.236 297.526 246.199C300.541 256.163 301.233 269.438 299.875 267.122C298.516 264.805 294.74 243.733 289.376 232.301C284.012 220.868 270.943 202.17 267.691 198.524C264.44 194.879 268.216 203.013 269.868 210.427C271.52 217.841 277.245 229.052 277.603 243.008C277.96 256.964 274.933 286.583 272.015 294.164C269.097 301.745 263.876 293.524 260.094 288.494C256.311 283.463 254.822 272.875 249.32 263.983C243.818 255.091 233.642 245.95 227.081 235.14C220.52 224.33 212.533 210.033 209.954 199.124C207.376 188.214 210.069 178.723 211.611 169.681C213.154 160.64 217.39 154.138 219.209 144.873C221.027 135.607 224.711 124.624 222.524 114.087C220.336 103.551 217.297 80.2864 206.086 81.6562C194.875 83.0259 163.428 111.321 155.256 122.306C147.083 133.291 157.166 137.476 157.051 147.564C156.936 157.652 158.916 174.663 154.565 182.833C150.214 191.003 139.256 198.101 130.945 196.582C122.635 195.063 112.037 179.218 104.701 173.717C97.3657 168.216 92.9176 164.623 86.9323 163.576C80.9469 162.53 74.6908 163.483 68.7891 167.44C62.8875 171.396 57.5768 178.973 51.5223 187.317C45.4677 195.661 32.853 219.273 32.4618 217.505C32.0706 215.736 43.2989 187.242 49.1749 176.705C55.051 166.168 61.5543 158.669 67.7182 154.285C73.882 149.9 80.3344 151.003 86.1579 150.398C91.9815 149.793 98.6943 151.427 102.66 150.655C106.625 149.884 108.274 149.523 109.95 145.77C111.625 142.016 111.584 135.557 112.712 128.134C113.84 120.712 115.106 112.218 116.718 101.234C118.33 90.2494 119.935 74.1229 122.382 62.2283C124.829 50.3337 127.094 38.6339 131.399 29.8662C135.703 21.0984 142.807 14.2412 148.211 9.62191C153.614 5.00266 159.652 3.19671 163.819 2.15068C167.986 1.10464 170.081 3.69436 173.212 3.34568V3.34568Z" fill="#A26044"/>
<path fill-rule="evenodd" clip-rule="evenodd" d="M171.275 35.0282C174.774 32.9112 177.26 31.3927 181.772 31.1436C186.284 30.8945 193.813 31.2671 198.348 33.5336C202.884 35.8002 205.899 38.7649 208.984 44.7429C212.068 50.721 215.199 63.7228 216.856 69.4018C218.514 75.0808 218.1 74.8567 218.928 78.8169C219.757 82.7772 220.978 87.2604 221.83 93.1636C222.682 99.0667 224.316 108.158 224.04 114.236C223.764 120.313 222.612 125.071 220.171 129.629C217.731 134.188 213.679 137.924 209.397 141.586C205.116 145.247 199.753 150.478 194.481 151.598C189.209 152.719 183.683 150.354 177.766 148.311C171.85 146.269 163.816 142.906 158.981 139.344C154.147 135.782 151.409 133.789 148.761 126.94C146.114 120.09 142.775 107.635 143.097 98.2448C143.42 88.8543 147.748 79.6633 150.695 70.5968C153.642 61.5303 157.348 49.774 160.778 43.8459C164.208 37.9178 167.776 37.1452 171.275 35.0282V35.0282Z" fill="#D9AEAA"/>
<path fill-rule="evenodd" clip-rule="evenodd" d="M85.6082 225.424C83.9048 225.748 81.2344 253.645 78.2876 264.132C75.3409 274.618 68.1808 283.087 67.9275 288.343C67.6742 293.599 73.8211 295.566 76.7679 295.666C79.7146 295.766 83.6515 294.52 85.6082 288.94C87.5649 283.361 88.5078 272.776 88.5078 262.189C88.5078 251.603 87.3116 225.1 85.6082 225.424V225.424Z" fill="#B3A394"/>
<path fill-rule="evenodd" clip-rule="evenodd" d="M174.353 66.5616C173.156 65.952 172.189 65.7526 168.759 65.7402C165.329 65.7279 157.64 65.5784 153.773 66.4875C149.905 67.3966 145.599 70.6349 145.553 71.1951C145.507 71.7552 150.573 70.1359 153.496 69.8486C156.419 69.5614 159.352 69.5469 163.092 69.4717C166.833 69.3965 174.061 69.8826 175.938 69.3976C177.815 68.9126 175.549 67.1711 174.353 66.5616V66.5616Z" fill="#8B5850"/>
<path fill-rule="evenodd" clip-rule="evenodd" d="M178.704 104.819C178.129 103.835 180.316 102.602 182.158 102.353C183.999 102.104 187.66 103.648 189.755 103.324C191.85 103.001 193.046 100.585 194.727 100.411C196.407 100.237 200.034 100.934 199.838 102.279C199.642 103.624 195.923 107.485 193.552 108.481C191.181 109.478 188.086 108.868 185.611 108.257C183.136 107.647 179.28 105.803 178.704 104.819V104.819Z" fill="#BC8C85"/>
<path fill-rule="evenodd" clip-rule="evenodd" d="M183.608 89.8757C184.114 89.7511 183.298 80.8215 181.606 77.845C179.914 74.8685 175.206 72.2406 173.456 72.0165C171.706 71.7924 170.256 75.4042 171.107 76.5002C171.959 77.5962 176.483 76.363 178.566 78.5923C180.65 80.8215 183.101 90.0002 183.608 89.8757V89.8757Z" fill="#BC8C85"/>
<path fill-rule="evenodd" clip-rule="evenodd" d="M196.592 70.4487C195.199 71.0215 192.943 73.1013 192.103 75.0066C191.262 76.9118 191.124 80.087 191.55 81.8803C191.976 83.6737 193.841 85.5548 194.658 85.7666C195.475 85.9784 196.396 84.6953 196.453 83.1511C196.511 81.6068 194.336 78.4314 195.004 76.5011C195.671 74.5709 200.194 72.5784 200.459 71.5697C200.724 70.5609 197.985 69.8759 196.592 70.4487V70.4487Z" fill="#BC8C85"/>
<path fill-rule="evenodd" clip-rule="evenodd" d="M193.205 67.3802C191.928 66.9816 193.503 64.0918 197.348 63.0463C201.193 62.0008 211.566 60.6705 216.275 61.1073C220.983 61.544 225.53 65.194 225.599 65.6667C225.667 66.1394 220.118 63.9815 216.687 63.9433C213.256 63.9052 208.927 64.8651 205.014 65.4379C201.1 66.0107 194.483 67.7788 193.205 67.3802V67.3802Z" fill="#8B5850"/>
<path fill-rule="evenodd" clip-rule="evenodd" d="M152.082 65.3003C152.45 66.2018 150.984 70.226 150.416 71.3757C149.849 72.5255 150.09 72.2511 148.677 72.1987C147.264 72.1463 142.017 72.1 141.938 71.0613C141.859 70.0227 146.515 66.9271 148.206 65.9669C149.896 65.0068 151.714 64.3988 152.082 65.3003V65.3003Z" fill="#A26044"/>
<path fill-rule="evenodd" clip-rule="evenodd" d="M214.607 59.2643C214.202 60.6165 215.332 64.7441 216.274 66.0442C217.216 67.3443 218.635 66.7575 220.259 67.0647C221.883 67.372 224.925 68.6065 226.018 67.8877C227.111 67.169 228.035 64.4116 226.815 62.7522C225.596 61.0927 220.735 58.5123 218.701 57.931C216.666 57.3497 215.011 57.9121 214.607 59.2643V59.2643Z" fill="#A26044"/>
<path fill-rule="evenodd" clip-rule="evenodd" d="M206.347 116.685C205.78 116.667 205.365 116.1 205.155 116.85C204.944 117.6 204.881 120.61 205.086 121.184C205.291 121.758 205.872 120.793 206.384 120.292C206.896 119.79 207.797 118.73 208.159 118.175C208.522 117.62 208.86 117.209 208.558 116.96C208.256 116.712 206.915 116.704 206.347 116.685V116.685Z" fill="#450E27"/>
<path fill-rule="evenodd" clip-rule="evenodd" d="M205.057 116.827C204.782 117.562 204.735 120.157 205.127 120.638C205.52 121.118 206.774 120.305 207.411 119.709C208.048 119.113 209.054 117.641 208.949 117.061C208.844 116.48 207.43 116.267 206.781 116.228C206.132 116.189 205.333 116.092 205.057 116.827V116.827Z" fill="#450E27"/>
<path fill-rule="evenodd" clip-rule="evenodd" d="M182.875 116.098C179.977 116.601 175.756 117.385 174.579 118.567C173.401 119.75 173.268 121.788 175.81 123.193C178.352 124.597 185.228 127.033 189.83 126.995C194.433 126.957 200.641 124.413 203.424 122.962C206.208 121.512 206.39 119.465 206.529 118.292C206.669 117.12 206.69 116.384 204.263 115.927C201.836 115.47 195.532 115.522 191.968 115.55C188.403 115.579 185.773 115.595 182.875 116.098V116.098Z" fill="#D9D9D9"/>
<path fill-rule="evenodd" clip-rule="evenodd" d="M175.389 118.195C174.807 118.132 171.188 118.688 170.628 119.255C170.067 119.823 171.152 121.005 172.026 121.601C172.9 122.196 175.524 123.157 175.873 122.829C176.223 122.501 174.204 120.406 174.124 119.634C174.043 118.862 175.972 118.258 175.389 118.195V118.195Z" fill="#450E27"/>
<path fill-rule="evenodd" clip-rule="evenodd" d="M170.629 119.255C169.908 118.767 175.527 116.575 178.288 115.576C181.05 114.577 184.791 113.559 187.197 113.26C189.604 112.962 190.84 113.824 192.727 113.787C194.615 113.75 195.785 112.541 198.523 113.036C201.262 113.532 208.605 116.029 209.159 116.758C209.713 117.487 204.508 117.406 201.849 117.408C199.19 117.41 196.412 116.588 193.206 116.771C190.001 116.954 186.377 118.09 182.614 118.504C178.851 118.918 171.35 119.743 170.629 119.255V119.255Z" fill="#BC8585"/>
<path fill-rule="evenodd" clip-rule="evenodd" d="M170.558 120.24C170.566 121.176 178.786 127.105 182.987 128.732C187.187 130.358 192.445 130.423 195.76 129.999C199.074 129.575 200.71 128.192 202.873 126.187C205.036 124.182 209.003 118.63 208.738 117.97C208.473 117.31 203.609 121.181 201.285 122.227C198.961 123.272 197.852 124.097 194.794 124.245C191.735 124.393 186.974 123.781 182.935 123.114C178.896 122.446 170.549 119.304 170.558 120.24V120.24Z" fill="#BC8585"/>
<path fill-rule="evenodd" clip-rule="evenodd" d="M177.18 34.7245C175.108 33.4541 179.809 30.6932 179.672 26.5094C179.535 22.3255 175.759 9.44691 176.357 9.62138C176.956 9.79586 180.638 23.4711 183.262 27.5562C185.887 31.6413 193.116 32.9373 192.103 34.132C191.089 35.3267 179.252 35.995 177.18 34.7245H177.18Z" fill="#D9AEAA"/>
<path fill-rule="evenodd" clip-rule="evenodd" d="M168.479 33.9772C167.213 35.3469 162.863 35.7705 159.502 39.8057C156.141 43.8409 151.766 51.2638 148.313 58.1883C144.86 65.1128 140.809 74.3534 138.783 81.3525C136.757 88.3516 135.95 93.8561 136.158 100.183C136.365 106.51 140.441 119.935 140.026 119.313C139.612 118.69 133.28 105.936 133.672 96.4464C134.063 86.9564 138.736 71.8373 142.374 62.3724C146.011 52.9076 151.376 44.7884 155.496 39.6576C159.617 34.5267 164.934 32.5339 167.098 31.5872C169.262 30.6405 169.745 32.6074 168.479 33.9772V33.9772Z" fill="#CDA78A"/>
<path fill-rule="evenodd" clip-rule="evenodd" d="M185.468 23.9654C185.123 25.3604 190.672 27.6525 195.138 29.3462C199.604 31.04 207.039 27.0042 212.265 34.1279C217.491 41.2515 225.594 71.4153 226.492 72.088C227.39 72.7606 220.668 45.9102 217.652 38.1639C214.636 30.4175 211.805 28.4744 208.398 25.6098C204.991 22.7452 201.031 21.2504 197.21 20.9763C193.388 20.7022 185.814 22.5705 185.468 23.9654V23.9654Z" fill="#CDA78A"/>
<path fill-rule="evenodd" clip-rule="evenodd" d="M227.875 130.073C227.852 128.254 227.391 137.67 225.665 143.224C223.938 148.779 219.587 156.026 217.515 163.399C215.443 170.772 211.853 179.091 213.234 187.461C214.615 195.83 225.135 212.917 225.803 213.614C226.471 214.311 218.483 198.245 217.24 191.645C215.996 185.044 216.917 180.263 218.344 174.011C219.771 167.759 224.215 161.457 225.803 154.134C227.392 146.811 227.898 131.891 227.875 130.073V130.073Z" fill="#CDA78A"/>
<path fill-rule="evenodd" clip-rule="evenodd" d="M47.2051 184.771C45.893 185.842 53.375 171.819 57.4268 166.688C61.4785 161.557 66.3361 156.052 71.5156 153.984C76.6952 151.917 82.8179 151.992 88.5041 154.284C94.1902 156.575 100.568 162.603 105.632 167.733C110.697 172.864 118.386 183.973 118.892 185.069C119.399 186.165 111.709 177.597 108.671 174.309C105.632 171.022 104.619 168.482 100.659 165.343C96.6999 162.205 90.8071 156.326 84.9138 155.479C79.0205 154.632 71.5843 155.38 65.2995 160.262C59.0148 165.144 48.5172 183.7 47.2051 184.771V184.771Z" fill="#CDA78A"/>
<path fill-rule="evenodd" clip-rule="evenodd" d="M122.415 182.679C122.438 182.132 132.602 184.634 136.504 182.53C140.406 180.425 144.504 170.263 145.828 170.051C147.152 169.839 144.044 179.864 144.446 181.259C144.849 182.654 148.004 177.535 148.245 178.419C148.487 179.304 145.102 186.464 145.896 186.564C146.69 186.663 152.883 178.432 153.01 179.017C153.137 179.602 149.891 187.548 146.657 190.076C143.423 192.605 137.794 194.448 133.604 194.187C129.414 193.925 121.989 189.006 121.517 188.508C121.045 188.01 127.917 191.26 130.771 191.197C133.626 191.135 139.428 188.757 138.646 188.134C137.863 187.511 126.455 187.847 126.075 187.461C125.695 187.075 136.977 186.614 136.367 185.817C135.757 185.02 122.392 183.227 122.415 182.679V182.679Z" fill="#CDA78A"/>
</svg>
