<svg width="323" height="308" viewBox="0 0 323 308" fill="none" xmlns="http://www.w3.org/2000/svg">
<path fill-rule="evenodd" clip-rule="evenodd" d="M0 0H323V308H0V0Z" fill="white"/>
<path fill-rule="evenodd" clip-rule="evenodd" d="M116.143 116.339C116.445 118.638 120.563 123.37 121.579 126.925C122.594 130.48 122.677 130.399 122.237 137.669C121.798 144.94 114.741 162.796 118.942 170.546C123.143 178.296 138.767 176.689 147.443 184.168C156.12 191.647 164.356 205.744 171 215.418C177.645 225.091 182.89 237.558 187.31 242.209C191.731 246.86 195.272 244.047 197.524 243.324C199.775 242.601 200.27 243.189 200.819 237.873C201.368 232.557 201.011 221.876 200.819 211.428C200.627 200.979 199.665 183.763 199.665 175.183C199.665 166.602 201.038 164.248 200.819 159.945C200.599 155.641 199.94 152.136 198.348 149.359C196.755 146.582 193.159 145.151 191.264 143.283C189.37 141.415 189.808 144.218 186.98 138.15C184.152 132.082 176.849 113.399 174.295 106.877C171.742 100.356 180.747 97.9781 171.659 99.0205C162.571 100.063 129.019 110.245 119.766 113.132C110.513 116.018 115.84 114.04 116.143 116.339V116.339Z" fill="#D3ADB4"/>
<path fill-rule="evenodd" clip-rule="evenodd" d="M191.208 140.161C189.371 140.664 192.699 146.252 193.273 150.554C193.847 154.856 195.396 161.56 194.65 165.974C193.904 170.388 188.682 171.786 188.797 177.038C188.912 182.29 194.651 190.112 195.34 197.487C196.028 204.862 191.608 213.803 192.928 221.29C194.248 228.777 198.553 240.622 203.26 242.41C207.966 244.198 220.996 247.829 221.168 232.017C221.341 216.205 209.287 162.846 204.294 147.537C199.301 132.228 193.045 139.658 191.208 140.161V140.161Z" fill="#C59496"/>
<path fill-rule="evenodd" clip-rule="evenodd" d="M179.497 118.37C177.66 119.6 182.769 140.442 185.007 145.862C187.246 151.282 190.976 151.17 192.927 150.891C194.879 150.612 196.199 146.253 196.716 144.186C197.233 142.118 198.898 142.788 196.028 138.486C193.158 134.183 181.334 117.141 179.497 118.37V118.37Z" fill="#B1766F"/>
<path fill-rule="evenodd" clip-rule="evenodd" d="M184.665 239.057C186.445 238.124 193.589 241.597 197.061 241.168C200.533 240.739 198.894 227.281 205.495 236.483C212.096 245.686 236.751 285.227 236.666 296.384C236.581 307.541 214.891 302.63 204.982 303.424C195.074 304.219 179.254 305.098 177.215 301.149C175.176 297.199 190.485 285.822 192.749 279.727C195.013 273.633 191.86 270.075 190.799 264.582C189.739 259.089 187.408 251.024 186.386 246.769C185.364 242.515 182.886 239.991 184.665 239.057V239.057Z" fill="#7F9E94"/>
<path fill-rule="evenodd" clip-rule="evenodd" d="M106.422 128.015C104.308 131.971 100.106 142.582 102.138 148.222C104.17 153.861 113.479 158.219 118.613 161.854C123.748 165.489 132.726 172.678 132.946 170.032C133.165 167.386 122.951 153.567 119.931 145.977C116.91 138.386 117.074 127.481 114.823 124.488C112.572 121.494 108.536 124.059 106.422 128.015V128.015Z" fill="#8CABD5"/>
<path fill-rule="evenodd" clip-rule="evenodd" d="M121.301 151.223C114.987 151.949 99.8926 157.594 90.6515 162.287C81.4105 166.981 73.0866 172.847 65.8543 179.384C58.6221 185.921 51.5623 189.833 47.258 201.511C42.9537 213.188 41.6132 235.553 40.0286 249.45C38.4439 263.347 34.9069 275.937 37.7502 284.892C40.5935 293.847 38.0928 299.746 57.0883 303.181C76.0839 306.616 128.969 306.245 151.724 305.503C174.479 304.761 187.382 307.906 193.618 298.731C199.854 289.556 192.586 264.479 189.142 250.455C185.698 236.431 180.072 225.536 172.955 214.585C165.838 203.634 153.843 194.19 146.439 184.748C139.035 175.305 132.721 163.516 128.532 157.929C124.342 152.341 127.614 150.497 121.301 151.223V151.223Z" fill="#CCCCCE"/>
<path fill-rule="evenodd" clip-rule="evenodd" d="M101.732 184.124C104.821 186.728 115.198 182.935 121.101 183.301C127.004 183.666 130.324 182.295 137.149 186.316C143.975 190.337 155.965 202.354 162.052 207.426C168.14 212.497 174.042 218.163 173.673 216.747C173.305 215.33 164.59 204.73 159.84 198.928C155.09 193.125 154.72 187.139 145.173 181.93C135.627 176.721 109.802 167.308 102.562 167.674C95.3219 168.04 98.6418 181.519 101.732 184.124V184.124Z" fill="#8B8381"/>
<path fill-rule="evenodd" clip-rule="evenodd" d="M103.787 120.478C100.465 122.91 99.2013 131.97 98.0207 137.316C96.8401 142.662 96.3191 148.062 96.7034 152.552C97.0878 157.043 99.6404 160.411 100.327 164.259C101.013 168.108 100.301 173.026 100.822 175.645C101.344 178.265 101.782 179.335 103.457 179.976C105.132 180.618 105.05 179.467 110.871 179.494C116.692 179.52 132.397 178.692 138.383 180.135C144.369 181.579 143.407 184.867 146.784 188.154C150.161 191.442 154.089 194.89 158.647 199.861C163.205 204.833 169.189 209.698 174.131 217.984C179.073 226.27 186.515 246.957 188.3 249.576C190.085 252.196 187.339 239.821 184.84 233.701C182.341 227.58 178.085 219.669 173.307 212.853C168.53 206.037 159.827 197.563 156.175 192.805C152.524 188.047 153.814 187.272 151.398 184.305C148.982 181.339 145.522 180.136 141.678 175.004C137.834 169.872 131.545 159.716 128.333 153.515C125.12 147.314 124.133 142.93 122.403 137.798C120.673 132.666 121.057 125.609 117.954 122.723C114.852 119.836 107.109 118.045 103.787 120.478V120.478Z" fill="#E3E7EA"/>
<path fill-rule="evenodd" clip-rule="evenodd" d="M83.7929 197.804C88.2135 204.513 96.8899 251.182 99.1141 268.208C101.338 285.235 99.8015 297.903 97.1382 299.962C94.4749 302.02 85.3585 287.666 83.1343 280.557C80.9101 273.447 85.5502 266.07 83.7929 257.303C82.0357 248.536 72.5906 237.872 72.5906 227.956C72.5906 218.039 79.3724 191.096 83.7929 197.804V197.804Z" fill="#8B8381"/>
<path fill-rule="evenodd" clip-rule="evenodd" d="M101.811 122.562C101.591 126.117 108.125 127.72 110.212 130.26C112.298 132.799 112.82 136.542 114.33 137.798C115.841 139.055 117.104 137.291 119.273 137.798C121.442 138.306 125.506 145.363 127.345 140.845C129.185 136.328 132.946 116.014 130.31 110.695C127.674 105.376 116.279 106.953 111.529 108.931C106.779 110.908 102.03 119.007 101.811 122.562V122.562Z" fill="#1F1A2D"/>
<path fill-rule="evenodd" clip-rule="evenodd" d="M74.7928 8.85784C66.3363 4.26069 71.828 6.77358 69.5218 5.97167C67.2156 5.16976 66.2277 2.70986 60.9558 4.04638C55.684 5.38289 44.2608 8.53814 37.8906 13.9908C31.5204 19.4434 25.8645 26.0174 22.7346 36.7622C19.6047 47.5071 19.3307 58.6805 19.1112 78.4598C18.8916 98.2391 19.4955 134.803 21.4173 155.438C23.3391 176.072 26.1938 192.484 30.6419 202.267C35.09 212.05 42.3947 209.591 48.1059 214.135C53.8172 218.679 61.8343 230.332 64.9095 229.53C67.9847 228.728 68.0397 219.587 66.557 209.323C65.0743 199.059 57.551 181.205 56.0133 167.947C54.4755 154.69 55.4635 127.854 57.3306 129.779C59.1976 131.703 64.5248 166.45 67.2156 179.494C69.9065 192.537 68.0391 208.522 73.4755 208.041C78.9118 207.56 95.9349 186.604 99.8339 176.607C103.733 166.611 95.7707 158.593 96.8691 148.062C97.9674 137.531 102.525 132.505 106.424 113.421C110.323 94.3361 125.533 50.9817 120.261 33.5546C114.989 16.1274 83.2493 13.455 74.7928 8.85783V8.85784Z" fill="#1F1A2D"/>
<path fill-rule="evenodd" clip-rule="evenodd" d="M52.3864 66.2705C44.5338 69.2105 52.8809 92.0376 55.6815 107.968C58.4821 123.899 65.6207 147.206 69.19 161.853C72.7593 176.501 72.8688 193.713 77.0973 195.851C81.3259 197.99 92.3099 183.342 94.5613 174.682C96.8128 166.022 89.2332 157.951 90.6059 143.892C91.9785 129.832 109.167 103.265 102.797 90.3278C96.4272 77.3909 60.239 63.3304 52.3864 66.2705H52.3864Z" fill="#02030B"/>
<path fill-rule="evenodd" clip-rule="evenodd" d="M70.1798 22.3304C71.2231 16.7172 59.5813 16.7175 55.6824 18.4815C51.7835 20.2455 47.8295 27.3013 46.7862 32.9145C45.7429 38.5277 45.5236 53.9248 49.4226 52.1608C53.3215 50.3968 69.1365 27.9437 70.1798 22.3304V22.3304Z" fill="#02030B"/>
<path fill-rule="evenodd" clip-rule="evenodd" d="M113.671 115.184C114.412 117.403 119.766 122.401 121.248 126.09C122.731 129.778 121.112 132.343 122.567 137.315C124.023 142.286 127.975 154.877 129.979 155.919C131.984 156.962 130.997 146.616 134.594 143.569C138.19 140.522 147.36 139.454 151.56 137.636C155.761 135.819 158.453 135.15 159.798 132.664C161.143 130.178 158.974 126.009 159.633 122.721C160.292 119.434 166.085 114.302 163.752 112.939C161.418 111.576 153.456 114.57 145.631 114.543C137.806 114.516 122.128 112.672 116.801 112.779C111.474 112.886 112.93 112.966 113.671 115.184V115.184Z" fill="#C59496"/>
<path fill-rule="evenodd" clip-rule="evenodd" d="M202.136 264.973C203.15 275.381 202.844 292.825 207.393 298.395C211.942 303.966 229.842 305.997 229.433 298.395C229.024 290.794 209.625 263.192 204.938 252.784C200.251 242.375 201.78 233.914 201.313 235.945C200.846 237.977 201.123 254.565 202.136 264.973V264.973Z" fill="#3B4E43"/>
<path fill-rule="evenodd" clip-rule="evenodd" d="M196.716 146.195C201.538 138.261 218.354 140.217 228.743 141.838C239.132 143.458 251.129 148.711 259.05 155.919C266.97 163.127 270.528 173.239 276.267 185.084C282.006 196.93 289.181 212.687 293.486 226.99C297.791 241.294 300.775 260.067 302.096 270.907C303.416 281.746 305.942 287.166 301.408 292.026C296.874 296.887 288.723 298.563 274.89 300.072C261.057 301.581 229.432 306.499 218.412 301.079C207.392 295.659 211.582 277.612 208.77 267.554C205.957 257.497 203.03 253.753 201.537 240.734C200.045 227.716 200.619 205.198 199.816 189.442C199.012 173.686 191.895 154.129 196.716 146.195V146.195Z" fill="#CCCCCE"/>
<path fill-rule="evenodd" clip-rule="evenodd" d="M76.8306 11.0046C77.1072 9.79359 76.1843 8.94746 75.308 8.12501C74.4317 7.30256 72.9099 6.20682 71.5725 6.06992C70.2352 5.93301 68.6443 6.27553 67.2838 7.30359C65.9233 8.33165 64.6779 10.502 63.4096 12.2383C62.1414 13.9746 59.8123 15.9393 59.6742 17.7211C59.536 19.5029 61.0817 22.1525 62.5806 22.9291C64.0795 23.7058 66.823 23.6373 68.6677 22.381C70.5123 21.1247 72.2878 17.2873 73.6483 15.3912C75.0088 13.4951 76.5539 12.2156 76.8306 11.0046V11.0046Z" fill="#CCCCCE"/>
<path fill-rule="evenodd" clip-rule="evenodd" d="M161.445 38.6877C158.645 26.2322 152.659 24.3605 145.959 18.1595C139.26 11.9585 132.066 3.40632 121.248 1.48192C110.43 -0.442486 90.2767 3.83348 81.0511 6.61308C71.8256 9.39267 71.0569 11.7981 65.8951 18.1595C60.7333 24.5209 53.3752 36.1748 50.0804 44.7815C46.7857 53.3882 45.303 63.0641 46.1268 69.7996C46.9505 76.5352 50.4103 79.3145 55.023 85.1949C59.6356 91.0752 66.9931 100.271 73.8024 105.082C80.6117 109.893 89.7284 113.207 95.8788 114.062C102.029 114.917 99.5572 113.741 110.705 110.213C121.852 106.685 154.306 104.813 162.763 92.8925C171.22 80.9716 164.246 51.1432 161.445 38.6877V38.6877Z" fill="#1F1A2D"/>
<path fill-rule="evenodd" clip-rule="evenodd" d="M265.502 181.286C264.294 190.507 272.916 245.915 274.564 261.791C276.211 277.668 272.532 274.033 275.387 276.545C278.243 279.058 288.43 279.54 291.697 276.867C294.965 274.194 296.64 272.243 294.992 260.509C293.345 248.775 286.727 219.667 281.812 206.463C276.897 193.259 266.71 172.065 265.502 181.286V181.286Z" fill="#8B8381"/>
<path fill-rule="evenodd" clip-rule="evenodd" d="M183.685 100.59C187.831 101.365 194.064 106.15 199.83 110.053C205.596 113.955 212.597 119.862 218.281 124.005C223.965 128.148 233.246 131.168 233.933 134.91C234.619 138.652 227.178 142.128 222.4 146.458C217.622 150.788 208.781 158.271 205.266 160.891C201.752 163.51 200.708 161.427 201.312 162.175C201.917 162.923 208.452 164.232 208.891 165.381C209.331 166.53 205.487 166.077 203.949 169.071C202.411 172.064 199.995 179.414 199.665 183.343C199.335 187.271 201.697 186.256 201.971 192.644C202.246 199.032 201.45 214.401 201.312 221.672C201.175 228.942 201.586 237.71 201.147 236.267C200.708 234.823 199.2 221.217 198.678 213.011C198.156 204.806 198.594 193.661 198.017 187.032C197.441 180.404 195.63 177.943 195.218 173.239C194.806 168.535 196.864 164.5 195.546 158.807C194.228 153.113 190.056 145.201 187.31 139.08C184.565 132.959 181.132 127.694 179.073 122.081C177.013 116.468 174.185 108.984 174.954 105.402C175.723 101.82 179.539 99.8153 183.685 100.59V100.59Z" fill="#E3E7EA"/>
<path fill-rule="evenodd" clip-rule="evenodd" d="M177.92 107.646C179.897 108.181 186.378 111.283 187.477 115.346C188.575 119.408 186.487 132.558 184.51 132.024C182.533 131.489 176.712 116.201 175.614 112.138C174.516 108.075 175.943 107.111 177.92 107.646V107.646Z" fill="#CCCCCE"/>
<path fill-rule="evenodd" clip-rule="evenodd" d="M123.227 10.784C117.021 8.9665 114.275 8.85963 109.058 10.784C103.841 12.7084 97.527 16.3968 91.9259 22.3305C86.3247 28.2641 76.2745 40.2919 75.4507 46.386C74.627 52.4801 84.8964 53.1751 86.9833 58.8951C89.0702 64.615 85.9403 75.0392 87.9722 80.7056C90.0041 86.372 98.0762 90.1133 99.1746 92.8932C100.273 95.6731 97.1433 96.4494 94.5622 97.385C91.9812 98.3205 86.1045 97.5978 83.6883 98.5066C81.2721 99.4153 80.3942 101.421 80.0649 102.838C79.7355 104.254 79.9003 105.162 81.7124 107.006C83.5244 108.85 87.4775 111.951 90.937 113.902C94.3965 115.853 99.3122 117.697 102.47 118.713C105.627 119.729 107.63 120.372 109.882 119.997C112.133 119.623 113.04 115.747 115.978 116.468C118.916 117.19 123.885 123.07 127.509 124.327C131.133 125.583 132.068 125.288 137.724 124.005C143.38 122.722 154.362 119.034 161.446 116.629C168.53 114.224 176.054 112.513 180.228 109.573C184.401 106.633 185.609 102.196 186.487 98.9888C187.366 95.7814 185.938 93.6966 185.498 90.3285C185.059 86.9604 184.51 83.2709 183.851 78.7803C183.192 74.2897 183.522 69.3187 181.545 63.3851C179.568 57.4514 175.889 48.417 171.99 43.1784C168.091 37.9397 162.434 35.5349 158.151 31.9534C153.868 28.3719 152.111 25.2175 146.29 21.6893C140.469 18.1611 129.432 12.6016 123.227 10.784V10.784Z" fill="#D3ADB4"/>
<path fill-rule="evenodd" clip-rule="evenodd" d="M168.364 74.2092C168.35 74.9979 170.945 77.3498 171.659 77.2561C172.373 77.1625 172.634 74.4362 172.648 73.6475C172.662 72.8588 172.457 72.4305 171.743 72.5241C171.029 72.6177 168.378 73.4205 168.364 74.2092V74.2092Z" fill="#7D4443"/>
<path fill-rule="evenodd" clip-rule="evenodd" d="M157.738 80.7057C155.569 82.6569 150.155 88.5578 148.43 90.7298C146.705 92.9019 145.798 93.2702 147.39 93.738C148.983 94.2058 153.872 95.5617 157.985 93.5366C162.098 91.5115 170.327 84.8481 172.07 81.5871C173.814 78.3261 169.765 74.7589 168.447 73.9705C167.129 73.1821 165.33 76.0148 164.163 76.8567C162.996 77.6987 162.516 78.3808 161.445 79.0223C160.374 79.6638 159.907 78.7544 157.738 80.7057V80.7057Z" fill="#D5C8D2"/>
<path fill-rule="evenodd" clip-rule="evenodd" d="M146.536 93.2144C148.294 91.9582 156.723 83.8724 159.633 81.5069C162.543 79.1415 163.01 79.7167 163.999 79.0217C164.987 78.3266 165.029 77.9516 165.564 77.3366C166.1 76.7216 166.169 76.0669 167.212 75.3318C168.255 74.5967 171.11 72.752 171.824 72.926C172.538 73.1 171.482 75.3197 171.496 76.3757C171.509 77.4317 172.359 77.9121 171.906 79.2619C171.453 80.6117 171.137 82.4699 168.776 84.4744C166.415 86.4789 161.514 89.7788 157.739 91.289C153.963 92.7993 146.166 92.9612 146.124 93.5358C146.083 94.1105 153.291 95.4721 157.492 94.737C161.693 94.0019 168.42 91.3303 171.331 89.1253C174.241 86.9202 174.68 84.0732 174.954 81.5069C175.229 78.9407 173.678 75.2782 172.978 73.7279C172.278 72.1776 172.223 72.0716 170.754 72.2053C169.285 72.339 165.564 73.7279 164.164 74.5298C162.763 75.3318 163.257 76.4422 162.351 77.0169C161.445 77.5915 159.977 77.0021 158.728 77.9778C157.478 78.9534 156.462 81.0262 154.856 82.8706C153.249 84.7149 150.476 87.32 149.089 89.044C147.703 90.768 144.779 94.4705 146.536 93.2144V93.2144Z" fill="#BB8185"/>
<path fill-rule="evenodd" clip-rule="evenodd" d="M160.292 62.5826C160.099 61.8607 159.304 63.224 158.316 64.1864C157.327 65.1488 156.037 67.448 154.362 68.3568C152.687 69.2656 150.217 68.5434 148.267 69.6392C146.318 70.7349 141.843 73.2473 142.666 74.9312C143.49 76.6151 151.067 80.117 153.208 79.7428C155.349 79.3686 154.471 74.557 155.514 72.6862C156.558 70.8153 158.673 70.2015 159.47 68.5175C160.266 66.8336 160.484 63.3044 160.292 62.5826V62.5826Z" fill="#C59496"/>
<path fill-rule="evenodd" clip-rule="evenodd" d="M142.007 55.2062C139.81 53.8161 136.956 52.6924 135.253 52.3182C133.551 51.944 131.93 51.3573 131.793 52.9612C131.656 54.565 133.221 60.8989 134.429 61.9414C135.638 62.9838 137.504 58.9753 139.042 59.2159C140.579 59.4564 142.089 63.144 143.654 63.3845C145.219 63.625 148.706 62.022 148.432 60.659C148.157 59.2959 144.203 56.5963 142.007 55.2062V55.2062Z" fill="#C59496"/>
<path fill-rule="evenodd" clip-rule="evenodd" d="M142.006 39.6516C141.512 41.3891 141.815 44.3292 143.16 45.9062C144.506 47.4833 149.804 49.4348 150.079 49.1139C150.353 48.793 145.467 46.253 144.808 43.9809C144.149 41.7088 146.592 36.2028 146.125 35.4812C145.658 34.7597 142.5 37.9141 142.006 39.6516V39.6516Z" fill="#C59496"/>
<path fill-rule="evenodd" clip-rule="evenodd" d="M123.226 45.7432C124.709 45.8501 127.399 47.0262 126.191 47.9883C124.983 48.9504 119.327 49.324 115.977 51.5157C112.628 53.7075 108.564 58.3053 106.092 61.1389C103.621 63.9724 101.26 69.3722 101.15 68.517C101.04 67.6618 102.743 59.5359 105.434 56.0076C108.125 52.4793 114.329 49.0578 117.295 47.3471C120.26 45.6364 121.743 45.6364 123.226 45.7432V45.7432Z" fill="#403340"/>
<path fill-rule="evenodd" clip-rule="evenodd" d="M139.055 31.5317C138.02 33.1303 138.111 35.0901 139.372 34.5187C140.633 33.9472 144.485 29.3794 146.621 28.1032C148.757 26.827 151.6 27.3695 152.189 26.8614C152.779 26.3533 151.259 25.3768 150.157 25.0544C149.055 24.732 147.428 23.8477 145.578 24.9272C143.727 26.0068 140.089 29.9331 139.055 31.5317V31.5317Z" fill="#403340"/>
<path fill-rule="evenodd" clip-rule="evenodd" d="M177.852 236.449C177.01 235.853 176.089 235.573 175.218 235.861C174.347 236.148 172.956 237.073 172.625 238.173C172.293 239.273 172.495 241.349 173.229 242.463C173.964 243.578 175.873 244.757 177.032 244.862C178.192 244.968 179.646 244 180.186 243.096C180.726 242.191 180.662 240.544 180.273 239.436C179.884 238.328 178.695 237.045 177.852 236.449V236.449Z" fill="#ABA7A1"/>
<path fill-rule="evenodd" clip-rule="evenodd" d="M186.821 290.049C187.037 289.141 188.659 290.02 189.233 289.461C189.807 288.902 189.792 287.046 190.265 286.697C190.739 286.348 191.687 286.305 192.074 287.366C192.462 288.428 192.59 291.572 192.59 293.066C192.59 294.561 192.505 295.943 192.074 296.334C191.644 296.725 190.381 295.775 190.008 295.412C189.634 295.049 190.18 294.24 189.835 294.156C189.491 294.072 188.443 295.595 187.941 294.91C187.439 294.226 186.606 290.958 186.821 290.049V290.049Z" fill="#ABA7A1"/>
<path fill-rule="evenodd" clip-rule="evenodd" d="M178.477 140.606C177.647 141.977 175.527 151.035 176.081 156.289C176.634 161.543 179.969 171.228 181.798 172.132C183.627 173.036 187.178 165.726 187.055 161.715C186.932 157.703 182.491 151.582 181.061 148.064C179.632 144.546 179.308 139.236 178.477 140.606V140.606Z" fill="#C59496"/>
</svg>
