<svg width="285" height="305" viewBox="0 0 285 305" fill="none" xmlns="http://www.w3.org/2000/svg">
<path fill-rule="evenodd" clip-rule="evenodd" d="M97.1425 115.339C97.4446 117.638 101.563 122.37 102.579 125.925C103.594 129.48 103.677 129.399 103.237 136.669C102.798 143.94 95.7412 161.796 99.9422 169.546C104.143 177.296 119.767 175.689 128.443 183.168C137.12 190.646 145.356 204.744 152 214.418C158.645 224.091 163.89 236.558 168.31 241.209C172.731 245.86 176.272 243.046 178.524 242.324C180.775 241.601 181.27 242.189 181.819 236.873C182.368 231.557 182.011 220.876 181.819 210.427C181.627 199.979 180.665 182.763 180.665 174.183C180.665 165.602 182.038 163.248 181.819 158.944C181.599 154.641 180.94 151.136 179.348 148.359C177.755 145.582 174.159 144.151 172.264 142.283C170.37 140.415 170.808 143.217 167.98 137.15C165.152 131.082 157.849 112.399 155.295 105.877C152.742 99.3555 161.747 96.978 152.659 98.0205C143.571 99.0629 110.019 109.245 100.766 112.132C91.5132 115.018 96.8404 113.04 97.1425 115.339Z" fill="#D3ADB4"/>
<path fill-rule="evenodd" clip-rule="evenodd" d="M172.208 139.161C170.371 139.664 173.699 145.252 174.273 149.554C174.847 153.856 176.396 160.56 175.65 164.974C174.904 169.388 169.682 170.786 169.797 176.038C169.912 181.29 175.651 189.112 176.34 196.487C177.028 203.862 172.608 212.803 173.928 220.29C175.248 227.777 179.553 239.622 184.26 241.41C188.966 243.198 201.996 246.829 202.168 231.017C202.341 215.205 190.287 161.846 185.294 146.537C180.301 131.228 174.045 138.658 172.208 139.161Z" fill="#C59496"/>
<path fill-rule="evenodd" clip-rule="evenodd" d="M160.497 117.37C158.66 118.6 163.769 139.442 166.007 144.862C168.246 150.282 171.976 150.17 173.927 149.891C175.879 149.612 177.199 145.253 177.716 143.186C178.233 141.118 179.898 141.788 177.028 137.486C174.158 133.183 162.334 116.141 160.497 117.37Z" fill="#B1766F"/>
<path fill-rule="evenodd" clip-rule="evenodd" d="M165.665 238.057C167.445 237.124 174.589 240.597 178.061 240.168C181.533 239.739 179.894 226.281 186.495 235.483C193.096 244.686 217.751 284.227 217.666 295.384C217.581 306.541 195.891 301.63 185.982 302.424C176.074 303.219 160.254 304.098 158.215 300.149C156.176 296.199 171.485 284.822 173.749 278.727C176.013 272.633 172.86 269.075 171.799 263.582C170.739 258.089 168.408 250.024 167.386 245.769C166.364 241.515 163.886 238.991 165.665 238.057Z" fill="#7F9E94"/>
<path fill-rule="evenodd" clip-rule="evenodd" d="M87.4219 127.015C85.3078 130.971 81.1061 141.582 83.138 147.222C85.1699 152.861 94.4786 157.219 99.6132 160.854C104.748 164.489 113.726 171.678 113.945 169.032C114.165 166.386 103.951 152.567 100.93 144.977C97.91 137.386 98.0742 126.481 95.8228 123.488C93.5714 120.494 89.536 123.059 87.4219 127.015Z" fill="#8CABD5"/>
<path fill-rule="evenodd" clip-rule="evenodd" d="M102.301 150.223C95.9875 150.95 80.8928 156.594 71.6518 161.287C62.4108 165.981 54.0868 171.847 46.8546 178.384C39.6223 184.921 32.5625 188.833 28.2582 200.511C23.9539 212.188 22.6134 234.553 21.0288 248.45C19.4442 262.347 15.9071 274.937 18.7504 283.892C21.5937 292.847 19.093 298.746 38.0886 302.181C57.0841 305.616 109.969 305.245 132.724 304.503C155.479 303.761 168.382 306.906 174.618 297.731C180.855 288.556 173.586 263.48 170.143 249.455C166.699 235.431 161.073 224.537 153.955 213.585C146.838 202.634 134.843 193.19 127.439 183.748C120.035 174.305 113.722 162.516 109.532 156.929C105.342 151.341 108.614 149.497 102.301 150.223Z" fill="#CCCCCE"/>
<path fill-rule="evenodd" clip-rule="evenodd" d="M82.7313 183.124C85.8211 185.728 96.1977 181.935 102.101 182.301C108.004 182.666 111.324 181.295 118.149 185.316C124.974 189.337 136.965 201.354 143.052 206.426C149.14 211.497 155.042 217.163 154.673 215.747C154.304 214.33 145.589 203.73 140.839 197.928C136.089 192.125 135.719 186.139 126.173 180.93C116.627 175.721 90.8022 166.308 83.5619 166.674C76.3216 167.04 79.6415 180.519 82.7313 183.124Z" fill="#8B8381"/>
<path fill-rule="evenodd" clip-rule="evenodd" d="M84.787 119.478C81.4648 121.91 80.2013 130.97 79.0207 136.316C77.8401 141.662 77.3191 147.062 77.7034 151.552C78.0878 156.043 80.6404 159.411 81.3269 163.259C82.0134 167.108 81.3006 172.026 81.8222 174.645C82.3439 177.265 82.7821 178.335 84.4568 178.976C86.1315 179.618 86.0496 178.467 91.8706 178.494C97.6917 178.52 113.397 177.692 119.383 179.135C125.369 180.579 124.407 183.867 127.784 187.154C131.161 190.442 135.089 193.89 139.647 198.861C144.205 203.833 150.189 208.698 155.131 216.984C160.073 225.27 167.515 245.957 169.3 248.576C171.085 251.196 168.339 238.821 165.84 232.701C163.341 226.58 159.085 218.669 154.307 211.853C149.53 205.037 140.827 196.563 137.175 191.805C133.524 187.047 134.814 186.272 132.398 183.305C129.982 180.339 126.522 179.136 122.678 174.004C118.834 168.872 112.545 158.716 109.333 152.515C106.12 146.314 105.133 141.93 103.403 136.798C101.673 131.666 102.057 124.609 98.9542 121.723C95.8515 118.836 88.1093 117.045 84.787 119.478Z" fill="#E3E7EA"/>
<path fill-rule="evenodd" clip-rule="evenodd" d="M64.7932 196.804C69.2138 203.513 77.8901 250.182 80.1143 267.208C82.3385 284.234 80.8017 296.903 78.1384 298.961C75.4751 301.02 66.3587 286.666 64.1345 279.557C61.9103 272.447 66.5505 265.07 64.7932 256.303C63.0359 247.536 53.5908 236.872 53.5908 226.955C53.5908 217.039 60.3726 190.096 64.7932 196.804Z" fill="#8B8381"/>
<path fill-rule="evenodd" clip-rule="evenodd" d="M82.8111 121.562C82.5915 125.117 89.1253 126.72 91.2119 129.26C93.2985 131.799 93.8205 135.542 95.3307 136.798C96.8409 138.055 98.1041 136.291 100.273 136.798C102.442 137.306 106.506 144.363 108.346 139.845C110.185 135.328 113.947 115.014 111.311 109.695C108.674 104.376 97.2791 105.953 92.5292 107.931C87.7793 109.908 83.0306 118.007 82.8111 121.562Z" fill="#1F1A2D"/>
<path fill-rule="evenodd" clip-rule="evenodd" d="M55.7928 7.85781C47.3363 3.26066 52.828 5.77355 50.5218 4.97164C48.2156 4.16973 47.2277 1.70983 41.9558 3.04635C36.684 4.38286 25.2608 7.53811 18.8906 12.9907C12.5204 18.4434 6.86451 25.0173 3.7346 35.7622C0.604683 46.507 0.330702 57.6805 0.111155 77.4598C-0.108393 97.2391 0.495514 133.803 2.41731 154.438C4.33911 175.072 7.19383 191.484 11.6419 201.267C16.09 211.049 23.3947 208.591 29.1059 213.135C34.8172 217.678 42.8343 229.332 45.9095 228.53C48.9847 227.728 49.0397 218.587 47.557 208.323C46.0743 198.059 38.551 180.204 37.0133 166.947C35.4755 153.69 36.4635 126.854 38.3306 128.779C40.1976 130.703 45.5248 165.45 48.2156 178.493C50.9065 191.537 49.0391 207.522 54.4755 207.041C59.9118 206.56 76.9349 185.604 80.8339 175.607C84.7328 165.611 76.7707 157.593 77.8691 147.062C78.9674 136.531 83.5253 131.505 87.4239 112.421C91.3226 93.3361 106.533 49.9817 101.261 32.5545C95.989 15.1274 64.2493 12.455 55.7928 7.8578V7.85781Z" fill="#1F1A2D"/>
<path fill-rule="evenodd" clip-rule="evenodd" d="M33.3867 65.2705C25.5341 68.2106 33.8811 91.0377 36.6817 106.968C39.4823 122.899 46.6209 146.206 50.1902 160.853C53.7595 175.501 53.869 192.713 58.0976 194.852C62.3261 196.99 73.3102 182.342 75.5616 173.682C77.813 165.022 70.2335 156.951 71.6061 142.892C72.9787 128.833 90.1672 102.265 83.7973 89.3279C77.4274 76.391 41.2393 62.3305 33.3867 65.2705H33.3867Z" fill="#02030B"/>
<path fill-rule="evenodd" clip-rule="evenodd" d="M51.1798 21.3305C52.2231 15.7173 40.5813 15.7175 36.6824 17.4816C32.7835 19.2456 28.8295 26.3013 27.7862 31.9145C26.7429 37.5278 26.5236 52.9249 30.4226 51.1609C34.3215 49.3968 50.1365 26.9437 51.1798 21.3305Z" fill="#02030B"/>
<path fill-rule="evenodd" clip-rule="evenodd" d="M94.6712 114.184C95.4124 116.403 100.766 121.401 102.248 125.09C103.731 128.778 102.112 131.343 103.567 136.315C105.023 141.286 108.975 153.877 110.979 154.919C112.984 155.962 111.997 145.616 115.594 142.569C119.19 139.522 128.36 138.454 132.56 136.636C136.761 134.819 139.453 134.15 140.798 131.664C142.143 129.178 139.974 125.009 140.633 121.721C141.292 118.434 147.085 113.302 144.752 111.939C142.418 110.576 134.456 113.57 126.631 113.543C118.806 113.517 103.128 111.672 97.8011 111.779C92.4745 111.886 93.93 111.966 94.6712 114.184Z" fill="#C59496"/>
<path fill-rule="evenodd" clip-rule="evenodd" d="M183.136 263.973C184.15 274.381 183.844 291.825 188.393 297.395C192.942 302.966 210.842 304.997 210.433 297.395C210.024 289.793 190.625 262.192 185.938 251.784C181.251 241.375 182.78 232.914 182.313 234.945C181.846 236.977 182.123 253.565 183.136 263.973Z" fill="#3B4E43"/>
<path fill-rule="evenodd" clip-rule="evenodd" d="M177.716 145.195C182.538 137.261 199.354 139.217 209.743 140.838C220.132 142.458 232.129 147.711 240.05 154.919C247.97 162.127 251.528 172.239 257.267 184.084C263.006 195.93 270.181 211.687 274.486 225.99C278.791 240.294 281.775 259.067 283.096 269.907C284.416 280.746 286.942 286.166 282.408 291.026C277.874 295.887 269.723 297.563 255.89 299.072C242.057 300.581 210.432 305.499 199.412 300.079C188.392 294.659 192.582 276.611 189.77 266.554C186.957 256.497 184.03 252.753 182.537 239.734C181.045 226.716 181.619 204.198 180.816 188.442C180.012 172.685 172.895 153.129 177.716 145.195Z" fill="#CCCCCE"/>
<path fill-rule="evenodd" clip-rule="evenodd" d="M57.8306 10.0046C58.1072 8.79356 57.1843 7.94743 56.308 7.12498C55.4317 6.30253 53.9099 5.20679 52.5725 5.06988C51.2352 4.93298 49.6443 5.2755 48.2838 6.30356C46.9233 7.33162 45.6779 9.50201 44.4096 11.2383C43.1414 12.9745 40.8123 14.9393 40.6742 16.7211C40.536 18.5029 42.0817 21.1525 43.5806 21.9291C45.0795 22.7057 47.823 22.6373 49.6677 21.381C51.5123 20.1246 53.2878 16.2872 54.6483 14.3912C56.0088 12.4951 57.5539 11.2156 57.8306 10.0046Z" fill="#CCCCCE"/>
<path fill-rule="evenodd" clip-rule="evenodd" d="M142.446 37.6877C139.645 25.2322 133.659 23.3605 126.959 17.1595C120.26 10.9585 113.066 2.40632 102.248 0.481919C91.4304 -1.44249 71.2768 2.83348 62.0513 5.61308C52.8257 8.39267 52.057 10.7981 46.8952 17.1595C41.7334 23.5209 34.3753 35.1748 31.0805 43.7815C27.7858 52.3882 26.3031 62.0641 27.1269 68.7996C27.9506 75.5352 31.4105 78.3145 36.0231 84.1948C40.6357 90.0752 47.9933 99.2707 54.8026 104.082C61.6119 108.893 70.7285 112.207 76.8789 113.062C83.0292 113.917 80.5574 112.741 91.7047 109.213C102.852 105.685 135.306 103.813 143.763 91.8925C152.22 79.9716 145.246 50.1432 142.446 37.6877Z" fill="#1F1A2D"/>
<path fill-rule="evenodd" clip-rule="evenodd" d="M246.502 180.286C245.294 189.507 253.916 244.915 255.564 260.791C257.211 276.668 253.532 273.033 256.387 275.545C259.243 278.058 269.43 278.54 272.697 275.867C275.965 273.194 277.64 271.243 275.992 259.509C274.345 247.775 267.727 218.667 262.812 205.463C257.897 192.259 247.71 171.065 246.502 180.286Z" fill="#8B8381"/>
<path fill-rule="evenodd" clip-rule="evenodd" d="M164.685 99.5904C168.831 100.366 175.064 105.15 180.83 109.053C186.596 112.955 193.598 118.862 199.281 123.005C204.965 127.148 214.246 130.168 214.933 133.91C215.619 137.652 208.178 141.128 203.4 145.458C198.622 149.788 189.781 157.271 186.266 159.891C182.752 162.51 181.709 160.427 182.313 161.175C182.917 161.923 189.452 163.232 189.892 164.381C190.331 165.53 186.487 165.077 184.949 168.071C183.411 171.064 180.995 178.414 180.665 182.343C180.336 186.271 182.697 185.256 182.971 191.644C183.246 198.032 182.45 213.401 182.313 220.672C182.175 227.942 182.587 236.71 182.148 235.267C181.709 233.824 180.2 220.217 179.678 212.012C179.157 203.806 179.594 192.661 179.018 186.032C178.441 179.404 176.63 176.944 176.218 172.239C175.806 167.535 177.864 163.5 176.546 157.807C175.229 152.113 171.056 144.201 168.311 138.08C165.565 131.959 162.133 126.694 160.073 121.081C158.014 115.468 155.186 107.984 155.954 104.402C156.723 100.82 160.539 98.8153 164.685 99.5904Z" fill="#E3E7EA"/>
<path fill-rule="evenodd" clip-rule="evenodd" d="M158.92 106.646C160.897 107.181 167.379 110.283 168.477 114.346C169.575 118.408 167.487 131.558 165.51 131.023C163.533 130.489 157.712 115.201 156.614 111.138C155.516 107.075 156.943 106.111 158.92 106.646Z" fill="#CCCCCE"/>
<path fill-rule="evenodd" clip-rule="evenodd" d="M104.227 9.78401C98.0214 7.96647 95.2747 7.8596 90.0578 9.78401C84.841 11.7084 78.527 15.3968 72.9259 21.3304C67.3247 27.2641 57.2745 39.2919 56.4507 45.386C55.627 51.4801 65.8964 52.1751 67.9833 57.895C70.0702 63.615 66.9403 74.0392 68.9722 79.7056C71.0041 85.3719 79.0762 89.1133 80.1746 91.8932C81.2729 94.6731 78.1433 95.4494 75.5622 96.3849C72.9812 97.3205 67.1045 96.5978 64.6883 97.5065C62.2721 98.4153 61.3942 100.421 61.0649 101.838C60.7355 103.254 60.9003 104.162 62.7124 106.006C64.5244 107.85 68.4775 110.951 71.937 112.902C75.3965 114.853 80.3122 116.697 83.4696 117.713C86.627 118.729 88.6302 119.372 90.8816 118.997C93.133 118.623 94.0402 114.747 96.9781 115.468C99.916 116.19 104.885 122.07 108.509 123.327C112.133 124.583 113.068 124.288 118.724 123.005C124.38 121.722 135.362 118.034 142.446 115.629C149.53 113.224 157.054 111.513 161.228 108.573C165.401 105.632 166.609 101.196 167.487 97.9888C168.366 94.7814 166.938 92.6966 166.498 89.3285C166.059 85.9604 165.51 82.2708 164.851 77.7803C164.192 73.2897 164.522 68.3187 162.545 62.385C160.568 56.4514 156.889 47.4169 152.99 42.1783C149.091 36.9397 143.434 34.5349 139.151 30.9534C134.868 27.3719 133.111 24.2175 127.29 20.6893C121.469 17.161 110.432 11.6016 104.227 9.78401V9.78401Z" fill="#D3ADB4"/>
<path fill-rule="evenodd" clip-rule="evenodd" d="M149.364 73.2093C149.35 73.9979 151.945 76.3498 152.659 76.2562C153.373 76.1626 153.634 73.4362 153.648 72.6476C153.662 71.8589 153.457 71.4306 152.743 71.5242C152.029 71.6178 149.378 72.4206 149.364 73.2093Z" fill="#7D4443"/>
<path fill-rule="evenodd" clip-rule="evenodd" d="M138.738 79.7056C136.569 81.6569 131.155 87.5578 129.43 89.7298C127.705 91.9019 126.798 92.2701 128.39 92.7379C129.983 93.2057 134.872 94.5617 138.985 92.5366C143.098 90.5114 151.327 83.8481 153.07 80.5871C154.814 77.326 150.765 73.7589 149.447 72.9705C148.129 72.1821 146.33 75.0147 145.163 75.8567C143.996 76.6987 143.516 77.3808 142.445 78.0223C141.374 78.6638 140.907 77.7544 138.738 79.7056Z" fill="#D5C8D2"/>
<path fill-rule="evenodd" clip-rule="evenodd" d="M127.537 92.2144C129.294 90.9582 137.723 82.8724 140.633 80.5069C143.544 78.1415 144.01 78.7167 144.999 78.0217C145.987 77.3266 146.029 76.9516 146.565 76.3366C147.1 75.7216 147.169 75.0669 148.212 74.3318C149.255 73.5967 152.11 71.752 152.824 71.926C153.538 72.1 152.482 74.3197 152.496 75.3757C152.51 76.4317 153.359 76.9121 152.906 78.2619C152.453 79.6117 152.137 81.4699 149.776 83.4744C147.415 85.4789 142.514 88.7788 138.739 90.289C134.964 91.7993 127.166 91.9612 127.125 92.5358C127.084 93.1105 134.291 94.4721 138.492 93.737C142.693 93.0019 149.421 90.3303 152.331 88.1253C155.241 85.9202 155.68 83.0732 155.954 80.5069C156.229 77.9407 154.679 74.2782 153.978 72.7279C153.278 71.1776 153.223 71.0716 151.754 71.2053C150.285 71.339 146.564 72.7279 145.164 73.5298C143.763 74.3318 144.257 75.4422 143.351 76.0169C142.445 76.5915 140.977 76.0021 139.728 76.9778C138.479 77.9534 137.462 80.0262 135.856 81.8706C134.249 83.7149 131.476 86.32 130.089 88.044C128.703 89.768 125.779 93.4705 127.537 92.2144Z" fill="#BB8185"/>
<path fill-rule="evenodd" clip-rule="evenodd" d="M141.292 61.5825C141.1 60.8606 140.304 62.224 139.316 63.1864C138.328 64.1487 137.037 66.4479 135.362 67.3567C133.688 68.2655 131.217 67.5434 129.268 68.6391C127.318 69.7349 122.843 72.2472 123.666 73.9312C124.49 75.6151 132.067 79.1169 134.208 78.7427C136.35 78.3686 135.471 73.557 136.514 71.6861C137.558 69.8152 139.674 69.2014 140.47 67.5175C141.266 65.8335 141.484 62.3043 141.292 61.5825Z" fill="#C59496"/>
<path fill-rule="evenodd" clip-rule="evenodd" d="M123.007 54.2063C120.81 52.8161 117.956 51.6924 116.253 51.3183C114.551 50.9441 112.93 50.3574 112.793 51.9612C112.656 53.5651 114.221 59.899 115.429 60.9414C116.638 61.9839 118.504 57.9754 120.042 58.2159C121.579 58.4564 123.089 62.144 124.654 62.3845C126.219 62.6251 129.706 61.0221 129.432 59.659C129.157 58.296 125.203 55.5964 123.007 54.2063Z" fill="#C59496"/>
<path fill-rule="evenodd" clip-rule="evenodd" d="M123.006 38.6516C122.512 40.389 122.815 43.3291 124.16 44.9062C125.506 46.4832 130.804 48.4347 131.079 48.1139C131.353 47.793 126.467 45.253 125.808 42.9809C125.149 40.7088 127.592 35.2028 127.125 34.4812C126.658 33.7597 123.5 36.9141 123.006 38.6516Z" fill="#C59496"/>
<path fill-rule="evenodd" clip-rule="evenodd" d="M104.226 44.7433C105.709 44.8502 108.399 46.0263 107.191 46.9883C105.983 47.9504 100.327 48.324 96.9772 50.5158C93.6274 52.7075 89.5634 57.3054 87.0921 60.1389C84.6208 62.9725 82.2593 68.3722 82.1495 67.517C82.0398 66.6618 83.7426 58.536 86.4334 55.0076C89.1243 51.4793 95.3291 48.0579 98.2945 46.3472C101.26 44.6364 102.743 44.6364 104.226 44.7433Z" fill="#403340"/>
<path fill-rule="evenodd" clip-rule="evenodd" d="M120.054 30.5317C119.02 32.1303 119.111 34.0901 120.372 33.5187C121.633 32.9472 125.485 28.3794 127.621 27.1032C129.757 25.827 132.6 26.3695 133.189 25.8614C133.779 25.3533 132.259 24.3768 131.157 24.0544C130.055 23.732 128.428 22.8477 126.577 23.9272C124.727 25.0068 121.089 28.9331 120.054 30.5317Z" fill="#403340"/>
<path fill-rule="evenodd" clip-rule="evenodd" d="M158.852 235.449C158.01 234.853 157.089 234.573 156.218 234.861C155.347 235.148 153.956 236.072 153.625 237.173C153.293 238.273 153.495 240.349 154.229 241.463C154.964 242.578 156.873 243.757 158.032 243.862C159.192 243.967 160.646 243 161.186 242.096C161.726 241.191 161.662 239.544 161.273 238.436C160.884 237.328 159.695 236.045 158.852 235.449Z" fill="#ABA7A1"/>
<path fill-rule="evenodd" clip-rule="evenodd" d="M167.821 289.049C168.037 288.141 169.659 289.02 170.233 288.461C170.807 287.902 170.792 286.046 171.265 285.697C171.739 285.348 172.687 285.305 173.074 286.366C173.462 287.428 173.59 290.572 173.59 292.066C173.59 293.561 173.505 294.943 173.074 295.334C172.644 295.725 171.381 294.775 171.008 294.412C170.634 294.049 171.18 293.24 170.835 293.156C170.491 293.072 169.443 294.595 168.941 293.91C168.439 293.226 167.606 289.958 167.821 289.049Z" fill="#ABA7A1"/>
<path fill-rule="evenodd" clip-rule="evenodd" d="M159.477 139.606C158.647 140.977 156.527 150.035 157.081 155.289C157.634 160.543 160.969 170.228 162.798 171.132C164.627 172.036 168.178 164.726 168.055 160.715C167.932 156.703 163.491 150.582 162.061 147.064C160.632 143.546 160.308 138.236 159.477 139.606Z" fill="#C59496"/>
</svg>
