<svg width="323" height="313" viewBox="0 0 323 313" fill="none" xmlns="http://www.w3.org/2000/svg">
<path fill-rule="evenodd" clip-rule="evenodd" d="M0 3H323V312H0V3Z" fill="white"/>
<path fill-rule="evenodd" clip-rule="evenodd" d="M76.7241 186.858C66.7379 190.958 62.2746 193.072 57.0024 198.388C51.7302 203.705 48.9367 210.558 45.0907 218.758C41.2447 226.958 36.3454 236.76 33.9264 247.586C31.5073 258.412 31.0106 275.195 30.5764 283.715C30.1423 292.235 24.5605 295.503 31.3216 298.705C38.0827 301.908 53.5891 301.075 71.143 302.932C88.697 304.79 115.609 309.401 136.645 309.851C157.681 310.301 177.077 305.246 197.36 305.631C217.642 306.015 242.408 312.096 258.341 312.158C274.273 312.221 288.548 314.207 292.952 306.007C297.356 297.807 286.563 273.595 284.764 262.961C282.966 252.327 285.546 251.772 282.16 242.204C278.774 232.637 270.818 215.059 264.448 205.555C258.079 196.052 252.976 190.545 243.942 185.183C234.908 179.821 220.437 176.627 210.246 173.383C200.054 170.139 198.347 165.651 182.793 165.718C167.238 165.786 134.597 170.267 116.919 173.79C99.2411 177.313 86.7102 182.758 76.7241 186.858V186.858Z" fill="#D7B9D8"/>
<path fill-rule="evenodd" clip-rule="evenodd" d="M119.545 139.402C110.12 146.385 116.753 168.508 114.942 177.453C113.13 186.399 105.673 189.915 108.675 193.076C111.676 196.237 119.688 196.421 132.95 196.421C146.211 196.421 179.358 197.862 188.245 193.076C197.132 188.291 189.063 177.294 186.271 167.708C183.48 158.121 182.616 140.275 171.495 135.558C160.374 130.84 128.971 132.419 119.545 139.402V139.402Z" fill="#FDE1E8"/>
<path fill-rule="evenodd" clip-rule="evenodd" d="M173.316 149.349C175.073 151.022 171.626 159.946 168.957 163.751C166.287 167.556 160.978 170.984 157.301 172.179C153.624 173.373 148.906 169.511 146.895 170.916C144.883 172.32 146.22 178.284 145.229 180.606C144.239 182.928 142.535 184.995 140.951 184.846C139.366 184.698 137.023 180.351 135.724 179.715C134.425 179.078 134.057 180.173 133.156 181.028C132.255 181.884 132.801 183.272 130.317 184.846C127.834 186.421 120.976 191.693 118.255 190.476C115.534 189.258 113.308 182.388 113.989 177.542C114.671 172.697 120.825 167.741 122.344 161.4C123.862 155.058 117.09 140.774 123.102 139.493C129.114 138.212 150.048 152.071 158.417 153.713C166.786 155.356 171.56 147.676 173.316 149.349V149.349Z" fill="#D9B0AA"/>
<path fill-rule="evenodd" clip-rule="evenodd" d="M114.369 189.436C112.28 190.461 111.646 197.338 116.646 199.226C121.645 201.114 134.809 200.699 144.365 200.763C153.922 200.827 165.005 200.668 173.984 199.611C182.963 198.553 194.059 196.652 198.24 194.417C202.422 192.182 201.976 186.68 199.073 186.2C196.169 185.72 188.671 190.33 180.819 191.539C172.968 192.749 160.568 193.203 151.961 193.459C143.354 193.716 135.444 193.747 129.178 193.077C122.913 192.406 116.458 188.411 114.369 189.436V189.436Z" fill="#AA8CB0"/>
<path fill-rule="evenodd" clip-rule="evenodd" d="M121.941 142.273C123.017 147.383 127.511 158.608 126.878 165.719C126.245 172.83 120.105 178.595 118.143 184.936C116.181 191.278 116.688 199.092 115.106 203.768C113.524 208.445 110.169 210.047 108.651 212.994C107.132 215.941 108.651 220.49 105.993 221.45C103.335 222.411 94.475 220.296 92.7028 218.759C90.9306 217.221 94.9805 214.146 95.36 212.225C95.7395 210.303 93.9039 208.637 94.9798 207.228C96.0556 205.818 101.365 206.319 101.815 203.768C102.266 201.217 100.151 192.434 97.6829 191.921C95.2147 191.409 89.917 198.467 87.0059 200.694C84.0948 202.921 82.6769 205.992 80.2164 205.284C77.7558 204.575 75.1536 197.405 72.2425 196.445C69.3314 195.484 63.2638 202.718 62.7499 199.519C62.236 196.32 67.9642 182.883 69.1591 177.25C70.3541 171.616 68.3371 169.371 69.9196 165.719C71.5021 162.068 77.5781 159.753 78.654 155.341C79.7298 150.928 76.1216 145.321 76.3748 139.242C76.6279 133.164 79.7298 125.058 80.1727 118.871C80.6156 112.683 78.3994 109.01 79.032 102.118C79.6646 95.2257 82.5127 85.4623 83.9684 77.519C85.4241 69.5756 85.1084 62.1447 87.7664 54.4575C90.4243 46.7704 94.6633 38.1336 99.9162 31.3961C105.169 24.6586 111.183 19.2328 119.284 14.0326C127.385 8.83236 141.308 1.4759 148.522 0.194831C155.737 -1.08623 159.567 4.2924 162.571 6.34616C165.575 8.39993 164.394 11.108 166.546 12.5174C168.698 13.9268 171.081 13.1404 175.481 14.8023C179.882 16.4642 189.847 19.7909 192.948 22.4887C196.049 25.1865 192.886 27.9068 194.089 30.9891C195.291 34.0714 199.404 36.05 200.164 40.9825C200.923 45.9151 197.569 53.4098 198.645 60.5845C199.721 67.7592 204.657 76.6449 206.619 84.0308C208.581 91.4168 209.657 96.1694 210.417 104.9C211.176 113.631 211.365 128.058 211.175 136.416C210.985 144.773 209.023 149.187 209.276 155.047C209.529 160.906 209.403 167.538 212.694 171.574C215.985 175.61 225.034 175.673 229.022 179.26C233.009 182.848 234.086 190.279 236.618 193.098C239.149 195.917 244.591 195.148 244.211 196.173C243.831 197.198 237.693 201.297 234.338 199.247C230.984 197.197 226.807 186.563 224.085 183.872C221.364 181.182 217.63 180.67 218.01 183.105C218.39 185.539 227.117 196.754 226.364 198.48C225.612 200.205 218.308 194.356 213.498 193.459C208.688 192.562 202.007 196.105 197.506 193.098C193.005 190.091 188.769 179.967 186.493 175.418C184.216 170.87 184.773 169.305 183.846 165.808C182.92 162.31 181.629 159.812 180.931 154.432C180.234 149.051 185.188 136.879 179.66 133.522C174.131 130.166 157.635 134.036 147.762 134.292C137.889 134.548 124.726 133.73 120.422 135.06C116.119 136.39 120.865 137.163 121.941 142.273V142.273Z" fill="#322725"/>
<path fill-rule="evenodd" clip-rule="evenodd" d="M188.937 130.983C190.825 130.931 191.757 141.529 192.488 144.987C193.218 148.444 193.737 149.551 193.32 151.729C192.904 153.906 190.997 156.527 189.99 158.05C188.983 159.574 188.233 159.485 187.278 160.868C186.323 162.251 185.266 167.19 184.26 166.347C183.254 165.504 181.759 159.32 181.243 155.812C180.726 152.304 179.877 149.439 181.159 145.301C182.442 141.163 187.049 131.035 188.937 130.983V130.983Z" fill="#1B1411"/>
<path fill-rule="evenodd" clip-rule="evenodd" d="M121.868 140.998C124.011 146.259 126.397 157.956 126.813 163.294C127.23 168.631 126.231 169.223 124.366 173.022C122.501 176.82 117.313 188.147 115.623 186.085C113.933 184.024 114.806 167.63 114.226 160.653C113.647 153.675 112.191 149.041 112.146 144.22C112.101 139.4 112.337 132.265 113.958 131.728C115.578 131.19 119.726 135.737 121.868 140.998V140.998Z" fill="#1B1411"/>
<path fill-rule="evenodd" clip-rule="evenodd" d="M135.813 29.0921C140.18 27.6831 148.153 23.9033 154.418 24.0954C160.683 24.2874 168.467 26.6571 173.403 30.2445C178.34 33.8319 181.821 40.559 184.037 45.6195C186.252 50.68 185.428 55.2266 186.694 60.6075C187.959 65.9883 190.364 72.9079 191.63 77.9046C192.896 82.9013 193.973 86.488 194.29 90.5877C194.606 94.6875 193.466 98.019 193.529 102.503C193.592 106.988 195.111 112.176 194.668 117.493C194.225 122.811 193.15 129.345 190.872 134.406C188.594 139.467 184.543 143.887 180.999 147.859C177.455 151.83 173.341 155.993 169.607 158.235C165.874 160.476 162.646 160.797 158.596 161.309C154.546 161.822 149.103 162.078 145.306 161.309C141.508 160.541 138.724 158.619 135.813 156.697C132.901 154.776 130.811 152.341 127.837 149.779C124.862 147.216 120.877 144.974 117.966 141.322C115.055 137.671 112.143 132.996 110.37 127.872C108.598 122.747 107.966 115.763 107.333 110.575C106.7 105.386 106.319 100.454 106.572 96.7391C106.825 93.0238 108.282 90.5892 108.852 88.2829C109.421 85.9766 109.167 85.3355 109.99 82.9013C110.813 80.4671 112.839 77.1371 113.788 73.6777C114.737 70.2182 115.624 66.1166 115.687 62.1447C115.75 58.1729 113.599 53.8821 114.168 49.8465C114.738 45.8108 116.763 40.8138 119.105 37.9309C121.446 35.048 125.432 34.0225 128.217 32.5493C131.002 31.0762 131.446 30.5011 135.813 29.0921V29.0921Z" fill="#FDE1E8"/>
<path fill-rule="evenodd" clip-rule="evenodd" d="M135.374 70.6378C136.961 69.8692 136.359 67.2757 134.422 66.6033C132.486 65.9309 126.898 66.3471 123.755 66.6033C120.612 66.8595 117.083 67.6628 115.565 68.1406C114.047 68.6184 114.886 68.757 114.646 69.4699C114.406 70.1829 113.781 71.9676 114.125 72.4184C114.468 72.8693 114.912 72.3757 116.707 72.1751C118.503 71.9746 121.786 71.4713 124.897 71.2151C128.008 70.9589 133.786 71.4065 135.374 70.6378V70.6378Z" fill="#7B5455"/>
<path fill-rule="evenodd" clip-rule="evenodd" d="M161.507 67.372C160.653 66.9237 160.116 64.2982 162.078 63.145C164.04 61.9919 170.147 60.9018 173.279 60.4531C176.412 60.0045 178.753 59.2038 180.873 60.4531C182.993 61.7025 185.81 67.3086 185.999 67.9493C186.189 68.59 183.847 64.9061 182.011 64.2974C180.176 63.6888 177.456 64.0412 174.988 64.2974C172.52 64.5537 169.449 65.3223 167.202 65.8347C164.955 66.3472 162.361 67.8203 161.507 67.372V67.372Z" fill="#7B5455"/>
<path fill-rule="evenodd" clip-rule="evenodd" d="M146.697 79.0949C146.065 77.7176 145.266 75.404 143.85 74.2907C142.434 73.1773 139.836 72.3766 138.201 72.415C136.566 72.4533 133.856 73.9198 134.038 74.5207C134.22 75.1216 137.658 75.1618 139.294 76.0204C140.929 76.879 142.648 77.7505 143.85 79.6722C145.052 81.594 145.875 87.0707 146.507 87.5511C147.14 88.0314 147.614 83.9637 147.646 82.5544C147.677 81.145 147.33 80.4722 146.697 79.0949V79.0949Z" fill="#D9B0AA"/>
<path fill-rule="evenodd" clip-rule="evenodd" d="M157.898 82.7462C157.74 81.5289 157.583 75.7628 158.659 73.7128C159.735 71.6627 164.132 70.0933 164.353 70.4458C164.575 70.7982 160.778 74.0656 159.987 75.8273C159.196 77.5891 159.955 79.8634 159.607 81.0165C159.259 82.1696 158.056 83.9635 157.898 82.7462V82.7462Z" fill="#D9B0AA"/>
<path fill-rule="evenodd" clip-rule="evenodd" d="M145.796 109.756C145.563 109.364 149.611 108.884 151.562 108.971C153.513 109.058 155.784 110.534 157.503 110.277C159.221 110.021 160.444 107.846 161.871 107.433C163.297 107.019 166.355 107.213 166.064 107.796C165.772 108.379 162.307 110.343 160.123 110.931C157.939 111.518 155.347 111.517 152.96 111.321C150.572 111.126 146.029 110.147 145.796 109.756V109.756Z" fill="#D9B0AA"/>
<path fill-rule="evenodd" clip-rule="evenodd" d="M138.499 122.409C139.227 123.096 138.577 126.54 137.738 126.926C136.9 127.312 134.194 125.414 133.466 124.727C132.739 124.041 132.534 123.192 133.372 122.805C134.211 122.419 137.771 121.722 138.499 122.409V122.409Z" fill="#683D43"/>
<path fill-rule="evenodd" clip-rule="evenodd" d="M172.673 119.046C172.119 120.071 172.435 124.762 173.147 125.1C173.859 125.439 176.391 122.102 176.945 121.077C177.499 120.052 177.183 119.29 176.471 118.951C175.759 118.613 173.227 118.021 172.673 119.046V119.046Z" fill="#683D43"/>
<path fill-rule="evenodd" clip-rule="evenodd" d="M137.338 122.629C135.246 123.46 136.543 126.022 138.857 127.626C141.171 129.229 146.502 131.766 151.221 132.248C155.94 132.731 163.561 131.64 167.169 130.519C170.776 129.398 171.948 127.38 172.866 125.522C173.783 123.664 174.384 120.109 172.676 119.373C170.967 118.636 166.157 120.558 162.613 121.103C159.069 121.647 155.624 122.386 151.411 122.64C147.199 122.894 139.431 121.798 137.338 122.629V122.629Z" fill="#F3F3F3"/>
<path fill-rule="evenodd" clip-rule="evenodd" d="M147.466 91.3546C147.705 91.9245 149.245 99.2593 148.777 101.027C148.309 102.795 144.896 102.533 144.658 101.963C144.419 101.393 146.879 99.3758 147.347 97.6077C147.815 95.8396 147.228 90.7847 147.466 91.3546V91.3546Z" fill="#D9B0AA"/>
<path fill-rule="evenodd" clip-rule="evenodd" d="M132.922 124.732C133.576 125.873 136.504 129.183 139.006 130.821C141.508 132.459 144.673 133.64 147.935 134.557C151.197 135.474 154.937 136.554 158.579 136.324C162.221 136.095 166.76 135.419 169.789 133.181C172.819 130.944 175.741 124.883 176.756 122.9C177.771 120.917 176.914 120.618 175.88 121.283C174.845 121.949 172.61 125.368 170.55 126.893C168.489 128.417 166.78 129.775 163.518 130.43C160.255 131.084 154.524 131.05 150.977 130.821C147.43 130.592 144.885 130.195 142.236 129.054C139.587 127.912 136.636 124.691 135.084 123.971C133.531 123.25 132.269 123.59 132.922 124.732V124.732Z" fill="#EBACCB"/>
<path fill-rule="evenodd" clip-rule="evenodd" d="M156.348 123.407C151.852 123.799 146.395 122.852 142.487 122.832C138.579 122.812 133.626 123.542 132.898 123.285C132.17 123.029 135.225 121.979 138.121 121.295C141.016 120.61 147.328 119.34 150.271 119.18C153.213 119.02 153.879 120.492 155.777 120.332C157.676 120.172 158.814 118.636 161.662 118.22C164.51 117.804 170.319 117.583 172.866 117.835C175.413 118.087 177.514 119.29 176.946 119.731C176.378 120.172 172.892 119.868 169.459 120.481C166.026 121.093 160.843 123.015 156.348 123.407V123.407Z" fill="#EBACCB"/>
<path fill-rule="evenodd" clip-rule="evenodd" d="M158.88 90.7057C159.168 91.3003 161.127 97.7849 161.231 98.4872C161.335 99.1895 159.897 96.2163 159.505 94.9194C159.113 93.6225 158.592 90.1111 158.88 90.7057V90.7057Z" fill="#D9B0AA"/>
<path fill-rule="evenodd" clip-rule="evenodd" d="M110.825 144.392C110.617 142.847 108.613 149.014 105.829 154.505C103.046 159.995 97.6696 171.633 94.123 177.334C90.5764 183.035 84.6883 186.886 84.5495 188.712C84.4108 190.538 91.1398 189.553 93.2905 188.289C95.4411 187.025 95.1555 185.213 97.4533 181.127C99.7511 177.041 104.848 169.897 107.077 163.775C109.306 157.652 111.033 145.937 110.825 144.392V144.392Z" fill="#5A4337"/>
<path fill-rule="evenodd" clip-rule="evenodd" d="M115.664 37.4894C116.15 37.5594 111.431 47.0393 111.084 52.2362C110.737 57.4331 114.9 62.6311 113.582 68.6707C112.264 74.7104 106.159 82.7857 103.176 88.474C100.193 94.1623 97.1398 95.9883 95.6826 102.801C94.2255 109.613 95.8203 121.061 94.4327 129.348C93.0451 137.635 89.7159 148.098 87.3569 152.522C84.998 156.946 80.6952 156.385 80.279 155.893C79.8627 155.402 83.1245 153.787 84.8592 149.574C86.5939 145.36 89.7854 137.283 90.6872 130.611C91.589 123.939 88.7435 117.057 90.2698 109.542C91.7962 102.028 96.0989 92.8993 99.8455 85.5255C103.592 78.1518 111.362 70.9181 112.749 65.2998C114.137 59.6815 107.685 56.451 108.171 51.816C108.657 47.1809 115.179 37.4193 115.664 37.4894V37.4894Z" fill="#5A4337"/>
<path fill-rule="evenodd" clip-rule="evenodd" d="M155.367 8.36582C153.841 7.804 148.707 2.32619 146.209 4.99487C143.711 7.66354 143.919 19.8132 140.381 24.3779C136.843 28.9425 128.865 30.5569 124.979 32.3828C121.094 34.2087 116.653 35.7549 117.069 35.3335C117.485 34.9121 124.008 31.5401 127.477 29.8546C130.946 28.1691 135.733 27.8893 137.883 25.2206C140.034 22.5519 138.785 17.4944 140.381 13.8425C141.977 10.1907 146.279 5.06491 147.459 3.30939" fill="#5A4337"/>
<path fill-rule="evenodd" clip-rule="evenodd" d="M194.082 61.8793C194.36 63.7052 200.049 73.1169 200.743 80.842C201.436 88.5671 197.759 99.6621 198.245 108.23C198.73 116.798 203.656 124.313 203.656 132.249C203.656 140.185 197.829 150.087 198.245 155.846C198.661 161.605 205.598 167.012 206.153 166.801C206.708 166.591 202.13 158.513 201.575 154.581C201.02 150.648 201.713 147.488 202.823 143.205C203.933 138.921 208.305 133.373 208.236 128.878C208.167 124.384 203.518 120.662 202.408 116.237C201.298 111.812 201.575 106.966 201.575 102.331C201.575 97.6957 202.824 93.834 202.408 88.4267C201.992 83.0193 200.465 74.311 199.078 69.8864C197.69 65.4618 193.805 60.0533 194.082 61.8793V61.8793Z" fill="#5A4337"/>
<path fill-rule="evenodd" clip-rule="evenodd" d="M171.185 17.2144C170.144 16.4421 180.551 18.901 183.673 20.1651C186.796 21.4292 192 25.2908 189.919 24.799C187.837 24.3073 172.226 17.9867 171.185 17.2144V17.2144Z" fill="#5A4337"/>
<path fill-rule="evenodd" clip-rule="evenodd" d="M144.91 24.7979C144.147 22.2696 145.952 10.2615 146.993 7.52281C148.034 4.78409 149.144 7.0314 151.156 8.36555C153.168 9.6997 156.914 12.8591 159.064 15.5277C161.215 18.1964 165.308 23.1835 164.06 24.3776C162.811 25.5717 154.763 22.6221 151.571 22.6921C148.379 22.7622 145.673 27.3261 144.91 24.7979V24.7979Z" fill="#1B1411"/>
<path fill-rule="evenodd" clip-rule="evenodd" d="M71.1543 292.814C69.2808 288.389 68.9341 277.645 70.3217 269.639C71.7094 261.633 77.6761 244.848 79.48 244.778C81.2839 244.707 81.4919 262.896 81.1452 269.217C80.7984 275.538 77.3301 278.206 77.3997 282.701C77.4692 287.195 82.6034 294.499 81.5625 296.185C80.5216 297.87 73.0278 297.238 71.1543 292.814V292.814Z" fill="#AA8CB0"/>
<path fill-rule="evenodd" clip-rule="evenodd" d="M241.001 248.542C238.572 251.129 236.561 268.369 236.838 274.284C237.115 280.199 242.456 279.276 242.664 284.032C242.872 288.788 236.767 300.405 238.086 302.818C239.405 305.231 249.189 303.33 250.577 298.511C251.965 293.693 246.275 280.531 246.414 273.907C246.552 267.282 252.311 262.991 251.409 258.764C250.507 254.537 243.429 245.956 241.001 248.542Z" fill="#AA8CB0"/>
<path fill-rule="evenodd" clip-rule="evenodd" d="M192.612 33.8686C192.404 34.7114 196.013 39.7678 196.36 43.1388C196.707 46.5097 194.348 53.9539 194.695 54.0944C195.041 54.2348 197.955 46.6502 198.44 43.9815C198.926 41.3128 198.579 39.7678 197.608 38.0823C196.636 36.3968 192.82 33.0259 192.612 33.8686Z" fill="#5A4337"/>
</svg>
