<svg width="326" height="322" viewBox="0 0 326 322" fill="none" xmlns="http://www.w3.org/2000/svg">
<rect width="326" height="322" fill="white"/>
<path fill-rule="evenodd" clip-rule="evenodd" d="M138.262 178.579C129.217 182.642 118.704 191.092 110.391 196.13C102.079 201.167 95.9655 205.23 88.3867 208.805C80.8078 212.381 71.2746 212.544 64.9181 217.582C58.5616 222.62 54.5668 230.419 50.2475 239.032C45.9283 247.644 42.0991 257.801 39.0026 269.258C35.9061 280.715 26.1268 299.972 31.6685 307.773C37.2101 315.574 50.5749 313.858 72.2523 316.062C93.9297 318.265 129.869 321.147 161.733 320.994C193.597 320.841 239.886 317.834 263.437 315.143C286.989 312.452 297.827 314.201 303.042 304.848C308.258 295.494 298.804 273.971 294.729 259.02C290.655 244.07 284.952 224.732 278.595 215.144C272.239 205.556 262.947 204.662 256.59 201.493C250.234 198.324 247.302 198.486 240.456 196.13C233.61 193.774 221.629 190.281 215.517 187.356C209.405 184.43 212.258 181.179 203.783 178.579C195.307 175.979 175.585 171.754 164.665 171.754C153.745 171.754 147.308 174.516 138.262 178.579V178.579Z" fill="#212121"/>
<path fill-rule="evenodd" clip-rule="evenodd" d="M205.739 179.555C216.415 181.424 210.548 181.991 212.097 185.404C213.645 188.816 215.927 195.968 215.031 200.031C214.134 204.094 211.119 207.262 206.718 209.781C202.317 212.3 197.02 216.038 188.626 215.144C180.232 214.251 166.053 208.888 156.355 204.418C146.657 199.949 135.004 192.961 130.44 188.329C125.876 183.698 126.038 178.986 128.971 176.63C131.905 174.273 135.248 173.704 148.042 174.192C160.837 174.68 195.063 177.686 205.739 179.555V179.555Z" fill="black"/>
<path fill-rule="evenodd" clip-rule="evenodd" d="M135.53 147.346C135.286 153.115 135.449 172.373 138.464 179.037C141.479 185.7 147.591 184.969 153.622 187.325C159.652 189.681 168.128 191.549 174.648 193.174C181.167 194.799 187.769 197.319 192.74 197.075C197.711 196.832 202.274 194.069 204.474 191.712C206.674 189.356 205.777 185.373 205.94 182.936C206.103 180.498 205.208 183.019 205.453 177.087C205.697 171.155 207.327 153.197 207.408 147.346C207.489 141.496 217.186 142.473 205.94 141.986C194.694 141.498 151.665 143.53 139.93 144.423C128.195 145.317 135.774 141.577 135.53 147.346V147.346Z" fill="#CDA796"/>
<path fill-rule="evenodd" clip-rule="evenodd" d="M205.282 146.506C207.879 149.842 193.613 173.196 186.151 178.637C178.69 184.078 166.735 180.166 160.514 179.152C154.292 178.137 151.423 173.249 148.822 172.551C146.221 171.854 146.619 173.751 144.907 174.967C143.195 176.182 139.801 183.679 138.549 179.842C137.297 176.004 132.056 155.479 137.392 151.942C142.729 148.405 159.254 159.524 170.569 158.618C181.884 157.712 202.685 143.169 205.282 146.506V146.506Z" fill="#A9826E"/>
<path fill-rule="evenodd" clip-rule="evenodd" d="M92.9922 189.762C95.1818 193.803 104.97 194.23 111.571 193.661C118.172 193.092 128.033 189.029 132.597 186.348C137.161 183.667 137.477 182.347 138.955 177.574C140.432 172.801 141.044 164.029 141.462 157.712C141.88 151.395 145.129 147.149 141.462 139.674C137.795 132.198 126.631 107.902 119.459 112.858C112.288 117.815 102.844 156.595 98.4333 169.412C94.0221 182.229 90.8025 185.72 92.9922 189.762V189.762Z" fill="#372C23"/>
<path fill-rule="evenodd" clip-rule="evenodd" d="M208.451 183.551C210.977 184.932 215.379 183.631 217.253 182.575C219.128 181.518 217.579 178.593 219.698 177.212C221.817 175.83 227.685 175.586 229.966 174.286C232.248 172.986 233.062 172.58 233.388 169.411C233.714 166.243 232.737 160.718 231.922 155.274C231.107 149.83 229.313 142.598 228.498 136.747C227.683 130.897 227.358 126.104 227.032 120.173C226.706 114.241 227.439 107.496 226.543 101.158C225.646 94.8202 224.506 89.7023 221.653 82.1457C218.801 74.5891 214.156 64.4316 209.43 55.8185C204.703 47.2054 198.265 36.4801 193.293 30.4672C188.322 24.4543 184.491 22.504 179.601 19.7412C174.712 16.9783 170.72 14.8654 163.956 13.8902C157.192 12.915 145.374 12.5088 139.017 13.8902C132.661 15.2716 131.114 17.3033 125.817 22.1787C120.52 27.0542 111.637 35.5049 107.236 43.1429C102.835 50.7808 101.45 59.962 99.4124 68.0062C97.3751 76.0504 95.0939 81.901 95.0123 91.4079C94.9307 100.915 98.1081 114.241 98.923 125.048C99.7379 135.854 101.043 145.36 99.9018 156.248C98.761 167.136 89.4703 187.613 92.0782 190.375C94.686 193.138 110.333 183.388 115.549 172.825C120.765 162.262 121.417 135.935 123.373 126.997C125.328 118.059 120.356 119.197 127.283 119.197C134.21 119.197 152.464 124.478 164.933 126.997C177.402 129.516 195.494 129.841 202.096 134.31C208.697 138.779 204.54 147.147 204.54 153.81C204.54 160.473 201.444 169.33 202.096 174.286C202.747 179.243 205.925 182.169 208.451 183.551V183.551Z" fill="#403329"/>
<path fill-rule="evenodd" clip-rule="evenodd" d="M131.183 37.062C127.462 36.824 132.601 33.0035 134.311 30.5301C136.02 28.0567 137.719 21.9836 141.44 22.2216C145.162 22.4597 158.35 29.4851 156.64 31.9585C154.931 34.4319 134.905 37.3001 131.183 37.062V37.062Z" fill="#251C17"/>
<path fill-rule="evenodd" clip-rule="evenodd" d="M125.022 128.814C128.77 141.165 134.882 148.801 142.624 155.139C150.366 161.477 163.243 165.866 171.474 166.841C179.705 167.816 186.55 163.915 192.01 160.99C197.47 158.065 200.541 155.431 204.234 149.291C207.927 143.15 212.28 131.925 214.166 124.148C216.052 116.37 216.39 110.462 215.55 102.627C214.71 94.7916 211.662 84.9594 209.123 77.1359C206.585 69.3124 204.07 61.3736 200.321 55.686C196.572 49.9984 193.64 46.7484 186.631 43.0104C179.623 39.2724 165.72 35.1433 158.271 33.258C150.823 31.3727 147.513 29.6834 141.939 31.6988C136.365 33.7141 128.46 37.1272 124.826 45.3503C121.191 53.5734 120.099 67.1266 120.132 81.0373C120.165 94.948 121.273 116.464 125.022 128.814V128.814Z" fill="#D9BAAC"/>
<path fill-rule="evenodd" clip-rule="evenodd" d="M189.272 120.624C188.702 121.517 191.147 125.58 192.206 125.499C193.266 125.417 196.117 120.948 195.628 120.136C195.139 119.323 189.842 119.73 189.272 120.624V120.624Z" fill="#522E2F"/>
<path fill-rule="evenodd" clip-rule="evenodd" d="M272.238 250.877C270.56 251.278 272.598 272.03 272.727 279.474C272.856 286.917 271.14 291.169 273.014 295.538C274.888 299.907 282.342 308.767 283.972 305.688C285.602 302.61 284.751 286.202 282.795 277.067C280.839 267.932 273.916 250.476 272.238 250.877V250.877Z" fill="black"/>
<path fill-rule="evenodd" clip-rule="evenodd" d="M143.932 22.742C145.474 24.235 148.22 25.8996 149.762 27.311C151.304 28.7223 151.556 29.8287 153.185 31.2101C154.815 32.5916 156.764 34.2484 159.541 35.5995C162.318 36.9506 166.581 38.291 169.847 39.3168C173.113 40.3426 175.958 40.6169 179.137 41.7543C182.315 42.8918 185.254 44.2421 188.915 46.1414C192.577 48.0408 200.37 54.2876 201.103 53.1502C201.837 52.0127 195.999 42.9224 193.316 39.3168C190.632 35.7111 189.813 34.4413 185.005 31.5162C180.197 28.5911 170.906 24.1223 164.468 21.7661C158.03 19.4099 150.37 17.9478 146.376 17.3789C142.383 16.81 140.915 17.4588 140.508 18.3526C140.101 19.2465 142.389 21.2489 143.932 22.742V22.742Z" fill="#403329"/>
<path fill-rule="evenodd" clip-rule="evenodd" d="M83.0099 260.141C81.4282 264.281 79.9897 267.762 78.8967 275.722C77.8038 283.681 75.0665 301.966 76.452 307.898C77.8375 313.829 83.9167 315.939 87.2097 311.311C90.5027 306.683 96.0139 290.201 96.2101 280.129C96.4062 270.056 90.5865 254.207 88.3865 250.876C86.1864 247.545 84.5915 256 83.0099 260.141V260.141Z" fill="black"/>
<path fill-rule="evenodd" clip-rule="evenodd" d="M155.664 108.012C155.99 108.906 160.389 112.718 162.996 113.366C165.604 114.015 168.701 112.632 171.309 111.902C173.917 111.173 177.097 110.286 178.646 108.988C180.194 107.69 181.009 104.846 180.601 104.113C180.193 103.38 177.91 104.023 176.199 104.59C174.487 105.157 172.859 106.946 170.333 107.515C167.806 108.084 163.486 107.92 161.041 108.003C158.596 108.086 155.338 107.118 155.664 108.012V108.012Z" fill="#A9826E"/>
<path fill-rule="evenodd" clip-rule="evenodd" d="M145.749 75.7949C145.156 74.6042 146.401 75.4367 147.705 75.7949C149.008 76.1531 152.187 76.5294 153.573 77.9441C154.958 79.3588 155.447 82.0077 156.018 84.283C156.588 86.5583 156.996 89.3204 156.996 91.5956C156.996 93.8709 156.647 98.4835 156.018 97.9345C155.388 97.3856 154.01 90.8012 153.217 88.3019C152.424 85.8027 152.506 85.0234 151.262 82.9389C150.017 80.8544 146.342 76.9855 145.749 75.7949V75.7949Z" fill="#A9826E"/>
<path fill-rule="evenodd" clip-rule="evenodd" d="M174.258 92.8455C173.527 92.3025 169.615 84.2568 169.368 80.6556C169.122 77.0544 172.048 71.9952 172.779 71.2382C173.51 70.4811 173.592 74.0006 173.755 76.1132C173.918 78.2258 173.671 81.1251 173.755 83.9138C173.839 86.7025 174.989 93.3885 174.258 92.8455V92.8455Z" fill="#A9826E"/>
<path fill-rule="evenodd" clip-rule="evenodd" d="M154.358 127.351C155.58 128.163 155.174 134.664 153.871 135.151C152.567 135.639 146.455 131.576 146.537 130.276C146.618 128.976 153.135 126.538 154.358 127.351V127.351Z" fill="#522E2F"/>
<path fill-rule="evenodd" clip-rule="evenodd" d="M154.264 125.791C151.004 128.31 153.53 135.055 155.73 137.005C157.93 138.955 161.988 138.613 167.464 137.491C172.94 136.37 184.823 133.104 188.588 130.276C192.353 127.449 192.271 121.923 190.054 120.526C187.837 119.129 181.253 121.015 175.288 121.892C169.323 122.77 157.523 123.273 154.264 125.791V125.791Z" fill="#EFEFEF"/>
<path fill-rule="evenodd" clip-rule="evenodd" d="M146.537 130.276C146.863 131.251 152.204 136.607 155.391 138.848C158.578 141.09 162.237 143.155 165.659 143.723C169.082 144.292 173.157 142.749 175.928 142.262C178.698 141.774 180.409 141.692 182.283 140.798C184.157 139.904 185.624 138.767 187.172 136.899C188.721 135.03 190.198 132.315 191.575 129.586C192.951 126.857 196.003 120.77 195.432 120.526C194.861 120.282 190.505 126.287 188.151 128.122C185.797 129.957 183.507 130.398 181.306 131.536C179.106 132.674 177.231 134.38 174.949 134.949C172.667 135.518 169.896 134.949 167.615 134.949C165.333 134.949 163.622 135.274 161.259 134.949C158.896 134.624 155.889 133.778 153.436 133C150.982 132.221 146.212 129.301 146.537 130.276V130.276Z" fill="#9A5856"/>
<path fill-rule="evenodd" clip-rule="evenodd" d="M149.079 65.7303C150.954 66.7055 150.954 70.2808 149.079 71.0933C147.205 71.9059 141.092 70.768 137.832 70.6054C134.572 70.4427 131.964 69.7925 129.519 70.1174C127.075 70.4424 124.957 71.0926 123.164 72.555C121.371 74.0174 119.414 78.8917 118.762 78.8917C118.11 78.8917 118.355 74.5049 119.251 72.555C120.148 70.605 122.266 68.4107 124.141 67.192C126.015 65.9732 128.216 65.5673 130.498 65.2424C132.78 64.9174 134.736 65.161 137.832 65.2424C140.929 65.3237 147.205 64.7552 149.079 65.7303V65.7303Z" fill="#403329"/>
<path fill-rule="evenodd" clip-rule="evenodd" d="M120.457 134.014C118.99 137.101 114.049 164.217 111.168 172.529C108.286 180.84 104.148 181.853 103.17 183.885C102.192 185.916 102.499 189.696 105.299 184.716C108.099 179.736 117.444 162.455 119.97 154.004C122.496 145.554 121.924 130.926 120.457 134.014V134.014Z" fill="#635544"/>
<path fill-rule="evenodd" clip-rule="evenodd" d="M169.614 63.2906C168.229 64.9156 169.371 68.0847 171.082 68.1657C172.794 68.2466 176.867 65.2391 179.882 63.7763C182.898 62.3136 186.159 59.7141 189.174 59.3892C192.189 59.0643 195.774 60.8516 197.974 61.8267C200.175 62.8019 202.295 65.7278 202.377 65.2402C202.458 64.7526 200.664 60.4453 198.464 58.9013C196.263 57.3572 192.352 56.0567 189.174 55.9758C185.996 55.8948 182.655 57.1964 179.395 58.4155C176.135 59.6347 171 61.6656 169.614 63.2906V63.2906Z" fill="#403329"/>
<path fill-rule="evenodd" clip-rule="evenodd" d="M147.513 129.14C147.92 128.408 155.092 124.888 157.683 123.355C160.275 121.822 160.997 120.228 163.062 119.942C165.127 119.656 168.12 121.966 170.076 121.641C172.032 121.316 171.972 118.357 174.796 117.992C177.621 117.628 183.681 119.129 187.022 119.454C190.364 119.779 195.253 119.535 194.846 119.942C194.438 120.348 187.593 121.162 184.577 121.894C181.562 122.625 178.873 123.6 176.754 124.331C174.635 125.062 174.228 126.037 171.864 126.281C169.501 126.524 165.344 125.549 162.573 125.793C159.802 126.036 157.748 127.185 155.238 127.742C152.728 128.3 147.105 129.871 147.513 129.14V129.14Z" fill="#9A5856"/>
<path fill-rule="evenodd" clip-rule="evenodd" d="M108.061 71.7541C107.409 75.1668 109.999 119.441 108.724 137.266C107.449 155.091 99.7591 182.117 100.411 178.704C101.063 175.291 111.362 134.615 112.637 116.79C113.912 98.9647 108.713 68.3414 108.061 71.7541H108.061Z" fill="#635544"/>
<path fill-rule="evenodd" clip-rule="evenodd" d="M108.061 71.7541C107.409 75.1668 109.999 119.441 108.724 137.266C107.449 155.091 99.7591 182.117 100.411 178.704C101.063 175.291 111.362 134.615 112.637 116.79C113.912 98.9647 108.713 68.3414 108.061 71.7541H108.061Z" stroke="#635544" stroke-miterlimit="10" stroke-linejoin="round"/>
<path fill-rule="evenodd" clip-rule="evenodd" d="M131.867 31.4495C133.008 32.8309 128.39 40.0826 126.326 46.0991C124.261 52.1157 121.518 65.924 119.481 67.549C117.444 69.1741 114.102 60.8057 114.102 55.8493C114.102 50.8929 116.52 41.8772 119.481 37.8106C122.442 33.744 130.726 30.0681 131.867 31.4495V31.4495Z" fill="#403329"/>
<path fill-rule="evenodd" clip-rule="evenodd" d="M215.806 130.437C215.562 132.062 216.214 149.288 218.251 155.789C220.288 162.289 227.786 171.065 228.03 169.44C228.274 167.815 221.754 152.539 219.717 146.039C217.68 139.538 216.051 128.812 215.806 130.437V130.437Z" fill="#635544"/>
<path fill-rule="evenodd" clip-rule="evenodd" d="M154.643 17.8354C154.072 18.2417 157.331 20.1111 163.443 23.6864C169.555 27.2618 184.061 33.4373 191.314 39.2875C198.567 45.1378 203.131 52.7753 206.961 58.7878C210.791 64.8004 213.236 74.0626 214.295 75.3626C215.355 76.6627 216.904 73.4134 213.319 66.5884C209.733 59.7634 200.524 41.969 192.782 34.4125C185.04 26.8559 173.223 24.0117 166.867 21.2489C160.51 18.486 155.214 17.4292 154.643 17.8354V17.8354Z" fill="#635544"/>
</svg>
