<svg width="275" height="308" viewBox="0 0 275 308" fill="none" xmlns="http://www.w3.org/2000/svg">
<path fill-rule="evenodd" clip-rule="evenodd" d="M108.262 165.579C99.2167 169.642 88.704 178.092 80.3914 183.13C72.0788 188.167 65.9655 192.23 58.3867 195.805C50.8078 199.381 41.2746 199.544 34.9181 204.582C28.5616 209.62 24.5668 217.419 20.2475 226.032C15.9283 234.644 12.0991 244.801 9.00264 256.258C5.90614 267.715 -3.87316 286.972 1.66846 294.773C7.21006 302.574 20.5749 300.858 42.2523 303.062C63.9297 305.265 99.8688 308.147 131.733 307.994C163.597 307.841 209.886 304.834 233.437 302.143C256.989 299.452 267.827 301.201 273.042 291.848C278.258 282.494 268.804 260.971 264.729 246.02C260.655 231.07 254.952 211.732 248.595 202.144C242.239 192.556 232.947 191.662 226.59 188.493C220.234 185.324 217.302 185.486 210.456 183.13C203.61 180.774 191.629 177.281 185.517 174.356C179.405 171.43 182.258 168.179 173.783 165.579C165.307 162.979 145.585 158.754 134.665 158.754C123.745 158.754 117.308 161.516 108.262 165.579Z" fill="#212121"/>
<path fill-rule="evenodd" clip-rule="evenodd" d="M175.739 166.555C186.415 168.424 180.548 168.991 182.097 172.404C183.646 175.816 185.927 182.968 185.031 187.031C184.135 191.094 181.119 194.262 176.718 196.781C172.317 199.3 167.02 203.038 158.626 202.144C150.232 201.251 136.053 195.888 126.355 191.418C116.658 186.949 105.004 179.961 100.44 175.329C95.8758 170.698 96.0379 165.986 98.9716 163.63C101.905 161.273 105.248 160.704 118.042 161.192C130.837 161.68 165.063 164.686 175.739 166.555Z" fill="black"/>
<path fill-rule="evenodd" clip-rule="evenodd" d="M105.53 134.346C105.285 140.115 105.449 159.373 108.464 166.037C111.479 172.7 117.591 171.969 123.622 174.325C129.652 176.681 138.128 178.549 144.648 180.174C151.167 181.799 157.769 184.319 162.74 184.075C167.711 183.832 172.274 181.069 174.474 178.712C176.674 176.356 175.777 172.373 175.94 169.936C176.103 167.498 175.208 170.019 175.453 164.087C175.697 158.155 177.327 140.197 177.408 134.346C177.489 128.496 187.186 129.473 175.94 128.986C164.693 128.498 121.665 130.53 109.93 131.423C98.1949 132.317 105.774 128.577 105.53 134.346Z" fill="#CDA796"/>
<path fill-rule="evenodd" clip-rule="evenodd" d="M175.282 133.506C177.879 136.842 163.613 160.196 156.151 165.637C148.69 171.078 136.736 167.166 130.514 166.152C124.292 165.137 121.423 160.249 118.822 159.551C116.221 158.854 116.619 160.751 114.907 161.967C113.195 163.182 109.802 170.679 108.549 166.842C107.297 163.004 102.056 142.479 107.392 138.942C112.729 135.405 129.254 146.524 140.569 145.618C151.884 144.712 172.685 130.169 175.282 133.506Z" fill="#A9826E"/>
<path fill-rule="evenodd" clip-rule="evenodd" d="M62.9923 176.762C65.1819 180.803 74.9705 181.23 81.5714 180.661C88.1722 180.092 98.0334 176.029 102.597 173.348C107.161 170.667 107.478 169.347 108.955 164.574C110.432 159.801 111.044 151.029 111.462 144.712C111.88 138.395 115.129 134.149 111.462 126.674C107.795 119.198 96.6309 94.902 89.4594 99.8584C82.288 104.815 72.8446 143.595 68.4334 156.412C64.0222 169.229 60.8026 172.72 62.9923 176.762Z" fill="#372C23"/>
<path fill-rule="evenodd" clip-rule="evenodd" d="M178.451 170.551C180.977 171.932 185.379 170.631 187.253 169.575C189.128 168.518 187.579 165.593 189.698 164.212C191.817 162.83 197.685 162.586 199.966 161.286C202.248 159.986 203.062 159.58 203.388 156.411C203.714 153.243 202.737 147.718 201.922 142.274C201.107 136.83 199.313 129.598 198.498 123.747C197.683 117.897 197.358 113.104 197.032 107.173C196.706 101.241 197.439 94.4958 196.543 88.158C195.646 81.8202 194.506 76.7023 191.653 69.1457C188.801 61.5891 184.156 51.4316 179.43 42.8185C174.703 34.2054 168.265 23.4801 163.293 17.4672C158.322 11.4543 154.491 9.504 149.601 6.74117C144.712 3.97833 140.72 1.86535 133.956 0.890186C127.192 -0.0849728 115.374 -0.491228 109.018 0.890186C102.661 2.27161 101.114 4.30326 95.8173 9.17871C90.5204 14.0542 81.6368 22.5049 77.236 30.1429C72.8352 37.7808 71.4497 46.962 69.4124 55.0062C67.3752 63.0504 65.0939 68.901 65.0124 78.4079C64.9308 87.9148 68.1081 101.241 68.9231 112.048C69.738 122.854 71.0426 132.36 69.9018 143.248C68.761 154.136 59.4704 174.613 62.0782 177.375C64.6861 180.138 80.3333 170.388 85.549 159.825C90.7647 149.262 91.4169 122.935 93.3726 113.997C95.3283 105.059 90.3565 106.197 97.2832 106.197C104.21 106.197 122.464 111.478 134.933 113.997C147.402 116.516 165.494 116.841 172.096 121.31C178.697 125.779 174.54 134.147 174.54 140.81C174.54 147.473 171.444 156.33 172.096 161.286C172.747 166.243 175.925 169.169 178.451 170.551Z" fill="#403329"/>
<path fill-rule="evenodd" clip-rule="evenodd" d="M101.183 24.062C97.4615 23.824 102.601 20.0035 104.311 17.5301C106.02 15.0567 107.719 8.98359 111.44 9.22165C115.162 9.45971 128.35 16.4851 126.64 18.9585C124.931 21.4319 104.905 24.3001 101.183 24.062Z" fill="#251C17"/>
<path fill-rule="evenodd" clip-rule="evenodd" d="M95.0215 115.814C98.7702 128.165 104.882 135.801 112.624 142.139C120.366 148.477 133.243 152.866 141.474 153.841C149.705 154.816 156.55 150.915 162.01 147.99C167.47 145.065 170.541 142.431 174.234 136.291C177.927 130.15 182.28 118.925 184.166 111.148C186.052 103.37 186.39 97.4622 185.55 89.6269C184.709 81.7916 181.662 71.9594 179.123 64.1359C176.585 56.3124 174.07 48.3736 170.321 42.686C166.572 36.9984 163.64 33.7484 156.631 30.0104C149.623 26.2724 135.72 22.1433 128.271 20.258C120.822 18.3727 117.513 16.6834 111.939 18.6988C106.365 20.7141 98.4602 24.1272 94.8258 32.3503C91.1913 40.5734 90.0994 54.1266 90.1321 68.0373C90.1647 81.948 91.2729 103.464 95.0215 115.814Z" fill="#D9BAAC"/>
<path fill-rule="evenodd" clip-rule="evenodd" d="M159.272 107.624C158.702 108.517 161.147 112.58 162.206 112.499C163.265 112.417 166.116 107.948 165.627 107.136C165.138 106.323 159.842 106.73 159.272 107.624Z" fill="#522E2F"/>
<path fill-rule="evenodd" clip-rule="evenodd" d="M242.238 237.877C240.56 238.278 242.598 259.03 242.727 266.474C242.856 273.917 241.14 278.169 243.014 282.538C244.888 286.907 252.342 295.767 253.972 292.688C255.602 289.61 254.751 273.202 252.795 264.067C250.839 254.932 243.916 237.476 242.238 237.877Z" fill="black"/>
<path fill-rule="evenodd" clip-rule="evenodd" d="M113.931 9.74197C115.474 11.235 118.219 12.8996 119.762 14.311C121.304 15.7223 121.555 16.8287 123.185 18.2101C124.815 19.5916 126.764 21.2484 129.541 22.5995C132.318 23.9506 136.581 25.291 139.847 26.3168C143.113 27.3426 145.958 27.6169 149.136 28.7543C152.314 29.8918 155.254 31.2421 158.915 33.1414C162.576 35.0408 170.37 41.2876 171.103 40.1502C171.837 39.0127 165.998 29.9224 163.315 26.3168C160.632 22.7111 159.812 21.4413 155.005 18.5162C150.197 15.5911 140.906 11.1223 134.468 8.76607C128.03 6.40985 120.369 4.94784 116.376 4.37894C112.383 3.81004 110.915 4.45879 110.508 5.35262C110.1 6.24646 112.389 8.24891 113.931 9.74197Z" fill="#403329"/>
<path fill-rule="evenodd" clip-rule="evenodd" d="M53.0097 247.141C51.428 251.281 49.9895 254.762 48.8966 262.722C47.8036 270.681 45.0663 288.966 46.4518 294.898C47.8373 300.829 53.9165 302.939 57.2095 298.311C60.5025 293.683 66.0137 277.201 66.2099 267.129C66.406 257.056 60.5863 241.207 58.3863 237.876C56.1863 234.545 54.5913 243 53.0097 247.141Z" fill="black"/>
<path fill-rule="evenodd" clip-rule="evenodd" d="M125.664 95.012C125.99 95.9058 130.389 99.7177 132.996 100.366C135.604 101.015 138.701 99.632 141.309 98.9023C143.917 98.1726 147.097 97.2861 148.646 95.9879C150.194 94.6896 151.009 91.8458 150.601 91.1128C150.193 90.3798 147.91 91.0226 146.199 91.5896C144.487 92.1567 142.859 93.9462 140.333 94.5151C137.806 95.0841 133.486 94.9203 131.041 95.0031C128.596 95.0859 125.338 94.1181 125.664 95.012Z" fill="#A9826E"/>
<path fill-rule="evenodd" clip-rule="evenodd" d="M115.749 62.7949C115.156 61.6042 116.401 62.4367 117.705 62.7949C119.008 63.1531 122.187 63.5294 123.573 64.9441C124.958 66.3588 125.447 69.0077 126.017 71.283C126.588 73.5583 126.996 76.3204 126.996 78.5956C126.996 80.8709 126.647 85.4835 126.017 84.9345C125.388 84.3856 124.009 77.8012 123.217 75.3019C122.424 72.8027 122.506 72.0234 121.261 69.9389C120.017 67.8544 116.342 63.9855 115.749 62.7949Z" fill="#A9826E"/>
<path fill-rule="evenodd" clip-rule="evenodd" d="M144.258 79.8455C143.527 79.3025 139.615 71.2568 139.368 67.6556C139.122 64.0544 142.047 58.9952 142.778 58.2382C143.51 57.4811 143.592 61.0006 143.755 63.1132C143.918 65.2258 143.671 68.1251 143.755 70.9138C143.839 73.7025 144.989 80.3885 144.258 79.8455Z" fill="#A9826E"/>
<path fill-rule="evenodd" clip-rule="evenodd" d="M124.358 114.351C125.58 115.163 125.174 121.664 123.871 122.151C122.567 122.639 116.455 118.576 116.536 117.276C116.618 115.976 123.135 113.538 124.358 114.351Z" fill="#522E2F"/>
<path fill-rule="evenodd" clip-rule="evenodd" d="M124.264 112.791C121.004 115.31 123.53 122.055 125.73 124.005C127.93 125.955 131.988 125.613 137.464 124.491C142.941 123.37 154.823 120.104 158.588 117.276C162.353 114.449 162.271 108.923 160.054 107.526C157.837 106.129 151.253 108.015 145.288 108.892C139.323 109.77 127.524 110.273 124.264 112.791Z" fill="#EFEFEF"/>
<path fill-rule="evenodd" clip-rule="evenodd" d="M116.537 117.276C116.863 118.251 122.204 123.607 125.391 125.848C128.578 128.09 132.236 130.155 135.659 130.723C139.082 131.292 143.157 129.749 145.928 129.262C148.698 128.774 150.409 128.692 152.283 127.798C154.157 126.904 155.624 125.767 157.172 123.899C158.721 122.03 160.198 119.315 161.575 116.586C162.951 113.857 166.003 107.77 165.432 107.526C164.861 107.282 160.505 113.287 158.151 115.122C155.797 116.957 153.507 117.398 151.306 118.536C149.106 119.674 147.231 121.38 144.949 121.949C142.667 122.518 139.896 121.949 137.615 121.949C135.333 121.949 133.622 122.274 131.259 121.949C128.896 121.624 125.889 120.778 123.436 120C120.982 119.221 116.211 116.301 116.537 117.276Z" fill="#9A5856"/>
<path fill-rule="evenodd" clip-rule="evenodd" d="M119.08 52.7303C120.954 53.7055 120.954 57.2808 119.08 58.0933C117.205 58.9059 111.093 57.768 107.833 57.6054C104.573 57.4427 101.964 56.7925 99.5195 57.1174C97.0748 57.4424 94.9571 58.0926 93.1641 59.555C91.3712 61.0174 89.414 65.8917 88.7619 65.8917C88.1097 65.8917 88.3548 61.5049 89.2512 59.555C90.1477 57.605 92.2662 55.4107 94.1407 54.192C96.0152 52.9732 98.2163 52.5673 100.498 52.2424C102.78 51.9174 104.736 52.161 107.833 52.2424C110.929 52.3237 117.205 51.7552 119.08 52.7303Z" fill="#403329"/>
<path fill-rule="evenodd" clip-rule="evenodd" d="M90.4572 121.014C88.9901 124.101 84.0488 151.217 81.1676 159.529C78.2865 167.84 74.1486 168.853 73.1706 170.885C72.1925 172.916 72.4995 176.696 75.2994 171.716C78.0993 166.736 87.4437 149.455 89.97 141.004C92.4963 132.554 91.9242 117.926 90.4572 121.014Z" fill="#635544"/>
<path fill-rule="evenodd" clip-rule="evenodd" d="M139.614 50.2906C138.229 51.9156 139.371 55.0847 141.082 55.1657C142.794 55.2466 146.867 52.2391 149.883 50.7763C152.898 49.3136 156.159 46.7141 159.174 46.3892C162.19 46.0643 165.774 47.8516 167.974 48.8267C170.175 49.8019 172.295 52.7278 172.377 52.2402C172.458 51.7526 170.664 47.4453 168.464 45.9013C166.263 44.3572 162.352 43.0567 159.174 42.9758C155.996 42.8948 152.655 44.1964 149.395 45.4155C146.135 46.6347 141 48.6656 139.614 50.2906Z" fill="#403329"/>
<path fill-rule="evenodd" clip-rule="evenodd" d="M117.513 116.14C117.92 115.408 125.092 111.888 127.683 110.355C130.275 108.822 130.997 107.228 133.062 106.942C135.127 106.656 138.12 108.966 140.076 108.641C142.032 108.316 141.972 105.357 144.796 104.992C147.621 104.628 153.681 106.129 157.022 106.454C160.364 106.779 165.253 106.535 164.846 106.942C164.438 107.348 157.593 108.162 154.577 108.894C151.562 109.625 148.873 110.6 146.754 111.331C144.635 112.062 144.228 113.037 141.864 113.281C139.501 113.524 135.344 112.549 132.573 112.793C129.802 113.036 127.748 114.185 125.238 114.742C122.728 115.3 117.105 116.871 117.513 116.14Z" fill="#9A5856"/>
<path fill-rule="evenodd" clip-rule="evenodd" d="M78.0613 58.7541C77.4092 62.1668 79.9992 106.441 78.7242 124.266C77.4492 142.091 69.7591 169.117 70.4112 165.704C71.0634 162.291 81.3621 121.615 82.6371 103.79C83.9121 85.9647 78.7134 55.3414 78.0613 58.7541H78.0613Z" fill="#635544"/>
<path fill-rule="evenodd" clip-rule="evenodd" d="M78.0613 58.7541C77.4092 62.1668 79.9992 106.441 78.7242 124.266C77.4492 142.091 69.7591 169.117 70.4112 165.704C71.0634 162.291 81.3621 121.615 82.6371 103.79C83.9121 85.9647 78.7134 55.3414 78.0613 58.7541H78.0613Z" stroke="#635544" stroke-miterlimit="10" stroke-linejoin="round"/>
<path fill-rule="evenodd" clip-rule="evenodd" d="M101.867 18.4495C103.008 19.8309 98.39 27.0826 96.3257 33.0991C94.2614 39.1157 91.5182 52.924 89.4809 54.549C87.4436 56.1741 84.1021 47.8057 84.1021 42.8493C84.1021 37.8929 86.5201 28.8772 89.4809 24.8106C92.4417 20.744 100.726 17.0681 101.867 18.4495Z" fill="#403329"/>
<path fill-rule="evenodd" clip-rule="evenodd" d="M185.807 117.437C185.562 119.062 186.214 136.288 188.251 142.789C190.289 149.289 197.786 158.065 198.03 156.44C198.275 154.815 191.755 139.539 189.717 133.039C187.68 126.538 186.051 115.812 185.807 117.437Z" fill="#635544"/>
<path fill-rule="evenodd" clip-rule="evenodd" d="M124.643 4.83543C124.073 5.24168 127.332 7.11106 133.443 10.6864C139.555 14.2618 154.061 20.4373 161.314 26.2875C168.567 32.1378 173.131 39.7753 176.961 45.7878C180.792 51.8004 183.236 61.0626 184.296 62.3626C185.355 63.6627 186.905 60.4134 183.319 53.5884C179.734 46.7634 170.524 28.969 162.782 21.4125C155.04 13.8559 143.223 11.0117 136.867 8.24887C130.51 5.48603 125.214 4.42917 124.643 4.83543Z" fill="#635544"/>
</svg>
