<svg width="323" height="305" viewBox="0 0 323 305" fill="none" xmlns="http://www.w3.org/2000/svg">
<g clip-path="url(#clip0)">
<path fill-rule="evenodd" clip-rule="evenodd" d="M0 0H323V305H0V0Z" fill="white"/>
<path fill-rule="evenodd" clip-rule="evenodd" d="M141.548 129.425C135.643 135.362 142.678 142.768 140.774 146.502C138.87 150.235 136.094 149.868 130.124 151.826C124.154 153.785 110.375 155.316 104.954 158.253C99.5331 161.191 93.9829 155.131 97.5971 169.453C101.211 183.775 111.892 229.65 126.64 244.186C141.387 258.723 170.43 261.905 186.081 256.672C201.731 251.439 211.734 227.385 220.544 212.787C229.354 198.19 236.099 177.748 238.939 169.087C241.778 160.426 241.616 163.119 237.582 160.824C233.548 158.528 220.027 158.742 214.735 155.315C209.443 151.887 208.088 147.45 205.83 140.259C203.571 133.067 206.12 117.061 201.183 112.165C196.245 107.268 186.144 108.004 176.205 110.88C166.266 113.757 147.453 123.488 141.548 129.425Z" fill="#CE875D"/>
<path fill-rule="evenodd" clip-rule="evenodd" d="M99.7253 155.682C96.1111 154.703 98.7265 157.671 94.8866 159.171C91.0467 160.67 82.4624 162.415 76.6858 164.68C70.9093 166.944 65.4874 168.016 60.2272 172.759C54.9671 177.502 51.2882 182.705 45.1249 193.14C38.9617 203.575 28.0234 225.73 23.2477 235.37C18.472 245.01 19.3104 243.97 16.4706 250.978C13.6309 257.986 8.66145 270.533 6.20908 277.418C3.75672 284.304 -3.24532 288.957 1.75644 292.292C6.7582 295.628 24.3445 296.454 36.2197 297.433C48.0948 298.412 49.1923 296.913 73.0073 298.167C96.8222 299.422 148.324 304.503 179.109 304.962C209.895 305.421 237.519 301.84 257.719 300.922C277.92 300.004 289.504 302.024 300.314 299.454C311.124 296.883 320.161 291.649 322.581 285.497C325.002 279.346 316.288 268.758 314.836 262.546C313.384 256.334 316.45 257.099 313.868 248.224C311.286 239.349 303.121 219.428 299.346 209.298C295.57 199.169 295.861 193.598 291.215 187.447C286.568 181.296 279.985 176.951 271.466 172.391C262.946 167.831 246.762 162.507 240.099 160.089C233.435 157.671 234.355 158.13 231.483 157.885C228.612 157.64 226.628 156.415 222.868 158.619C219.109 160.822 214.928 168.228 208.926 171.105C202.924 173.981 197.697 175.328 186.855 175.879C176.012 176.43 155.586 176.217 143.872 174.411C132.158 172.606 123.93 168.167 116.572 165.046C109.214 161.924 103.339 156.662 99.7253 155.682Z" fill="#F0EDE2"/>
<path fill-rule="evenodd" clip-rule="evenodd" d="M144.501 181.757C149.018 181.39 159.063 182.919 167.348 183.041C175.633 183.164 189.089 182.032 194.211 182.491C199.334 182.95 197.462 181.664 198.084 185.796C198.705 189.927 199.159 200.24 197.941 207.279C196.723 214.318 195.326 222.03 190.776 228.028C186.226 234.026 176.675 241.891 170.641 243.268C164.606 244.645 158.927 240.912 154.57 236.291C150.214 231.67 146.889 224.05 144.501 215.542C142.113 207.034 140.242 190.876 140.242 185.246C140.242 179.615 139.983 182.124 144.501 181.757V181.757Z" fill="#CE875D"/>
<path fill-rule="evenodd" clip-rule="evenodd" d="M98.6626 155.499C96.9846 155.392 96.7917 157.059 96.6303 157.885C96.4689 158.711 94.2899 158.267 97.6944 160.456C101.099 162.644 110.7 167.632 117.057 171.014C123.415 174.396 127.029 178.665 135.838 180.746C144.648 182.827 158.877 183.378 169.913 183.5C180.949 183.622 191.341 185.137 202.054 181.48C212.768 177.823 228.741 165.429 234.195 161.558C239.649 157.687 236.294 159.202 234.777 158.253C233.261 157.304 228.613 154.335 225.096 155.865C221.578 157.395 217.577 164.481 213.672 167.435C209.768 170.388 206.589 172.162 201.668 173.585C196.747 175.007 191.455 175.65 184.146 175.971C176.837 176.292 165.736 176.032 157.814 175.512C149.891 174.992 142.55 174.396 136.612 172.85C130.675 171.305 127.174 168.626 122.188 166.239C117.202 163.852 110.619 160.318 106.698 158.528C102.777 156.738 100.34 155.606 98.6626 155.499Z" fill="#DCD5C9"/>
<path fill-rule="evenodd" clip-rule="evenodd" d="M114.053 98.2094C107.438 96.5875 109.827 88.8143 107.858 86.6417C105.89 84.469 103.083 86.7954 102.243 85.1735C101.404 83.5516 103.534 79.6033 102.823 76.9103C102.113 74.2172 98.2407 72.3812 97.9827 69.0151C97.7246 65.6489 101.275 59.651 101.275 56.7133C101.275 53.7755 97.757 53.4695 97.9827 51.3885C98.2083 49.3075 102.145 46.0944 102.629 44.2274C103.113 42.3605 100.403 42.1151 100.887 40.1868C101.371 38.2585 104.727 34.953 105.534 32.6577C106.341 30.3624 104.953 27.7917 105.728 26.4148C106.502 25.0379 108.954 25.8957 110.181 24.3965C111.407 22.8973 111.955 18.552 113.085 17.4195C114.214 16.287 115.796 18.3363 116.958 17.6015C118.119 16.8667 116.022 15.3978 120.056 13.0108C124.09 10.6238 135.899 4.56457 141.159 3.27938C146.419 1.99419 148.646 5.81976 151.615 5.29968C154.584 4.77961 155.101 0.740349 158.974 0.15893C162.847 -0.422488 170.753 1.04606 174.85 1.81117C178.948 2.57628 181.69 4.29054 183.562 4.74961C185.433 5.20868 185.402 4.2292 186.08 4.56558C186.758 4.90196 186.79 6.49252 187.628 6.76789C188.467 7.04327 189.854 5.81976 191.113 6.21782C192.371 6.61588 193.598 8.20745 195.18 9.15626C196.761 10.1051 198.89 10.4111 200.6 11.9107C202.311 13.4102 203.666 16.4707 205.441 18.1536C207.216 19.8365 209.959 20.2639 211.25 22.0081C212.541 23.7524 212.476 26.4461 213.186 28.6191C213.896 30.7921 215.253 33.3325 215.511 35.0461C215.769 36.7597 213.96 37.0034 214.734 38.9006C215.509 40.7979 219.351 43.7367 220.157 46.4297C220.964 49.1228 219.64 52.3966 219.575 55.059C219.511 57.7214 219.059 60.4455 219.769 62.4041C220.479 64.3627 223.642 64.8215 223.836 66.8108C224.03 68.8 222.997 71.0961 220.931 74.3399C218.866 77.5837 223.674 82.6014 211.444 86.2736C199.214 89.9458 163.782 94.3838 147.55 96.3731C131.318 98.3624 120.668 99.8313 114.053 98.2094Z" fill="#2A1B13"/>
<path fill-rule="evenodd" clip-rule="evenodd" d="M201.958 118.407C203.216 120.978 202.314 130.405 201.378 135.301C200.442 140.198 199.893 143.289 196.343 147.787C192.793 152.286 183.628 157.976 180.079 162.291C176.529 166.606 179.884 171.994 175.044 173.677C170.203 175.36 157.103 173.707 151.036 172.391C144.97 171.075 142.872 166.82 138.644 165.78C134.417 164.739 130.577 167.525 125.672 166.148C120.767 164.771 107.923 159.997 109.214 157.519C110.505 155.04 128.19 152.928 133.417 151.276C138.645 149.623 139.548 150.449 140.581 147.603C141.613 144.757 137.741 137.351 139.612 134.199C141.484 131.047 146.163 129.089 151.81 128.69C157.457 128.292 166.493 133.28 173.496 131.811C180.498 130.342 189.083 122.111 193.827 119.877C198.57 117.643 200.699 115.836 201.958 118.407Z" fill="#9E633B"/>
<path fill-rule="evenodd" clip-rule="evenodd" d="M109.406 84.6227C108.083 87.4688 105.13 91.4315 104.566 96.1904C104.001 100.949 104.066 106.856 106.018 113.176C107.97 119.495 113.181 127.986 116.279 134.107C119.378 140.228 125.317 152.715 124.607 149.899C123.897 147.084 114.183 125.86 112.021 117.214C109.859 108.569 111.488 103.076 111.633 98.0266C111.778 92.9772 112.746 90.0701 112.891 86.918C113.036 83.7659 113.086 79.4964 112.505 79.1139C111.924 78.7313 110.73 81.7766 109.406 84.6227Z" fill="#2A1B13"/>
<path fill-rule="evenodd" clip-rule="evenodd" d="M209.121 101.698C211.154 101.637 212.026 105.188 212.607 106.656C213.188 108.125 211.93 108.92 212.607 110.511C213.285 112.102 215.865 113.664 216.672 116.204C217.478 118.744 216.413 122.691 217.446 125.751C218.479 128.811 221.901 132.116 222.869 134.565C223.837 137.013 222.19 138.697 223.255 140.441C224.32 142.186 228.032 143.073 229.258 145.032C230.484 146.991 229.741 149.837 230.612 152.193C231.483 154.549 234.032 156.967 234.485 159.17C234.937 161.373 232.195 163.24 233.324 165.413C234.454 167.586 240.1 169.788 241.262 172.206C242.423 174.624 239.809 177.288 240.293 179.919C240.778 182.551 243.908 185.426 244.166 187.996C244.424 190.567 241.553 193.199 241.844 195.341C242.134 197.484 245.618 199.167 245.908 200.85C246.199 202.534 243.263 203.421 243.586 205.441C243.909 207.461 247.748 210.767 247.845 212.97C247.941 215.173 244.037 216.764 244.166 218.661C244.295 220.558 248.683 222.854 248.619 224.354C248.554 225.853 244.403 225.818 243.778 227.658C243.153 229.498 245.525 234.048 244.87 235.394C244.214 236.739 240.639 236.929 239.843 235.731C239.048 234.534 241.057 230.135 240.099 228.208C239.142 226.281 234.776 225.883 234.099 224.17C233.421 222.456 236.422 219.732 236.035 217.927C235.647 216.121 232.064 214.652 231.774 213.336C231.484 212.02 234.873 211.133 234.293 210.032C233.712 208.93 228.903 208.441 228.29 206.727C227.676 205.013 230.773 201.829 230.612 199.748C230.451 197.667 227.741 196.536 227.321 194.241C226.902 191.946 228.806 188.029 228.096 185.978C227.385 183.927 223.771 183.896 223.061 181.938C222.351 179.979 224.514 176.368 223.837 174.226C223.16 172.084 219.642 171.075 218.996 169.086C218.351 167.096 220.61 164.219 219.964 162.291C219.319 160.363 215.93 159.415 215.124 157.518C214.317 155.621 215.575 152.988 215.124 150.907C214.672 148.826 212.704 147.144 212.413 145.032C212.123 142.92 213.833 140.41 213.381 138.237C212.93 136.064 210.123 134.228 209.703 131.994C209.283 129.76 211.605 126.945 210.863 124.833C210.12 122.721 206.99 122.293 205.248 119.324C203.506 116.356 199.764 109.96 200.409 107.022C201.055 104.085 207.088 101.759 209.121 101.698Z" fill="#2A1B13"/>
<path fill-rule="evenodd" clip-rule="evenodd" d="M124.898 123.55C123.284 124.804 121.67 127.405 121.411 129.793C121.153 132.18 123.734 135.485 123.347 137.872C122.96 140.259 119.605 142.279 119.089 144.115C118.573 145.951 121.639 147.021 120.251 148.887C118.864 150.754 112.377 152.254 110.764 155.314C109.15 158.375 111.28 163.853 110.57 167.25C109.859 170.647 106.632 172.727 106.503 175.695C106.374 178.664 109.86 182.245 109.795 185.061C109.731 187.876 106.375 190.354 106.117 192.588C105.859 194.822 108.535 196.322 108.245 198.465C107.955 200.607 105.084 203.085 104.375 205.442C103.665 207.798 104.6 210.338 103.987 212.603C103.373 214.867 100.791 216.857 100.694 219.03C100.597 221.202 103.568 223.803 103.406 225.639C103.245 227.475 99.9195 228.27 99.7258 230.045C99.5321 231.82 102.244 234.36 102.244 236.288C102.244 238.216 99.1774 240.664 99.7258 241.613C100.274 242.562 104.018 242.838 105.535 241.981C107.052 241.124 107.569 238.706 108.827 236.472C110.086 234.238 112.666 230.689 113.086 228.577C113.505 226.465 111.021 225.271 111.344 223.802C111.666 222.334 114.732 221.477 115.022 219.764C115.313 218.05 112.537 215.449 113.086 213.521C113.635 211.593 117.734 210.308 118.315 208.196C118.896 206.084 115.992 202.901 116.572 200.851C117.153 198.801 121.089 197.7 121.799 195.894C122.509 194.089 120.153 192.466 120.831 190.017C121.509 187.569 125.285 184.234 125.866 181.204C126.447 178.175 123.573 174.717 124.316 171.841C125.058 168.964 129.512 166.576 130.319 163.944C131.125 161.311 128.576 158.527 129.156 156.048C129.737 153.57 133.513 151.213 133.803 149.071C134.093 146.929 130.382 145.4 130.899 143.197C131.415 140.993 136.869 139.34 136.902 135.851C136.934 132.363 133.093 124.314 131.093 122.263C129.092 120.213 126.511 122.295 124.898 123.55Z" fill="#2A1B13"/>
<path fill-rule="evenodd" clip-rule="evenodd" d="M180.079 25.4979C173.818 23.8608 164.267 23.1739 156.845 23.6636C149.423 24.1534 142.387 25.055 135.546 28.4363C128.704 31.8177 119.733 37.6322 115.797 43.9516C111.86 50.2711 112.313 58.2889 111.926 66.3529C111.539 74.417 112.636 85.5573 113.475 92.3358C114.313 99.1143 114.958 101.271 116.959 107.024C118.96 112.777 121.606 121.407 125.478 126.855C129.351 132.302 134.257 136.281 140.195 139.709C146.132 143.136 154.392 147.298 161.104 147.42C167.816 147.542 174.529 143.381 180.467 140.443C186.404 137.505 192.147 133.833 196.729 129.793C201.312 125.754 205.444 120.918 207.961 116.205C210.478 111.492 210.412 104.147 211.831 101.515C213.251 98.8834 215.252 101.884 216.478 100.415C217.705 98.9461 218.223 96.0683 219.191 92.7018C220.159 89.3353 221.964 84.1942 222.287 80.216C222.61 76.2377 222.095 71.0356 221.127 68.8323C220.159 66.629 218.092 66.4453 216.478 66.996C214.865 67.5468 212.994 73.9731 211.445 72.1368C209.897 70.3005 209.379 59.9415 207.185 55.9784C204.99 52.0153 200.409 52.107 198.279 48.3583C196.15 44.6096 197.44 37.2962 194.407 33.4861C191.373 29.676 186.339 27.135 180.079 25.4979V25.4979Z" fill="#CE875D"/>
<path fill-rule="evenodd" clip-rule="evenodd" d="M211.057 71.4014C212.445 75.7773 217.931 82.0809 219.77 87.1917C221.61 92.3024 222.805 95.67 222.095 102.066C221.385 108.462 215.383 124.558 215.512 125.567C215.641 126.577 221.449 113.694 222.869 108.125C224.288 102.555 224.739 97.7506 224.029 92.1504C223.319 86.5503 220.705 79.7263 218.608 74.5238C216.511 69.3214 212.704 61.4562 211.445 60.9358C210.187 60.4154 209.669 67.0254 211.057 71.4014Z" fill="#2A1B13"/>
<path fill-rule="evenodd" clip-rule="evenodd" d="M100.308 246.387C98.5652 247.06 93.9504 255.567 92.7566 260.341C91.5628 265.115 91.6601 271.971 93.1447 275.031C94.6293 278.092 99.5344 276.499 101.664 278.702C103.794 280.905 105.148 288.435 105.923 288.251C106.697 288.068 106.762 282.927 106.311 277.602C105.859 272.277 104.213 261.505 103.212 256.303C102.212 251.1 102.05 245.714 100.308 246.387Z" fill="#2A1B13"/>
<path fill-rule="evenodd" clip-rule="evenodd" d="M241.276 238.111C239.856 240.926 238.112 249.985 237.015 256.473C235.918 262.961 235.209 271.53 234.693 277.038C234.177 282.547 232.37 289.524 233.919 289.524C235.468 289.524 241.082 280.65 243.986 277.038C246.89 273.427 250.375 271.285 251.343 267.857C252.312 264.43 250.763 261.186 249.795 256.473C248.827 251.761 246.954 242.641 245.535 239.581C244.115 236.52 242.696 235.295 241.276 238.111Z" fill="#2A1B13"/>
<path fill-rule="evenodd" clip-rule="evenodd" d="M104.761 242.531C104.567 241.827 103.501 241.032 102.63 240.879C101.759 240.726 100.082 240.48 99.5338 241.613C98.9854 242.745 98.9204 246.603 99.3398 247.674C99.7592 248.745 101.308 248.468 102.05 248.04C102.792 247.611 103.341 246.022 103.792 245.103C104.244 244.185 104.954 243.235 104.761 242.531Z" fill="#271C17"/>
<path fill-rule="evenodd" clip-rule="evenodd" d="M75.3295 220.643C73.6516 221.903 67.0373 236.224 63.7138 246.042C60.3903 255.859 54.2914 271.419 55.3886 279.548C56.4857 287.677 67.2637 296.571 70.2968 294.815C73.3299 293.059 73.0065 278.399 73.5873 269.009C74.168 259.62 73.4909 246.538 73.7813 238.477C74.0717 230.415 77.0074 219.382 75.3295 220.643Z" fill="#DCD5C9"/>
<path fill-rule="evenodd" clip-rule="evenodd" d="M272.046 216.782C271.175 218.457 266.981 241.8 265.077 251.348C263.173 260.896 262.916 266.818 260.624 274.07C258.333 281.323 249.748 291.652 251.329 294.865C252.91 298.078 266.594 298.422 270.112 293.35C273.629 288.277 272.402 273.106 272.434 264.43C272.466 255.754 270.368 249.237 270.304 241.295C270.239 233.354 272.917 215.106 272.046 216.782Z" fill="#DCD5C9"/>
<path fill-rule="evenodd" clip-rule="evenodd" d="M239.946 235.587C240.172 234.791 241.418 234.031 242.23 233.902C243.043 233.774 244.37 234.235 244.821 234.817C245.273 235.398 244.953 236.656 244.941 237.391C244.928 238.126 245.037 239.197 244.747 239.227C244.456 239.258 243.844 237.667 243.199 237.575C242.553 237.483 241.418 239.008 240.876 238.677C240.334 238.346 239.721 236.383 239.946 235.587Z" fill="#271C17"/>
<path fill-rule="evenodd" clip-rule="evenodd" d="M170.396 99.129C170.283 98.1037 167.073 97.6132 165.169 97.8428C163.266 98.0723 161.314 100.414 158.974 100.506C156.635 100.598 153.132 98.2877 151.131 98.3949C149.13 98.502 146.678 99.8793 146.968 101.149C147.259 102.419 150.826 105.143 152.875 106.015C154.925 106.887 157.102 106.718 159.264 106.381C161.426 106.044 163.992 105.203 165.847 103.995C167.703 102.786 170.509 100.154 170.396 99.129Z" fill="#A86740"/>
<path fill-rule="evenodd" clip-rule="evenodd" d="M153.166 82.2353C153.618 81.6081 153.02 75.9928 151.81 73.8811C150.6 71.7695 149.374 70.2082 145.905 69.5655C142.436 68.9227 131.416 69.3973 130.997 70.0245C130.578 70.6518 140.372 72.059 143.389 73.329C146.406 74.599 147.47 76.1603 149.1 77.6447C150.729 79.129 152.715 82.8626 153.166 82.2353Z" fill="#A86740"/>
<path fill-rule="evenodd" clip-rule="evenodd" d="M149.861 112.787C148.634 113.172 146.079 113.389 145.394 114.184C144.708 114.979 145.215 116.271 145.748 117.555C146.281 118.84 146.824 121.03 148.593 121.889C150.361 122.748 153.399 122.821 156.361 122.708C159.323 122.596 163.733 121.728 166.365 121.214C168.997 120.7 170.428 120.349 172.154 119.626C173.881 118.904 175.438 117.771 176.724 116.88C178.011 115.989 179.279 115.218 179.872 114.279C180.464 113.34 180.237 111.968 180.279 111.246C180.322 110.523 181.812 110.162 180.128 109.945C178.444 109.729 172.899 109.817 170.173 109.945C167.448 110.074 165.612 110.467 163.776 110.716C161.939 110.965 160.991 111.245 159.155 111.438C157.318 111.631 154.306 111.648 152.757 111.873C151.208 112.098 151.089 112.402 149.861 112.787Z" fill="#DCC7B5"/>
<path fill-rule="evenodd" clip-rule="evenodd" d="M147.018 114.713C147.331 115.436 147.229 117.282 147.576 118.277C147.923 119.272 149.505 120.555 149.099 120.683C148.693 120.812 146.417 119.85 145.139 119.047C143.861 118.245 141.938 116.51 141.431 115.868C140.923 115.226 141.38 115.516 142.092 115.195C142.803 114.874 144.877 114.023 145.698 113.943C146.519 113.863 146.705 113.991 147.018 114.713Z" fill="#42180A"/>
<path fill-rule="evenodd" clip-rule="evenodd" d="M178.297 110.235C178.78 109.954 181.352 109.93 182.106 109.995C182.859 110.059 182.979 110.137 182.818 110.622C182.658 111.106 182.151 112.01 181.144 112.901C180.137 113.792 177.215 115.769 176.775 115.967C176.334 116.164 178.096 114.802 178.502 114.088C178.908 113.374 179.246 112.323 179.212 111.681C179.178 111.039 177.815 110.516 178.297 110.235Z" fill="#42180A"/>
<path fill-rule="evenodd" clip-rule="evenodd" d="M140.968 115.324C142.157 114.452 150.551 110.625 153.745 109.631C156.94 108.636 157.988 109.662 160.134 109.356C162.28 109.05 162.798 107.749 166.621 107.795C170.445 107.84 181.479 109.087 183.078 109.631C184.677 110.174 178.9 110.649 176.216 111.055C173.531 111.46 169.521 111.664 166.973 112.066C164.426 112.467 163.342 113.174 160.93 113.463C158.518 113.752 154.889 113.566 152.502 113.799C150.116 114.031 148.533 114.604 146.61 114.859C144.688 115.113 139.778 116.195 140.968 115.324Z" fill="#BE6557"/>
<path fill-rule="evenodd" clip-rule="evenodd" d="M141.354 116.022C141.375 116.517 142.525 119.462 144.386 121.013C146.247 122.563 148.943 124.628 152.52 125.326C156.096 126.025 161.997 126.019 165.848 125.203C169.699 124.387 173.167 122.075 175.625 120.428C178.083 118.781 179.362 117.013 180.594 115.32C181.825 113.627 183.143 110.53 183.014 110.27C182.885 110.01 181.616 112.769 179.82 113.759C178.023 114.748 175.356 115.109 172.237 116.206C169.117 117.302 164.54 119.817 161.103 120.337C157.666 120.857 154.423 119.709 151.615 119.326C148.808 118.943 145.968 118.593 144.258 118.042C142.548 117.491 141.332 115.526 141.354 116.022H141.354Z" fill="#BE6557"/>
<path fill-rule="evenodd" clip-rule="evenodd" d="M149.293 26.4161C148.922 24.9475 151.068 19.7171 151.423 16.3206C151.778 12.9241 151.165 5.67005 151.423 6.03711C151.681 6.40416 152.6 15.3405 152.971 18.5229C153.343 21.7054 154.263 23.8164 153.65 25.1319C153.037 26.4474 149.664 27.8846 149.293 26.4161Z" fill="#CE875D"/>
<path fill-rule="evenodd" clip-rule="evenodd" d="M145.71 67.5455C146.662 66.8114 147.227 64.3937 146.388 63.7819C145.549 63.1702 143.144 63.7526 140.675 63.8749C138.206 63.9973 134.689 64.2258 131.576 64.516C128.462 64.8062 124.447 64.2238 121.994 65.6162C119.542 67.0085 117.152 71.9976 116.861 72.8702C116.571 73.7429 118.991 71.4951 120.25 70.852C121.509 70.2089 122.252 69.41 124.415 69.0117C126.577 68.6133 130.514 68.5991 133.224 68.4616C135.934 68.3241 138.596 68.3392 140.677 68.1865C142.758 68.0339 144.758 68.2796 145.71 67.5455Z" fill="#532B12"/>
<path fill-rule="evenodd" clip-rule="evenodd" d="M164.685 59.7436C163.361 60.2034 161.635 60.295 161.2 61.1208C160.765 61.9466 161.428 64.2092 162.074 64.6983C162.721 65.1874 162.931 64.6366 165.077 64.0552C167.223 63.4738 171.578 62.0363 174.95 61.2098C178.323 60.3833 182.035 59.2643 185.31 59.0965C188.585 58.9286 193.761 60.4774 194.599 60.2027C195.437 59.928 192 58.3057 190.338 57.4483C188.677 56.5908 186.746 55.2416 184.632 55.0579C182.518 54.8742 180.238 55.7954 177.657 56.3461C175.075 56.8969 171.303 57.7961 169.142 58.3624C166.98 58.9286 166.008 59.2839 164.685 59.7436Z" fill="#532B12"/>
<path fill-rule="evenodd" clip-rule="evenodd" d="M166.428 65.7092C164.492 66.3058 160.718 66.4746 159.943 69.5657C159.169 72.6569 161.088 81.2261 161.781 84.2559C162.475 87.2857 163.686 87.7141 164.106 87.7444C164.525 87.7748 164.427 86.106 164.298 84.4379C164.168 82.7698 163.362 79.7097 163.33 77.7359C163.298 75.7622 162.734 74.5535 164.106 72.5952C165.477 70.6369 171.172 67.1339 171.559 65.9862C171.946 64.8386 168.364 65.1126 166.428 65.7092Z" fill="#A86740"/>
<path fill-rule="evenodd" clip-rule="evenodd" d="M188.791 19.3476C189.082 18.6745 192.696 16.8838 193.826 15.6751C194.955 14.4664 194.681 12.1414 195.568 12.0956C196.455 12.0497 198.31 14.6504 199.149 15.4001C199.987 16.1497 200.117 15.7823 200.601 16.5932C201.085 17.4042 201.569 19.2101 202.053 20.2658C202.537 21.3214 202.763 22.973 203.505 22.9271C204.248 22.8813 205.798 20.0517 206.508 19.9907C207.218 19.9297 207.685 21.6891 207.766 22.5611C207.847 23.4331 206.75 24.6717 206.992 25.2225C207.234 25.7732 208.702 25.1311 209.218 25.8656C209.734 26.6 209.734 29.2314 210.088 29.6291C210.443 30.0269 210.782 27.7009 211.346 28.2519C211.911 28.803 213.315 31.4206 213.477 32.9356C213.638 34.4507 212.121 36.1336 212.315 37.3423C212.508 38.551 213.961 39.1165 214.639 40.1877C215.317 41.2589 216.881 42.5606 216.381 43.7692C215.881 44.9779 213.155 47.2564 211.639 47.4398C210.122 47.6231 207.508 45.4967 207.282 44.8694C207.056 44.2421 210.621 44.5482 210.282 43.6762C209.943 42.8043 205.086 40.2956 205.247 39.6376C205.409 38.9797 211.331 40.1725 211.25 39.7286C211.17 39.2847 205.021 37.678 204.763 36.9742C204.505 36.2705 210.041 35.7814 209.702 35.506C209.364 35.2306 203.248 36.3015 202.731 35.322C202.215 34.3425 206.717 30.2564 206.604 29.6291C206.491 29.0019 202.456 32.0478 202.053 31.5584C201.65 31.069 204.877 27.3968 204.183 26.6927C203.49 25.9886 198.665 27.7929 197.89 27.3338C197.116 26.8747 200.263 24.2595 199.537 23.9383C198.811 23.6171 193.776 26.386 193.534 25.4065C193.292 24.427 198.504 18.505 198.084 18.0614C197.665 17.6179 192.018 22.4698 191.017 22.7451C190.017 23.0205 192.453 20.2799 192.081 19.7137C191.71 19.1474 188.5 20.0207 188.791 19.3476Z" fill="#4A3629"/>
<path fill-rule="evenodd" clip-rule="evenodd" d="M139.515 20.9997C138.773 20.2497 133.029 16.3011 132.158 16.0409C131.287 15.7807 134.869 19.1169 134.288 19.4384C133.708 19.76 129.367 17.6642 128.674 17.9702C127.98 18.2763 130.61 21.03 130.126 21.2747C129.642 21.5194 127.012 19.4384 125.769 19.4384C124.527 19.4384 122.816 20.0964 122.671 21.2747C122.525 22.4531 125.397 26.3096 124.897 26.5085C124.397 26.7074 121.187 22.7588 119.67 22.4679C118.154 22.177 116.733 24.1663 115.798 24.7632C114.862 25.3602 114.281 25.4832 114.055 26.0494C113.829 26.6157 114.651 27.7478 114.441 28.1607C114.232 28.5736 113.152 28.0984 112.797 28.5268C112.442 28.9552 112.765 30.1955 112.313 30.7311C111.861 31.2667 110.424 31.2505 110.085 31.7403C109.746 32.23 110.811 33.4093 110.279 33.6696C109.746 33.9298 107.116 32.8273 106.89 33.3015C106.664 33.7757 109.344 35.5355 108.924 36.515C108.505 37.4944 104.438 38.2144 104.374 39.1784C104.309 40.1423 106.891 42.406 108.536 42.2988C110.182 42.1916 113.602 39.4379 114.247 38.5353C114.893 37.6326 112.344 37.4034 112.409 36.883C112.474 36.3626 114.522 36.0404 114.635 35.4128C114.748 34.7852 112.942 33.5917 113.087 33.1175C113.232 32.6432 115.249 32.9499 115.507 32.5674C115.766 32.1848 114.345 31.0975 114.635 30.8221C114.926 30.5467 116.846 31.3894 117.25 30.9151C117.653 30.4409 116.556 28.7418 117.056 27.9767C117.556 27.2116 118.524 26.2631 120.25 26.3245C121.976 26.3858 126.51 28.6508 127.413 28.3448C128.317 28.0387 125.461 25.2688 125.671 24.4882C125.881 23.7076 127.721 23.9519 128.674 23.6611C129.626 23.3702 130.884 23.3088 131.384 22.7429C131.884 22.177 130.803 20.6326 131.674 20.2656C132.545 19.8985 135.304 20.4183 136.611 20.5406C137.917 20.663 140.257 21.7496 139.515 20.9997Z" fill="#4A3629"/>
<path fill-rule="evenodd" clip-rule="evenodd" d="M148.72 26.2311C147.993 24.7622 140.922 22.9276 139.711 22.5606C138.499 22.1935 142.405 23.7841 141.453 24.0288C140.501 24.2735 134.788 23.7227 133.998 24.0288C133.207 24.3348 137.386 25.4977 136.708 25.8651C136.03 26.2325 130.898 25.7131 129.931 26.2331C128.964 26.7532 132.052 28.4348 130.908 28.9855C129.763 29.5363 124.275 28.8183 123.064 29.5376C121.854 30.2569 124.518 32.1535 123.647 33.3012C122.775 34.4488 118.467 35.7199 117.838 36.4236C117.208 37.1274 120.79 36.1011 119.87 37.5238C118.95 38.9465 112.577 44.0266 112.319 44.9599C112.061 45.8932 115.998 43.2611 118.322 43.1236C120.645 42.9861 123.663 44.4101 126.261 44.1348C128.859 43.8594 130.939 43.5982 133.908 41.4714C136.877 39.3445 141.605 33.9139 144.074 31.3739C146.542 28.8338 149.448 27.7 148.72 26.2311Z" fill="#CE875D"/>
<path fill-rule="evenodd" clip-rule="evenodd" d="M156.571 25.4996C158.475 24.5049 165.366 22.3164 169.061 21.643C172.756 20.9695 177.74 21.2601 178.741 21.4589C179.741 21.6578 174.126 22.5301 175.062 22.8361C175.998 23.1422 183.242 22.882 184.355 23.2952C185.469 23.7084 180.775 25.1012 181.743 25.3155C182.711 25.5299 189.132 24.1989 190.164 24.5814C191.197 24.964 187.18 26.601 187.938 27.6109C188.696 28.6207 194.457 30.1047 194.715 30.6403C194.973 31.1759 191.568 30.4266 189.486 30.8243C187.405 31.2221 185.906 33.2869 182.227 33.0266C178.549 32.7664 171.513 30.1657 167.415 29.2631C163.317 28.3605 159.445 28.2381 157.637 27.6109C155.83 26.9836 154.667 26.4942 156.571 25.4996Z" fill="#CE875D"/>
</g>
<defs>
<clipPath id="clip0">
<rect width="323" height="305" fill="white"/>
</clipPath>
</defs>
</svg>
