<svg width="323" height="309" viewBox="0 0 323 309" fill="none" xmlns="http://www.w3.org/2000/svg">
<path fill-rule="evenodd" clip-rule="evenodd" d="M0.00311279 0H322.997V308H0.00311279V0Z" fill="white"/>
<path fill-rule="evenodd" clip-rule="evenodd" d="M141.548 130.698C135.643 136.693 142.678 144.172 140.774 147.943C138.87 151.713 136.094 151.342 130.124 153.32C124.155 155.298 110.376 156.843 104.955 159.81C99.534 162.777 93.9839 156.657 97.5981 171.12C101.212 185.583 111.893 231.908 126.64 246.588C141.387 261.267 170.429 264.481 186.08 259.197C201.73 253.912 211.733 229.622 220.542 214.88C229.352 200.139 236.097 179.496 238.937 170.75C241.777 162.004 241.614 164.724 237.581 162.406C233.547 160.088 220.026 160.304 214.733 156.843C209.441 153.381 208.087 148.901 205.828 141.638C203.57 134.376 206.119 118.212 201.182 113.268C196.244 108.323 186.143 109.066 176.204 111.971C166.265 114.876 147.453 124.703 141.548 130.698V130.698Z" fill="#CE875D"/>
<path fill-rule="evenodd" clip-rule="evenodd" d="M99.7262 157.214C96.1121 156.225 98.7275 159.222 94.8877 160.737C91.0478 162.251 82.4637 164.013 76.6872 166.3C70.9108 168.586 65.489 169.668 60.229 174.458C54.9689 179.248 51.2901 184.502 45.127 195.04C38.9638 205.578 28.0258 227.951 23.2502 237.685C18.4745 247.42 19.3129 246.37 16.4732 253.447C13.6335 260.524 8.66421 273.194 6.21189 280.147C3.75957 287.1 -3.24233 291.799 1.75933 295.168C6.76099 298.536 24.347 299.37 36.2219 300.359C48.0968 301.348 49.1943 299.833 73.0087 301.1C96.8232 302.367 148.324 307.498 179.109 307.962C209.894 308.426 237.517 304.809 257.717 303.882C277.918 302.955 289.501 304.995 300.311 302.399C311.121 299.803 320.158 294.517 322.578 288.306C324.998 282.094 316.285 271.402 314.833 265.129C313.381 258.855 316.446 259.628 313.865 250.666C311.283 241.704 303.118 221.586 299.343 211.357C295.567 201.128 295.858 195.503 291.212 189.291C286.565 183.079 279.982 178.691 271.463 174.087C262.944 169.482 246.76 164.105 240.097 161.664C233.433 159.222 234.353 159.685 231.482 159.438C228.61 159.19 226.626 157.954 222.867 160.179C219.107 162.404 214.927 169.883 208.925 172.788C202.923 175.693 197.696 177.053 186.854 177.609C176.012 178.166 155.586 177.95 143.872 176.127C132.159 174.303 123.93 169.821 116.573 166.669C109.215 163.517 103.34 158.202 99.7262 157.214V157.214Z" fill="#F0EDE2"/>
<path fill-rule="evenodd" clip-rule="evenodd" d="M144.501 183.545C149.018 183.174 159.063 184.718 167.348 184.842C175.633 184.965 189.088 183.823 194.21 184.286C199.333 184.75 197.461 183.451 198.083 187.623C198.704 191.795 199.158 202.21 197.94 209.318C196.722 216.426 195.325 224.214 190.775 230.271C186.225 236.328 176.674 244.27 170.64 245.661C164.606 247.052 158.927 243.282 154.57 238.615C150.214 233.949 146.889 226.253 144.501 217.662C142.113 209.071 140.242 192.754 140.242 187.068C140.242 181.381 139.983 183.916 144.501 183.545V183.545Z" fill="#CE875D"/>
<path fill-rule="evenodd" clip-rule="evenodd" d="M98.6632 157.028C96.9853 156.92 96.7923 158.604 96.631 159.438C96.4696 160.272 94.2906 159.824 97.6951 162.034C101.1 164.243 110.701 169.281 117.058 172.696C123.415 176.111 127.029 180.422 135.838 182.523C144.647 184.625 158.877 185.181 169.913 185.305C180.948 185.428 191.339 186.958 202.053 183.265C212.766 179.572 228.739 167.056 234.193 163.147C239.647 159.238 236.292 160.768 234.775 159.81C233.259 158.852 228.611 155.853 225.094 157.398C221.577 158.943 217.575 166.099 213.67 169.081C209.766 172.064 206.588 173.855 201.667 175.292C196.746 176.729 191.454 177.377 184.145 177.702C176.836 178.026 165.735 177.763 157.813 177.238C149.891 176.713 142.55 176.111 136.612 174.551C130.675 172.99 127.174 170.285 122.188 167.875C117.203 165.464 110.619 161.895 106.698 160.088C102.777 158.28 100.341 157.137 98.6632 157.028V157.028Z" fill="#DCD5C9"/>
<path fill-rule="evenodd" clip-rule="evenodd" d="M114.054 99.1751C107.438 97.5372 109.827 89.6876 107.859 87.4936C105.891 85.2996 103.083 87.6488 102.244 86.011C101.405 84.3731 103.534 80.386 102.824 77.6665C102.114 74.9469 98.2416 73.0929 97.9836 69.6936C97.7255 66.2944 101.276 60.2375 101.276 57.2708C101.276 54.3042 97.7579 53.9951 97.9836 51.8937C98.2092 49.7922 102.146 46.5475 102.63 44.6622C103.114 42.7769 100.404 42.5291 100.888 40.5818C101.372 38.6346 104.728 35.2966 105.535 32.9786C106.341 30.6607 104.954 28.0647 105.729 26.6743C106.503 25.2839 108.955 26.1502 110.181 24.6362C111.407 23.1222 111.956 18.7342 113.086 17.5905C114.215 16.4469 115.796 18.5163 116.958 17.7743C118.12 17.0323 116.023 15.549 120.057 13.1385C124.09 10.728 135.9 4.60918 141.159 3.31135C146.419 2.01352 148.646 5.87672 151.615 5.35153C154.584 4.82633 155.101 0.747345 158.974 0.160207C162.846 -0.42693 170.752 1.05606 174.85 1.8287C178.948 2.60134 181.689 4.33246 183.561 4.79604C185.432 5.25963 185.402 4.27051 186.079 4.6102C186.757 4.94989 186.789 6.55609 187.627 6.83418C188.466 7.11226 189.853 5.87672 191.112 6.27869C192.37 6.68067 193.597 8.28789 195.178 9.24604C196.76 10.2042 198.889 10.5132 200.599 12.0275C202.309 13.5418 203.665 16.6324 205.44 18.3319C207.215 20.0313 209.958 20.4629 211.249 22.2243C212.539 23.9857 212.475 26.706 213.185 28.9003C213.895 31.0947 215.251 33.6601 215.509 35.3905C215.767 37.1209 213.959 37.367 214.733 39.283C215.507 41.1989 219.349 44.1666 220.156 46.8862C220.963 49.6057 219.638 52.9117 219.574 55.6003C219.509 58.2889 219.058 61.0397 219.768 63.0176C220.478 64.9955 223.641 65.4588 223.834 67.4676C224.028 69.4765 222.995 71.7951 220.93 75.0708C218.865 78.3465 223.673 83.4136 211.443 87.1219C199.213 90.8303 163.782 95.3119 147.55 97.3208C131.319 99.3296 120.669 100.813 114.054 99.1751V99.1751Z" fill="#2A1B13"/>
<path fill-rule="evenodd" clip-rule="evenodd" d="M201.957 119.572C203.215 122.168 202.313 131.687 201.377 136.632C200.441 141.577 199.892 144.698 196.342 149.241C192.792 153.783 183.628 159.53 180.078 163.888C176.528 168.245 179.884 173.686 175.043 175.385C170.203 177.085 157.103 175.416 151.036 174.087C144.97 172.757 142.872 168.461 138.645 167.411C134.417 166.36 130.578 169.173 125.673 167.782C120.768 166.392 107.924 161.571 109.215 159.068C110.505 156.565 128.19 154.433 133.418 152.764C138.646 151.095 139.548 151.929 140.581 149.055C141.613 146.181 137.741 138.702 139.613 135.519C141.484 132.336 146.163 130.358 151.81 129.956C157.457 129.554 166.493 134.591 173.495 133.107C180.498 131.624 189.082 123.312 193.826 121.056C198.57 118.8 200.698 116.976 201.957 119.572V119.572Z" fill="#9E633B"/>
<path fill-rule="evenodd" clip-rule="evenodd" d="M109.407 85.455C108.084 88.3291 105.131 92.3308 104.567 97.1365C104.002 101.942 104.067 107.907 106.019 114.289C107.971 120.671 113.182 129.245 116.28 135.426C119.379 141.607 125.318 154.217 124.608 151.374C123.898 148.531 114.184 127.098 112.022 118.367C109.859 109.637 111.489 104.09 111.634 98.9908C111.779 93.8917 112.746 90.956 112.892 87.7729C113.037 84.5898 113.087 80.2783 112.506 79.892C111.925 79.5057 110.731 82.5809 109.407 85.455V85.455Z" fill="#2A1B13"/>
<path fill-rule="evenodd" clip-rule="evenodd" d="M209.12 102.698C211.153 102.636 212.025 106.222 212.606 107.705C213.187 109.189 211.929 109.991 212.606 111.598C213.284 113.205 215.864 114.782 216.671 117.347C217.477 119.912 216.412 123.898 217.445 126.988C218.478 130.078 221.9 133.416 222.868 135.888C223.836 138.361 222.189 140.061 223.254 141.823C224.319 143.585 228.031 144.481 229.257 146.459C230.483 148.436 229.74 151.311 230.611 153.69C231.482 156.07 234.031 158.511 234.483 160.736C234.936 162.961 232.194 164.846 233.323 167.04C234.453 169.234 240.099 171.458 241.261 173.9C242.422 176.341 239.808 179.031 240.292 181.689C240.776 184.347 243.907 187.25 244.165 189.846C244.423 192.441 241.552 195.099 241.843 197.263C242.133 199.426 245.617 201.126 245.907 202.826C246.198 204.526 243.262 205.422 243.585 207.462C243.908 209.502 247.747 212.84 247.844 215.065C247.94 217.29 244.036 218.896 244.165 220.812C244.294 222.728 248.682 225.046 248.618 226.561C248.553 228.075 244.402 228.039 243.777 229.897C243.152 231.756 245.524 236.35 244.869 237.709C244.213 239.068 240.638 239.259 239.842 238.05C239.047 236.841 241.056 232.399 240.098 230.453C239.141 228.507 234.775 228.105 234.097 226.375C233.42 224.644 236.421 221.894 236.034 220.07C235.646 218.247 232.063 216.763 231.773 215.434C231.483 214.106 234.872 213.21 234.292 212.098C233.711 210.985 228.902 210.491 228.289 208.761C227.675 207.03 230.772 203.814 230.611 201.713C230.45 199.611 227.74 198.469 227.32 196.152C226.901 193.834 228.805 189.878 228.095 187.807C227.384 185.737 223.769 185.705 223.06 183.727C222.35 181.749 224.513 178.103 223.836 175.94C223.159 173.777 219.641 172.758 218.995 170.749C218.35 168.74 220.609 165.834 219.963 163.887C219.318 161.94 215.929 160.983 215.123 159.067C214.316 157.151 215.574 154.493 215.123 152.391C214.671 150.29 212.703 148.591 212.412 146.459C212.122 144.326 213.832 141.791 213.38 139.597C212.929 137.402 210.122 135.548 209.702 133.292C209.282 131.036 211.604 128.193 210.862 126.061C210.119 123.929 206.989 123.496 205.247 120.498C203.505 117.5 199.763 111.042 200.408 108.075C201.054 105.108 207.087 102.76 209.12 102.698V102.698Z" fill="#2A1B13"/>
<path fill-rule="evenodd" clip-rule="evenodd" d="M124.899 124.765C123.285 126.032 121.67 128.659 121.412 131.069C121.154 133.48 123.735 136.817 123.348 139.228C122.961 141.638 119.606 143.678 119.09 145.532C118.574 147.386 121.639 148.467 120.252 150.352C118.864 152.237 112.378 153.751 110.764 156.842C109.151 159.933 111.281 165.465 110.57 168.895C109.86 172.325 106.633 174.426 106.504 177.423C106.375 180.421 109.861 184.038 109.796 186.881C109.732 189.724 106.376 192.226 106.118 194.482C105.859 196.738 108.536 198.253 108.246 200.417C107.956 202.58 105.085 205.083 104.376 207.462C103.666 209.842 104.601 212.407 103.987 214.694C103.374 216.981 100.791 218.99 100.695 221.184C100.598 223.378 103.569 226.004 103.407 227.858C103.246 229.712 99.9204 230.516 99.7267 232.308C99.533 234.1 102.245 236.665 102.245 238.612C102.245 240.559 99.1783 243.031 99.7267 243.99C100.275 244.948 104.019 245.226 105.536 244.361C107.052 243.496 107.57 241.054 108.828 238.798C110.087 236.542 112.667 232.958 113.087 230.825C113.506 228.693 111.022 227.487 111.344 226.004C111.667 224.52 114.733 223.656 115.023 221.925C115.313 220.195 112.538 217.568 113.087 215.621C113.635 213.674 117.734 212.376 118.316 210.244C118.897 208.111 115.993 204.897 116.573 202.827C117.154 200.756 121.09 199.644 121.8 197.821C122.51 195.998 120.154 194.359 120.832 191.886C121.51 189.414 125.286 186.046 125.867 182.986C126.447 179.927 123.574 176.436 124.316 173.531C125.059 170.626 129.513 168.214 130.319 165.556C131.126 162.898 128.576 160.086 129.157 157.583C129.738 155.08 133.514 152.701 133.804 150.538C134.094 148.375 130.383 146.83 130.899 144.605C131.416 142.38 136.87 140.711 136.902 137.188C136.935 133.664 133.094 125.536 131.093 123.466C129.093 121.396 126.512 123.498 124.899 124.765V124.765Z" fill="#2A1B13"/>
<path fill-rule="evenodd" clip-rule="evenodd" d="M180.078 25.7487C173.818 24.0955 164.267 23.4018 156.845 23.8964C149.423 24.391 142.387 25.3015 135.546 28.716C128.705 32.1306 119.734 38.0023 115.797 44.3839C111.861 50.7655 112.314 58.8622 111.927 67.0056C111.54 75.1489 112.636 86.3988 113.475 93.244C114.314 100.089 114.959 102.267 116.96 108.077C118.96 113.886 121.606 122.602 125.479 128.103C129.351 133.604 134.257 137.622 140.195 141.083C146.132 144.544 154.391 148.746 161.103 148.87C167.815 148.993 174.529 144.791 180.466 141.824C186.403 138.858 192.146 135.149 196.728 131.07C201.31 126.991 205.443 122.108 207.96 117.348C210.477 112.589 210.411 105.171 211.83 102.514C213.25 99.856 215.25 102.886 216.477 101.403C217.703 99.9193 218.221 97.0133 219.189 93.6136C220.157 90.214 221.963 85.0224 222.285 81.005C222.608 76.9876 222.094 71.7343 221.125 69.5093C220.157 67.2844 218.09 67.0989 216.477 67.655C214.863 68.2112 212.993 74.7007 211.444 72.8463C209.895 70.992 209.378 60.5311 207.183 56.529C204.989 52.5269 200.408 52.6195 198.278 48.8339C196.149 45.0483 197.439 37.663 194.406 33.8155C191.372 29.9679 186.338 27.4019 180.078 25.7487V25.7487Z" fill="#CE875D"/>
<path fill-rule="evenodd" clip-rule="evenodd" d="M211.056 72.1036C212.443 76.5226 217.93 82.8882 219.769 88.0493C221.609 93.2103 222.803 96.6109 222.094 103.07C221.384 109.529 215.382 125.783 215.511 126.802C215.64 127.822 221.448 114.813 222.868 109.188C224.287 103.564 224.738 98.712 224.028 93.0568C223.318 87.4015 220.704 80.5104 218.607 75.2568C216.51 70.0032 212.703 62.0607 211.444 61.5351C210.186 61.0096 209.668 67.6846 211.056 72.1036V72.1036Z" fill="#2A1B13"/>
<path fill-rule="evenodd" clip-rule="evenodd" d="M100.309 248.811C98.5663 249.49 93.9516 258.081 92.7578 262.902C91.5639 267.723 91.6613 274.646 93.1459 277.737C94.6304 280.827 99.5355 279.218 101.665 281.443C103.795 283.668 105.149 291.272 105.924 291.087C106.698 290.901 106.764 285.709 106.312 280.332C105.86 274.955 104.214 264.077 103.213 258.824C102.213 253.57 102.052 248.131 100.309 248.811V248.811Z" fill="#2A1B13"/>
<path fill-rule="evenodd" clip-rule="evenodd" d="M241.274 240.453C239.854 243.296 238.111 252.444 237.013 258.996C235.916 265.548 235.207 274.201 234.691 279.763C234.175 285.326 232.368 292.372 233.917 292.372C235.466 292.372 241.08 283.41 243.985 279.763C246.889 276.117 250.373 273.953 251.342 270.492C252.31 267.03 250.762 263.755 249.793 258.996C248.825 254.237 246.953 245.028 245.533 241.937C244.113 238.847 242.694 237.61 241.274 240.453V240.453Z" fill="#2A1B13"/>
<path fill-rule="evenodd" clip-rule="evenodd" d="M104.761 244.917C104.568 244.206 103.502 243.403 102.631 243.248C101.76 243.094 100.083 242.846 99.5346 243.989C98.9862 245.133 98.9212 249.028 99.3405 250.11C99.7599 251.192 101.309 250.912 102.051 250.48C102.793 250.047 103.341 248.441 103.793 247.514C104.245 246.587 104.955 245.628 104.761 244.917V244.917Z" fill="#271C17"/>
<path fill-rule="evenodd" clip-rule="evenodd" d="M75.3315 222.813C73.6535 224.086 67.0393 238.548 63.7158 248.462C60.3923 258.376 54.2934 274.089 55.3905 282.297C56.4877 290.506 67.2657 299.488 70.2988 297.715C73.3319 295.941 73.0085 281.138 73.5892 271.655C74.17 262.173 73.4929 248.963 73.7833 240.822C74.0736 232.682 77.0094 221.54 75.3315 222.813V222.813Z" fill="#DCD5C9"/>
<path fill-rule="evenodd" clip-rule="evenodd" d="M272.044 218.914C271.172 220.606 266.978 244.178 265.075 253.82C263.171 263.463 262.913 269.442 260.622 276.766C258.331 284.09 249.745 294.521 251.326 297.765C252.908 301.01 266.592 301.358 270.109 296.235C273.627 291.113 272.4 275.792 272.432 267.031C272.464 258.27 270.366 251.688 270.301 243.669C270.237 235.649 272.915 217.222 272.044 218.914V218.914Z" fill="#DCD5C9"/>
<path fill-rule="evenodd" clip-rule="evenodd" d="M239.944 237.904C240.17 237.101 241.416 236.333 242.228 236.203C243.041 236.074 244.368 236.539 244.819 237.126C245.271 237.713 244.951 238.984 244.939 239.726C244.926 240.468 245.035 241.549 244.745 241.58C244.454 241.611 243.842 240.004 243.196 239.912C242.551 239.819 241.416 241.359 240.874 241.025C240.332 240.69 239.719 238.708 239.944 237.904V237.904Z" fill="#271C17"/>
<path fill-rule="evenodd" clip-rule="evenodd" d="M170.396 100.104C170.283 99.0686 167.073 98.5734 165.169 98.8052C163.266 99.037 161.314 101.402 158.974 101.495C156.635 101.588 153.132 99.2545 151.131 99.3627C149.13 99.4709 146.678 100.862 146.968 102.144C147.259 103.427 150.826 106.177 152.875 107.058C154.925 107.938 157.102 107.767 159.264 107.427C161.426 107.087 163.992 106.238 165.847 105.018C167.703 103.797 170.509 101.139 170.396 100.104V100.104Z" fill="#A86740"/>
<path fill-rule="evenodd" clip-rule="evenodd" d="M153.167 83.0442C153.619 82.4108 153.021 76.7403 151.811 74.6078C150.6 72.4754 149.374 70.8988 145.906 70.2498C142.437 69.6007 131.417 70.0799 130.997 70.7133C130.578 71.3468 140.372 72.7678 143.389 74.0503C146.406 75.3328 147.471 76.9094 149.1 78.4084C150.73 79.9074 152.715 83.6777 153.167 83.0442V83.0442Z" fill="#A86740"/>
<path fill-rule="evenodd" clip-rule="evenodd" d="M149.861 113.896C148.634 114.285 146.079 114.505 145.394 115.307C144.708 116.11 145.214 117.415 145.748 118.712C146.281 120.009 146.823 122.221 148.592 123.088C150.361 123.955 153.399 124.029 156.361 123.915C159.323 123.802 163.732 122.925 166.364 122.406C168.997 121.887 170.428 121.532 172.154 120.803C173.881 120.074 175.438 118.93 176.724 118.03C178.01 117.13 179.279 116.352 179.872 115.403C180.464 114.455 180.236 113.069 180.279 112.34C180.322 111.611 181.812 111.246 180.128 111.027C178.443 110.808 172.898 110.897 170.173 111.027C167.448 111.157 165.612 111.554 163.776 111.805C161.939 112.056 160.991 112.339 159.155 112.534C157.318 112.729 154.306 112.746 152.757 112.973C151.208 113.2 151.088 113.507 149.861 113.896V113.896Z" fill="#DCC7B5"/>
<path fill-rule="evenodd" clip-rule="evenodd" d="M147.017 115.842C147.331 116.571 147.229 118.435 147.576 119.44C147.923 120.445 149.505 121.741 149.099 121.87C148.693 122 146.417 121.029 145.139 120.218C143.861 119.408 141.938 117.656 141.43 117.008C140.922 116.359 141.38 116.652 142.091 116.328C142.803 116.004 144.876 115.145 145.697 115.064C146.518 114.983 146.704 115.112 147.017 115.842V115.842Z" fill="#42180A"/>
<path fill-rule="evenodd" clip-rule="evenodd" d="M178.297 111.32C178.779 111.036 181.352 111.012 182.105 111.077C182.859 111.142 182.978 111.221 182.818 111.71C182.657 112.199 182.151 113.112 181.144 114.011C180.136 114.911 177.214 116.908 176.774 117.107C176.334 117.307 178.095 115.931 178.501 115.21C178.908 114.489 179.246 113.428 179.211 112.78C179.177 112.131 177.814 111.604 178.297 111.32V111.32Z" fill="#42180A"/>
<path fill-rule="evenodd" clip-rule="evenodd" d="M140.968 116.458C142.157 115.578 150.551 111.714 153.746 110.709C156.94 109.705 157.989 110.74 160.135 110.431C162.281 110.122 162.798 108.809 166.622 108.855C170.446 108.901 181.479 110.16 183.078 110.709C184.677 111.258 178.9 111.737 176.216 112.147C173.532 112.557 169.521 112.763 166.974 113.168C164.426 113.573 163.342 114.287 160.93 114.579C158.518 114.871 154.889 114.683 152.503 114.918C150.116 115.153 148.533 115.732 146.61 115.988C144.688 116.245 139.779 117.338 140.968 116.458V116.458Z" fill="#BE6557"/>
<path fill-rule="evenodd" clip-rule="evenodd" d="M141.354 117.163C141.375 117.663 142.525 120.637 144.386 122.203C146.247 123.769 148.942 125.854 152.519 126.559C156.096 127.264 161.996 127.259 165.847 126.434C169.698 125.61 173.167 123.276 175.625 121.613C178.083 119.949 179.362 118.164 180.594 116.454C181.825 114.744 183.143 111.617 183.014 111.355C182.885 111.092 181.616 113.878 179.819 114.877C178.023 115.876 175.356 116.241 172.236 117.349C169.117 118.456 164.539 120.996 161.103 121.521C157.666 122.046 154.423 120.886 151.615 120.5C148.808 120.113 145.968 119.759 144.258 119.203C142.548 118.647 141.332 116.663 141.354 117.163H141.354Z" fill="#BE6557"/>
<path fill-rule="evenodd" clip-rule="evenodd" d="M149.293 26.6759C148.922 25.1929 151.068 19.911 151.423 16.4811C151.778 13.0512 151.165 5.72578 151.423 6.09644C151.681 6.4671 152.6 15.4913 152.971 18.7051C153.342 21.9189 154.262 24.0506 153.649 25.3791C153.036 26.7075 149.664 28.1589 149.293 26.6759V26.6759Z" fill="#CE875D"/>
<path fill-rule="evenodd" clip-rule="evenodd" d="M145.71 68.2098C146.662 67.4685 147.228 65.027 146.389 64.4093C145.549 63.7915 143.144 64.3796 140.676 64.5032C138.207 64.6268 134.69 64.8575 131.576 65.1506C128.463 65.4436 124.447 64.8555 121.995 66.2615C119.543 67.6676 117.153 72.7058 116.862 73.587C116.571 74.4682 118.992 72.1983 120.251 71.5488C121.509 70.8994 122.253 70.0927 124.415 69.6904C126.578 69.2881 130.514 69.2738 133.225 69.1349C135.935 68.9961 138.597 69.0114 140.678 68.8572C142.759 68.703 144.759 68.9512 145.71 68.2098V68.2098Z" fill="#532B12"/>
<path fill-rule="evenodd" clip-rule="evenodd" d="M164.684 60.3313C163.361 60.7956 161.635 60.8882 161.2 61.7221C160.765 62.556 161.428 64.8409 162.074 65.3347C162.72 65.8286 162.93 65.2725 165.076 64.6853C167.222 64.0982 171.578 62.6465 174.95 61.8119C178.322 60.9773 182.035 59.8473 185.31 59.6778C188.584 59.5083 193.761 61.0723 194.599 60.7949C195.437 60.5175 191.999 58.8793 190.338 58.0134C188.677 57.1475 186.745 55.785 184.631 55.5995C182.518 55.414 180.238 56.3442 177.656 56.9004C175.074 57.4566 171.303 58.3647 169.141 58.9365C166.979 59.5083 166.008 59.8671 164.684 60.3313V60.3313Z" fill="#532B12"/>
<path fill-rule="evenodd" clip-rule="evenodd" d="M166.428 66.3555C164.492 66.958 160.717 67.1285 159.943 70.25C159.168 73.3716 161.087 82.0251 161.781 85.0847C162.475 88.1443 163.686 88.5769 164.105 88.6076C164.525 88.6382 164.427 86.953 164.297 85.2685C164.168 83.584 163.361 80.4938 163.329 78.5006C163.297 76.5074 162.734 75.2868 164.105 73.3093C165.477 71.3317 171.171 67.7943 171.558 66.6353C171.945 65.4764 168.363 65.7531 166.428 66.3555V66.3555Z" fill="#A86740"/>
<path fill-rule="evenodd" clip-rule="evenodd" d="M188.79 19.5379C189.081 18.8582 192.695 17.0498 193.825 15.8292C194.954 14.6087 194.68 12.2608 195.567 12.2145C196.454 12.1682 198.309 14.7945 199.148 15.5515C199.986 16.3085 200.116 15.9375 200.6 16.7564C201.084 17.5753 201.568 19.399 202.052 20.4651C202.536 21.5311 202.762 23.1989 203.504 23.1526C204.247 23.1063 205.797 20.2489 206.507 20.1873C207.217 20.1257 207.684 21.9024 207.765 22.783C207.846 23.6635 206.749 24.9144 206.991 25.4705C207.233 26.0267 208.701 25.3783 209.217 26.12C209.733 26.8616 209.733 29.5189 210.087 29.9205C210.442 30.3222 210.781 27.9733 211.345 28.5298C211.91 29.0863 213.314 31.7296 213.476 33.2596C213.637 34.7895 212.12 36.489 212.314 37.7096C212.507 38.9301 213.96 39.5013 214.638 40.583C215.316 41.6646 216.88 42.9792 216.38 44.1997C215.88 45.4203 213.154 47.7212 211.638 47.9063C210.121 48.0915 207.507 45.9441 207.281 45.3107C207.055 44.6773 210.62 44.9863 210.281 44.1058C209.942 43.2252 205.085 40.6919 205.247 40.0275C205.408 39.3631 211.33 40.5676 211.249 40.1194C211.169 39.6711 205.02 38.0486 204.762 37.3379C204.504 36.6272 210.04 36.1333 209.701 35.8552C209.363 35.5771 203.247 36.6585 202.73 35.6694C202.214 34.6803 206.716 30.554 206.603 29.9205C206.49 29.2871 202.455 32.363 202.052 31.8688C201.649 31.3746 204.876 27.6663 204.182 26.9552C203.489 26.2442 198.664 28.0662 197.889 27.6026C197.115 27.139 200.262 24.4981 199.536 24.1737C198.81 23.8494 193.775 26.6455 193.533 25.6564C193.291 24.6673 198.503 18.687 198.083 18.239C197.664 17.7911 192.017 22.6907 191.016 22.9688C190.016 23.2469 192.452 20.4794 192.081 19.9075C191.709 19.3357 188.499 20.2176 188.79 19.5379V19.5379Z" fill="#4A3629"/>
<path fill-rule="evenodd" clip-rule="evenodd" d="M139.516 21.2063C138.774 20.4489 133.03 16.4615 132.159 16.1987C131.288 15.936 134.87 19.3049 134.289 19.6297C133.708 19.9544 129.368 17.838 128.674 18.147C127.981 18.4561 130.611 21.2369 130.127 21.484C129.642 21.7311 127.012 19.6297 125.77 19.6297C124.527 19.6297 122.817 20.2941 122.671 21.484C122.526 22.6739 125.398 26.5684 124.898 26.7693C124.398 26.9701 121.187 22.9826 119.671 22.6889C118.154 22.3952 116.734 24.404 115.798 25.0068C114.862 25.6096 114.282 25.7339 114.056 26.3057C113.83 26.8775 114.652 28.0208 114.442 28.4377C114.232 28.8547 113.153 28.3748 112.798 28.8074C112.443 29.24 112.766 30.4926 112.314 31.0334C111.862 31.5743 110.424 31.5579 110.085 32.0525C109.746 32.547 110.812 33.738 110.279 34.0007C109.747 34.2635 107.117 33.1502 106.891 33.6291C106.665 34.108 109.345 35.885 108.925 36.8741C108.506 37.8633 104.439 38.5903 104.375 39.5638C104.31 40.5372 106.892 42.8231 108.537 42.7149C110.183 42.6067 113.603 39.8258 114.248 38.9143C114.893 38.0028 112.345 37.7714 112.41 37.2458C112.474 36.7203 114.523 36.3949 114.636 35.7611C114.749 35.1274 112.943 33.9221 113.088 33.4432C113.233 32.9643 115.25 33.2741 115.508 32.8877C115.766 32.5014 114.346 31.4034 114.636 31.1253C114.926 30.8472 116.847 31.6981 117.251 31.2192C117.654 30.7403 116.556 29.0245 117.056 28.2519C117.557 27.4793 118.525 26.5215 120.251 26.5834C121.977 26.6454 126.511 28.9326 127.414 28.6236C128.317 28.3145 125.462 25.5174 125.672 24.7291C125.882 23.9408 127.722 24.1876 128.674 23.8938C129.626 23.6001 130.885 23.5381 131.385 22.9666C131.885 22.3952 130.804 20.8356 131.675 20.4649C132.546 20.0943 135.305 20.6191 136.611 20.7427C137.918 20.8662 140.258 21.9636 139.516 21.2063V21.2063Z" fill="#4A3629"/>
<path fill-rule="evenodd" clip-rule="evenodd" d="M148.721 26.4892C147.994 25.0059 140.922 23.1532 139.711 22.7826C138.5 22.4119 142.405 24.0181 141.453 24.2652C140.501 24.5123 134.789 23.9562 133.998 24.2652C133.207 24.5743 137.386 25.7485 136.708 26.1195C136.031 26.4905 130.898 25.966 129.931 26.4912C128.965 27.0164 132.052 28.7145 130.908 29.2707C129.764 29.8269 124.275 29.1019 123.065 29.8282C121.855 30.5546 124.518 32.4698 123.647 33.6288C122.776 34.7877 118.467 36.0713 117.838 36.782C117.209 37.4927 120.79 36.4562 119.87 37.8929C118.95 39.3296 112.577 44.4597 112.319 45.4022C112.061 46.3447 115.998 43.6867 118.322 43.5478C120.646 43.409 123.664 44.847 126.261 44.5689C128.859 44.2909 130.94 44.0271 133.908 41.8793C136.877 39.7316 141.605 34.2476 144.074 31.6825C146.543 29.1175 149.448 27.9725 148.721 26.4892V26.4892Z" fill="#CE875D"/>
<path fill-rule="evenodd" clip-rule="evenodd" d="M156.571 25.7503C158.475 24.7459 165.366 22.5359 169.061 21.8558C172.756 21.1758 177.74 21.4692 178.74 21.67C179.74 21.8708 174.126 22.7517 175.062 23.0607C175.997 23.3698 183.242 23.107 184.355 23.5243C185.469 23.9416 180.775 25.348 181.743 25.5645C182.711 25.781 189.131 24.4368 190.164 24.8232C191.196 25.2095 187.179 26.8627 187.938 27.8824C188.696 28.9022 194.457 30.4008 194.715 30.9417C194.973 31.4825 191.567 30.7259 189.486 31.1275C187.405 31.5291 185.905 33.6142 182.227 33.3515C178.548 33.0887 171.513 30.4624 167.415 29.5509C163.316 28.6394 159.444 28.5158 157.637 27.8824C155.83 27.249 154.667 26.7548 156.571 25.7503V25.7503Z" fill="#CE875D"/>
</svg>
