<svg width="247" height="308" viewBox="0 0 247 308" fill="none" xmlns="http://www.w3.org/2000/svg">
<path fill-rule="evenodd" clip-rule="evenodd" d="M0.846191 0.0864258H246.882V308.086H0.846191V0.0864258Z" fill="white"/>
<path fill-rule="evenodd" clip-rule="evenodd" d="M209.229 154.374C211.108 150.109 211.578 152.229 213.087 152.129C214.595 152.029 216.474 151.529 218.279 153.774C220.084 156.018 222.21 160.358 223.915 165.595C225.621 170.832 227.079 178.513 228.513 185.197C229.947 191.881 231.48 199.213 232.519 205.697C233.557 212.181 233.854 219.114 234.744 224.102C235.634 229.09 236.968 231.11 237.858 235.624C238.748 240.138 239.292 246.672 240.083 251.186C240.875 255.7 242.433 258.119 242.606 262.707C242.779 267.296 240.455 273.73 241.122 278.718C241.79 283.706 248.267 288.594 246.61 292.634C244.954 296.674 238.181 302.608 231.184 302.958C224.187 303.307 211.355 295.527 204.63 294.729C197.906 293.931 193.185 300.539 190.836 298.17C188.488 295.801 189.822 291.187 190.539 280.513C191.256 269.839 193.259 251.26 195.138 234.127C197.017 216.994 199.463 191.007 201.812 177.715C204.161 164.423 207.35 158.638 209.229 154.374Z" fill="#A67B4F"/>
<path fill-rule="evenodd" clip-rule="evenodd" d="M46.0576 154.821C44.9945 153.749 44.0061 152.826 42.0532 152.726C40.1003 152.627 36.5653 152.976 34.3401 154.223C32.1149 155.47 29.8641 157.415 28.7019 160.209C27.5398 163.002 27.6389 168.812 27.3671 170.982C27.0954 173.151 27.714 172.004 27.0714 173.226C26.4288 174.448 24.7972 174.324 23.5114 178.314C22.2256 182.304 20.4941 192.205 19.3567 197.167C18.2193 202.13 17.5277 204.624 16.6871 208.091C15.8465 211.557 14.7337 214.923 14.3132 217.966C13.8928 221.008 14.9556 223.328 14.1646 226.346C13.3736 229.364 10.2345 233.228 9.56712 236.071C8.89972 238.914 10.9019 239.962 10.1602 243.403C9.41845 246.845 6.17975 252.88 5.11671 256.721C4.05366 260.562 4.47409 263.305 3.78191 266.448C3.08973 269.59 1.30973 272.507 0.963639 275.575C0.61755 278.642 1.1616 281.385 1.70537 284.851C2.24915 288.318 -0.990088 294.228 4.2263 296.373C9.44268 298.518 25.2405 298.02 33.0037 297.721C40.7669 297.422 47.2946 301.486 50.8053 294.578C54.3161 287.67 53.0545 273.131 54.068 256.273C55.0815 239.414 57.8257 209.612 56.8863 193.426C55.9468 177.241 50.2362 165.595 48.4315 159.16C46.6267 152.726 47.1206 155.893 46.0576 154.821Z" fill="#A67B4F"/>
<path fill-rule="evenodd" clip-rule="evenodd" d="M212.048 161.703C213.63 161.454 212.692 167.889 211.752 171.88C210.813 175.87 207.475 181.656 206.411 185.646C205.348 189.636 204.68 189.711 205.372 195.821C206.065 201.931 208.784 212.604 210.565 222.305C212.345 232.006 215.56 244.177 216.054 254.028C216.548 263.879 214.125 274.677 213.531 281.41C212.938 288.144 216.376 294.553 212.494 294.428C208.612 294.303 193.654 288.318 190.242 280.662C186.83 273.006 191.182 259.913 192.023 248.491C192.863 237.069 193.579 224.649 195.285 212.13C196.991 199.611 199.465 181.779 202.258 173.375C205.052 164.97 210.466 161.952 212.048 161.703Z" fill="#664128"/>
<path fill-rule="evenodd" clip-rule="evenodd" d="M41.014 157.216C39.5305 156.518 37.9975 155.619 36.5636 157.066C35.1296 158.512 32.4105 160.757 32.4105 165.894C32.4105 171.032 35.2037 182.404 36.5636 187.891C37.9234 193.377 41.4102 191.73 40.5696 198.812C39.729 205.895 34.4127 220.435 31.5201 230.386C28.6275 240.336 24.6724 249.139 23.2139 258.516C21.7555 267.893 18.097 280.288 22.7696 286.648C27.4422 293.007 44.8958 301.536 51.2496 296.673C57.6034 291.81 60.3481 275.201 60.8921 257.469C61.4362 239.738 57.0852 206.319 54.5139 190.284C51.9426 174.248 47.7144 166.767 45.4644 161.255C43.2144 155.744 42.4974 157.914 41.014 157.216H41.014Z" fill="#664128"/>
<path fill-rule="evenodd" clip-rule="evenodd" d="M60.8928 143.898C52.6847 145.943 48.6299 150.556 44.872 153.025C41.114 155.494 39.8533 156.293 38.345 158.712C36.8368 161.131 35.526 163.2 35.8225 167.539C36.119 171.879 39.2836 181.107 40.1242 184.748C40.9648 188.389 40.6187 185.57 40.866 189.386C41.1132 193.201 41.3109 201.556 41.6077 207.641C41.9045 213.726 42.5724 220.16 42.6468 225.896C42.7211 231.632 41.4604 233.129 42.0537 242.057C42.647 250.985 44.6492 269.715 46.2068 279.466C47.7643 289.217 46.0587 296.798 51.3989 300.564C56.7392 304.33 70.0404 302.385 78.2485 302.06C86.4566 301.736 90.2145 297.87 100.648 298.618C111.081 299.366 129.474 306.124 140.847 306.548C152.219 306.972 160.18 302.459 168.882 301.162C177.585 299.865 188.932 300.763 193.061 298.768C197.189 296.772 192.889 295.425 193.655 289.191C194.422 282.956 196.745 269.615 197.66 261.36C198.574 253.106 198.822 247.344 199.143 239.662C199.465 231.981 199.093 223.154 199.588 215.273C200.082 207.392 199.959 200.259 202.11 192.379C204.261 184.498 210.616 174.124 212.494 167.989C214.373 161.854 213.482 158.213 213.383 155.57C213.284 152.926 216.993 155.47 211.9 152.128C206.807 148.787 190.911 138.585 182.827 135.518C174.742 132.45 172.864 133.324 163.394 133.723C153.925 134.122 137.558 136.74 126.012 137.913C114.466 139.085 104.974 139.758 94.1206 140.755C83.2674 141.753 69.1009 141.853 60.8928 143.898Z" fill="#A67B4F"/>
<path fill-rule="evenodd" clip-rule="evenodd" d="M95.4556 126.54C95.53 129.209 96.0738 130.78 96.9391 133.873C97.8045 136.965 99.1646 141.702 100.648 145.094C102.131 148.486 104.899 151.03 105.838 154.223C106.778 157.415 105.172 159.834 106.284 164.248C107.397 168.662 110.141 178.163 112.514 180.707C114.887 183.25 118.695 181.38 120.524 179.51C122.354 177.64 122.577 172.927 123.491 169.485C124.406 166.043 124.628 162.825 126.012 158.86C127.397 154.895 130.042 150.208 131.797 145.694C133.553 141.18 135.259 136.516 136.545 131.778C137.831 127.04 139.611 122.401 139.512 117.264C139.413 112.126 140.897 101.552 135.952 100.953C131.007 100.355 116.421 110.854 109.844 113.673C103.268 116.491 98.8912 115.717 96.4931 117.862C94.095 120.007 95.3813 123.872 95.4556 126.54Z" fill="#C98B74"/>
<path fill-rule="evenodd" clip-rule="evenodd" d="M103.243 164.099C104.751 163.725 105.716 165.446 107.768 166.119C109.82 166.793 113.935 167.616 115.555 168.14C117.174 168.664 116.038 169.187 117.484 169.262C118.931 169.337 122.243 169.199 124.233 168.588C126.224 167.977 129.228 162.166 129.426 165.595C129.623 169.024 127.88 180.758 125.42 189.162C122.96 197.567 117.868 212.281 114.666 216.022C111.464 219.763 108.361 216.794 106.21 211.607C104.059 206.42 103.009 192.106 101.761 184.899C100.512 177.691 98.4718 171.831 98.7188 168.364C98.9657 164.897 101.734 164.473 103.243 164.099Z" fill="#DAC5B7"/>
<path fill-rule="evenodd" clip-rule="evenodd" d="M129.868 149.434C125.344 157.215 126.506 157.216 124.825 162.902C123.144 168.588 121.809 175.246 119.781 183.55C117.754 191.855 113.898 203.551 112.661 212.729C111.425 221.907 116.369 224.077 112.364 238.616C108.359 253.156 87.0972 288.543 88.6302 299.965C90.1632 311.387 114.64 307.747 121.562 307.148C128.485 306.55 127.743 303.656 130.166 296.373C132.588 289.091 133.947 273.83 136.098 263.456C138.249 253.081 140.92 243.529 143.071 234.127C145.222 224.725 147.373 214.874 149.005 207.043C150.636 199.213 151.081 195.872 152.861 187.143C154.641 178.415 159.833 166.493 159.685 154.672C159.536 142.851 156.94 117.089 151.97 116.217C147.001 115.344 134.393 141.653 129.868 149.434V149.434Z" fill="#4A403B"/>
<path fill-rule="evenodd" clip-rule="evenodd" d="M69.6455 134.622C67.2966 136.218 62.0794 139.733 59.1125 143.599C56.1456 147.464 53.5498 154.797 51.8438 157.815C50.1379 160.832 49.223 160.308 48.8769 161.704C48.5308 163.101 48.5558 164.847 49.7673 166.193C50.9787 167.54 56.5657 168.113 56.1456 169.784C55.7254 171.456 49.3477 174.125 47.2464 176.22C45.1451 178.315 44.2547 177.666 43.5377 182.354C42.8207 187.042 42.4009 193.527 42.9446 204.35C43.4884 215.174 44.7731 234.701 46.8003 247.295C48.8276 259.889 50.0646 273.48 55.1081 279.915C60.1516 286.349 71.5728 283.007 77.0612 285.9C82.5496 288.793 87.272 306.2 88.0385 297.272C88.8051 288.344 83.4898 249.938 81.6603 232.331C79.8307 214.724 78.3222 203.277 77.0612 191.631C75.8002 179.984 74.7369 172.054 74.0943 162.452C73.4516 152.851 73.9469 138.662 73.2055 134.024C72.464 129.385 71.9943 133.026 69.6455 134.622Z" fill="#BEA18E"/>
<path fill-rule="evenodd" clip-rule="evenodd" d="M165.62 129.384C167.647 125.195 171.207 127.689 174.075 128.188C176.942 128.687 179.563 128.811 182.827 132.377C186.09 135.943 191.48 145.32 193.655 149.584C195.831 153.849 196.425 155.945 195.881 157.965C195.337 159.985 191.924 160.782 190.391 161.704C188.858 162.627 185.965 162.253 186.682 163.501C187.399 164.748 192.814 166.742 194.693 169.186C196.572 171.63 198.056 172.628 197.957 178.165C197.858 183.701 196.201 192.73 194.1 202.406C191.998 212.082 188.018 226.621 185.348 236.222C182.677 245.823 182.331 251.185 178.079 260.013C173.827 268.841 166.04 284.777 159.835 289.191C153.629 293.606 146.335 284.254 140.847 286.499C135.358 288.743 127.026 309.717 126.902 302.659C126.779 295.602 137.361 255.998 140.105 244.152C142.849 232.306 141.934 238.715 143.368 231.583C144.802 224.45 147.052 209.537 148.708 201.358C150.365 193.178 151.107 190.509 153.308 182.504C155.508 174.499 159.859 162.179 161.911 153.326C163.963 144.472 163.593 133.574 165.62 129.384Z" fill="#BEA18E"/>
<path fill-rule="evenodd" clip-rule="evenodd" d="M94.5654 121.603C92.7606 125.269 98.5712 135.045 100.648 139.558C102.725 144.072 105.147 147.214 107.026 148.685C108.905 150.157 110.339 147.863 111.921 148.387C113.503 148.911 114.592 152.327 116.52 151.828C118.449 151.329 122.058 147.24 123.491 145.394C124.925 143.549 122.923 143.149 125.124 140.755C127.324 138.361 134.42 134.571 136.694 131.03C138.969 127.488 138.523 124.594 138.771 119.507C139.018 114.419 142.727 100.829 138.178 100.505C133.629 100.181 118.745 114.046 111.477 117.562C104.208 121.078 96.3702 117.937 94.5654 121.603Z" fill="#A0634E"/>
<path fill-rule="evenodd" clip-rule="evenodd" d="M139.065 147.189C138.447 152.651 133.429 179.236 130.759 197.167C128.089 215.099 125.024 245.05 123.046 254.776C121.068 264.502 118.026 263.031 118.891 255.524C119.756 248.018 126.407 219.237 128.236 209.735C130.066 200.234 131.08 195.92 129.869 198.514C128.657 201.108 123.588 214.923 120.968 225.298C118.347 235.672 115.703 259.962 114.145 260.76C112.588 261.558 109.472 241.284 111.623 230.087C113.773 218.89 123.243 204.525 127.05 193.576C130.858 182.628 132.465 172.129 134.468 164.398C136.47 156.667 139.683 141.727 139.065 147.189Z" fill="#27221F"/>
<path fill-rule="evenodd" clip-rule="evenodd" d="M82.8451 116.814C80.2243 123.249 74.3402 137.264 73.3512 150.332C72.3623 163.4 75.4526 179.51 76.9112 195.221C78.3699 210.933 80.3975 227.244 82.1034 244.602C83.8093 261.959 84.3779 290.039 87.1469 299.366C89.9158 308.693 95.4042 299.816 98.7173 300.564C102.03 301.312 104.503 311.836 107.025 303.855C109.547 295.874 112.859 268.192 113.848 252.68C114.837 237.168 114.071 223.752 112.959 210.784C111.847 197.816 108.311 184.273 107.174 174.871C106.036 165.47 107.42 160.209 106.135 154.373C104.849 148.538 100.893 143.176 99.459 139.859C98.0251 136.542 98.2481 137.763 97.5312 134.471C96.8142 131.179 96.5664 123.898 95.1573 120.107C93.7481 116.316 91.1284 112.276 89.0764 111.727C87.0243 111.178 85.466 110.38 82.8451 116.814Z" fill="#4A403B"/>
<path fill-rule="evenodd" clip-rule="evenodd" d="M73.6498 9.97613C74.8365 8.55442 74.4896 5.61157 77.6542 3.99045C80.8188 2.36933 87.1985 0.698223 92.6376 0.249408C98.0767 -0.199408 104.553 -0.148868 110.289 1.29756C116.025 2.74399 121.464 4.63841 127.052 8.92798C132.639 13.2175 138.746 17.5332 143.814 27.035C148.882 36.5367 155.038 55.3147 157.461 65.9385C159.884 76.5623 157.288 82.2486 158.351 90.7778C159.414 99.3069 160.873 110.33 163.839 117.113C166.806 123.897 173.457 126.839 176.151 131.478C178.846 136.116 179.366 141.005 180.009 144.945C180.652 148.886 180.874 152.178 180.009 155.12C179.143 158.063 176.3 160.855 174.817 162.601C173.333 164.346 172.542 164.846 171.108 165.594C169.674 166.342 168.142 166.242 166.213 167.09C164.285 167.938 161.293 169.734 159.538 170.681C157.782 171.629 157.213 172.227 155.68 172.776C154.147 173.325 151.775 173.575 150.341 173.974C148.907 174.373 148.461 174.722 147.077 175.171C145.692 175.619 143.714 176.418 142.033 176.667C140.352 176.916 136.817 180.682 136.99 176.667C137.163 172.652 141.91 159.235 143.072 152.576C144.235 145.917 144.655 136.042 143.963 136.715C143.271 137.388 139.958 151.602 138.919 156.615C137.881 161.628 139.141 167.066 137.732 166.792C136.322 166.518 131.551 160.706 130.463 154.971C129.375 149.235 129.944 139.035 131.205 132.376C132.466 125.717 136.644 120.804 138.029 115.019C139.413 109.233 142.034 99.0083 139.512 97.6616C136.991 96.3149 132.639 104.071 122.898 106.938C113.158 109.806 86.5558 112.35 81.0672 114.869C75.5785 117.388 88.7056 117.986 89.9664 122.051C91.2271 126.116 88.9529 134.295 88.6316 139.258C88.3102 144.221 88.8295 146.84 88.0385 151.828C87.2475 156.815 85.2698 165.544 83.8854 169.185C82.5011 172.826 81.1663 171.729 79.7324 173.674C78.2985 175.619 77.2104 179.31 75.2819 180.856C73.3535 182.402 70.395 182.246 68.1619 182.951C65.9288 183.656 63.9089 184.664 61.8833 185.085C59.8577 185.506 57.904 185.585 56.0083 185.479C54.1125 185.373 52.3897 184.52 50.509 184.447C48.6282 184.375 45.4347 186.018 44.7237 185.046C44.0128 184.073 45.3037 181.104 46.2432 178.61C47.1826 176.116 49.0312 172.901 50.3603 170.083C51.6894 167.265 52.9318 165.543 54.2176 161.703C55.5034 157.862 57.4817 153.175 58.075 147.04C58.6683 140.905 58.371 135.119 57.7776 124.894C57.1843 114.669 55.0835 99.3566 54.515 85.6903C53.9464 72.0239 53.1304 53.7192 54.3663 42.8957C55.6023 32.0722 59.2361 25.8118 61.9307 20.7493C64.6253 15.6868 68.581 14.3162 70.5342 12.5207C72.4874 10.7252 72.4631 11.3978 73.6498 9.97612V9.97613Z" fill="#1E1915"/>
<path fill-rule="evenodd" clip-rule="evenodd" d="M87.741 19.7043C81.7086 20.8764 73.1302 21.0258 68.4576 27.4847C63.7849 33.9437 60.6448 50.0288 59.7054 58.458C58.766 66.8871 62.0793 73.2464 62.821 78.0597C63.5627 82.8731 63.7849 84.52 64.1558 87.3382C64.5267 90.1563 63.9832 91.926 65.0462 94.9686C66.1093 98.0112 68.7541 102.302 70.5341 105.594C72.3141 108.885 73.7483 112.127 75.7262 114.72C77.7042 117.314 79.262 118.91 82.4019 121.154C85.5417 123.399 91.2278 126.318 94.5653 128.188C97.9029 130.059 98.2983 132.128 102.427 132.377C106.556 132.627 113.553 133.051 119.338 129.685C125.124 126.318 133.282 117.19 137.138 112.177C140.995 107.165 141.441 103.474 142.479 99.6078C143.517 95.7421 143.665 93.846 143.368 88.9829C143.071 84.1198 141.663 75.7412 140.698 70.4293C139.734 65.1174 139.635 62.249 137.583 57.1115C135.531 51.974 131.032 44.7916 128.386 39.6044C125.741 34.4172 125.666 29.1803 121.711 25.9883C117.755 22.7963 110.314 21.4999 104.652 20.4525C98.9907 19.4052 93.7735 18.5323 87.741 19.7043Z" fill="#C98B74"/>
<path fill-rule="evenodd" clip-rule="evenodd" d="M81.5115 65.4916C82.4262 64.3319 79.9047 60.8274 77.9515 60.4783C75.9983 60.1291 72.1535 62.0876 69.7924 63.3969C67.4314 64.7063 65.1446 66.776 63.785 68.3345C62.4255 69.893 61.1035 72.4488 61.635 72.7479C62.1665 73.047 65.1694 71.0145 66.9742 70.1292C68.7789 69.2439 70.0408 68.2092 72.4637 67.4363C74.8866 66.6633 80.5969 66.6513 81.5115 65.4916Z" fill="#655B65"/>
<path fill-rule="evenodd" clip-rule="evenodd" d="M99.9791 76.2639C98.2361 75.8774 95.6891 74.8922 95.0091 73.2711C94.3292 71.6499 94.8362 67.9712 95.8995 66.5372C96.9629 65.1031 100.326 64.3299 101.389 64.6666C102.452 65.0034 102.476 67.2483 102.278 68.5577C102.08 69.867 99.6698 71.3508 100.201 72.5229C100.733 73.6949 105.504 74.9664 105.467 75.5899C105.43 76.2134 101.722 76.6504 99.9791 76.2639Z" fill="#A0634E"/>
<path fill-rule="evenodd" clip-rule="evenodd" d="M98.4221 56.2132C97.8285 57.3976 97.9388 60.6775 99.3109 61.0766C100.683 61.4757 104.565 59.4184 106.655 58.6078C108.744 57.7973 109.35 57.0112 111.847 56.2132C114.344 55.4153 118.855 54.0447 121.637 53.8203C124.418 53.5959 127.805 55.2535 128.534 54.8668C129.264 54.48 127.31 52.3478 126.012 51.4998C124.714 50.6519 122.538 49.9163 120.746 49.7793C118.954 49.6422 117.57 50.2037 115.258 50.6775C112.947 51.1513 108.941 52.0734 106.877 52.6221C104.813 53.1709 104.282 53.3717 102.873 53.9702C101.463 54.5688 99.0157 55.0288 98.4221 56.2132Z" fill="#655B65"/>
<path fill-rule="evenodd" clip-rule="evenodd" d="M66.2677 13.7962C62.678 16.8056 59.86 21.7714 57.8962 28.1836C55.9324 34.5959 54.6919 44.6063 54.4849 52.2697C54.278 59.9331 57.7399 68.6902 56.6546 74.1639C55.5692 79.6376 47.1182 84.4375 47.9727 85.1118C48.8271 85.7861 58.837 81.3304 61.7814 78.2098C64.7257 75.0893 64.8722 72.2989 65.6387 66.3884C66.4052 60.478 65.9137 48.2806 66.3805 42.7473C66.8472 37.214 68.0434 31.817 68.439 33.1887C68.8347 34.5604 68.7513 45.5688 68.7543 50.9776C68.7573 56.3865 69.001 61.9261 68.457 65.6419C67.9129 69.3577 64.3527 73.2723 65.4901 73.2723C66.6274 73.2723 73.2045 69.632 75.2813 65.6419C77.3581 61.6517 77.852 54.9925 77.9509 49.3312C78.0497 43.67 76.0968 35.5146 75.8744 31.6742C75.6519 27.8337 76.1712 24.3929 76.6161 26.2884C77.061 28.1839 76.9369 37.8851 78.5439 43.0473C80.151 48.2095 85.0472 53.1467 86.2586 57.2616C87.4701 61.3765 85.0712 67.0633 85.8126 67.7365C86.5541 68.4098 90.2625 65.2164 90.7074 61.3009C91.1524 57.3855 87.9382 44.2685 88.4822 44.2437C89.0263 44.219 91.8701 57.6613 93.9717 61.1526C96.0733 64.644 100.523 65.6161 101.092 65.192C101.66 64.7679 98.7424 63.4206 97.383 58.608C96.0237 53.7955 93.7806 41.1268 92.9359 36.3167C92.0912 31.5066 91.4007 28.7258 92.3151 29.7476C93.2294 30.7694 95.105 38.4602 98.4221 42.4474C101.739 46.4345 107.496 50.2789 112.218 53.6705C116.94 57.0622 122.007 60.3533 126.753 62.7974C131.5 65.2414 136.965 65.6163 140.698 68.3348C144.431 71.0532 148.633 79.2327 149.153 79.108C149.672 78.9833 147.291 72.946 143.813 67.5866C140.335 62.2271 132.042 53.7098 128.284 46.9515C124.526 40.1931 124.191 33.2489 121.266 27.0366C118.341 20.8243 114.789 13.8927 110.734 9.67779C106.68 5.46293 102.155 1.67245 96.9387 1.74743C91.722 1.82242 84.5462 8.11957 79.4344 10.1277C74.3225 12.1358 69.8574 10.7869 66.2677 13.7962V13.7962Z" fill="#1E1915"/>
<path fill-rule="evenodd" clip-rule="evenodd" d="M95.4556 129.832C94.7632 131.628 91.8452 166.542 91.4496 183.251C91.054 199.961 91.1778 219.613 93.0817 230.087C94.9856 240.561 100.994 248.093 102.873 246.098C104.752 244.103 105.566 230.386 104.355 218.116C103.143 205.846 97.0875 187.192 95.6043 172.478C94.1211 157.764 96.1481 128.036 95.4556 129.832Z" fill="#27221F"/>
<path fill-rule="evenodd" clip-rule="evenodd" d="M106.951 90.9311C106.494 90.0082 102.341 89.7083 100.722 90.1071C99.1023 90.5059 98.558 92.6259 97.2352 93.3241C95.9124 94.0223 94.1817 94.2341 92.7848 94.2964C91.3879 94.3588 90.0158 93.4114 88.8539 93.6982C87.692 93.9849 84.8615 95.0317 85.8135 96.017C86.7654 97.0022 92.3404 99.1109 94.5656 99.6097C96.7908 100.108 97.6812 99.6707 99.1647 99.0098C100.648 98.3489 102.169 96.9909 103.466 95.6445C104.764 94.2981 107.409 91.854 106.951 90.9311Z" fill="#A0634E"/>
<path fill-rule="evenodd" clip-rule="evenodd" d="M87.1476 81.1279C87.605 81.3899 88.4587 76.4268 88.5575 74.544C88.6564 72.6611 88.6801 70.7408 87.7406 69.8306C86.8012 68.9203 83.5761 68.8329 82.921 69.0823C82.2658 69.3318 83.3278 70.6788 83.8098 71.327C84.2917 71.9752 85.2565 71.3382 85.8128 72.9717C86.3691 74.6052 86.6901 80.8659 87.1476 81.1279Z" fill="#A0634E"/>
<path fill-rule="evenodd" clip-rule="evenodd" d="M90.4853 108.285C91.1652 108.859 92.463 112.575 92.1909 112.998C91.9189 113.422 89.533 111.401 88.8531 110.828C88.1732 110.254 87.8393 109.981 88.1114 109.557C88.3834 109.133 89.8053 107.711 90.4853 108.285Z" fill="#5C2425"/>
<path fill-rule="evenodd" clip-rule="evenodd" d="M94.212 106.757C92.4222 107.391 90.139 107.489 89.6979 108.444C89.2567 109.399 90.2814 111.236 91.5653 112.485C92.8492 113.734 94.2433 116.05 97.4011 115.939C100.559 115.828 107.406 113.612 110.512 111.819C113.618 110.027 114.955 106.704 116.038 105.186C117.121 103.668 117.12 103.25 117.01 102.714C116.899 102.178 116.978 101.917 115.376 101.969C113.774 102.021 109.89 102.584 107.4 103.029C104.91 103.473 102.635 104.016 100.437 104.637C98.2387 105.258 96.0018 106.122 94.212 106.757Z" fill="#D9D9D9"/>
<path fill-rule="evenodd" clip-rule="evenodd" d="M115.109 102.076C114.874 102.276 116.271 102.326 116.444 102.825C116.617 103.323 115.901 104.957 116.148 105.069C116.395 105.181 117.507 103.983 117.927 103.497C118.348 103.011 118.681 102.462 118.669 102.151C118.657 101.839 118.447 101.64 117.854 101.628C117.261 101.616 115.344 101.877 115.109 102.076Z" fill="#5C2425"/>
<path fill-rule="evenodd" clip-rule="evenodd" d="M87.223 110.007C86.5678 109.782 88.9907 107.425 90.0413 106.49C91.0918 105.555 92.3272 104.707 93.5261 104.396C94.725 104.084 95.8749 104.956 97.2348 104.62C98.5946 104.283 99.5218 102.851 101.685 102.377C103.849 101.903 107.538 101.897 110.215 101.777C112.892 101.657 117.526 101.443 117.749 101.655C117.971 101.867 113.609 102.567 111.55 103.049C109.491 103.531 107.112 103.835 105.394 104.546C103.676 105.256 102.65 106.691 101.241 107.314C99.8317 107.938 98.1505 108.199 96.9391 108.287C95.7276 108.374 95.5915 107.552 93.9721 107.838C92.3528 108.125 87.8781 110.232 87.223 110.007Z" fill="#AC5156"/>
<path fill-rule="evenodd" clip-rule="evenodd" d="M87.9872 109.935C88.1108 110.383 89.7966 112.55 90.7074 113.747C91.6183 114.943 91.8821 116.216 93.4522 117.114C95.0223 118.011 97.7172 119.134 100.128 119.134C102.538 119.134 105.605 118.198 107.916 117.114C110.228 116.029 112.539 114.32 113.997 112.624C115.455 110.928 115.911 108.61 116.667 106.939C117.422 105.267 118.639 102.983 118.527 102.596C118.416 102.209 116.777 104.026 116 104.618C115.223 105.21 114.803 105.526 113.866 106.146C112.929 106.766 111.568 107.556 110.378 108.336C109.188 109.116 108.054 110.126 106.728 110.828C105.403 111.53 103.873 112.079 102.427 112.55C100.98 113.021 99.6584 113.566 98.0513 113.653C96.4442 113.74 94.1316 113.506 92.784 113.073C91.4364 112.639 90.7652 111.577 89.9657 111.054C89.1663 110.531 87.8636 109.486 87.9872 109.935Z" fill="#AC5156"/>
</svg>
