<svg width="323" height="317" viewBox="0 0 323 317" fill="none" xmlns="http://www.w3.org/2000/svg">
<rect width="323" height="317" fill="white"/>
<path fill-rule="evenodd" clip-rule="evenodd" d="M257.229 162.374C259.109 158.109 259.579 160.229 261.087 160.129C262.595 160.029 264.474 159.529 266.279 161.774C268.084 164.018 270.21 168.358 271.915 173.595C273.621 178.832 275.079 186.513 276.513 193.197C277.947 199.881 279.48 207.213 280.519 213.697C281.557 220.181 281.854 227.114 282.744 232.102C283.634 237.09 284.968 239.11 285.858 243.624C286.748 248.138 287.292 254.672 288.083 259.186C288.875 263.7 290.433 266.119 290.606 270.707C290.779 275.296 288.455 281.73 289.122 286.718C289.79 291.706 296.267 296.594 294.61 300.634C292.954 304.674 286.181 310.608 279.184 310.957C272.187 311.307 259.355 303.527 252.63 302.729C245.906 301.931 241.185 308.539 238.836 306.17C236.488 303.801 237.822 299.187 238.539 288.513C239.256 277.839 241.259 259.26 243.138 242.127C245.017 224.994 247.463 199.007 249.812 185.715C252.161 172.423 255.35 166.638 257.229 162.374V162.374Z" fill="#A67B4F"/>
<path fill-rule="evenodd" clip-rule="evenodd" d="M94.0577 162.821C92.9947 161.749 92.0062 160.826 90.0533 160.727C88.1004 160.627 84.5655 160.976 82.3403 162.223C80.1151 163.47 77.8643 165.416 76.7021 168.209C75.5399 171.002 75.639 176.812 75.3673 178.982C75.0955 181.152 75.7142 180.005 75.0716 181.227C74.429 182.449 72.7974 182.324 71.5116 186.314C70.2258 190.304 68.4943 200.205 67.3569 205.168C66.2195 210.13 65.5279 212.624 64.6873 216.091C63.8467 219.557 62.7338 222.923 62.3134 225.966C61.893 229.008 62.9557 231.329 62.1647 234.346C61.3737 237.364 58.2347 241.228 57.5673 244.071C56.8999 246.914 58.9021 247.962 58.1603 251.403C57.4186 254.845 54.1799 260.88 53.1169 264.721C52.0538 268.562 52.4742 271.306 51.7821 274.448C51.0899 277.59 49.3099 280.507 48.9638 283.575C48.6177 286.642 49.1618 289.385 49.7055 292.851C50.2493 296.318 47.0101 302.228 52.2264 304.373C57.4428 306.518 73.2407 306.02 81.0038 305.721C88.767 305.422 95.2948 309.486 98.8055 302.578C102.316 295.67 101.055 281.131 102.068 264.273C103.082 247.414 105.826 217.612 104.886 201.427C103.947 185.241 98.2364 173.595 96.4316 167.161C94.6268 160.726 95.1208 163.894 94.0577 162.821V162.821Z" fill="#A67B4F"/>
<path fill-rule="evenodd" clip-rule="evenodd" d="M260.048 169.703C261.63 169.454 260.692 175.89 259.752 179.88C258.813 183.87 255.475 189.656 254.411 193.646C253.348 197.636 252.68 197.711 253.372 203.821C254.064 209.931 256.784 220.604 258.564 230.305C260.345 240.006 263.559 252.177 264.054 262.028C264.548 271.879 262.125 282.677 261.531 289.41C260.938 296.144 264.375 302.553 260.494 302.428C256.612 302.303 241.654 296.318 238.242 288.662C234.83 281.006 239.182 267.913 240.023 256.491C240.863 245.069 241.579 232.649 243.285 220.13C244.991 207.611 247.465 189.779 250.258 181.375C253.052 172.97 258.466 169.953 260.048 169.703V169.703Z" fill="#664128"/>
<path fill-rule="evenodd" clip-rule="evenodd" d="M89.0137 165.216C87.5302 164.518 85.9972 163.619 84.5633 165.066C83.1294 166.512 80.4102 168.757 80.4102 173.894C80.4102 179.032 83.2035 190.404 84.5633 195.891C85.9232 201.377 89.4099 199.73 88.5693 206.812C87.7288 213.895 82.4124 228.435 79.5198 238.385C76.6272 248.336 72.6721 257.139 71.2137 266.516C69.7553 275.893 66.0967 288.288 70.7693 294.648C75.4419 301.007 92.8956 309.536 99.2493 304.673C105.603 299.81 108.348 283.201 108.892 265.469C109.436 247.738 105.085 214.319 102.514 198.284C99.9423 182.248 95.7141 174.766 93.4641 169.255C91.2141 163.744 90.4972 165.914 89.0137 165.216H89.0137Z" fill="#664128"/>
<path fill-rule="evenodd" clip-rule="evenodd" d="M108.893 151.898C100.685 153.943 96.6302 158.556 92.8722 161.025C89.1142 163.494 87.8535 164.293 86.3452 166.712C84.837 169.131 83.5262 171.2 83.8227 175.539C84.1192 179.879 87.2839 189.107 88.1244 192.748C88.965 196.389 88.6189 193.57 88.8662 197.386C89.1134 201.201 89.3111 209.556 89.6079 215.641C89.9047 221.726 90.5727 228.16 90.647 233.896C90.7213 239.632 89.4606 241.129 90.0539 250.057C90.6473 258.985 92.6495 277.715 94.207 287.466C95.7645 297.217 94.0589 304.798 99.3991 308.564C104.739 312.33 118.041 310.385 126.249 310.06C134.457 309.736 138.215 305.87 148.648 306.618C159.081 307.366 177.474 314.124 188.847 314.548C200.219 314.972 208.18 310.459 216.883 309.162C225.585 307.865 236.932 308.763 241.061 306.768C245.19 304.772 240.889 303.425 241.656 297.191C242.422 290.956 244.745 277.615 245.66 269.36C246.575 261.106 246.822 255.344 247.143 247.662C247.465 239.981 247.093 231.154 247.588 223.273C248.082 215.392 247.959 208.259 250.11 200.379C252.262 192.498 258.616 182.124 260.495 175.989C262.373 169.854 261.483 166.213 261.383 163.57C261.284 160.926 264.993 163.47 259.9 160.128C254.807 156.787 238.911 146.585 230.827 143.518C222.743 140.45 220.864 141.324 211.395 141.723C201.926 142.122 185.558 144.74 174.012 145.913C162.467 147.085 152.974 147.758 142.121 148.755C131.268 149.753 117.101 149.853 108.893 151.898V151.898Z" fill="#A67B4F"/>
<path fill-rule="evenodd" clip-rule="evenodd" d="M143.456 134.541C143.53 137.209 144.074 138.78 144.939 141.873C145.805 144.965 147.165 149.703 148.648 153.094C150.131 156.486 152.899 159.03 153.838 162.223C154.778 165.415 153.172 167.834 154.284 172.248C155.397 176.662 158.141 186.163 160.514 188.707C162.887 191.25 166.695 189.38 168.525 187.51C170.354 185.64 170.577 180.927 171.491 177.485C172.406 174.044 172.628 170.825 174.012 166.86C175.397 162.895 178.042 158.208 179.798 153.694C181.553 149.18 183.26 144.516 184.545 139.778C185.831 135.04 187.611 130.401 187.512 125.264C187.413 120.126 188.897 109.552 183.952 108.953C179.008 108.355 164.421 118.855 157.844 121.673C151.268 124.491 146.891 123.717 144.493 125.862C142.095 128.007 143.381 131.872 143.456 134.541V134.541Z" fill="#C98B74"/>
<path fill-rule="evenodd" clip-rule="evenodd" d="M151.242 172.099C152.751 171.725 153.716 173.446 155.768 174.119C157.82 174.793 161.935 175.616 163.555 176.14C165.174 176.664 164.038 177.187 165.484 177.262C166.931 177.337 170.243 177.199 172.233 176.588C174.223 175.977 177.228 170.166 177.425 173.595C177.623 177.024 175.879 188.758 173.419 197.162C170.959 205.567 165.867 220.281 162.666 224.022C159.464 227.763 156.36 224.794 154.209 219.607C152.058 214.42 151.009 200.106 149.761 192.899C148.512 185.691 146.472 179.831 146.718 176.364C146.965 172.897 149.734 172.473 151.242 172.099V172.099Z" fill="#DAC5B7"/>
<path fill-rule="evenodd" clip-rule="evenodd" d="M177.868 157.434C173.344 165.215 174.506 165.216 172.825 170.902C171.144 176.588 169.809 183.246 167.781 191.55C165.754 199.855 161.898 211.551 160.661 220.729C159.425 229.907 164.369 232.077 160.364 246.616C156.359 261.156 135.097 296.542 136.63 307.964C138.163 319.386 162.64 315.747 169.562 315.148C176.485 314.55 175.743 311.656 178.166 304.373C180.588 297.091 181.947 281.83 184.098 271.455C186.249 261.081 188.92 251.529 191.071 242.127C193.222 232.725 195.373 222.874 197.005 215.043C198.636 207.212 199.081 203.872 200.861 195.143C202.641 186.414 207.833 174.493 207.685 162.672C207.536 150.851 204.94 125.089 199.97 124.216C195.001 123.344 182.393 149.653 177.868 157.434V157.434Z" fill="#4A403B"/>
<path fill-rule="evenodd" clip-rule="evenodd" d="M117.645 142.622C115.296 144.218 110.079 147.733 107.112 151.599C104.145 155.464 101.55 162.797 99.8436 165.815C98.1376 168.832 97.2227 168.308 96.8766 169.704C96.5305 171.101 96.5556 172.847 97.767 174.193C98.9785 175.54 104.565 176.113 104.145 177.785C103.725 179.456 97.3474 182.125 95.2461 184.22C93.1448 186.315 92.2544 185.666 91.5374 190.354C90.8205 195.043 90.4006 201.527 90.9444 212.351C91.4882 223.174 92.7729 242.701 94.8001 255.295C96.8273 267.889 98.0644 281.48 103.108 287.915C108.151 294.349 119.573 291.008 125.061 293.9C130.549 296.793 135.272 314.2 136.038 305.272C136.805 296.344 131.49 257.938 129.66 240.331C127.83 222.724 126.322 211.277 125.061 199.631C123.8 187.985 122.737 180.054 122.094 170.452C121.451 160.851 121.947 146.662 121.205 142.024C120.464 137.385 119.994 141.026 117.645 142.622V142.622Z" fill="#BEA18E"/>
<path fill-rule="evenodd" clip-rule="evenodd" d="M213.62 137.385C215.647 133.195 219.207 135.689 222.075 136.188C224.942 136.687 227.563 136.811 230.827 140.377C234.09 143.943 239.48 153.32 241.656 157.585C243.831 161.849 244.425 163.945 243.881 165.965C243.337 167.985 239.924 168.782 238.391 169.704C236.858 170.627 233.966 170.254 234.683 171.501C235.399 172.748 240.814 174.742 242.693 177.186C244.572 179.63 246.056 180.628 245.957 186.165C245.858 191.701 244.201 200.73 242.1 210.406C239.998 220.082 236.018 234.621 233.348 244.222C230.678 253.823 230.331 259.185 226.079 268.013C221.827 276.841 214.04 292.777 207.835 297.191C201.629 301.606 194.336 292.254 188.847 294.499C183.358 296.743 175.026 317.717 174.903 310.659C174.779 303.602 185.361 263.998 188.105 252.152C190.849 240.306 189.934 246.715 191.368 239.583C192.802 232.45 195.052 217.537 196.709 209.358C198.365 201.178 199.107 198.509 201.308 190.504C203.508 182.499 207.859 170.179 209.911 161.326C211.963 152.472 211.593 141.574 213.62 137.385V137.385Z" fill="#BEA18E"/>
<path fill-rule="evenodd" clip-rule="evenodd" d="M142.565 129.603C140.76 133.269 146.571 143.045 148.648 147.558C150.725 152.072 153.147 155.214 155.026 156.685C156.905 158.157 158.339 155.863 159.921 156.387C161.503 156.911 162.592 160.327 164.52 159.828C166.448 159.329 170.057 155.24 171.491 153.394C172.925 151.549 170.923 151.149 173.123 148.755C175.324 146.361 182.419 142.571 184.694 139.03C186.968 135.488 186.523 132.594 186.77 127.507C187.018 122.419 190.726 108.829 186.177 108.505C181.628 108.181 166.745 122.046 159.476 125.562C152.208 129.078 144.37 125.937 142.565 129.603V129.603Z" fill="#A0634E"/>
<path fill-rule="evenodd" clip-rule="evenodd" d="M187.065 155.189C186.447 160.651 181.429 187.236 178.759 205.167C176.089 223.099 173.024 253.05 171.046 262.776C169.068 272.502 166.026 271.031 166.891 263.524C167.756 256.018 174.407 227.237 176.236 217.735C178.066 208.234 179.08 203.92 177.868 206.514C176.657 209.108 171.588 222.923 168.968 233.298C166.347 243.672 163.702 267.962 162.145 268.76C160.587 269.558 157.471 249.284 159.622 238.087C161.773 226.89 171.243 212.524 175.05 201.576C178.858 190.628 180.465 180.129 182.467 172.398C184.47 164.667 187.683 149.727 187.065 155.189V155.189Z" fill="#27221F"/>
<path fill-rule="evenodd" clip-rule="evenodd" d="M130.845 124.814C128.224 131.248 122.34 145.264 121.351 158.332C120.362 171.4 123.453 187.51 124.911 203.221C126.37 218.933 128.398 235.244 130.104 252.601C131.809 269.959 132.378 298.039 135.147 307.366C137.916 316.693 143.404 307.816 146.717 308.564C150.03 309.312 152.503 319.836 155.025 311.855C157.547 303.874 160.859 276.192 161.848 260.68C162.837 245.168 162.071 231.752 160.959 218.784C159.847 205.816 156.311 192.273 155.174 182.871C154.036 173.47 155.421 168.208 154.135 162.373C152.849 156.538 148.893 151.176 147.459 147.859C146.025 144.542 146.248 145.763 145.531 142.471C144.814 139.179 144.567 131.898 143.157 128.107C141.748 124.316 139.128 120.276 137.076 119.727C135.024 119.178 133.466 118.38 130.845 124.814V124.814Z" fill="#4A403B"/>
<path fill-rule="evenodd" clip-rule="evenodd" d="M121.65 17.9761C122.836 16.5544 122.49 13.6116 125.654 11.9905C128.819 10.3693 135.198 8.69822 140.638 8.24941C146.077 7.80059 152.553 7.85113 158.289 9.29756C164.025 10.744 169.464 12.6384 175.051 16.928C180.639 21.2175 186.746 25.5332 191.814 35.035C196.882 44.5367 203.038 63.3147 205.461 73.9385C207.884 84.5624 205.288 90.2486 206.351 98.7778C207.414 107.307 208.873 118.33 211.839 125.113C214.806 131.897 221.457 134.839 224.151 139.478C226.846 144.116 227.366 149.005 228.009 152.945C228.652 156.886 228.874 160.178 228.009 163.12C227.143 166.063 224.3 168.855 222.817 170.601C221.333 172.346 220.542 172.846 219.108 173.594C217.674 174.342 216.142 174.242 214.213 175.09C212.285 175.938 209.293 177.734 207.538 178.681C205.782 179.629 205.213 180.227 203.68 180.776C202.147 181.325 199.775 181.575 198.341 181.974C196.907 182.373 196.461 182.722 195.077 183.171C193.692 183.619 191.714 184.418 190.033 184.667C188.352 184.916 184.817 188.682 184.99 184.667C185.163 180.652 189.91 167.235 191.072 160.576C192.234 153.917 192.655 144.042 191.963 144.715C191.271 145.388 187.958 159.602 186.919 164.615C185.881 169.628 187.141 175.066 185.731 174.792C184.322 174.518 179.551 168.706 178.463 162.97C177.375 157.235 177.944 147.035 179.205 140.376C180.466 133.717 184.644 128.804 186.029 123.019C187.413 117.233 190.034 107.008 187.512 105.662C184.991 104.315 180.639 112.071 170.898 114.938C161.158 117.806 134.556 120.35 129.067 122.869C123.578 125.388 136.706 125.986 137.966 130.051C139.227 134.116 136.953 142.295 136.632 147.258C136.31 152.221 136.829 154.84 136.038 159.828C135.247 164.815 133.27 173.544 131.885 177.185C130.501 180.826 129.166 179.729 127.732 181.674C126.298 183.619 125.21 187.31 123.282 188.856C121.354 190.402 118.395 190.246 116.162 190.951C113.929 191.656 111.909 192.664 109.883 193.085C107.858 193.506 105.904 193.585 104.008 193.479C102.112 193.373 100.39 192.52 98.5089 192.447C96.6282 192.375 93.4347 194.018 92.7237 193.046C92.0127 192.073 93.3037 189.104 94.2431 186.61C95.1825 184.116 97.0312 180.901 98.3602 178.083C99.6893 175.265 100.932 173.543 102.218 169.703C103.503 165.862 105.482 161.175 106.075 155.04C106.668 148.905 106.371 143.119 105.778 132.894C105.184 122.669 103.084 107.357 102.515 93.6903C101.946 80.0239 101.13 61.7192 102.366 50.8957C103.602 40.0722 107.236 33.8118 109.931 28.7493C112.625 23.6868 116.581 22.3162 118.534 20.5207C120.487 18.7252 120.463 19.3978 121.65 17.9761V17.9761Z" fill="#1E1915"/>
<path fill-rule="evenodd" clip-rule="evenodd" d="M135.741 27.7044C129.709 28.8764 121.13 29.0258 116.457 35.4847C111.785 41.9437 108.645 58.0288 107.705 66.458C106.766 74.8871 110.079 81.2464 110.821 86.0597C111.563 90.8731 111.785 92.52 112.156 95.3382C112.527 98.1563 111.983 99.9261 113.046 102.969C114.109 106.011 116.754 110.302 118.534 113.594C120.314 116.885 121.748 120.127 123.726 122.72C125.704 125.314 127.262 126.91 130.402 129.154C133.542 131.399 139.228 134.318 142.565 136.188C145.903 138.059 146.298 140.128 150.427 140.377C154.556 140.627 161.553 141.051 167.338 137.685C173.123 134.318 181.282 125.19 185.138 120.177C188.995 115.165 189.441 111.474 190.479 107.608C191.517 103.742 191.665 101.846 191.368 96.9829C191.071 92.1199 189.663 83.7412 188.698 78.4293C187.734 73.1174 187.635 70.249 185.583 65.1115C183.531 59.974 179.032 52.7916 176.386 47.6044C173.741 42.4172 173.666 37.1803 169.711 33.9883C165.755 30.7963 158.314 29.4999 152.652 28.4526C146.991 27.4052 141.773 26.5323 135.741 27.7044V27.7044Z" fill="#C98B74"/>
<path fill-rule="evenodd" clip-rule="evenodd" d="M129.511 73.4916C130.426 72.3319 127.905 68.8273 125.951 68.4782C123.998 68.1291 120.153 70.0875 117.792 71.3969C115.431 72.7063 113.144 74.7759 111.785 76.3344C110.425 77.8929 109.103 80.4488 109.635 80.7479C110.166 81.047 113.169 79.0144 114.974 78.1291C116.779 77.2439 118.041 76.2092 120.464 75.4363C122.886 74.6633 128.597 74.6512 129.511 73.4916V73.4916Z" fill="#655B65"/>
<path fill-rule="evenodd" clip-rule="evenodd" d="M147.979 84.2639C146.236 83.8774 143.689 82.8921 143.009 81.271C142.329 79.6499 142.836 75.9712 143.899 74.5371C144.963 73.103 148.326 72.3298 149.389 72.6666C150.452 73.0033 150.476 75.2482 150.278 76.5576C150.08 77.867 147.67 79.3508 148.201 80.5228C148.733 81.6948 153.504 82.9663 153.467 83.5898C153.43 84.2133 149.722 84.6503 147.979 84.2639V84.2639Z" fill="#A0634E"/>
<path fill-rule="evenodd" clip-rule="evenodd" d="M146.422 64.2133C145.829 65.3977 145.939 68.6776 147.311 69.0767C148.683 69.4758 152.565 67.4185 154.655 66.6079C156.744 65.7974 157.35 65.0112 159.847 64.2133C162.344 63.4154 166.855 62.0448 169.637 61.8204C172.418 61.596 175.805 63.2536 176.534 62.8669C177.264 62.4801 175.31 60.3478 174.012 59.4999C172.714 58.652 170.538 57.9164 168.746 57.7794C166.954 57.6423 165.57 58.2037 163.258 58.6776C160.947 59.1514 156.941 60.0734 154.877 60.6222C152.813 61.171 152.282 61.3718 150.873 61.9703C149.463 62.5689 147.016 63.0289 146.422 64.2133V64.2133Z" fill="#655B65"/>
<path fill-rule="evenodd" clip-rule="evenodd" d="M114.268 21.7963C110.678 24.8056 107.86 29.7714 105.896 36.1837C103.932 42.5959 102.692 52.6064 102.485 60.2698C102.278 67.9331 105.74 76.6903 104.654 82.1639C103.569 87.6376 95.1181 92.4375 95.9726 93.1119C96.827 93.7862 106.837 89.3304 109.781 86.2099C112.726 83.0893 112.872 80.2989 113.639 74.3885C114.405 68.4781 113.914 56.2807 114.38 50.7474C114.847 45.2141 116.043 39.8171 116.439 41.1888C116.835 42.5605 116.751 53.5688 116.754 58.9777C116.757 64.3866 117.001 69.9262 116.457 73.6419C115.913 77.3577 112.353 81.2724 113.49 81.2724C114.627 81.2724 121.204 77.6321 123.281 73.6419C125.358 69.6518 125.852 62.9926 125.951 57.3313C126.05 51.67 124.097 43.5147 123.874 39.6742C123.652 35.8337 124.171 32.3929 124.616 34.2884C125.061 36.184 124.937 45.8851 126.544 51.0473C128.151 56.2095 133.047 61.1468 134.259 65.2617C135.47 69.3765 133.071 75.0634 133.813 75.7366C134.554 76.4098 138.262 73.2165 138.707 69.301C139.152 65.3855 135.938 52.2685 136.482 52.2438C137.026 52.2191 139.87 65.6613 141.972 69.1527C144.073 72.644 148.523 73.6161 149.092 73.192C149.66 72.7679 146.742 71.4207 145.383 66.6081C144.024 61.7956 141.78 49.1268 140.936 44.3167C140.091 39.5067 139.401 36.7259 140.315 37.7477C141.229 38.7694 143.105 46.4603 146.422 50.4474C149.739 54.4346 155.496 58.2789 160.218 61.6706C164.94 65.0622 170.007 68.3534 174.753 70.7974C179.5 73.2415 184.964 73.6164 188.698 76.3348C192.431 79.0533 196.633 87.2328 197.152 87.1081C197.672 86.9834 195.291 80.946 191.813 75.5866C188.335 70.2272 180.042 61.7099 176.284 54.9515C172.526 48.1932 172.191 41.2489 169.266 35.0366C166.34 28.8244 162.789 21.8927 158.734 17.6779C154.68 13.463 150.155 9.67251 144.939 9.74749C139.722 9.82248 132.546 16.1196 127.434 18.1278C122.322 20.1359 117.857 18.787 114.268 21.7963V21.7963Z" fill="#1E1915"/>
<path fill-rule="evenodd" clip-rule="evenodd" d="M143.456 137.832C142.763 139.628 139.845 174.542 139.45 191.252C139.054 207.961 139.178 227.613 141.082 238.087C142.986 248.561 148.994 256.093 150.873 254.098C152.752 252.103 153.566 238.386 152.355 226.116C151.143 213.846 145.088 195.192 143.604 180.478C142.121 165.764 144.148 136.036 143.456 137.832V137.832Z" fill="#27221F"/>
<path fill-rule="evenodd" clip-rule="evenodd" d="M154.951 98.931C154.494 98.0081 150.341 97.7082 148.721 98.107C147.102 98.5058 146.558 100.626 145.235 101.324C143.912 102.022 142.181 102.234 140.785 102.296C139.388 102.359 138.016 101.411 136.854 101.698C135.692 101.985 132.861 103.032 133.813 104.017C134.765 105.002 140.34 107.111 142.565 107.61C144.791 108.108 145.681 107.671 147.164 107.01C148.648 106.349 150.168 104.991 151.466 103.644C152.764 102.298 155.408 99.8539 154.951 98.931V98.931Z" fill="#A0634E"/>
<path fill-rule="evenodd" clip-rule="evenodd" d="M135.147 89.1279C135.605 89.3899 136.458 84.4268 136.557 82.5439C136.656 80.661 136.68 78.7408 135.74 77.8305C134.801 76.9203 131.576 76.8329 130.921 77.0823C130.266 77.3317 131.328 78.6787 131.81 79.327C132.292 79.9752 133.256 79.3382 133.813 80.9717C134.369 82.6052 134.69 88.8658 135.147 89.1279V89.1279Z" fill="#A0634E"/>
<path fill-rule="evenodd" clip-rule="evenodd" d="M138.485 116.285C139.165 116.859 140.463 120.575 140.191 120.998C139.919 121.422 137.533 119.401 136.853 118.828C136.173 118.254 135.839 117.981 136.111 117.557C136.383 117.133 137.805 115.712 138.485 116.285V116.285Z" fill="#5C2425"/>
<path fill-rule="evenodd" clip-rule="evenodd" d="M142.212 114.757C140.422 115.391 138.139 115.489 137.698 116.444C137.257 117.399 138.281 119.236 139.565 120.485C140.849 121.734 142.243 124.05 145.401 123.939C148.559 123.828 155.406 121.612 158.512 119.819C161.618 118.027 162.955 114.704 164.038 113.186C165.121 111.668 165.12 111.25 165.01 110.714C164.9 110.178 164.978 109.917 163.376 109.969C161.774 110.021 157.89 110.584 155.4 111.029C152.91 111.473 150.635 112.016 148.437 112.637C146.239 113.258 144.002 114.122 142.212 114.757V114.757Z" fill="#D9D9D9"/>
<path fill-rule="evenodd" clip-rule="evenodd" d="M163.109 110.076C162.874 110.276 164.27 110.326 164.444 110.825C164.617 111.324 163.901 112.957 164.148 113.069C164.395 113.181 165.507 111.984 165.927 111.497C166.347 111.011 166.681 110.462 166.669 110.151C166.657 109.839 166.447 109.641 165.854 109.628C165.26 109.616 163.344 109.877 163.109 110.076V110.076Z" fill="#5C2425"/>
<path fill-rule="evenodd" clip-rule="evenodd" d="M135.223 118.007C134.568 117.783 136.991 115.426 138.041 114.49C139.092 113.555 140.327 112.707 141.526 112.396C142.725 112.084 143.875 112.956 145.235 112.62C146.594 112.283 147.522 110.851 149.685 110.377C151.848 109.903 155.538 109.897 158.215 109.777C160.892 109.657 165.526 109.443 165.748 109.655C165.971 109.867 161.609 110.567 159.55 111.049C157.491 111.531 155.112 111.835 153.394 112.546C151.675 113.257 150.65 114.691 149.241 115.314C147.831 115.938 146.15 116.199 144.939 116.287C143.727 116.374 143.591 115.552 141.972 115.838C140.353 116.125 135.878 118.232 135.223 118.007V118.007Z" fill="#AC5156"/>
<path fill-rule="evenodd" clip-rule="evenodd" d="M135.987 117.935C136.111 118.384 137.797 120.55 138.708 121.747C139.618 122.943 139.882 124.216 141.452 125.114C143.022 126.012 145.717 127.134 148.128 127.134C150.539 127.134 153.605 126.199 155.916 125.114C158.228 124.029 160.539 122.32 161.997 120.624C163.455 118.929 163.912 116.61 164.667 114.939C165.422 113.267 166.639 110.983 166.528 110.596C166.416 110.209 164.777 112.027 164 112.618C163.223 113.21 162.803 113.526 161.866 114.146C160.929 114.766 159.568 115.556 158.378 116.336C157.189 117.117 156.054 118.126 154.728 118.828C153.403 119.53 151.873 120.079 150.427 120.55C148.98 121.021 147.658 121.566 146.051 121.653C144.444 121.74 142.132 121.506 140.784 121.073C139.437 120.64 138.765 119.577 137.966 119.054C137.166 118.531 135.864 117.486 135.987 117.935V117.935Z" fill="#AC5156"/>
</svg>
