<svg width="323" height="310" viewBox="0 0 323 310" fill="none" xmlns="http://www.w3.org/2000/svg">
<path fill-rule="evenodd" clip-rule="evenodd" d="M0 0H323V309H0V0Z" fill="white"/>
<path fill-rule="evenodd" clip-rule="evenodd" d="M114.201 182.859C95.9658 183.916 91.6705 182.628 81.9604 185.742C72.2504 188.855 62.6672 195.391 55.9411 201.542C49.2151 207.693 45.621 214.748 41.6044 222.648C37.5878 230.548 34.5873 241.332 31.8417 248.943C29.0961 256.555 25.925 263.029 25.1309 268.318C24.3368 273.608 22.2611 274.99 27.0774 280.678C32.6104 287.213 54.8538 289.489 73.3683 296.013C88.7972 301.45 120.851 306.379 140.424 308.337C166.521 310.946 199.161 307.249 232.861 304.35C266.561 301.45 277.551 293.95 287.46 287.314C297.37 280.678 297.174 280.819 297.37 272.091C297.566 263.362 290.545 241.37 287.46 230.952C284.376 220.533 282.173 210.768 277.699 203.618C273.226 196.467 268.09 191.738 260.617 188.048C253.144 184.357 244.401 182.916 232.861 181.474C221.32 180.032 211.151 179.167 191.375 179.398C171.598 179.629 132.437 181.802 114.201 182.859Z" fill="#DA6655"/>
<path fill-rule="evenodd" clip-rule="evenodd" d="M131.554 201.877C133.207 204.908 140.151 207.168 144.779 208.491C149.408 209.813 153.705 209.923 159.325 209.813C164.946 209.703 172.571 208.947 178.503 207.829C184.434 206.71 191.001 204.976 194.913 203.102C198.826 201.229 200.413 198.555 201.976 196.587C203.539 194.62 206.937 193.172 204.292 191.298C201.647 189.425 197.678 185.512 186.106 185.346C174.534 185.181 143.953 187.552 134.861 190.307C125.769 193.062 129.901 198.846 131.554 201.877V201.877Z" fill="#B45240"/>
<path fill-rule="evenodd" clip-rule="evenodd" d="M129.933 191.585C133.515 193.789 138.584 196.708 144.15 198.196C149.715 199.684 156.988 200.732 163.325 200.512C169.662 200.292 176.826 198.086 182.171 196.874C187.516 195.662 191.815 195.222 195.397 193.238C198.979 191.254 201.789 187.287 203.662 184.973C205.536 182.658 208.181 182.769 206.638 179.352C205.095 175.936 197.104 170.755 194.404 164.473C191.703 158.191 197.104 145.958 190.436 141.66C183.769 137.362 164.176 141.726 154.4 138.684C144.623 135.643 137.065 115.696 131.775 123.411C126.485 131.126 122.966 173.61 122.659 184.973C122.352 196.335 126.351 189.381 129.933 191.585V191.585Z" fill="#F1B292"/>
<path fill-rule="evenodd" clip-rule="evenodd" d="M235.645 253.134C237.333 262.536 251.169 288.228 253.868 289.439C256.568 290.649 256.551 269.643 251.842 260.396C247.134 251.149 246.443 234.24 243.744 233.03C241.044 231.82 233.958 243.733 235.645 253.134Z" fill="#B45240"/>
<path fill-rule="evenodd" clip-rule="evenodd" d="M66.8941 285.163C65.2188 282.743 69.0347 256.31 71.3617 248.306C73.6887 240.302 79.1808 234.719 80.8561 237.139C82.5314 239.559 83.7405 254.821 81.4136 262.825C79.0866 270.829 68.5695 287.583 66.8941 285.163V285.163Z" fill="#B45240"/>
<path fill-rule="evenodd" clip-rule="evenodd" d="M182.58 151.843C182.966 154.929 177.952 158.933 174.646 161.21C171.339 163.488 166.765 165.637 162.742 165.509C158.72 165.38 152.935 159.613 150.51 160.44C148.085 161.266 148.525 166.72 148.194 170.467C147.864 174.214 149.352 179.836 148.526 182.922C147.699 186.008 145.33 187.108 143.236 188.982C141.142 190.856 139.268 193.336 135.962 194.163C132.656 194.99 125.052 200.316 123.399 193.942C121.746 187.569 124.997 167.823 126.043 155.921C127.09 144.018 121.965 124.731 129.679 122.527C137.394 120.323 163.513 137.809 172.33 142.695C181.147 147.581 182.194 148.758 182.58 151.843V151.843Z" fill="#E1A381"/>
<path fill-rule="evenodd" clip-rule="evenodd" d="M188.421 79.3696C186.271 73.7402 181.747 51.2225 175.519 45.5931C169.291 39.9636 156.949 43.7373 151.054 45.5931C145.16 47.4488 142.078 53.6925 140.15 56.7276C138.222 59.7627 140.7 60.2656 139.488 63.8037C138.276 67.3417 134.088 73.4744 132.876 77.9559C131.664 82.4374 131.442 87.0365 132.214 90.6925C132.986 94.3485 137.836 95.5282 137.505 99.892C137.175 104.256 131.077 111.647 130.231 116.875C129.386 122.104 131.516 124.068 132.435 131.262C133.353 138.455 134.805 150.112 135.742 160.038C136.678 169.964 138.625 181.363 138.055 190.818C137.486 200.272 134.161 209.138 132.324 216.765C130.488 224.391 127.275 228.845 127.035 236.577C126.795 244.31 130.335 256.514 130.886 263.16C131.437 269.806 132.306 275.669 130.342 276.452C128.378 277.235 122.407 270.941 119.101 267.856C115.794 264.77 113.37 257.937 110.504 257.937C107.639 257.937 104.773 264.77 101.908 267.856C99.0425 270.941 95.9567 274.909 93.3116 276.452C90.6666 277.995 86.1477 278.545 86.0377 277.112C85.9276 275.679 91.277 272.089 92.6514 267.856C94.0258 263.622 95.2216 253.504 94.2839 251.709C93.3462 249.915 89.4099 255.029 87.0251 257.086C84.6404 259.144 82.9137 261.951 79.9757 264.056C77.0376 266.161 70.0579 271.604 69.3967 269.716C68.7355 267.829 74.6862 257.332 76.0086 252.733C77.3309 248.134 76.6698 247.309 77.3309 242.12C77.9921 236.931 78.543 228.125 79.9757 221.599C81.4084 215.074 84.9366 209.193 85.9273 202.966C86.9179 196.74 84.8738 191.844 85.9197 184.242C86.9655 176.64 90.4941 167.284 92.2024 157.353C93.9107 147.423 94.2408 135.003 96.1695 124.659C98.0981 114.316 101.625 103.604 103.775 95.2932C105.924 86.9822 107.385 80.9853 109.064 74.7936C110.743 68.602 112.391 62.8641 113.849 58.1432C115.308 53.4223 115.638 51.3592 117.816 46.4683C119.995 41.5774 123.503 34.0463 126.919 28.798C130.335 23.5498 134.282 18.8429 138.314 14.9788C142.346 11.1148 145.948 7.58718 151.111 5.61377C156.275 3.64037 165.218 2.60752 169.295 3.13838C173.373 3.66923 173.429 8.62224 175.578 8.79888C177.727 8.97551 177.947 3.72662 182.19 4.19817C186.433 4.66973 195.636 7.38264 201.036 11.6282C206.436 15.8737 210.789 22.4773 214.591 29.6714C218.393 36.8654 221.26 46.2419 223.849 54.7926C226.439 63.3432 228.257 72.5434 230.13 80.9755C232.004 89.4075 233.547 96.894 235.09 105.385C236.634 113.876 238.772 124.24 239.389 131.922C240.005 139.604 238.787 145.135 238.787 151.476C238.787 157.816 238.066 164.123 239.389 169.964C240.711 175.805 244.838 181.007 246.722 186.521C248.605 192.036 250.138 195.668 250.689 203.052C251.24 210.436 251.461 220.025 250.028 230.825C248.596 241.626 244.692 264.482 242.092 267.856C239.492 271.23 236.191 251.731 234.428 251.07C232.665 250.409 233.371 259.889 231.513 263.889C229.656 267.888 225.027 275.064 223.282 275.065C221.538 275.066 222.432 267.963 221.049 263.896C219.665 259.829 217.868 250.664 214.983 250.663C212.098 250.662 206.275 265.321 203.74 263.889C201.205 262.456 200.214 250.334 199.773 242.067C199.332 233.799 202.152 224.002 201.095 214.285C200.038 204.568 194.852 192.621 193.431 183.764C192.01 174.908 194.2 168.545 192.567 161.145C190.934 153.746 183.882 145.213 183.632 139.367C183.382 133.521 188.284 131.353 191.066 126.071C193.848 120.789 200.763 115.341 200.323 107.676C199.882 100.011 190.405 84.6787 188.421 80.0793" fill="#181915"/>
<path fill-rule="evenodd" clip-rule="evenodd" d="M155.405 16.7957C156.07 14.4398 143.685 10.6747 136.919 22.9585C130.153 35.2422 118.253 70.5425 114.81 90.4982C111.366 110.454 116.984 127.288 116.259 142.693C115.534 158.097 111.064 170.601 110.46 182.925C109.856 195.249 111.366 209.144 112.635 216.635C113.903 224.126 117.225 236.449 118.071 227.87C118.916 219.292 117.045 181.597 117.709 165.165C118.374 148.734 121.334 141.121 122.059 129.281C122.784 117.44 121.757 103.97 122.059 94.1228C122.361 84.2761 122.058 79.7052 123.87 70.2003C125.682 60.6955 127.677 45.9943 132.933 37.0936C138.188 28.1928 154.741 19.1515 155.405 16.7957V16.7957Z" fill="#322E2C"/>
<path fill-rule="evenodd" clip-rule="evenodd" d="M139.503 95.8838C142.997 96.2272 145.663 100.318 147.129 103.671C148.596 107.025 148.89 112.055 148.303 116.003C147.717 119.951 145.621 124.61 143.609 127.36C141.597 130.11 139.066 131.906 136.231 132.501C133.395 133.096 128.917 133.18 126.596 130.931C124.274 128.683 122.373 123.898 122.301 119.011C122.23 114.124 123.3 105.465 126.167 101.611C129.034 97.7563 136.01 95.5403 139.503 95.8838V95.8838Z" stroke="#F1C232" stroke-miterlimit="10" stroke-linejoin="round"/>
<path fill-rule="evenodd" clip-rule="evenodd" d="M210.438 108.654C212.278 109.871 200.446 136.895 199.143 149.459C197.84 162.024 202.04 172.693 202.62 184.041C203.199 195.388 204.109 218.198 202.62 217.547C201.13 216.896 195.36 189.719 193.684 180.132C192.009 170.546 193.498 166.358 192.568 160.029C191.637 153.7 185.122 150.721 188.1 142.159C191.078 133.596 208.597 107.437 210.438 108.654V108.654Z" fill="#322E2C"/>
<path fill-rule="evenodd" clip-rule="evenodd" d="M225.966 111.28C225.12 112.065 216.723 133.571 216.542 146.076C216.361 158.581 224.799 173.804 224.879 186.309C224.96 198.813 216.36 212.583 217.025 221.105C217.69 229.626 227.903 237.921 228.869 237.438C229.836 236.954 223.067 224.854 222.825 218.205C222.582 211.557 226.288 204.855 227.416 197.546C228.543 190.236 230.557 183.712 229.59 174.348C228.624 164.984 222.22 151.875 221.616 141.363C221.012 130.852 226.812 110.494 225.966 111.28V111.28Z" fill="#322E2C"/>
<path fill-rule="evenodd" clip-rule="evenodd" d="M207.306 101.981C210.904 100.904 212.174 105.147 213.64 108.5C215.107 111.853 216.477 117.941 216.106 122.1C215.735 126.26 213.466 130.537 211.412 133.457C209.359 136.378 206.622 139.029 203.786 139.624C200.951 140.219 196.403 138.976 194.398 137.029C192.394 135.082 192.148 131.619 191.757 127.942C191.366 124.264 189.461 119.288 192.052 114.961C194.644 110.635 203.708 103.058 207.306 101.981V101.981Z" stroke="#F1C232" stroke-miterlimit="10" stroke-linejoin="round"/>
<path fill-rule="evenodd" clip-rule="evenodd" d="M132.434 129.802C134.859 134.376 139.036 139.853 142.73 143.216C146.423 146.578 151.221 148.105 154.595 149.976C157.968 151.847 158.721 153.807 162.97 154.444C167.219 155.08 175.621 154.912 180.089 153.795C184.556 152.678 185.367 152.206 189.775 147.742C194.184 143.279 202.809 133.61 206.54 127.014C210.271 120.419 211.169 114.562 212.161 108.17C213.153 101.778 212.822 94.7236 212.492 88.6619C212.161 82.6003 210.727 77.476 210.176 71.8003C209.625 66.1246 211.775 61.6057 209.185 54.6076C206.595 47.6095 199.596 34.7711 194.637 29.8118C189.677 24.8524 186.372 25.3474 179.429 24.8515C172.485 24.3555 159.976 23.8602 152.977 26.836C145.979 29.8118 141.24 37.6369 137.438 42.7063C133.636 47.7757 131.599 52.1278 130.166 57.2523C128.733 62.3769 129.503 67.7228 128.842 73.4537C128.18 79.1846 126.307 84.5845 126.197 91.6377C126.087 98.691 127.142 109.413 128.182 115.773C129.221 122.134 130.009 125.228 132.434 129.802V129.802Z" fill="#FEC4A6"/>
<path fill-rule="evenodd" clip-rule="evenodd" d="M166.158 86.8871C166.956 88.2801 168.142 84.9003 167.977 81.9369C167.811 78.9734 166.053 71.7251 165.166 69.1063C164.279 66.4875 163.798 66.9961 162.655 66.224C161.511 65.452 158.909 64.0654 158.305 64.4741C157.701 64.8828 158.487 67.6842 159.03 68.6762C159.574 69.6682 160.874 69.6091 161.566 70.4261C162.259 71.2432 162.419 70.8351 163.184 73.5786C163.949 76.3221 165.359 85.4941 166.158 86.8871V86.8871Z" fill="#E1A381"/>
<path fill-rule="evenodd" clip-rule="evenodd" d="M179.217 71.9983C178.694 73.6514 178.254 76.3234 178.557 78.6101C178.86 80.8968 180.348 84.1206 181.036 85.7186C181.725 87.3165 182.525 88.6661 182.69 88.1978C182.855 87.7294 182.276 84.9746 182.028 82.9083C181.78 80.842 180.899 77.7834 181.202 75.7998C181.505 73.8163 182.266 72.1416 183.847 71.007C185.427 69.8723 189.243 69.8111 190.685 68.992C192.126 68.1729 192.864 66.6108 192.496 66.0923C192.128 65.5738 190.275 65.448 188.476 65.8811C186.676 66.3143 183.242 67.6719 181.698 68.6914C180.155 69.7109 179.741 70.3452 179.217 71.9983V71.9983Z" fill="#E1A381"/>
<path fill-rule="evenodd" clip-rule="evenodd" d="M163.055 101.22C163.375 102.275 167.485 105.036 169.781 106.06C172.076 107.083 174.425 107.796 176.827 107.362C179.229 106.928 182.646 104.571 184.194 103.455C185.742 102.338 186.729 100.974 186.114 100.663C185.5 100.353 182.378 101.252 180.509 101.593C178.641 101.934 177.013 103.019 174.904 102.709C172.796 102.399 169.835 99.9796 167.86 99.7315C165.885 99.4833 162.735 100.166 163.055 101.22V101.22Z" fill="#E1A381"/>
<path fill-rule="evenodd" clip-rule="evenodd" d="M164.174 62.7387C165.552 62.1879 166.074 59.1582 164.835 58.1114C163.595 57.0646 159.545 56.8988 156.735 56.458C153.924 56.0172 150.508 55.6871 147.973 55.4667C145.438 55.2463 143.786 54.3092 141.527 55.1356C139.267 55.962 136.044 58.4964 134.418 60.4251C132.793 62.3538 131.608 66.3221 131.773 66.7077C131.939 67.0934 133.894 63.8686 135.409 62.7387C136.925 61.6089 138.523 60.3141 140.864 59.9285C143.206 59.5429 146.843 60.1771 149.461 60.4251C152.078 60.6731 154.117 61.0308 156.569 61.4164C159.021 61.802 162.797 63.2896 164.174 62.7387V62.7387Z" fill="#181915"/>
<path fill-rule="evenodd" clip-rule="evenodd" d="M184.51 63.237C183.573 62.4379 183.572 59.2414 185.335 58.4423C187.099 57.6431 191.893 58.2767 195.089 58.4423C198.284 58.6078 202.196 58.278 204.511 59.4355C206.825 60.5929 208.038 63.7615 208.974 65.3871C209.911 67.0126 210.654 69.2438 210.131 69.1886C209.608 69.1335 207.543 66.0479 205.835 65.056C204.127 64.0641 202.363 63.5402 199.883 63.237C197.403 62.9339 193.518 63.237 190.956 63.237C188.394 63.237 185.446 64.0362 184.51 63.237V63.237Z" fill="#181915"/>
<path fill-rule="evenodd" clip-rule="evenodd" d="M154.589 118.074C155.223 118.814 154.62 122.409 153.775 122.696C152.929 122.983 150.149 120.536 149.515 119.796C148.88 119.056 149.124 118.544 149.969 118.257C150.815 117.97 153.955 117.335 154.589 118.074V118.074Z" fill="#602829"/>
<path fill-rule="evenodd" clip-rule="evenodd" d="M188.3 118.256C187.681 119.072 188.934 122.545 189.658 122.787C190.383 123.028 192.03 120.522 192.65 119.706C193.269 118.89 194.099 118.134 193.374 117.893C192.65 117.651 188.919 117.441 188.3 118.256V118.256Z" fill="#602829"/>
<path fill-rule="evenodd" clip-rule="evenodd" d="M153.403 118.478C153.003 119.071 152.37 120.048 152.99 121.37C153.61 122.693 153.706 125.2 157.123 126.413C160.539 127.625 168.487 129.058 173.488 128.644C178.488 128.231 184.673 125.71 187.126 123.933C189.58 122.157 189.766 119.003 188.209 117.984C186.652 116.964 181.727 117.816 177.786 117.816C173.845 117.816 168.295 117.982 164.562 117.982C160.829 117.982 157.247 117.733 155.387 117.816C153.528 117.899 153.803 117.886 153.403 118.478V118.478Z" fill="#F3F3F3"/>
<path fill-rule="evenodd" clip-rule="evenodd" d="M149.153 119.705C149.315 120.737 150.952 123.969 152.568 125.897C154.185 127.824 156.592 129.904 158.851 131.268C161.111 132.631 163.108 133.527 166.125 134.078C169.142 134.629 173.824 135.057 176.951 134.575C180.079 134.093 182.904 132.564 184.888 131.186C186.871 129.808 187.473 128.314 188.855 126.309C190.236 124.305 193.164 120.098 193.178 119.161C193.191 118.224 190.263 119.883 188.936 120.689C187.61 121.494 186.624 123.085 185.219 123.994C183.813 124.903 182.379 125.62 180.506 126.144C178.632 126.667 176.278 127.066 173.978 127.135C171.677 127.204 169.115 126.97 166.704 126.557C164.293 126.144 161.729 125.579 159.511 124.656C157.294 123.733 154.715 121.843 153.396 121.018C152.078 120.193 152.307 119.924 151.6 119.705C150.893 119.486 148.992 118.673 149.153 119.705V119.705Z" fill="#D16D68"/>
<path fill-rule="evenodd" clip-rule="evenodd" d="M150.178 117.87C151.377 117.499 154.532 116.848 156.709 116.449C158.885 116.049 161.186 115.753 163.239 115.472C165.291 115.191 167.411 114.57 169.023 114.763C170.634 114.955 171.861 116.509 172.908 116.627C173.955 116.746 174.258 115.709 175.305 115.472C176.353 115.236 177 114.954 179.191 115.206C181.381 115.458 186.083 116.535 188.447 116.983C190.811 117.431 192.781 117.596 193.373 117.893C193.966 118.189 193.153 118.675 192.001 118.76C190.85 118.846 188.614 118.404 186.465 118.404C184.316 118.404 181.215 118.583 179.107 118.76C176.999 118.938 175.746 119.47 173.817 119.47C171.889 119.47 169.679 118.837 167.537 118.76C165.394 118.684 163.58 119.041 160.963 119.011C158.345 118.982 153.74 118.638 151.832 118.581C149.924 118.525 149.792 118.789 149.516 118.671C149.241 118.552 148.98 118.24 150.178 117.87V117.87Z" fill="#D16D68"/>
<path fill-rule="evenodd" clip-rule="evenodd" d="M167.487 150.545C166.883 150.122 169.903 148.009 171.112 148.009C172.32 148.009 175.34 150.122 174.736 150.545C174.132 150.968 168.091 150.968 167.487 150.545Z" fill="#E1A381"/>
<path fill-rule="evenodd" clip-rule="evenodd" d="M171.348 41.6415C171.348 39.2216 173.674 16.884 174.139 14.8364C174.605 12.7888 174.605 24.8883 174.139 29.3558C173.674 33.8233 171.348 44.0614 171.348 41.6415Z" fill="#FEC4A6"/>
<path fill-rule="evenodd" clip-rule="evenodd" d="M184.006 13.812C184.89 15.4407 196.477 17.7217 202.433 25.2605C208.39 32.7992 216.488 48.993 219.746 59.0446C223.003 69.0962 219.653 77.4724 221.98 85.57C224.306 93.6675 233.241 108.421 233.706 107.63C234.171 106.839 227.005 90.411 224.771 80.8247C222.537 71.2383 224.91 61.0009 220.303 50.1115C215.696 39.2221 203.178 21.5382 197.129 15.4882C191.079 9.43833 183.122 12.1833 184.006 13.812V13.812Z" fill="#322E2C"/>
<path fill-rule="evenodd" clip-rule="evenodd" d="M107.803 118.287C105.91 128.396 99.8889 176.04 95.7208 194.163C91.5526 212.286 83.2569 223.905 82.7939 227.026C82.3309 230.147 89.2177 225.736 92.9428 212.889C96.668 200.042 102.789 163.172 105.145 149.942C107.501 136.713 106.635 138.787 107.078 133.511C107.521 128.235 109.696 108.179 107.803 118.287V118.287Z" fill="#322E2C"/>
<path fill-rule="evenodd" clip-rule="evenodd" d="M240.77 182.706C239.888 182.375 241.872 196.837 242.092 205.849C242.312 214.86 241.21 236.446 242.092 236.777C242.974 237.107 247.604 216.845 247.383 207.833C247.163 198.821 241.651 183.037 240.77 182.706Z" fill="#322E2C"/>
</svg>
