<svg width="323" height="309" viewBox="0 0 323 309" fill="none" xmlns="http://www.w3.org/2000/svg">
<path fill-rule="evenodd" clip-rule="evenodd" d="M0 0H323V309H0V0Z" fill="white"/>
<path fill-rule="evenodd" clip-rule="evenodd" d="M139.807 169.096C126.113 171.652 103.498 175.526 91.0415 179.719C78.5849 183.911 73.6365 187.356 65.067 194.249C56.4976 201.141 47.0643 209.802 39.6248 221.072C32.1852 232.342 24.281 249.387 20.4297 261.868C16.5785 274.349 8.28269 289.575 16.5174 295.958C24.7521 302.341 46.728 298.677 69.838 300.165C92.9481 301.652 118.25 304.098 155.178 304.884C192.106 305.671 265.52 308.515 291.405 304.884C317.29 301.254 308.544 293.158 310.488 283.1C312.431 273.043 306.512 255.996 303.067 244.54C299.621 233.083 294.055 222.838 289.815 214.362C285.574 205.886 285.309 199.461 277.623 193.686C269.937 187.911 261.102 184.598 243.698 179.714C226.294 174.83 190.516 166.152 173.201 164.383C155.885 162.613 153.5 166.54 139.807 169.096V169.096Z" fill="#3D4E58"/>
<path fill-rule="evenodd" clip-rule="evenodd" d="M156.229 135.571C143.561 142.37 142.071 170.405 141.698 181.954C141.326 193.504 148.125 200.024 153.993 204.867C159.861 209.71 169.641 210.642 176.906 211.015C184.171 211.387 191.623 209.71 197.584 207.102C203.545 204.494 209.319 206.357 212.672 195.367C216.025 184.376 227.109 151.125 217.702 141.159C208.295 131.192 168.896 128.771 156.229 135.571V135.571Z" fill="#D99D61"/>
<path fill-rule="evenodd" clip-rule="evenodd" d="M203.731 158.482C202.986 161.463 194.137 168.261 188.083 168.541C182.029 168.82 171.69 158.481 167.405 160.158C163.121 161.835 164.425 174.502 162.375 178.601C160.326 182.699 156.973 180.836 155.11 184.748C153.247 188.66 154.644 201.885 151.198 202.071C147.752 202.258 137.134 191.547 134.433 185.866C131.732 180.184 130.614 174.596 134.992 167.983C139.37 161.37 151.106 149.075 160.7 146.187C170.293 143.3 185.381 148.609 192.553 150.658C199.725 152.707 204.476 155.502 203.731 158.482V158.482Z" fill="#BA8249"/>
<path fill-rule="evenodd" clip-rule="evenodd" d="M208.759 155.128C208.48 166.864 206.525 176.643 207.084 187.541C207.643 198.439 211.275 211.199 212.114 220.514C212.952 229.828 210.81 242.123 212.114 243.426C213.418 244.73 217.888 228.523 219.937 228.337C221.986 228.15 219.228 246.244 224.407 242.309C229.586 238.374 244.302 215.53 251.009 204.726C257.715 193.922 262.838 188.45 264.645 177.483C266.452 166.515 262.316 149.261 261.85 138.922C261.384 128.584 262.595 123.648 261.85 115.451C261.105 107.255 258.404 98.3131 257.38 89.7439C256.355 81.1747 257.658 73.8161 255.703 64.0363C253.747 54.2566 251.698 40.5655 245.644 31.0653C239.59 21.5651 229.252 11.692 219.379 7.0349C209.506 2.37778 195.627 2.93631 186.406 3.12257C177.185 3.30883 173.46 3.77489 164.053 8.15248C154.646 12.5301 138.487 20.009 129.963 29.3881C121.439 38.7672 117.793 51.1332 112.908 64.4271C108.023 77.7209 105.17 95.4315 100.655 109.151C96.1392 122.871 87.9152 132.283 85.8143 146.745C83.7134 161.207 88.0495 183.35 88.0495 195.924C88.0495 208.498 83.6721 218.929 85.8143 222.189C87.9565 225.449 97.0836 213.062 100.902 215.484C104.721 217.905 102.158 239.7 108.727 236.719C115.296 233.739 132.774 208.497 140.318 197.599C147.863 186.702 150.317 180.09 153.993 171.335C157.669 162.58 160.792 155.036 162.376 145.07C163.959 135.104 155.763 116.196 163.493 111.539C171.224 106.882 201.215 109.862 208.759 117.127C216.304 124.392 209.039 143.392 208.759 155.128V155.128Z" fill="#191916"/>
<path fill-rule="evenodd" clip-rule="evenodd" d="M228.808 118.954C232.586 118.749 233.199 133.555 233.71 141.009C234.22 148.463 233.608 157.551 231.872 163.678C230.136 169.804 225.235 173.48 223.294 177.769C221.354 182.057 221.967 186.55 220.231 189.409C218.495 192.268 214.615 196.863 212.879 194.923C211.143 192.983 210.531 182.772 209.816 177.769C209.101 172.765 208.386 170.825 208.591 164.903C208.795 158.981 207.672 149.893 211.041 142.235C214.411 134.576 225.03 119.158 228.808 118.954V118.954Z" fill="#13140E"/>
<path fill-rule="evenodd" clip-rule="evenodd" d="M171.054 195.364C167.112 192.65 158.185 184.934 154.553 181.953C150.92 178.972 151.352 175.431 149.259 177.479C147.166 179.528 145.084 187.775 141.994 194.246C138.904 200.718 125.179 212.026 130.718 216.31C136.257 220.595 162.758 219.996 175.229 219.954C187.699 219.912 199.671 217.422 205.54 216.058C211.409 214.694 209.575 217.924 210.441 211.769C211.307 205.614 213.112 182.629 210.735 179.129C208.359 175.629 201.606 187.585 196.184 190.77C190.762 193.954 182.392 197.47 178.203 198.236C174.015 199.002 174.996 198.078 171.054 195.364V195.364Z" fill="#3D4E58"/>
<path fill-rule="evenodd" clip-rule="evenodd" d="M207.844 173.735C208.496 172.989 211.123 177.509 210.996 179.158C210.869 180.808 207.609 184.534 207.084 183.63C206.559 182.726 207.192 174.48 207.844 173.735V173.735Z" fill="#364047"/>
<path fill-rule="evenodd" clip-rule="evenodd" d="M174.67 36.6539C169.361 40.8453 170.758 44.0125 167.405 47.8314C164.052 51.6502 157.253 53.9783 154.552 59.5667C151.851 65.1552 151.57 75.0285 151.198 81.362C150.825 87.6955 151.385 91.6067 152.317 97.5677C153.249 103.529 155.204 110.701 156.787 117.128C158.371 123.555 160.327 130.912 161.817 136.128C163.307 141.344 161.909 144.791 165.728 148.423C169.546 152.056 178.581 155.874 184.728 157.923C190.876 159.973 197.862 161.277 202.613 160.718C207.363 160.159 209.412 157.179 213.231 154.571C217.049 151.963 221.24 149.634 225.524 145.07C229.808 140.507 235.77 132.59 238.937 127.188C242.104 121.785 244.247 118.618 244.526 112.657C244.806 106.696 240.8 96.6377 240.614 91.4218C240.428 86.2059 242.757 86.0191 243.409 81.362C244.061 76.7049 244.34 69.6263 244.526 63.4791C244.712 57.3319 245.83 49.1357 244.526 44.4786C243.222 39.8215 242.011 38.6101 236.701 35.5364C231.392 32.4626 218.912 28.1783 212.671 26.0361C206.431 23.894 205.592 20.9138 199.259 22.6834C192.925 24.453 179.979 32.4626 174.67 36.6539V36.6539Z" fill="#E4A86E"/>
<path fill-rule="evenodd" clip-rule="evenodd" d="M61.8585 293.786C61.6719 287.638 83.5599 239.446 88.124 235.954C92.6881 232.463 93.6208 263.199 89.2432 272.838C84.8656 282.476 62.045 299.933 61.8585 293.786V293.786Z" fill="#364047"/>
<path fill-rule="evenodd" clip-rule="evenodd" d="M247.88 252.364C249.743 260.002 254.865 274.345 256.821 281.983C258.777 289.62 256.914 300.332 259.616 298.19C262.317 296.048 275.357 279.469 273.028 269.13C270.7 258.791 249.836 238.951 245.645 236.157C241.454 233.363 246.018 244.727 247.88 252.364V252.364Z" fill="#364047"/>
<path fill-rule="evenodd" clip-rule="evenodd" d="M195.401 67.3613C195.196 68.5764 201.447 73.9861 202.096 77.7861C202.744 81.5862 198.841 88.5074 199.293 90.1615C199.745 91.8157 204.134 90.9886 204.807 87.7109C205.48 84.4332 204.897 73.8869 203.329 70.4953C201.761 67.1037 195.607 66.1462 195.401 67.3613V67.3613Z" fill="#BA8249"/>
<path fill-rule="evenodd" clip-rule="evenodd" d="M220.124 98.1267C219.658 97.7542 215.972 84.883 216.585 80.7986C217.197 76.7142 223.334 73.2479 223.8 73.6204C224.266 73.9929 219.992 78.9494 219.38 83.0338C218.767 87.1182 220.59 98.4993 220.124 98.1267V98.1267Z" fill="#BA8249"/>
<path fill-rule="evenodd" clip-rule="evenodd" d="M195.907 105.606C196.931 106.966 205.035 111.128 209.319 111.848C213.604 112.568 220.403 110.728 221.614 109.927C222.825 109.127 218.354 107.446 216.584 107.045C214.815 106.645 213.232 108.086 210.996 107.526C208.761 106.966 205.687 104.005 203.172 103.685C200.657 103.365 194.882 104.245 195.907 105.606V105.606Z" fill="#BA8249"/>
<path fill-rule="evenodd" clip-rule="evenodd" d="M204.583 66.61C205.56 66.2142 208.378 65.0033 206.678 62.9775C204.978 60.9516 198.341 56.3644 194.383 54.4549C190.424 52.5454 185.698 52.0327 182.927 51.5203C180.156 51.0078 180.063 50.705 177.757 51.3804C175.452 52.0557 171.214 53.9889 169.095 55.5725C166.976 57.1561 164.835 60.4864 165.044 60.8822C165.254 61.2781 168.513 58.9258 170.352 57.9476C172.192 56.9693 174.056 55.502 176.082 55.0129C178.108 54.5238 179.574 54.3142 182.507 55.0129C185.441 55.7116 190.634 57.4818 193.685 59.205C196.735 60.9283 198.994 64.1184 200.81 65.3525C202.626 66.5867 203.605 67.0058 204.583 66.61V66.61Z" fill="#573D20"/>
<path fill-rule="evenodd" clip-rule="evenodd" d="M224.981 71.0802C224.398 70.2885 225.329 67.7966 226.936 67.1678C228.543 66.5391 232.176 66.9816 234.621 67.3077C237.066 67.6339 239.964 68.2482 241.606 69.1248C243.248 70.0015 244.043 71.4583 244.475 72.5676C244.906 73.6769 244.3 75.3297 244.195 75.7804C244.089 76.2312 244.412 75.7762 243.841 75.2723C243.27 74.7685 242.119 73.2931 240.768 72.7573C239.418 72.2216 237.461 72.1978 235.738 72.0579C234.015 71.918 232.221 72.0809 230.429 71.918C228.636 71.755 225.563 71.8719 224.981 71.0802V71.0802Z" fill="#573D20"/>
<path fill-rule="evenodd" clip-rule="evenodd" d="M183.051 119.585C182.469 119.934 182.887 121.471 183.329 121.82C183.771 122.169 185.122 122.029 185.704 121.68C186.286 121.331 187.264 120.074 186.822 119.725C186.38 119.376 183.633 119.236 183.051 119.585V119.585Z" fill="#763317"/>
<path fill-rule="evenodd" clip-rule="evenodd" d="M217.977 125.731C217.675 126.011 218.258 128.921 218.677 129.224C219.096 129.526 220.609 128.129 220.492 127.547C220.376 126.965 218.28 125.452 217.977 125.731V125.731Z" fill="#763317"/>
<path fill-rule="evenodd" clip-rule="evenodd" d="M185.983 119.584C184.622 120.103 184.04 122.898 186.543 124.614C189.045 126.33 195.969 128.974 200.999 129.882C206.029 130.79 213.821 130.661 216.721 130.062C219.62 129.463 219.363 127.135 218.396 126.29C217.429 125.445 214.865 125.79 210.917 124.992C206.97 124.194 198.867 122.401 194.712 121.499C190.556 120.598 187.345 119.065 185.983 119.584V119.584Z" fill="#EFEFEF"/>
<path fill-rule="evenodd" clip-rule="evenodd" d="M183.124 119.584C184.318 119.096 193.105 118.086 196.298 117.913C199.491 117.741 200.596 117.965 202.282 118.55C203.968 119.135 204.554 121.134 206.413 121.424C208.272 121.713 211.075 119.313 213.434 120.287C215.792 121.261 220.437 126.385 220.565 127.269C220.694 128.153 217.132 126.01 214.205 125.592C211.279 125.173 207.183 125.549 203.004 124.757C198.825 123.966 192.445 121.704 189.131 120.842C185.818 119.979 181.929 120.072 183.124 119.584V119.584Z" fill="#BF5641"/>
<path fill-rule="evenodd" clip-rule="evenodd" d="M182.844 121.121C182.541 121.773 184.588 126.048 187.314 128.246C190.04 130.445 194.868 133.198 199.199 134.314C203.53 135.429 209.807 135.929 213.298 134.941C216.789 133.953 219.876 129.27 220.147 128.386C220.417 127.503 217.717 129.571 214.922 129.641C212.128 129.71 206.609 129.293 203.381 128.804C200.154 128.316 197.932 127.454 195.557 126.709C193.182 125.964 191.25 125.265 189.131 124.334C187.012 123.403 183.147 120.469 182.844 121.121V121.121Z" fill="#D3745A"/>
<path fill-rule="evenodd" clip-rule="evenodd" d="M135.287 205.954C134.723 206.771 132.772 219.328 138.028 224.331C143.283 229.334 166.258 236.788 166.823 235.971C167.387 235.155 146.67 224.436 141.414 219.433C136.158 214.43 135.852 205.138 135.287 205.954V205.954Z" fill="#364047"/>
<path fill-rule="evenodd" clip-rule="evenodd" d="M181.814 235.972C181.165 235.567 192.56 233.86 197.404 230.764C202.249 227.667 210.233 216.987 210.883 217.393C211.532 217.798 206.145 230.1 201.301 233.197C196.456 236.293 182.464 236.377 181.814 235.972V235.972Z" fill="#364047"/>
<path fill-rule="evenodd" clip-rule="evenodd" d="M159.578 26.4422C158.353 27.5654 140.381 42.6777 137.522 60.1384C134.663 77.5992 142.628 116.095 142.424 131.207C142.219 146.319 134.663 151.22 136.297 150.812C137.931 150.404 151.103 139.58 152.226 128.756C153.349 117.933 144.261 98.4296 143.036 85.8701C141.811 73.3106 142.117 63.3038 144.874 53.3992C147.631 43.4945 160.803 25.319 159.578 26.4422Z" fill="#2C281F"/>
<path fill-rule="evenodd" clip-rule="evenodd" d="M119.648 93.2232C117.707 94.4485 104.842 121.201 101.268 135.497C97.694 149.792 98.9193 168.784 98.2045 178.995C97.4897 189.206 94.4264 197.069 96.9792 196.763C99.5319 196.456 112.296 183.999 113.521 177.157C114.746 170.316 104.433 163.883 104.331 155.714C104.229 147.546 110.356 138.56 112.908 128.145C115.461 117.73 121.588 91.9979 119.648 93.2232V93.2232Z" fill="#2C281F"/>
<path fill-rule="evenodd" clip-rule="evenodd" d="M248.919 87.0961C248.408 88.4236 252.595 109.765 251.369 124.468C250.144 139.172 244.12 162.76 241.567 175.319C239.014 187.879 235.134 197.885 236.053 199.825C236.972 201.765 245.243 191.452 247.081 186.96C248.919 182.467 245.549 179.506 247.081 172.868C248.613 166.231 255.045 156.531 256.271 147.137C257.496 137.743 255.658 126.511 254.433 116.504C253.207 106.497 249.429 85.7687 248.919 87.0961V87.0961Z" fill="#2C281F"/>
<path fill-rule="evenodd" clip-rule="evenodd" d="M212.171 36.6101C209.923 33.588 200.722 16.4357 201.131 16.0273C201.539 15.6189 212.782 30.729 214.622 34.1594C216.462 37.5899 214.42 39.6321 212.171 36.6101Z" fill="#E4A86E"/>
<path d="M153.344 193.086L150.276 212.691" stroke="#364047" stroke-miterlimit="10" stroke-linejoin="round"/>
<path d="M161.006 196.839L157.938 216.444" stroke="#364047" stroke-miterlimit="10" stroke-linejoin="round"/>
<path d="M169.885 202.276L167.435 219.43" stroke="#364047" stroke-miterlimit="10" stroke-linejoin="round"/>
<path d="M179.075 205.952L176.914 228.007" stroke="#364047" stroke-miterlimit="10" stroke-linejoin="round"/>
<path d="M187.653 204.726V219.43" stroke="#364047" stroke-miterlimit="10" stroke-linejoin="round"/>
<path d="M196.23 198.6L196.847 218.205" stroke="#364047" stroke-miterlimit="10" stroke-linejoin="round"/>
<path d="M205.42 196.149V212.686" stroke="#364047" stroke-miterlimit="10" stroke-linejoin="round"/>
<path d="M149.055 190.023L143.536 203.511" stroke="#364047" stroke-miterlimit="10" stroke-linejoin="round"/>
<path fill-rule="evenodd" clip-rule="evenodd" d="M150.388 181.58C149.086 181.044 149.623 183.393 151.921 185.716C154.218 188.039 162.872 194.982 164.174 195.518C165.476 196.054 162.03 191.255 159.733 188.932C157.435 186.609 151.69 182.116 150.388 181.58V181.58Z" fill="#364047"/>
<path fill-rule="evenodd" clip-rule="evenodd" d="M208.59 177.905C208.386 177.19 207.711 179.558 204.761 182.806C201.812 186.054 193.834 195.231 190.892 197.393C187.95 199.555 185.462 197.161 187.11 195.777C188.758 194.392 197.634 190.533 200.78 189.086C203.926 187.639 204.685 188.958 205.987 187.095C207.288 185.232 208.794 178.62 208.59 177.905V177.905Z" fill="#364047"/>
</svg>
