<svg width="59" height="100" viewBox="0 0 59 100" fill="none" xmlns="http://www.w3.org/2000/svg">
<path d="M47.5631 71.3709C43.0575 72.8842 40.9819 75.2315 36.2276 72.3584C39.1487 65.4813 41.9682 59.3195 46.6402 55.8169C49.4957 53.3082 52.8173 50.4559 57.0548 52.3684C57.6598 54.5902 57.3013 57.2481 56.8175 60.511C55.8988 66.2965 51.6137 68.9102 47.5631 71.3709Z" fill="#423B0B" stroke="#423B0B"/>
<path d="M48.6481 69.9434C44.1426 71.4566 40.8545 73.9854 36.1002 71.1123C39.0213 64.2353 41.8407 58.0734 46.5128 54.5709C49.3683 52.0621 52.6899 49.2098 56.9274 51.1224C57.5323 53.3442 57.1738 56.0021 56.6901 59.2649C55.7713 65.0505 52.6987 67.4827 48.6481 69.9434Z" stroke="#202030"/>
<path d="M21.7715 60.9269C24.475 65.4722 27.0286 67.0153 26.3381 73.3037C19.9116 72.3249 14.0859 71.2213 9.74991 67.1534C6.80805 64.7899 3.43828 62.0187 3.53987 56.6303C5.09914 55.2105 7.32571 54.7252 10.0736 54.1783C14.9665 53.2769 18.4688 57.2078 21.7715 60.9269Z" fill="#423B0B" stroke="#423B0B"/>
<path d="M20.9343 58.0267C23.6378 62.5721 26.74 65.4137 26.0495 71.7021C19.623 70.7233 13.7974 69.6197 9.46133 65.5518C6.51947 63.1883 3.1497 60.4171 3.2513 55.0287C4.81057 53.6089 7.03713 53.1235 9.78506 52.5766C14.6779 51.6752 17.6316 54.3077 20.9343 58.0267Z" stroke="#202030"/>
<path d="M26.6925 41.5168C26.6925 41.5168 24.9964 56.8961 31.3569 67.9894C37.7173 79.0826 31.3569 99.0001 31.3569 99.0001" stroke="#423B0B" stroke-width="4" stroke-dasharray="7 7"/>
<path d="M27.1165 8.99331C-7.31767 18.826 -5.92574 27.9989 15.5798 42.3698C37.0854 56.7406 61.5506 -0.839362 27.1165 8.99331Z" fill="#C45653"/>
<path d="M43.6537 13.5315C60.2847 -2.01538 2.31059 21.0951 2.31059 21.0951C1.28709 29.2389 27.0227 29.0784 43.6537 13.5315Z" stroke="#EFD5D2" stroke-width="2" stroke-dasharray="6 6"/>
<path d="M43.0173 8.99345C51.922 0.817141 1.67425 19.5825 1.67425 19.5825C0.668417 27.5857 34.1126 17.1698 43.0173 8.99345Z" stroke="#EFD5D2" stroke-width="2" stroke-dasharray="6 6"/>
</svg>
