<svg width="1200" height="473" viewBox="0 0 1200 473" fill="none" xmlns="http://www.w3.org/2000/svg">
<g clip-path="url(#clip0)">
<rect width="1200" height="473" fill="white"/>
<path d="M360.819 55.2249C379.917 25.186 390.693 0.983719 233.307 -146.175C169.999 -205.369 137.141 -229.521 90.5093 -231.548C-129.337 -216.543 -229.084 -205.116 -147.324 -42.3674C-65.5638 120.381 -65.9389 127.51 23.3898 172.249C112.718 216.988 341.721 85.264 360.819 55.2249Z" fill="#EFD5D2" stroke="#EFD5D2" stroke-width="8"/>
<path d="M-187.14 101.022C-206.128 120.412 -201.727 158.696 -125.133 262.613C-87.7737 313.3 -67.3244 334.849 -33.1075 342.081C132.167 358.393 207.898 362.448 173.556 234.499C139.213 106.55 140.791 124.137 81.6751 57.9986C22.5589 -8.1403 -168.153 81.6324 -187.14 101.022Z" stroke="#202030" stroke-width="7" stroke-dasharray="20 7"/>
<path d="M1068.82 653.225C1087.92 623.186 1098.69 598.984 941.307 451.825C877.999 392.631 845.141 368.479 798.509 366.452C578.663 381.457 478.916 392.884 560.676 555.633C642.436 718.381 642.061 725.51 731.39 770.249C820.718 814.988 1049.72 683.264 1068.82 653.225Z" fill="#E3CCB5" stroke="#E3CCB5" stroke-width="8"/>
<path d="M688.572 512.062C730.795 502.768 763 444 713 412C686.221 394.862 527 450 467 434C317 394 301 382 255.995 382C210.99 382 198.841 509.324 255.995 530.929C313.148 552.535 646.35 521.355 688.572 512.062Z" stroke="#C45653" stroke-width="7" stroke-dasharray="15 7"/>
<path d="M475.777 -79.2116C448.57 -58.4205 444.18 -27.8435 508.393 38.9898C539.713 71.5886 558.406 84.3062 596.891 81.7353C787.436 53.9079 875.601 38.3287 867.151 -58.9534C858.701 -156.235 856.162 -142.078 803.085 -182.023C750.008 -221.967 502.984 -100.003 475.777 -79.2116Z" stroke="#423B0B" stroke-width="7" stroke-dasharray="20 7"/>
<path d="M261.84 487.983C273.716 468.589 280.294 452.885 175.718 353.614C133.652 313.683 111.931 297.271 81.6526 295.148C-60.6796 301.264 -125.179 307.071 -69.387 415.291C-13.5953 523.51 -13.7175 528.183 44.9788 559.068C103.675 589.953 249.963 507.376 261.84 487.983Z" fill="#423B0B" stroke="#423B0B" stroke-width="7"/>
<circle cx="61.5" cy="119.5" r="13.5" fill="white"/>
<circle cx="692.5" cy="446.5" r="13.5" fill="white"/>
<circle cx="1102" cy="237" r="12" fill="white"/>
<path d="M410.268 219.008C412.572 219.008 415.164 218.684 418.044 218.036L416.856 225.812C415.632 226.46 413.904 227 411.672 227.432C409.512 227.864 407.136 228.08 404.544 228.08C399.144 228.08 395.328 226.64 393.096 223.76C390.936 220.88 389.856 216.488 389.856 210.584V183.044H383.376V175.7L389.856 174.836V166.196L402.384 163.388V174.512L415.668 173.324V183.044H402.384V209.828C402.384 213.14 403.032 215.516 404.328 216.956C405.624 218.324 407.604 219.008 410.268 219.008ZM449.653 218.684C454.045 218.684 459.877 217.64 467.149 215.552L469.093 223.112C460.813 226.424 452.929 228.08 445.441 228.08C438.169 228.08 432.517 225.776 428.485 221.168C424.525 216.56 422.545 210.368 422.545 202.592C422.545 193.664 424.849 186.608 429.457 181.424C434.065 176.168 440.473 173.54 448.681 173.54C456.313 173.54 461.677 175.808 464.773 180.344C467.869 184.808 469.417 191.9 469.417 201.62L435.937 203.996C436.441 213.788 441.013 218.684 449.653 218.684ZM447.061 182.936C444.469 182.936 442.381 183.332 440.797 184.124C439.285 184.916 438.133 186.248 437.341 188.12C436.549 189.92 436.009 192.548 435.721 196.004L457.105 194.06C456.961 186.644 453.613 182.936 447.061 182.936ZM498.926 228.08C491.366 228.08 485.534 225.992 481.43 221.816C477.398 217.568 475.382 211.412 475.382 203.348C475.382 197.444 476.462 192.26 478.622 187.796C480.854 183.26 483.95 179.768 487.91 177.32C491.87 174.8 496.406 173.54 501.518 173.54C504.902 173.54 508.214 174.008 511.454 174.944C514.766 175.808 517.394 176.852 519.338 178.076L518.258 192.548H510.05L508.43 184.772C506.342 183.476 503.246 182.828 499.142 182.828C495.326 182.828 492.59 184.268 490.934 187.148C489.35 189.956 488.558 194.42 488.558 200.54C488.558 206.516 489.746 211.052 492.122 214.148C494.498 217.172 497.882 218.684 502.274 218.684C504.722 218.684 507.17 218.432 509.618 217.928C512.066 217.352 515.018 216.56 518.474 215.552L520.094 223.22C515.774 224.948 512.138 226.208 509.186 227C506.234 227.72 502.814 228.08 498.926 228.08ZM584.252 219.224V227H564.92V192.656C564.92 189.776 564.128 187.58 562.544 186.068C560.96 184.556 558.62 183.8 555.524 183.8C553.22 183.8 551.06 184.34 549.044 185.42C547.028 186.428 545.336 187.868 543.968 189.74V215.336C543.968 217.208 544.76 218.252 546.344 218.468L551.096 219.224V227H524.636V219.224L529.064 218.468C529.928 218.324 530.54 218.036 530.9 217.604C531.26 217.1 531.44 216.344 531.44 215.336V154.316C531.44 153.308 531.26 152.552 530.9 152.048C530.54 151.544 529.928 151.256 529.064 151.184L524.636 150.536V142.76H543.968V180.344C548.864 175.808 554.264 173.54 560.168 173.54C565.784 173.54 570.068 175.052 573.02 178.076C575.972 181.028 577.448 184.88 577.448 189.632V215.336C577.448 216.272 577.628 216.992 577.988 217.496C578.42 218 579.032 218.324 579.824 218.468L584.252 219.224ZM649.977 219.224V227H630.645V192.656C630.645 189.776 629.853 187.58 628.269 186.068C626.685 184.556 624.345 183.8 621.249 183.8C618.945 183.8 616.785 184.34 614.769 185.42C612.753 186.428 611.061 187.868 609.693 189.74V215.336C609.693 217.208 610.485 218.252 612.069 218.468L616.929 219.224V227H590.361V219.224L594.789 218.468C595.653 218.324 596.265 218.036 596.625 217.604C596.985 217.1 597.165 216.344 597.165 215.336V186.284C597.165 185.348 596.949 184.628 596.517 184.124C596.157 183.62 595.581 183.296 594.789 183.152L590.361 182.396V174.62H607.209L608.073 181.964C613.329 176.348 619.269 173.54 625.893 173.54C631.509 173.54 635.793 175.052 638.745 178.076C641.697 181.028 643.173 184.88 643.173 189.632V215.336C643.173 216.272 643.353 216.992 643.713 217.496C644.145 218 644.757 218.324 645.549 218.468L649.977 219.224ZM680.149 228.08C671.941 228.08 665.785 225.74 661.681 221.06C657.577 216.38 655.525 210.188 655.525 202.484C655.525 197.012 656.641 192.08 658.873 187.688C661.105 183.296 664.345 179.84 668.593 177.32C672.913 174.8 678.025 173.54 683.929 173.54C692.065 173.54 698.185 175.88 702.289 180.56C706.393 185.24 708.445 191.432 708.445 199.136C708.445 204.608 707.329 209.54 705.097 213.932C702.865 218.324 699.625 221.78 695.377 224.3C691.129 226.82 686.053 228.08 680.149 228.08ZM683.605 218.684C687.925 218.684 690.949 217.28 692.677 214.472C694.477 211.664 695.377 207.272 695.377 201.296C695.377 195.32 694.117 190.784 691.597 187.688C689.077 184.52 685.369 182.936 680.473 182.936C676.153 182.936 673.093 184.376 671.293 187.256C669.493 190.064 668.593 194.456 668.593 200.432C668.593 206.408 669.853 210.944 672.373 214.04C674.965 217.136 678.709 218.684 683.605 218.684ZM714.48 219.224L718.908 218.468C719.7 218.324 720.276 218 720.636 217.496C721.068 216.992 721.284 216.272 721.284 215.336V154.316C721.284 152.444 720.492 151.4 718.908 151.184L714.48 150.536V142.76H733.812V215.336C733.812 216.344 733.992 217.1 734.352 217.604C734.712 218.036 735.324 218.324 736.188 218.468L740.616 219.224V227H714.48V219.224ZM796.451 178.94C795.659 179.516 794.615 180.092 793.319 180.668C792.023 181.172 790.763 181.568 789.539 181.856C790.547 183.368 791.339 185.168 791.915 187.256C792.491 189.272 792.779 191.252 792.779 193.196C792.779 197.084 791.699 200.576 789.539 203.672C787.451 206.768 784.535 209.216 780.791 211.016C777.119 212.744 772.979 213.608 768.371 213.608C767.003 213.608 765.959 213.572 765.239 213.5L763.187 218.036C763.187 218.684 763.403 219.224 763.835 219.656C764.339 220.016 765.203 220.304 766.427 220.52L775.823 221.924C779.711 222.428 783.023 222.932 785.759 223.436C792.671 224.732 796.127 228.404 796.127 234.452C796.127 237.908 794.975 241.112 792.671 244.064C790.439 247.088 787.271 249.5 783.167 251.3C779.063 253.1 774.383 254 769.127 254C764.231 254 759.695 253.424 755.519 252.272C751.415 251.12 748.139 249.572 745.691 247.628L748.175 233.696H756.383V240.932C760.487 243.236 766.067 244.388 773.123 244.388C776.867 244.388 779.747 243.812 781.763 242.66C783.851 241.508 784.895 239.96 784.895 238.016C784.895 235.928 783.491 234.668 780.683 234.236L776.687 233.588C769.487 232.436 763.979 231.5 760.163 230.78C757.499 230.276 755.483 229.268 754.115 227.756C752.747 226.244 752.063 224.084 752.063 221.276L758.435 211.88C754.619 210.44 751.631 208.172 749.471 205.076C747.311 201.908 746.231 198.164 746.231 193.844C746.231 190.1 747.167 186.716 749.039 183.692C750.911 180.596 753.683 178.148 757.355 176.348C761.099 174.476 765.635 173.54 770.963 173.54C778.739 173.54 783.851 173.432 786.299 173.216C788.819 173 792.203 172.316 796.451 171.164V178.94ZM770.099 205.076C773.555 205.076 776.003 204.14 777.443 202.268C778.883 200.324 779.603 197.336 779.603 193.304C779.603 189.344 778.703 186.428 776.903 184.556C775.175 182.684 772.511 181.748 768.911 181.748C765.383 181.748 762.899 182.612 761.459 184.34C760.091 185.996 759.407 188.84 759.407 192.872C759.407 201.008 762.971 205.076 770.099 205.076ZM851.521 219.224V227H834.025L833.053 220.196C830.317 222.86 827.545 224.84 824.737 226.136C822.001 227.432 819.013 228.08 815.773 228.08C811.237 228.08 807.637 226.82 804.973 224.3C802.381 221.708 801.085 218.144 801.085 213.608C801.085 209.216 802.489 205.616 805.297 202.808C808.105 199.928 812.065 198.2 817.177 197.624L832.405 195.896V189.74C832.405 184.772 829.201 182.288 822.793 182.288C819.553 182.288 816.709 182.9 814.261 184.124L812.857 191.252H804.757L803.785 178.292C806.737 176.996 810.085 175.88 813.829 174.944C817.573 174.008 821.173 173.54 824.629 173.54C830.461 173.54 835.249 174.872 838.993 177.536C842.809 180.2 844.717 184.052 844.717 189.092V215.336C844.717 216.272 844.897 216.992 845.257 217.496C845.689 218 846.301 218.324 847.093 218.468L851.521 219.224ZM819.661 218.684C821.605 218.684 823.729 218.072 826.033 216.848C828.409 215.624 830.533 214.076 832.405 212.204V203.456L820.309 205.508C818.221 205.868 816.601 206.66 815.449 207.884C814.297 209.036 813.721 210.62 813.721 212.636C813.721 214.58 814.261 216.092 815.341 217.172C816.421 218.18 817.861 218.684 819.661 218.684ZM891.528 173.54C897.72 173.54 902.58 175.88 906.108 180.56C909.708 185.168 911.508 191.54 911.508 199.676C911.508 205.004 910.356 209.828 908.052 214.148C905.82 218.468 902.688 221.888 898.656 224.408C894.624 226.856 890.16 228.08 885.264 228.08C882.168 228.08 879.036 227.468 875.868 226.244V241.256C875.868 243.128 876.66 244.172 878.244 244.388L884.832 245.144V252.92H856.32V245.144L860.964 244.388C861.756 244.244 862.332 243.92 862.692 243.416C863.124 242.912 863.34 242.192 863.34 241.256V186.284C863.34 185.348 863.124 184.628 862.692 184.124C862.332 183.62 861.756 183.296 860.964 183.152L856.536 182.396V174.62H874.356L875.22 180.668C879.612 175.916 885.048 173.54 891.528 173.54ZM887.208 218.684C891.312 218.684 894.192 217.136 895.848 214.04C897.576 210.944 898.44 206.3 898.44 200.108C898.44 194.42 897.432 190.136 895.416 187.256C893.4 184.376 890.52 182.936 886.776 182.936C884.616 182.936 882.6 183.476 880.728 184.556C878.856 185.636 877.236 187.04 875.868 188.768V215.984C879.108 217.784 882.888 218.684 887.208 218.684Z" fill="#202030"/>
<path d="M418.044 218.036L419.032 218.187L419.253 216.739L417.824 217.06L418.044 218.036ZM416.856 225.812L417.323 226.696L417.768 226.46L417.844 225.963L416.856 225.812ZM411.672 227.432L411.482 226.45L411.475 226.451L411.672 227.432ZM393.096 223.76L392.296 224.36L392.3 224.366L392.305 224.373L393.096 223.76ZM389.856 183.044H390.856V182.044H389.856V183.044ZM383.376 183.044H382.376V184.044H383.376V183.044ZM383.376 175.7L383.243 174.709L382.376 174.824V175.7H383.376ZM389.856 174.836L389.988 175.827L390.856 175.712V174.836H389.856ZM389.856 166.196L389.637 165.22L388.856 165.395V166.196H389.856ZM402.384 163.388H403.384V162.139L402.165 162.412L402.384 163.388ZM402.384 174.512H401.384V175.605L402.473 175.508L402.384 174.512ZM415.668 173.324H416.668V172.231L415.578 172.328L415.668 173.324ZM415.668 183.044V184.044H416.668V183.044H415.668ZM402.384 183.044V182.044H401.384V183.044H402.384ZM404.328 216.956L403.584 217.625L403.593 217.634L403.602 217.644L404.328 216.956ZM410.268 220.008C412.663 220.008 415.33 219.672 418.263 219.012L417.824 217.06C414.997 217.696 412.48 218.008 410.268 218.008V220.008ZM417.055 217.885L415.867 225.661L417.844 225.963L419.032 218.187L417.055 217.885ZM416.388 224.928C415.289 225.51 413.67 226.027 411.482 226.45L411.862 228.414C414.137 227.973 415.974 227.41 417.323 226.696L416.388 224.928ZM411.475 226.451C409.39 226.868 407.081 227.08 404.544 227.08V229.08C407.19 229.08 409.633 228.86 411.868 228.413L411.475 226.451ZM404.544 227.08C399.298 227.08 395.851 225.683 393.886 223.147L392.305 224.373C394.804 227.597 398.989 229.08 404.544 229.08V227.08ZM393.896 223.16C391.925 220.533 390.856 216.399 390.856 210.584H388.856C388.856 216.577 389.946 221.227 392.296 224.36L393.896 223.16ZM390.856 210.584V183.044H388.856V210.584H390.856ZM389.856 182.044H383.376V184.044H389.856V182.044ZM384.376 183.044V175.7H382.376V183.044H384.376ZM383.508 176.691L389.988 175.827L389.723 173.845L383.243 174.709L383.508 176.691ZM390.856 174.836V166.196H388.856V174.836H390.856ZM390.074 167.172L402.602 164.364L402.165 162.412L389.637 165.22L390.074 167.172ZM401.384 163.388V174.512H403.384V163.388H401.384ZM402.473 175.508L415.757 174.32L415.578 172.328L402.294 173.516L402.473 175.508ZM414.668 173.324V183.044H416.668V173.324H414.668ZM415.668 182.044H402.384V184.044H415.668V182.044ZM401.384 183.044V209.828H403.384V183.044H401.384ZM401.384 209.828C401.384 213.226 402.04 215.909 403.584 217.625L405.071 216.287C404.023 215.123 403.384 213.054 403.384 209.828H401.384ZM403.602 217.644C405.154 219.282 407.445 220.008 410.268 220.008V218.008C407.762 218.008 406.094 217.366 405.054 216.268L403.602 217.644ZM467.149 215.552L468.117 215.303L467.861 214.307L466.873 214.591L467.149 215.552ZM469.093 223.112L469.464 224.04L470.28 223.714L470.061 222.863L469.093 223.112ZM428.485 221.168L427.727 221.82L427.732 221.827L428.485 221.168ZM429.457 181.424L430.204 182.088L430.209 182.083L429.457 181.424ZM464.773 180.344L463.947 180.908L463.951 180.914L464.773 180.344ZM469.417 201.62L469.488 202.617L470.417 202.552V201.62H469.417ZM435.937 203.996L435.866 202.999L434.888 203.068L434.938 204.047L435.937 203.996ZM440.797 184.124L440.35 183.23L440.341 183.234L440.333 183.238L440.797 184.124ZM437.341 188.12L438.256 188.523L438.259 188.516L438.262 188.51L437.341 188.12ZM435.721 196.004L434.724 195.921L434.626 197.108L435.812 197L435.721 196.004ZM457.105 194.06L457.196 195.056L458.123 194.972L458.105 194.041L457.105 194.06ZM449.653 219.684C454.182 219.684 460.118 218.611 467.425 216.513L466.873 214.591C459.636 216.669 453.908 217.684 449.653 217.684V219.684ZM466.18 215.801L468.124 223.361L470.061 222.863L468.117 215.303L466.18 215.801ZM468.722 222.184C460.538 225.457 452.78 227.08 445.441 227.08V229.08C453.078 229.08 461.088 227.391 469.464 224.04L468.722 222.184ZM445.441 227.08C438.398 227.08 433.044 224.859 429.238 220.509L427.732 221.827C431.99 226.693 437.94 229.08 445.441 229.08V227.08ZM429.243 220.516C425.479 216.136 423.545 210.197 423.545 202.592H421.545C421.545 210.539 423.571 216.984 427.727 221.82L429.243 220.516ZM423.545 202.592C423.545 193.837 425.801 187.042 430.204 182.088L428.71 180.76C423.896 186.174 421.545 193.491 421.545 202.592H423.545ZM430.209 182.083C434.593 177.082 440.706 174.54 448.681 174.54V172.54C440.24 172.54 433.537 175.254 428.705 180.765L430.209 182.083ZM448.681 174.54C456.122 174.54 461.104 176.743 463.947 180.908L465.599 179.78C462.25 174.873 456.504 172.54 448.681 172.54V174.54ZM463.951 180.914C466.871 185.124 468.417 191.963 468.417 201.62H470.417C470.417 191.837 468.867 184.492 465.595 179.774L463.951 180.914ZM469.346 200.623L435.866 202.999L436.008 204.993L469.488 202.617L469.346 200.623ZM434.938 204.047C435.197 209.073 436.506 213.01 439.013 215.695C441.539 218.4 445.141 219.684 449.653 219.684V217.684C445.525 217.684 442.521 216.52 440.475 214.329C438.41 212.118 437.181 208.711 436.936 203.945L434.938 204.047ZM447.061 181.936C444.38 181.936 442.122 182.344 440.35 183.23L441.244 185.018C442.64 184.32 444.558 183.936 447.061 183.936V181.936ZM440.333 183.238C438.578 184.157 437.284 185.687 436.42 187.73L438.262 188.51C438.982 186.809 439.992 185.675 441.261 185.01L440.333 183.238ZM436.426 187.717C435.567 189.668 435.016 192.425 434.724 195.921L436.718 196.087C437.002 192.671 437.531 190.172 438.256 188.523L436.426 187.717ZM435.812 197L457.196 195.056L457.014 193.064L435.63 195.008L435.812 197ZM458.105 194.041C458.03 190.205 457.126 187.149 455.228 185.047C453.31 182.922 450.527 181.936 447.061 181.936V183.936C450.147 183.936 452.314 184.804 453.744 186.387C455.194 187.993 456.036 190.499 456.105 194.079L458.105 194.041ZM481.43 221.816L480.705 222.504L480.711 222.511L480.717 222.517L481.43 221.816ZM478.622 187.796L477.725 187.354L477.722 187.36L478.622 187.796ZM487.91 177.32L488.436 178.171L488.447 178.164L487.91 177.32ZM511.454 174.944L511.177 175.905L511.189 175.908L511.202 175.912L511.454 174.944ZM519.338 178.076L520.336 178.15L520.38 177.55L519.871 177.23L519.338 178.076ZM518.258 192.548V193.548H519.186L519.256 192.622L518.258 192.548ZM510.05 192.548L509.071 192.752L509.237 193.548H510.05V192.548ZM508.43 184.772L509.409 184.568L509.322 184.148L508.958 183.922L508.43 184.772ZM490.934 187.148L490.067 186.65L490.063 186.657L490.934 187.148ZM492.122 214.148L491.329 214.757L491.336 214.766L492.122 214.148ZM509.618 217.928L509.82 218.907L509.834 218.905L509.847 218.901L509.618 217.928ZM518.474 215.552L519.453 215.345L519.23 214.29L518.194 214.592L518.474 215.552ZM520.094 223.22L520.466 224.148L521.247 223.836L521.073 223.013L520.094 223.22ZM509.186 227L509.423 227.972L509.434 227.969L509.445 227.966L509.186 227ZM498.926 227.08C491.553 227.08 486.009 225.048 482.144 221.115L480.717 222.517C485.06 226.936 491.18 229.08 498.926 229.08V227.08ZM482.156 221.128C478.357 217.126 476.382 211.254 476.382 203.348H474.382C474.382 211.57 476.439 218.01 480.705 222.504L482.156 221.128ZM476.382 203.348C476.382 197.566 477.44 192.536 479.522 188.232L477.722 187.36C475.485 191.984 474.382 197.322 474.382 203.348H476.382ZM479.52 188.238C481.676 183.855 484.65 180.511 488.436 178.171L487.384 176.469C483.251 179.025 480.033 182.665 477.725 187.354L479.52 188.238ZM488.447 178.164C492.232 175.755 496.579 174.54 501.518 174.54V172.54C496.234 172.54 491.508 173.845 487.373 176.476L488.447 178.164ZM501.518 174.54C504.809 174.54 508.027 174.995 511.177 175.905L511.732 173.983C508.401 173.021 504.996 172.54 501.518 172.54V174.54ZM511.202 175.912C514.458 176.761 516.979 177.773 518.805 178.922L519.871 177.23C517.809 175.931 515.074 174.855 511.707 173.976L511.202 175.912ZM518.341 178.002L517.261 192.474L519.256 192.622L520.336 178.15L518.341 178.002ZM518.258 191.548H510.05V193.548H518.258V191.548ZM511.029 192.344L509.409 184.568L507.451 184.976L509.071 192.752L511.029 192.344ZM508.958 183.922C506.638 182.482 503.321 181.828 499.142 181.828V183.828C503.171 183.828 506.047 184.47 507.903 185.622L508.958 183.922ZM499.142 181.828C495.032 181.828 491.931 183.408 490.067 186.65L491.801 187.646C493.249 185.128 495.62 183.828 499.142 183.828V181.828ZM490.063 186.657C488.348 189.697 487.558 194.377 487.558 200.54H489.558C489.558 194.463 490.352 190.215 491.805 187.639L490.063 186.657ZM487.558 200.54C487.558 206.626 488.764 211.415 491.329 214.757L492.916 213.539C490.728 210.689 489.558 206.406 489.558 200.54H487.558ZM491.336 214.766C493.93 218.067 497.625 219.684 502.274 219.684V217.684C498.14 217.684 495.066 216.277 492.909 213.53L491.336 214.766ZM502.274 219.684C504.791 219.684 507.307 219.425 509.82 218.907L509.417 216.949C507.034 217.439 504.653 217.684 502.274 217.684V219.684ZM509.847 218.901C512.318 218.32 515.288 217.523 518.754 216.512L518.194 214.592C514.749 215.597 511.815 216.384 509.389 216.955L509.847 218.901ZM517.496 215.759L519.116 223.427L521.073 223.013L519.453 215.345L517.496 215.759ZM519.723 222.292C515.423 224.012 511.827 225.256 508.927 226.034L509.445 227.966C512.45 227.16 516.126 225.884 520.466 224.148L519.723 222.292ZM508.949 226.028C506.093 226.725 502.755 227.08 498.926 227.08V229.08C502.873 229.08 506.376 228.715 509.423 227.972L508.949 226.028ZM584.252 219.224H585.252V218.38L584.42 218.238L584.252 219.224ZM584.252 227V228H585.252V227H584.252ZM564.92 227H563.92V228H564.92V227ZM562.544 186.068L563.235 185.345L562.544 186.068ZM549.044 185.42L549.491 186.314L549.504 186.308L549.516 186.301L549.044 185.42ZM543.968 189.74L543.161 189.15L542.968 189.414V189.74H543.968ZM546.344 218.468L546.501 217.48L546.49 217.479L546.479 217.477L546.344 218.468ZM551.096 219.224H552.096V218.371L551.253 218.236L551.096 219.224ZM551.096 227V228H552.096V227H551.096ZM524.636 227H523.636V228H524.636V227ZM524.636 219.224L524.468 218.238L523.636 218.38V219.224H524.636ZM529.064 218.468L528.9 217.482L528.896 217.482L529.064 218.468ZM530.9 217.604L531.668 218.244L531.692 218.216L531.714 218.185L530.9 217.604ZM530.9 152.048L530.086 152.629V152.629L530.9 152.048ZM529.064 151.184L528.919 152.173L528.95 152.178L528.981 152.181L529.064 151.184ZM524.636 150.536H523.636V151.4L524.491 151.525L524.636 150.536ZM524.636 142.76V141.76H523.636V142.76H524.636ZM543.968 142.76H544.968V141.76H543.968V142.76ZM543.968 180.344H542.968V182.634L544.648 181.078L543.968 180.344ZM573.02 178.076L572.305 178.775L572.313 178.783L573.02 178.076ZM577.988 217.496L577.174 218.077L577.2 218.113L577.229 218.147L577.988 217.496ZM579.824 218.468L579.645 219.452L579.656 219.454L579.824 218.468ZM583.252 219.224V227H585.252V219.224H583.252ZM584.252 226H564.92V228H584.252V226ZM565.92 227V192.656H563.92V227H565.92ZM565.92 192.656C565.92 189.593 565.073 187.1 563.235 185.345L561.854 186.791C563.183 188.06 563.92 189.959 563.92 192.656H565.92ZM563.235 185.345C561.4 183.593 558.77 182.8 555.524 182.8V184.8C558.47 184.8 560.521 185.519 561.854 186.791L563.235 185.345ZM555.524 182.8C553.057 182.8 550.734 183.38 548.572 184.539L549.516 186.301C551.386 185.3 553.384 184.8 555.524 184.8V182.8ZM548.597 184.526C546.434 185.607 544.62 187.153 543.161 189.15L544.776 190.33C546.052 188.583 547.622 187.249 549.491 186.314L548.597 184.526ZM542.968 189.74V215.336H544.968V189.74H542.968ZM542.968 215.336C542.968 216.4 543.192 217.371 543.765 218.127C544.356 218.906 545.216 219.323 546.209 219.459L546.479 217.477C545.889 217.397 545.56 217.184 545.359 216.919C545.141 216.631 544.968 216.144 544.968 215.336H542.968ZM546.187 219.456L550.939 220.212L551.253 218.236L546.501 217.48L546.187 219.456ZM550.096 219.224V227H552.096V219.224H550.096ZM551.096 226H524.636V228H551.096V226ZM525.636 227V219.224H523.636V227H525.636ZM524.804 220.21L529.232 219.454L528.896 217.482L524.468 218.238L524.804 220.21ZM529.229 219.454C530.203 219.292 531.09 218.939 531.668 218.244L530.132 216.964C529.991 217.133 529.653 217.356 528.9 217.482L529.229 219.454ZM531.714 218.185C532.25 217.435 532.44 216.433 532.44 215.336H530.44C530.44 216.255 530.271 216.765 530.086 217.023L531.714 218.185ZM532.44 215.336V154.316H530.44V215.336H532.44ZM532.44 154.316C532.44 153.219 532.25 152.217 531.714 151.467L530.086 152.629C530.271 152.887 530.44 153.397 530.44 154.316H532.44ZM531.714 151.467C531.123 150.639 530.182 150.274 529.147 150.187L528.981 152.181C529.674 152.238 529.957 152.449 530.086 152.629L531.714 151.467ZM529.209 150.195L524.781 149.547L524.491 151.525L528.919 152.173L529.209 150.195ZM525.636 150.536V142.76H523.636V150.536H525.636ZM524.636 143.76H543.968V141.76H524.636V143.76ZM542.968 142.76V180.344H544.968V142.76H542.968ZM544.648 181.078C549.385 176.689 554.55 174.54 560.168 174.54V172.54C553.979 172.54 548.343 174.927 543.289 179.61L544.648 181.078ZM560.168 174.54C565.607 174.54 569.597 176 572.305 178.775L573.736 177.377C570.54 174.104 565.962 172.54 560.168 172.54V174.54ZM572.313 178.783C575.051 181.521 576.448 185.105 576.448 189.632H578.448C578.448 184.655 576.893 180.535 573.727 177.369L572.313 178.783ZM576.448 189.632V215.336H578.448V189.632H576.448ZM576.448 215.336C576.448 216.38 576.646 217.337 577.174 218.077L578.802 216.915C578.611 216.647 578.448 216.164 578.448 215.336H576.448ZM577.229 218.147C577.84 218.86 578.677 219.276 579.645 219.452L580.003 217.484C579.387 217.372 579 217.14 578.747 216.845L577.229 218.147ZM579.656 219.454L584.084 220.21L584.42 218.238L579.992 217.482L579.656 219.454ZM649.977 219.224H650.977V218.38L650.145 218.238L649.977 219.224ZM649.977 227V228H650.977V227H649.977ZM630.645 227H629.645V228H630.645V227ZM628.269 186.068L628.959 185.345L628.269 186.068ZM614.769 185.42L615.216 186.314L615.229 186.308L615.241 186.301L614.769 185.42ZM609.693 189.74L608.886 189.15L608.693 189.414V189.74H609.693ZM612.069 218.468L612.223 217.48L612.213 217.478L612.204 217.477L612.069 218.468ZM616.929 219.224H617.929V218.368L617.083 218.236L616.929 219.224ZM616.929 227V228H617.929V227H616.929ZM590.361 227H589.361V228H590.361V227ZM590.361 219.224L590.193 218.238L589.361 218.38V219.224H590.361ZM594.789 218.468L594.625 217.482L594.621 217.482L594.789 218.468ZM596.625 217.604L597.393 218.244L597.417 218.216L597.439 218.185L596.625 217.604ZM596.517 184.124L595.703 184.705L595.729 184.741L595.758 184.775L596.517 184.124ZM594.789 183.152L594.968 182.168L594.957 182.166L594.789 183.152ZM590.361 182.396H589.361V183.24L590.193 183.382L590.361 182.396ZM590.361 174.62V173.62H589.361V174.62H590.361ZM607.209 174.62L608.202 174.503L608.098 173.62H607.209V174.62ZM608.073 181.964L607.08 182.081L607.331 184.22L608.803 182.647L608.073 181.964ZM638.745 178.076L638.029 178.775L638.038 178.783L638.745 178.076ZM643.713 217.496L642.899 218.077L642.925 218.113L642.954 218.147L643.713 217.496ZM645.549 218.468L645.37 219.452L645.381 219.454L645.549 218.468ZM648.977 219.224V227H650.977V219.224H648.977ZM649.977 226H630.645V228H649.977V226ZM631.645 227V192.656H629.645V227H631.645ZM631.645 192.656C631.645 189.593 630.798 187.1 628.959 185.345L627.578 186.791C628.908 188.06 629.645 189.959 629.645 192.656H631.645ZM628.959 185.345C627.124 183.593 624.495 182.8 621.249 182.8V184.8C624.195 184.8 626.246 185.519 627.578 186.791L628.959 185.345ZM621.249 182.8C618.781 182.8 616.459 183.38 614.297 184.539L615.241 186.301C617.111 185.3 619.108 184.8 621.249 184.8V182.8ZM614.322 184.526C612.159 185.607 610.345 187.153 608.886 189.15L610.5 190.33C611.777 188.583 613.347 187.249 615.216 186.314L614.322 184.526ZM608.693 189.74V215.336H610.693V189.74H608.693ZM608.693 215.336C608.693 216.4 608.916 217.371 609.49 218.127C610.081 218.906 610.94 219.323 611.934 219.459L612.204 217.477C611.614 217.397 611.285 217.184 611.084 216.919C610.865 216.631 610.693 216.144 610.693 215.336H608.693ZM611.915 219.456L616.775 220.212L617.083 218.236L612.223 217.48L611.915 219.456ZM615.929 219.224V227H617.929V219.224H615.929ZM616.929 226H590.361V228H616.929V226ZM591.361 227V219.224H589.361V227H591.361ZM590.529 220.21L594.957 219.454L594.621 217.482L590.193 218.238L590.529 220.21ZM594.953 219.454C595.928 219.292 596.814 218.939 597.393 218.244L595.857 216.964C595.715 217.133 595.378 217.356 594.625 217.482L594.953 219.454ZM597.439 218.185C597.975 217.435 598.165 216.433 598.165 215.336H596.165C596.165 216.255 595.995 216.765 595.811 217.023L597.439 218.185ZM598.165 215.336V186.284H596.165V215.336H598.165ZM598.165 186.284C598.165 185.206 597.917 184.22 597.276 183.473L595.758 184.775C595.981 185.036 596.165 185.49 596.165 186.284H598.165ZM597.331 183.543C596.778 182.769 595.936 182.344 594.968 182.168L594.61 184.136C595.226 184.248 595.536 184.471 595.703 184.705L597.331 183.543ZM594.957 182.166L590.529 181.41L590.193 183.382L594.621 184.138L594.957 182.166ZM591.361 182.396V174.62H589.361V182.396H591.361ZM590.361 175.62H607.209V173.62H590.361V175.62ZM606.216 174.737L607.08 182.081L609.066 181.847L608.202 174.503L606.216 174.737ZM608.803 182.647C613.903 177.198 619.591 174.54 625.893 174.54V172.54C618.947 172.54 612.755 175.498 607.343 181.281L608.803 182.647ZM625.893 174.54C631.332 174.54 635.321 176 638.029 178.775L639.461 177.377C636.265 174.104 631.686 172.54 625.893 172.54V174.54ZM638.038 178.783C640.776 181.521 642.173 185.105 642.173 189.632H644.173C644.173 184.655 642.618 180.535 639.452 177.369L638.038 178.783ZM642.173 189.632V215.336H644.173V189.632H642.173ZM642.173 215.336C642.173 216.38 642.37 217.337 642.899 218.077L644.527 216.915C644.335 216.647 644.173 216.164 644.173 215.336H642.173ZM642.954 218.147C643.565 218.86 644.402 219.276 645.37 219.452L645.728 217.484C645.112 217.372 644.725 217.14 644.472 216.845L642.954 218.147ZM645.381 219.454L649.809 220.21L650.145 218.238L645.717 217.482L645.381 219.454ZM661.681 221.06L660.93 221.719L661.681 221.06ZM658.873 187.688L657.982 187.235L658.873 187.688ZM668.593 177.32L668.09 176.456L668.083 176.46L668.593 177.32ZM702.289 180.56L703.041 179.901L702.289 180.56ZM695.377 224.3L694.867 223.44L695.377 224.3ZM692.677 214.472L691.836 213.932L691.831 213.94L691.826 213.948L692.677 214.472ZM691.597 187.688L690.815 188.311L690.822 188.319L691.597 187.688ZM671.293 187.256L672.135 187.796L672.141 187.786L671.293 187.256ZM672.373 214.04L671.598 214.671L671.607 214.682L672.373 214.04ZM680.149 227.08C672.132 227.08 666.292 224.8 662.433 220.401L660.93 221.719C665.279 226.68 671.751 229.08 680.149 229.08V227.08ZM662.433 220.401C658.525 215.944 656.525 210.005 656.525 202.484H654.525C654.525 210.371 656.63 216.816 660.93 221.719L662.433 220.401ZM656.525 202.484C656.525 197.152 657.612 192.378 659.765 188.141L657.982 187.235C655.671 191.782 654.525 196.872 654.525 202.484H656.525ZM659.765 188.141C661.911 183.919 665.018 180.604 669.104 178.18L668.083 176.46C663.673 179.076 660.3 182.673 657.982 187.235L659.765 188.141ZM669.097 178.184C673.239 175.768 678.17 174.54 683.929 174.54V172.54C677.881 172.54 672.588 173.832 668.09 176.456L669.097 178.184ZM683.929 174.54C691.871 174.54 697.678 176.818 701.538 181.219L703.041 179.901C698.693 174.942 692.259 172.54 683.929 172.54V174.54ZM701.538 181.219C705.446 185.676 707.445 191.615 707.445 199.136H709.445C709.445 191.249 707.341 184.804 703.041 179.901L701.538 181.219ZM707.445 199.136C707.445 204.468 706.359 209.242 704.206 213.479L705.989 214.385C708.3 209.838 709.445 204.748 709.445 199.136H707.445ZM704.206 213.479C702.06 217.701 698.953 221.016 694.867 223.44L695.888 225.16C700.298 222.544 703.671 218.947 705.989 214.385L704.206 213.479ZM694.867 223.44C690.801 225.852 685.909 227.08 680.149 227.08V229.08C686.198 229.08 691.457 227.788 695.888 225.16L694.867 223.44ZM683.605 219.684C688.151 219.684 691.563 218.191 693.529 214.996L691.826 213.948C690.336 216.369 687.7 217.684 683.605 217.684V219.684ZM693.519 215.012C695.476 211.959 696.377 207.332 696.377 201.296H694.377C694.377 207.212 693.479 211.369 691.836 213.932L693.519 215.012ZM696.377 201.296C696.377 195.2 695.095 190.401 692.373 187.057L690.822 188.319C693.14 191.167 694.377 195.44 694.377 201.296H696.377ZM692.38 187.065C689.63 183.609 685.603 181.936 680.473 181.936V183.936C685.135 183.936 688.525 185.431 690.815 188.311L692.38 187.065ZM680.473 181.936C675.916 181.936 672.478 183.473 670.445 186.726L672.141 187.786C673.708 185.279 676.391 183.936 680.473 183.936V181.936ZM670.452 186.716C668.495 189.769 667.593 194.396 667.593 200.432H669.593C669.593 194.516 670.492 190.359 672.135 187.796L670.452 186.716ZM667.593 200.432C667.593 206.528 668.876 211.327 671.598 214.671L673.149 213.409C670.831 210.561 669.593 206.288 669.593 200.432H667.593ZM671.607 214.682C674.429 218.053 678.483 219.684 683.605 219.684V217.684C678.936 217.684 675.502 216.219 673.14 213.398L671.607 214.682ZM714.48 219.224L714.312 218.238L713.48 218.38V219.224H714.48ZM718.908 218.468L719.076 219.454L719.087 219.452L718.908 218.468ZM720.636 217.496L719.877 216.845L719.848 216.879L719.822 216.915L720.636 217.496ZM718.908 151.184L718.763 152.174L718.773 152.175L718.908 151.184ZM714.48 150.536H713.48V151.4L714.335 151.525L714.48 150.536ZM714.48 142.76V141.76H713.48V142.76H714.48ZM733.812 142.76H734.812V141.76H733.812V142.76ZM734.352 217.604L733.538 218.185L733.56 218.216L733.584 218.244L734.352 217.604ZM736.188 218.468L736.356 217.482L736.352 217.482L736.188 218.468ZM740.616 219.224H741.616V218.38L740.784 218.238L740.616 219.224ZM740.616 227V228H741.616V227H740.616ZM714.48 227H713.48V228H714.48V227ZM714.648 220.21L719.076 219.454L718.74 217.482L714.312 218.238L714.648 220.21ZM719.087 219.452C720.055 219.276 720.897 218.851 721.45 218.077L719.822 216.915C719.655 217.149 719.345 217.372 718.729 217.484L719.087 219.452ZM721.395 218.147C722.036 217.4 722.284 216.414 722.284 215.336H720.284C720.284 216.13 720.1 216.584 719.877 216.845L721.395 218.147ZM722.284 215.336V154.316H720.284V215.336H722.284ZM722.284 154.316C722.284 153.252 722.06 152.281 721.487 151.525C720.896 150.746 720.036 150.329 719.043 150.193L718.773 152.175C719.363 152.255 719.692 152.468 719.893 152.733C720.111 153.021 720.284 153.508 720.284 154.316H722.284ZM719.053 150.195L714.625 149.547L714.335 151.525L718.763 152.173L719.053 150.195ZM715.48 150.536V142.76H713.48V150.536H715.48ZM714.48 143.76H733.812V141.76H714.48V143.76ZM732.812 142.76V215.336H734.812V142.76H732.812ZM732.812 215.336C732.812 216.433 733.002 217.435 733.538 218.185L735.166 217.023C734.982 216.765 734.812 216.255 734.812 215.336H732.812ZM733.584 218.244C734.163 218.939 735.049 219.292 736.024 219.454L736.352 217.482C735.599 217.356 735.261 217.133 735.12 216.964L733.584 218.244ZM736.02 219.454L740.448 220.21L740.784 218.238L736.356 217.482L736.02 219.454ZM739.616 219.224V227H741.616V219.224H739.616ZM740.616 226H714.48V228H740.616V226ZM715.48 227V219.224H713.48V227H715.48ZM796.451 178.94L797.039 179.749L797.451 179.449V178.94H796.451ZM793.319 180.668L793.682 181.6L793.704 181.591L793.725 181.582L793.319 180.668ZM789.539 181.856L789.31 180.883L787.908 181.212L788.707 182.411L789.539 181.856ZM791.915 187.256L790.951 187.522L790.954 187.531L791.915 187.256ZM789.539 203.672L788.719 203.1L788.714 203.106L788.71 203.113L789.539 203.672ZM780.791 211.016L781.217 211.921L781.224 211.917L780.791 211.016ZM765.239 213.5L765.339 212.505L764.624 212.434L764.328 213.088L765.239 213.5ZM763.187 218.036L762.276 217.624L762.187 217.82V218.036H763.187ZM763.835 219.656L763.128 220.363L763.186 220.422L763.254 220.47L763.835 219.656ZM766.427 220.52L766.253 221.505L766.266 221.507L766.279 221.509L766.427 220.52ZM775.823 221.924L775.675 222.913L775.685 222.914L775.695 222.916L775.823 221.924ZM785.759 223.436L785.943 222.453L785.94 222.453L785.759 223.436ZM792.671 244.064L791.883 243.449L791.875 243.459L791.867 243.47L792.671 244.064ZM783.167 251.3L783.569 252.216L783.167 251.3ZM755.519 252.272L755.249 253.235L755.253 253.236L755.519 252.272ZM745.691 247.628L744.707 247.452L744.602 248.04L745.069 248.411L745.691 247.628ZM748.175 233.696V232.696H747.338L747.191 233.52L748.175 233.696ZM756.383 233.696H757.383V232.696H756.383V233.696ZM756.383 240.932H755.383V241.517L755.894 241.804L756.383 240.932ZM781.763 242.66L781.28 241.784L781.273 241.788L781.267 241.792L781.763 242.66ZM780.683 234.236L780.523 235.223L780.531 235.224L780.683 234.236ZM776.687 233.588L776.847 232.601L776.845 232.601L776.687 233.588ZM760.163 230.78L759.977 231.763L759.978 231.763L760.163 230.78ZM752.063 221.276L751.235 220.715L751.063 220.969V221.276H752.063ZM758.435 211.88L759.263 212.441L759.974 211.392L758.788 210.944L758.435 211.88ZM749.471 205.076L748.645 205.639L748.651 205.648L749.471 205.076ZM749.039 183.692L749.889 184.218L749.895 184.209L749.039 183.692ZM757.355 176.348L757.795 177.246L757.802 177.242L757.355 176.348ZM786.299 173.216L786.214 172.22L786.211 172.22L786.299 173.216ZM796.451 171.164H797.451V169.857L796.189 170.199L796.451 171.164ZM777.443 202.268L778.236 202.878L778.241 202.871L778.247 202.863L777.443 202.268ZM776.903 184.556L776.168 185.234L776.175 185.242L776.182 185.249L776.903 184.556ZM761.459 184.34L760.691 183.7L760.688 183.703L761.459 184.34ZM795.863 178.131C795.147 178.652 794.171 179.195 792.913 179.754L793.725 181.582C795.06 180.989 796.171 180.38 797.039 179.749L795.863 178.131ZM792.957 179.736C791.7 180.225 790.484 180.606 789.31 180.883L789.768 182.829C791.042 182.53 792.347 182.119 793.682 181.6L792.957 179.736ZM788.707 182.411C789.646 183.819 790.398 185.517 790.951 187.522L792.879 186.99C792.28 184.819 791.448 182.917 790.371 181.301L788.707 182.411ZM790.954 187.531C791.506 189.464 791.779 191.352 791.779 193.196H793.779C793.779 191.152 793.476 189.08 792.877 186.981L790.954 187.531ZM791.779 193.196C791.779 196.886 790.758 200.177 788.719 203.1L790.359 204.244C792.64 200.975 793.779 197.282 793.779 193.196H791.779ZM788.71 203.113C786.732 206.046 783.96 208.383 780.358 210.115L781.224 211.917C785.11 210.049 788.17 207.49 790.368 204.231L788.71 203.113ZM780.365 210.111C776.843 211.769 772.852 212.608 768.371 212.608V214.608C773.106 214.608 777.395 213.719 781.217 211.921L780.365 210.111ZM768.371 212.608C767.013 212.608 766.008 212.572 765.339 212.505L765.14 214.495C765.91 214.572 766.994 214.608 768.371 214.608V212.608ZM764.328 213.088L762.276 217.624L764.098 218.448L766.15 213.912L764.328 213.088ZM762.187 218.036C762.187 218.931 762.496 219.731 763.128 220.363L764.542 218.949C764.31 218.717 764.187 218.437 764.187 218.036H762.187ZM763.254 220.47C763.949 220.966 765.001 221.284 766.253 221.505L766.601 219.535C765.405 219.324 764.729 219.066 764.416 218.842L763.254 220.47ZM766.279 221.509L775.675 222.913L775.971 220.935L766.575 219.531L766.279 221.509ZM775.695 222.916C779.571 223.418 782.865 223.92 785.578 224.419L785.94 222.453C783.181 221.944 779.851 221.438 775.952 220.932L775.695 222.916ZM785.575 224.419C788.903 225.043 791.271 226.216 792.807 227.847C794.327 229.462 795.127 231.629 795.127 234.452H797.127C797.127 231.227 796.2 228.534 794.263 226.477C792.343 224.436 789.528 223.125 785.943 222.453L785.575 224.419ZM795.127 234.452C795.127 237.666 794.062 240.657 791.883 243.449L793.459 244.679C795.888 241.567 797.127 238.15 797.127 234.452H795.127ZM791.867 243.47C789.757 246.329 786.74 248.641 782.765 250.384L783.569 252.216C787.802 250.359 791.121 247.847 793.476 244.658L791.867 243.47ZM782.765 250.384C778.808 252.12 774.268 253 769.127 253V255C774.498 255 779.318 254.08 783.569 252.216L782.765 250.384ZM769.127 253C764.309 253 759.864 252.433 755.785 251.308L755.253 253.236C759.526 254.415 764.153 255 769.127 255V253ZM755.789 251.309C751.77 250.181 748.626 248.682 746.313 246.845L745.069 248.411C747.652 250.462 751.061 252.059 755.249 253.235L755.789 251.309ZM746.676 247.804L749.16 233.872L747.191 233.52L744.707 247.452L746.676 247.804ZM748.175 234.696H756.383V232.696H748.175V234.696ZM755.383 233.696V240.932H757.383V233.696H755.383ZM755.894 241.804C760.203 244.224 765.975 245.388 773.123 245.388V243.388C766.159 243.388 760.771 242.248 756.873 240.06L755.894 241.804ZM773.123 245.388C776.945 245.388 780.026 244.804 782.259 243.528L781.267 241.792C779.468 242.82 776.789 243.388 773.123 243.388V245.388ZM782.246 243.536C784.568 242.255 785.895 240.412 785.895 238.016H783.895C783.895 239.508 783.135 240.761 781.28 241.784L782.246 243.536ZM785.895 238.016C785.895 236.722 785.447 235.602 784.51 234.761C783.608 233.951 782.34 233.479 780.835 233.248L780.531 235.224C781.834 235.425 782.673 235.799 783.174 236.249C783.641 236.668 783.895 237.222 783.895 238.016H785.895ZM780.843 233.249L776.847 232.601L776.527 234.575L780.523 235.223L780.843 233.249ZM776.845 232.601C769.648 231.449 764.151 230.515 760.349 229.797L759.978 231.763C763.808 232.485 769.326 233.423 776.529 234.575L776.845 232.601ZM760.349 229.797C757.829 229.321 756.037 228.389 754.857 227.085L753.374 228.427C754.93 230.147 757.169 231.231 759.977 231.763L760.349 229.797ZM754.857 227.085C753.709 225.816 753.063 223.93 753.063 221.276H751.063C751.063 224.238 751.785 226.672 753.374 228.427L754.857 227.085ZM752.891 221.837L759.263 212.441L757.607 211.319L751.235 220.715L752.891 221.837ZM758.788 210.944C755.145 209.57 752.326 207.421 750.291 204.504L748.651 205.648C750.936 208.923 754.093 211.31 758.082 212.816L758.788 210.944ZM750.297 204.513C748.265 201.531 747.231 197.989 747.231 193.844H745.231C745.231 198.339 746.358 202.285 748.645 205.639L750.297 204.513ZM747.231 193.844C747.231 190.276 748.121 187.076 749.889 184.218L748.189 183.166C746.214 186.356 745.231 189.924 745.231 193.844H747.231ZM749.895 184.209C751.655 181.298 754.272 178.973 757.795 177.246L756.915 175.45C753.094 177.323 750.167 179.894 748.183 183.175L749.895 184.209ZM757.802 177.242C761.375 175.456 765.749 174.54 770.963 174.54V172.54C765.521 172.54 760.823 173.496 756.908 175.454L757.802 177.242ZM770.963 174.54C778.73 174.54 783.887 174.433 786.387 174.212L786.211 172.22C783.815 172.431 778.748 172.54 770.963 172.54V174.54ZM786.384 174.212C788.992 173.989 792.443 173.287 796.713 172.129L796.189 170.199C791.963 171.345 788.646 172.011 786.214 172.22L786.384 174.212ZM795.451 171.164V178.94H797.451V171.164H795.451ZM770.099 206.076C773.716 206.076 776.531 205.094 778.236 202.878L776.65 201.658C775.475 203.186 773.395 204.076 770.099 204.076V206.076ZM778.247 202.863C779.874 200.666 780.603 197.42 780.603 193.304H778.603C778.603 197.252 777.892 199.982 776.64 201.673L778.247 202.863ZM780.603 193.304C780.603 189.218 779.678 185.999 777.624 183.863L776.182 185.249C777.729 186.857 778.603 189.47 778.603 193.304H780.603ZM777.638 183.878C775.653 181.728 772.672 180.748 768.911 180.748V182.748C772.35 182.748 774.697 183.64 776.168 185.234L777.638 183.878ZM768.911 180.748C765.255 180.748 762.407 181.64 760.691 183.7L762.227 184.98C763.391 183.584 765.511 182.748 768.911 182.748V180.748ZM760.688 183.703C759.089 185.639 758.407 188.785 758.407 192.872H760.407C760.407 188.895 761.094 186.353 762.23 184.977L760.688 183.703ZM758.407 192.872C758.407 197.064 759.322 200.395 761.328 202.684C763.356 204.998 766.344 206.076 770.099 206.076V204.076C766.726 204.076 764.369 203.12 762.832 201.366C761.274 199.587 760.407 196.816 760.407 192.872H758.407ZM851.521 219.224H852.521V218.38L851.689 218.238L851.521 219.224ZM851.521 227V228H852.521V227H851.521ZM834.025 227L833.035 227.141L833.158 228H834.025V227ZM833.053 220.196L834.043 220.055L833.765 218.107L832.355 219.48L833.053 220.196ZM824.737 226.136L824.318 225.228L824.309 225.232L824.737 226.136ZM804.973 224.3L804.266 225.007L804.276 225.017L804.286 225.026L804.973 224.3ZM805.297 202.808L806.004 203.515L806.013 203.506L805.297 202.808ZM817.177 197.624L817.289 198.618L817.29 198.618L817.177 197.624ZM832.405 195.896L832.518 196.89L833.405 196.789V195.896H832.405ZM814.261 184.124L813.814 183.23L813.375 183.449L813.28 183.931L814.261 184.124ZM812.857 191.252V192.252H813.679L813.838 191.445L812.857 191.252ZM804.757 191.252L803.76 191.327L803.829 192.252H804.757V191.252ZM803.785 178.292L803.383 177.376L802.735 177.661L802.788 178.367L803.785 178.292ZM838.993 177.536L838.413 178.351L838.421 178.356L838.993 177.536ZM845.257 217.496L844.443 218.077L844.469 218.113L844.498 218.147L845.257 217.496ZM847.093 218.468L846.914 219.452L846.925 219.454L847.093 218.468ZM826.033 216.848L825.575 215.959L825.564 215.965L826.033 216.848ZM832.405 212.204L833.112 212.911L833.405 212.618V212.204H832.405ZM832.405 203.456H833.405V202.272L832.238 202.47L832.405 203.456ZM820.309 205.508L820.142 204.522L820.139 204.523L820.309 205.508ZM815.449 207.884L816.156 208.591L816.167 208.58L816.177 208.569L815.449 207.884ZM815.341 217.172L814.634 217.879L814.646 217.891L814.659 217.903L815.341 217.172ZM850.521 219.224V227H852.521V219.224H850.521ZM851.521 226H834.025V228H851.521V226ZM835.015 226.859L834.043 220.055L832.063 220.337L833.035 227.141L835.015 226.859ZM832.355 219.48C829.682 222.082 827.002 223.989 824.318 225.228L825.156 227.044C828.088 225.691 830.952 223.638 833.751 220.912L832.355 219.48ZM824.309 225.232C821.716 226.46 818.876 227.08 815.773 227.08V229.08C819.15 229.08 822.286 228.404 825.165 227.04L824.309 225.232ZM815.773 227.08C811.429 227.08 808.097 225.879 805.66 223.574L804.286 225.026C807.177 227.761 811.045 229.08 815.773 229.08V227.08ZM805.68 223.593C803.318 221.231 802.085 217.946 802.085 213.608H800.085C800.085 218.342 801.444 222.185 804.266 225.007L805.68 223.593ZM802.085 213.608C802.085 209.45 803.404 206.115 806.004 203.515L804.59 202.101C801.574 205.117 800.085 208.982 800.085 213.608H802.085ZM806.013 203.506C808.619 200.833 812.341 199.175 817.289 198.618L817.065 196.63C811.789 197.225 807.591 199.023 804.581 202.11L806.013 203.506ZM817.29 198.618L832.518 196.89L832.292 194.902L817.064 196.63L817.29 198.618ZM833.405 195.896V189.74H831.405V195.896H833.405ZM833.405 189.74C833.405 187.024 832.516 184.835 830.615 183.361C828.761 181.924 826.098 181.288 822.793 181.288V183.288C825.895 183.288 828.038 183.894 829.389 184.941C830.692 185.951 831.405 187.488 831.405 189.74H833.405ZM822.793 181.288C819.426 181.288 816.424 181.924 813.814 183.23L814.708 185.018C816.994 183.876 819.68 183.288 822.793 183.288V181.288ZM813.28 183.931L811.876 191.059L813.838 191.445L815.242 184.317L813.28 183.931ZM812.857 190.252H804.757V192.252H812.857V190.252ZM805.754 191.177L804.782 178.217L802.788 178.367L803.76 191.327L805.754 191.177ZM804.187 179.208C807.079 177.938 810.372 176.839 814.072 175.914L813.586 173.974C809.798 174.921 806.395 176.054 803.383 177.376L804.187 179.208ZM814.072 175.914C817.745 174.996 821.264 174.54 824.629 174.54V172.54C821.082 172.54 817.401 173.02 813.586 173.974L814.072 175.914ZM824.629 174.54C830.309 174.54 834.879 175.836 838.413 178.351L839.573 176.721C835.619 173.908 830.613 172.54 824.629 172.54V174.54ZM838.421 178.356C841.944 180.815 843.717 184.347 843.717 189.092H845.717C845.717 183.757 843.674 179.585 839.565 176.716L838.421 178.356ZM843.717 189.092V215.336H845.717V189.092H843.717ZM843.717 215.336C843.717 216.38 843.914 217.337 844.443 218.077L846.071 216.915C845.879 216.647 845.717 216.164 845.717 215.336H843.717ZM844.498 218.147C845.109 218.86 845.946 219.276 846.914 219.452L847.272 217.484C846.656 217.372 846.269 217.14 846.016 216.845L844.498 218.147ZM846.925 219.454L851.353 220.21L851.689 218.238L847.261 217.482L846.925 219.454ZM819.661 219.684C821.815 219.684 824.101 219.007 826.502 217.731L825.564 215.965C823.357 217.137 821.395 217.684 819.661 217.684V219.684ZM826.491 217.737C828.958 216.466 831.166 214.857 833.112 212.911L831.698 211.497C829.9 213.295 827.86 214.782 825.575 215.959L826.491 217.737ZM833.405 212.204V203.456H831.405V212.204H833.405ZM832.238 202.47L820.142 204.522L820.476 206.494L832.572 204.442L832.238 202.47ZM820.139 204.523C817.894 204.91 816.056 205.78 814.721 207.199L816.177 208.569C817.146 207.54 818.548 206.826 820.479 206.493L820.139 204.523ZM814.742 207.177C813.36 208.559 812.721 210.422 812.721 212.636H814.721C814.721 210.818 815.234 209.513 816.156 208.591L814.742 207.177ZM812.721 212.636C812.721 214.769 813.319 216.564 814.634 217.879L816.048 216.465C815.203 215.62 814.721 214.391 814.721 212.636H812.721ZM814.659 217.903C815.962 219.12 817.666 219.684 819.661 219.684V217.684C818.056 217.684 816.879 217.24 816.023 216.441L814.659 217.903ZM906.108 180.56L905.31 181.162L905.315 181.169L905.32 181.176L906.108 180.56ZM908.052 214.148L907.17 213.677L907.164 213.689L908.052 214.148ZM898.656 224.408L899.175 225.263L899.186 225.256L898.656 224.408ZM875.868 226.244L876.229 225.311L874.868 224.786V226.244H875.868ZM878.244 244.388L878.109 245.379L878.12 245.38L878.13 245.381L878.244 244.388ZM884.832 245.144H885.832V244.252L884.946 244.151L884.832 245.144ZM884.832 252.92V253.92H885.832V252.92H884.832ZM856.32 252.92H855.32V253.92H856.32V252.92ZM856.32 245.144L856.16 244.157L855.32 244.294V245.144H856.32ZM860.964 244.388L861.125 245.375L861.134 245.374L861.143 245.372L860.964 244.388ZM862.692 243.416L861.933 242.765L861.904 242.799L861.878 242.835L862.692 243.416ZM862.692 184.124L861.878 184.705L861.904 184.741L861.933 184.775L862.692 184.124ZM860.964 183.152L861.143 182.168L861.133 182.166L860.964 183.152ZM856.536 182.396H855.536V183.24L856.368 183.382L856.536 182.396ZM856.536 174.62V173.62H855.536V174.62H856.536ZM874.356 174.62L875.346 174.479L875.224 173.62H874.356V174.62ZM875.22 180.668L874.23 180.809L874.528 182.891L875.955 181.347L875.22 180.668ZM895.848 214.04L894.975 213.553L894.971 213.56L894.966 213.568L895.848 214.04ZM895.416 187.256L896.235 186.683L895.416 187.256ZM880.728 184.556L881.228 185.422L880.728 184.556ZM875.868 188.768L875.084 188.147L874.868 188.42V188.768H875.868ZM875.868 215.984H874.868V216.572L875.383 216.858L875.868 215.984ZM891.528 174.54C897.427 174.54 901.983 176.749 905.31 181.162L906.907 179.958C903.178 175.011 898.013 172.54 891.528 172.54V174.54ZM905.32 181.176C908.738 185.55 910.508 191.677 910.508 199.676H912.508C912.508 191.403 910.678 184.786 906.896 179.944L905.32 181.176ZM910.508 199.676C910.508 204.855 909.39 209.515 907.17 213.677L908.935 214.619C911.323 210.141 912.508 205.153 912.508 199.676H910.508ZM907.164 213.689C905.012 217.853 902.002 221.137 898.126 223.56L899.186 225.256C903.374 222.639 906.628 219.083 908.941 214.607L907.164 213.689ZM898.137 223.553C894.268 225.903 889.984 227.08 885.264 227.08V229.08C890.336 229.08 894.981 227.809 899.175 225.263L898.137 223.553ZM885.264 227.08C882.303 227.08 879.293 226.495 876.229 225.311L875.508 227.177C878.78 228.441 882.034 229.08 885.264 229.08V227.08ZM874.868 226.244V241.256H876.868V226.244H874.868ZM874.868 241.256C874.868 242.32 875.092 243.291 875.666 244.047C876.256 244.826 877.116 245.243 878.109 245.379L878.379 243.397C877.789 243.317 877.46 243.104 877.259 242.839C877.041 242.551 876.868 242.064 876.868 241.256H874.868ZM878.13 245.381L884.718 246.137L884.946 244.151L878.358 243.395L878.13 245.381ZM883.832 245.144V252.92H885.832V245.144H883.832ZM884.832 251.92H856.32V253.92H884.832V251.92ZM857.32 252.92V245.144H855.32V252.92H857.32ZM856.481 246.131L861.125 245.375L860.804 243.401L856.16 244.157L856.481 246.131ZM861.143 245.372C862.111 245.196 862.953 244.771 863.506 243.997L861.878 242.835C861.711 243.069 861.401 243.292 860.785 243.404L861.143 245.372ZM863.451 244.067C864.092 243.32 864.34 242.334 864.34 241.256H862.34C862.34 242.05 862.156 242.504 861.933 242.765L863.451 244.067ZM864.34 241.256V186.284H862.34V241.256H864.34ZM864.34 186.284C864.34 185.206 864.092 184.22 863.451 183.473L861.933 184.775C862.156 185.036 862.34 185.49 862.34 186.284H864.34ZM863.506 183.543C862.953 182.769 862.111 182.344 861.143 182.168L860.785 184.136C861.401 184.248 861.711 184.471 861.878 184.705L863.506 183.543ZM861.133 182.166L856.704 181.41L856.368 183.382L860.796 184.138L861.133 182.166ZM857.536 182.396V174.62H855.536V182.396H857.536ZM856.536 175.62H874.356V173.62H856.536V175.62ZM873.366 174.761L874.23 180.809L876.21 180.527L875.346 174.479L873.366 174.761ZM875.955 181.347C880.157 176.8 885.327 174.54 891.528 174.54V172.54C884.77 172.54 879.067 175.032 874.486 179.989L875.955 181.347ZM887.208 219.684C891.606 219.684 894.867 217.994 896.73 214.512L894.966 213.568C893.517 216.278 891.019 217.684 887.208 217.684V219.684ZM896.721 214.527C898.573 211.209 899.44 206.36 899.44 200.108H897.44C897.44 206.24 896.579 210.679 894.975 213.553L896.721 214.527ZM899.44 200.108C899.44 194.331 898.422 189.806 896.235 186.683L894.597 187.829C896.443 190.466 897.44 194.509 897.44 200.108H899.44ZM896.235 186.683C894.018 183.515 890.822 181.936 886.776 181.936V183.936C890.219 183.936 892.782 185.237 894.597 187.829L896.235 186.683ZM886.776 181.936C884.441 181.936 882.252 182.522 880.228 183.69L881.228 185.422C882.948 184.43 884.792 183.936 886.776 183.936V181.936ZM880.228 183.69C878.245 184.834 876.529 186.322 875.084 188.147L876.652 189.389C877.943 187.758 879.468 186.438 881.228 185.422L880.228 183.69ZM874.868 188.768V215.984H876.868V188.768H874.868ZM875.383 216.858C878.794 218.753 882.747 219.684 887.208 219.684V217.684C883.03 217.684 879.422 216.815 876.354 215.11L875.383 216.858Z" fill="black"/>
<path d="M457.144 289.154C455.956 289.154 454.885 288.897 453.932 288.384C452.978 287.871 452.23 287.159 451.688 286.25C451.16 285.326 450.896 284.285 450.896 283.126C450.896 281.967 451.16 280.933 451.688 280.024C452.23 279.115 452.978 278.403 453.932 277.89C454.885 277.377 455.956 277.12 457.144 277.12C458.346 277.12 459.424 277.377 460.378 277.89C461.331 278.403 462.072 279.115 462.6 280.024C463.142 280.933 463.414 281.967 463.414 283.126C463.414 284.285 463.142 285.326 462.6 286.25C462.072 287.159 461.331 287.871 460.378 288.384C459.424 288.897 458.346 289.154 457.144 289.154ZM457.144 286.8C458.156 286.8 458.992 286.463 459.652 285.788C460.312 285.113 460.642 284.226 460.642 283.126C460.642 282.026 460.312 281.139 459.652 280.464C458.992 279.789 458.156 279.452 457.144 279.452C456.132 279.452 455.296 279.789 454.636 280.464C453.99 281.139 453.668 282.026 453.668 283.126C453.668 284.226 453.99 285.113 454.636 285.788C455.296 286.463 456.132 286.8 457.144 286.8ZM473.105 288.362C472.783 288.626 472.387 288.824 471.917 288.956C471.463 289.088 470.979 289.154 470.465 289.154C469.175 289.154 468.177 288.817 467.473 288.142C466.769 287.467 466.417 286.485 466.417 285.194V279.54H464.481V277.34H466.417V274.656H469.167V277.34H472.313V279.54H469.167V285.128C469.167 285.7 469.307 286.14 469.585 286.448C469.864 286.741 470.267 286.888 470.795 286.888C471.411 286.888 471.925 286.727 472.335 286.404L473.105 288.362ZM482.15 288.362C481.828 288.626 481.432 288.824 480.962 288.956C480.508 289.088 480.024 289.154 479.51 289.154C478.22 289.154 477.222 288.817 476.518 288.142C475.814 287.467 475.462 286.485 475.462 285.194V279.54H473.526V277.34H475.462V274.656H478.212V277.34H481.358V279.54H478.212V285.128C478.212 285.7 478.352 286.14 478.63 286.448C478.909 286.741 479.312 286.888 479.84 286.888C480.456 286.888 480.97 286.727 481.38 286.404L482.15 288.362ZM488.9 277.12C490.631 277.12 491.951 277.538 492.86 278.374C493.784 279.195 494.246 280.442 494.246 282.114V289H491.65V287.57C491.313 288.083 490.829 288.479 490.198 288.758C489.582 289.022 488.834 289.154 487.954 289.154C487.074 289.154 486.304 289.007 485.644 288.714C484.984 288.406 484.471 287.988 484.104 287.46C483.752 286.917 483.576 286.309 483.576 285.634C483.576 284.578 483.965 283.735 484.742 283.104C485.534 282.459 486.774 282.136 488.46 282.136H491.496V281.96C491.496 281.139 491.247 280.508 490.748 280.068C490.264 279.628 489.538 279.408 488.57 279.408C487.91 279.408 487.258 279.511 486.612 279.716C485.982 279.921 485.446 280.207 485.006 280.574L483.928 278.572C484.544 278.103 485.285 277.743 486.15 277.494C487.016 277.245 487.932 277.12 488.9 277.12ZM488.526 287.152C489.216 287.152 489.824 286.998 490.352 286.69C490.895 286.367 491.276 285.913 491.496 285.326V283.962H488.658C487.074 283.962 486.282 284.483 486.282 285.524C486.282 286.023 486.48 286.419 486.876 286.712C487.272 287.005 487.822 287.152 488.526 287.152ZM515.887 277.252L511.553 289H508.913L505.877 280.904L502.797 289H500.157L495.845 277.252H498.441L501.543 285.92L504.777 277.252H507.087L510.255 285.964L513.445 277.252H515.887ZM521.9 277.12C523.631 277.12 524.951 277.538 525.86 278.374C526.784 279.195 527.246 280.442 527.246 282.114V289H524.65V287.57C524.313 288.083 523.829 288.479 523.198 288.758C522.582 289.022 521.834 289.154 520.954 289.154C520.074 289.154 519.304 289.007 518.644 288.714C517.984 288.406 517.471 287.988 517.104 287.46C516.752 286.917 516.576 286.309 516.576 285.634C516.576 284.578 516.965 283.735 517.742 283.104C518.534 282.459 519.774 282.136 521.46 282.136H524.496V281.96C524.496 281.139 524.247 280.508 523.748 280.068C523.264 279.628 522.538 279.408 521.57 279.408C520.91 279.408 520.258 279.511 519.612 279.716C518.982 279.921 518.446 280.207 518.006 280.574L516.928 278.572C517.544 278.103 518.285 277.743 519.15 277.494C520.016 277.245 520.932 277.12 521.9 277.12ZM521.526 287.152C522.216 287.152 522.824 286.998 523.352 286.69C523.895 286.367 524.276 285.913 524.496 285.326V283.962H521.658C520.074 283.962 519.282 284.483 519.282 285.524C519.282 286.023 519.48 286.419 519.876 286.712C520.272 287.005 520.822 287.152 521.526 287.152ZM530.204 273.6H532.58L532.382 279.694H530.38L530.204 273.6ZM539.24 289.154C538.286 289.154 537.355 289.029 536.446 288.78C535.536 288.531 534.81 288.215 534.268 287.834L535.324 285.744C535.852 286.096 536.482 286.382 537.216 286.602C537.964 286.807 538.697 286.91 539.416 286.91C541.058 286.91 541.88 286.477 541.88 285.612C541.88 285.201 541.667 284.915 541.242 284.754C540.831 284.593 540.164 284.439 539.24 284.292C538.272 284.145 537.48 283.977 536.864 283.786C536.262 283.595 535.734 283.265 535.28 282.796C534.84 282.312 534.62 281.645 534.62 280.794C534.62 279.679 535.082 278.792 536.006 278.132C536.944 277.457 538.206 277.12 539.79 277.12C540.596 277.12 541.403 277.215 542.21 277.406C543.016 277.582 543.676 277.824 544.19 278.132L543.134 280.222C542.136 279.635 541.014 279.342 539.768 279.342C538.961 279.342 538.345 279.467 537.92 279.716C537.509 279.951 537.304 280.266 537.304 280.662C537.304 281.102 537.524 281.417 537.964 281.608C538.418 281.784 539.115 281.953 540.054 282.114C540.992 282.261 541.762 282.429 542.364 282.62C542.965 282.811 543.478 283.133 543.904 283.588C544.344 284.043 544.564 284.688 544.564 285.524C544.564 286.624 544.087 287.504 543.134 288.164C542.18 288.824 540.882 289.154 539.24 289.154ZM558.402 289.154C557.185 289.154 556.092 288.897 555.124 288.384C554.156 287.871 553.401 287.159 552.858 286.25C552.315 285.326 552.044 284.285 552.044 283.126C552.044 281.967 552.315 280.933 552.858 280.024C553.401 279.115 554.149 278.403 555.102 277.89C556.07 277.377 557.17 277.12 558.402 277.12C559.561 277.12 560.573 277.355 561.438 277.824C562.318 278.293 562.978 278.968 563.418 279.848L561.306 281.08C560.969 280.537 560.543 280.134 560.03 279.87C559.531 279.591 558.981 279.452 558.38 279.452C557.353 279.452 556.503 279.789 555.828 280.464C555.153 281.124 554.816 282.011 554.816 283.126C554.816 284.241 555.146 285.135 555.806 285.81C556.481 286.47 557.339 286.8 558.38 286.8C558.981 286.8 559.531 286.668 560.03 286.404C560.543 286.125 560.969 285.715 561.306 285.172L563.418 286.404C562.963 287.284 562.296 287.966 561.416 288.45C560.551 288.919 559.546 289.154 558.402 289.154ZM570.903 289.154C569.715 289.154 568.645 288.897 567.691 288.384C566.738 287.871 565.99 287.159 565.447 286.25C564.919 285.326 564.655 284.285 564.655 283.126C564.655 281.967 564.919 280.933 565.447 280.024C565.99 279.115 566.738 278.403 567.691 277.89C568.645 277.377 569.715 277.12 570.903 277.12C572.106 277.12 573.184 277.377 574.137 277.89C575.091 278.403 575.831 279.115 576.359 280.024C576.902 280.933 577.173 281.967 577.173 283.126C577.173 284.285 576.902 285.326 576.359 286.25C575.831 287.159 575.091 287.871 574.137 288.384C573.184 288.897 572.106 289.154 570.903 289.154ZM570.903 286.8C571.915 286.8 572.751 286.463 573.411 285.788C574.071 285.113 574.401 284.226 574.401 283.126C574.401 282.026 574.071 281.139 573.411 280.464C572.751 279.789 571.915 279.452 570.903 279.452C569.891 279.452 569.055 279.789 568.395 280.464C567.75 281.139 567.427 282.026 567.427 283.126C567.427 284.226 567.75 285.113 568.395 285.788C569.055 286.463 569.891 286.8 570.903 286.8ZM594.631 277.12C596.112 277.12 597.286 277.553 598.151 278.418C599.016 279.269 599.449 280.552 599.449 282.268V289H596.699V282.62C596.699 281.593 596.472 280.823 596.017 280.31C595.562 279.782 594.91 279.518 594.059 279.518C593.135 279.518 592.394 279.826 591.837 280.442C591.28 281.043 591.001 281.909 591.001 283.038V289H588.251V282.62C588.251 281.593 588.024 280.823 587.569 280.31C587.114 279.782 586.462 279.518 585.611 279.518C584.672 279.518 583.924 279.819 583.367 280.42C582.824 281.021 582.553 281.894 582.553 283.038V289H579.803V277.252H582.421V278.748C582.861 278.22 583.411 277.817 584.071 277.538C584.731 277.259 585.464 277.12 586.271 277.12C587.151 277.12 587.928 277.289 588.603 277.626C589.292 277.949 589.835 278.433 590.231 279.078C590.715 278.462 591.338 277.985 592.101 277.648C592.864 277.296 593.707 277.12 594.631 277.12ZM617.791 277.12C619.273 277.12 620.446 277.553 621.311 278.418C622.177 279.269 622.609 280.552 622.609 282.268V289H619.859V282.62C619.859 281.593 619.632 280.823 619.177 280.31C618.723 279.782 618.07 279.518 617.219 279.518C616.295 279.518 615.555 279.826 614.997 280.442C614.44 281.043 614.161 281.909 614.161 283.038V289H611.411V282.62C611.411 281.593 611.184 280.823 610.729 280.31C610.275 279.782 609.622 279.518 608.771 279.518C607.833 279.518 607.085 279.819 606.527 280.42C605.985 281.021 605.713 281.894 605.713 283.038V289H602.963V277.252H605.581V278.748C606.021 278.22 606.571 277.817 607.231 277.538C607.891 277.259 608.625 277.12 609.431 277.12C610.311 277.12 611.089 277.289 611.763 277.626C612.453 277.949 612.995 278.433 613.391 279.078C613.875 278.462 614.499 277.985 615.261 277.648C616.024 277.296 616.867 277.12 617.791 277.12ZM637.497 277.252V289H634.879V287.504C634.439 288.032 633.889 288.443 633.229 288.736C632.569 289.015 631.858 289.154 631.095 289.154C629.526 289.154 628.287 288.721 627.377 287.856C626.483 286.976 626.035 285.678 626.035 283.962V277.252H628.785V283.588C628.785 284.644 629.02 285.436 629.489 285.964C629.973 286.477 630.655 286.734 631.535 286.734C632.518 286.734 633.295 286.433 633.867 285.832C634.454 285.216 634.747 284.336 634.747 283.192V277.252H637.497ZM647.764 277.12C649.245 277.12 650.433 277.553 651.328 278.418C652.223 279.283 652.67 280.567 652.67 282.268V289H649.92V282.62C649.92 281.593 649.678 280.823 649.194 280.31C648.71 279.782 648.021 279.518 647.126 279.518C646.114 279.518 645.315 279.826 644.728 280.442C644.141 281.043 643.848 281.916 643.848 283.06V289H641.098V277.252H643.716V278.77C644.171 278.227 644.743 277.817 645.432 277.538C646.121 277.259 646.899 277.12 647.764 277.12ZM656.158 277.252H658.908V289H656.158V277.252ZM657.544 275.316C657.046 275.316 656.628 275.162 656.29 274.854C655.953 274.531 655.784 274.135 655.784 273.666C655.784 273.197 655.953 272.808 656.29 272.5C656.628 272.177 657.046 272.016 657.544 272.016C658.043 272.016 658.461 272.17 658.798 272.478C659.136 272.771 659.304 273.145 659.304 273.6C659.304 274.084 659.136 274.495 658.798 274.832C658.476 275.155 658.058 275.316 657.544 275.316ZM669.58 288.362C669.257 288.626 668.861 288.824 668.392 288.956C667.937 289.088 667.453 289.154 666.94 289.154C665.649 289.154 664.652 288.817 663.948 288.142C663.244 287.467 662.892 286.485 662.892 285.194V279.54H660.956V277.34H662.892V274.656H665.642V277.34H668.788V279.54H665.642V285.128C665.642 285.7 665.781 286.14 666.06 286.448C666.339 286.741 666.742 286.888 667.27 286.888C667.886 286.888 668.399 286.727 668.81 286.404L669.58 288.362ZM682.627 277.252L677.127 289.946C676.614 291.222 675.991 292.117 675.257 292.63C674.524 293.158 673.637 293.422 672.595 293.422C672.009 293.422 671.429 293.327 670.857 293.136C670.285 292.945 669.816 292.681 669.449 292.344L670.549 290.32C670.813 290.569 671.121 290.767 671.473 290.914C671.84 291.061 672.207 291.134 672.573 291.134C673.057 291.134 673.453 291.009 673.761 290.76C674.084 290.511 674.377 290.093 674.641 289.506L674.839 289.044L669.713 277.252H672.573L676.269 285.942L679.987 277.252H682.627ZM695.2 274.744C694.041 274.744 693.462 275.375 693.462 276.636V277.34H696.696V279.54H693.55V289H690.8V279.54H688.864V277.34H690.8V276.592C690.8 275.331 691.167 274.341 691.9 273.622C692.633 272.889 693.667 272.522 695.002 272.522C696.058 272.522 696.887 272.735 697.488 273.16L696.718 275.228C696.249 274.905 695.743 274.744 695.2 274.744ZM703.655 289.154C702.467 289.154 701.397 288.897 700.443 288.384C699.49 287.871 698.742 287.159 698.199 286.25C697.671 285.326 697.407 284.285 697.407 283.126C697.407 281.967 697.671 280.933 698.199 280.024C698.742 279.115 699.49 278.403 700.443 277.89C701.397 277.377 702.467 277.12 703.655 277.12C704.858 277.12 705.936 277.377 706.889 277.89C707.843 278.403 708.583 279.115 709.111 280.024C709.654 280.933 709.925 281.967 709.925 283.126C709.925 284.285 709.654 285.326 709.111 286.25C708.583 287.159 707.843 287.871 706.889 288.384C705.936 288.897 704.858 289.154 703.655 289.154ZM703.655 286.8C704.667 286.8 705.503 286.463 706.163 285.788C706.823 285.113 707.153 284.226 707.153 283.126C707.153 282.026 706.823 281.139 706.163 280.464C705.503 279.789 704.667 279.452 703.655 279.452C702.643 279.452 701.807 279.789 701.147 280.464C700.502 281.139 700.179 282.026 700.179 283.126C700.179 284.226 700.502 285.113 701.147 285.788C701.807 286.463 702.643 286.8 703.655 286.8ZM715.173 278.968C715.965 277.736 717.358 277.12 719.353 277.12V279.738C719.118 279.694 718.906 279.672 718.715 279.672C717.644 279.672 716.808 279.987 716.207 280.618C715.606 281.234 715.305 282.129 715.305 283.302V289H712.555V277.252H715.173V278.968ZM734.385 277.12C735.529 277.12 736.549 277.369 737.443 277.868C738.353 278.367 739.064 279.071 739.577 279.98C740.091 280.889 740.347 281.938 740.347 283.126C740.347 284.314 740.091 285.37 739.577 286.294C739.064 287.203 738.353 287.907 737.443 288.406C736.549 288.905 735.529 289.154 734.385 289.154C732.801 289.154 731.547 288.626 730.623 287.57V293.268H727.873V277.252H730.491V278.792C730.946 278.235 731.503 277.817 732.163 277.538C732.838 277.259 733.579 277.12 734.385 277.12ZM734.077 286.8C735.089 286.8 735.918 286.463 736.563 285.788C737.223 285.113 737.553 284.226 737.553 283.126C737.553 282.026 737.223 281.139 736.563 280.464C735.918 279.789 735.089 279.452 734.077 279.452C733.417 279.452 732.823 279.606 732.295 279.914C731.767 280.207 731.349 280.633 731.041 281.19C730.733 281.747 730.579 282.393 730.579 283.126C730.579 283.859 730.733 284.505 731.041 285.062C731.349 285.619 731.767 286.052 732.295 286.36C732.823 286.653 733.417 286.8 734.077 286.8ZM748.235 289.154C747.047 289.154 745.977 288.897 745.023 288.384C744.07 287.871 743.322 287.159 742.779 286.25C742.251 285.326 741.987 284.285 741.987 283.126C741.987 281.967 742.251 280.933 742.779 280.024C743.322 279.115 744.07 278.403 745.023 277.89C745.977 277.377 747.047 277.12 748.235 277.12C749.438 277.12 750.516 277.377 751.469 277.89C752.423 278.403 753.163 279.115 753.691 280.024C754.234 280.933 754.505 281.967 754.505 283.126C754.505 284.285 754.234 285.326 753.691 286.25C753.163 287.159 752.423 287.871 751.469 288.384C750.516 288.897 749.438 289.154 748.235 289.154ZM748.235 286.8C749.247 286.8 750.083 286.463 750.743 285.788C751.403 285.113 751.733 284.226 751.733 283.126C751.733 282.026 751.403 281.139 750.743 280.464C750.083 279.789 749.247 279.452 748.235 279.452C747.223 279.452 746.387 279.789 745.727 280.464C745.082 281.139 744.759 282.026 744.759 283.126C744.759 284.226 745.082 285.113 745.727 285.788C746.387 286.463 747.223 286.8 748.235 286.8ZM760.765 289.154C759.812 289.154 758.88 289.029 757.971 288.78C757.062 288.531 756.336 288.215 755.793 287.834L756.849 285.744C757.377 286.096 758.008 286.382 758.741 286.602C759.489 286.807 760.222 286.91 760.941 286.91C762.584 286.91 763.405 286.477 763.405 285.612C763.405 285.201 763.192 284.915 762.767 284.754C762.356 284.593 761.689 284.439 760.765 284.292C759.797 284.145 759.005 283.977 758.389 283.786C757.788 283.595 757.26 283.265 756.805 282.796C756.365 282.312 756.145 281.645 756.145 280.794C756.145 279.679 756.607 278.792 757.531 278.132C758.47 277.457 759.731 277.12 761.315 277.12C762.122 277.12 762.928 277.215 763.735 277.406C764.542 277.582 765.202 277.824 765.715 278.132L764.659 280.222C763.662 279.635 762.54 279.342 761.293 279.342C760.486 279.342 759.87 279.467 759.445 279.716C759.034 279.951 758.829 280.266 758.829 280.662C758.829 281.102 759.049 281.417 759.489 281.608C759.944 281.784 760.64 281.953 761.579 282.114C762.518 282.261 763.288 282.429 763.889 282.62C764.49 282.811 765.004 283.133 765.429 283.588C765.869 284.043 766.089 284.688 766.089 285.524C766.089 286.624 765.612 287.504 764.659 288.164C763.706 288.824 762.408 289.154 760.765 289.154ZM775.519 288.362C775.197 288.626 774.801 288.824 774.331 288.956C773.877 289.088 773.393 289.154 772.879 289.154C771.589 289.154 770.591 288.817 769.887 288.142C769.183 287.467 768.831 286.485 768.831 285.194V279.54H766.895V277.34H768.831V274.656H771.581V277.34H774.727V279.54H771.581V285.128C771.581 285.7 771.721 286.14 771.999 286.448C772.278 286.741 772.681 286.888 773.209 286.888C773.825 286.888 774.339 286.727 774.749 286.404L775.519 288.362ZM776.973 281.74H783.023V284.028H776.973V281.74ZM789.662 289.154C788.708 289.154 787.777 289.029 786.868 288.78C785.958 288.531 785.232 288.215 784.69 287.834L785.746 285.744C786.274 286.096 786.904 286.382 787.638 286.602C788.386 286.807 789.119 286.91 789.838 286.91C791.48 286.91 792.302 286.477 792.302 285.612C792.302 285.201 792.089 284.915 791.664 284.754C791.253 284.593 790.586 284.439 789.662 284.292C788.694 284.145 787.902 283.977 787.286 283.786C786.684 283.595 786.156 283.265 785.702 282.796C785.262 282.312 785.042 281.645 785.042 280.794C785.042 279.679 785.504 278.792 786.428 278.132C787.366 277.457 788.628 277.12 790.212 277.12C791.018 277.12 791.825 277.215 792.632 277.406C793.438 277.582 794.098 277.824 794.612 278.132L793.556 280.222C792.558 279.635 791.436 279.342 790.19 279.342C789.383 279.342 788.767 279.467 788.342 279.716C787.931 279.951 787.726 280.266 787.726 280.662C787.726 281.102 787.946 281.417 788.386 281.608C788.84 281.784 789.537 281.953 790.476 282.114C791.414 282.261 792.184 282.429 792.786 282.62C793.387 282.811 793.9 283.133 794.326 283.588C794.766 284.043 794.986 284.688 794.986 285.524C794.986 286.624 794.509 287.504 793.556 288.164C792.602 288.824 791.304 289.154 789.662 289.154ZM808.398 283.192C808.398 283.383 808.383 283.654 808.354 284.006H799.136C799.297 284.871 799.715 285.561 800.39 286.074C801.079 286.573 801.93 286.822 802.942 286.822C804.232 286.822 805.296 286.397 806.132 285.546L807.606 287.24C807.078 287.871 806.41 288.347 805.604 288.67C804.797 288.993 803.888 289.154 802.876 289.154C801.585 289.154 800.448 288.897 799.466 288.384C798.483 287.871 797.72 287.159 797.178 286.25C796.65 285.326 796.386 284.285 796.386 283.126C796.386 281.982 796.642 280.955 797.156 280.046C797.684 279.122 798.41 278.403 799.334 277.89C800.258 277.377 801.299 277.12 802.458 277.12C803.602 277.12 804.621 277.377 805.516 277.89C806.425 278.389 807.129 279.1 807.628 280.024C808.141 280.933 808.398 281.989 808.398 283.192ZM802.458 279.32C801.578 279.32 800.83 279.584 800.214 280.112C799.612 280.625 799.246 281.315 799.114 282.18H805.78C805.662 281.329 805.303 280.64 804.702 280.112C804.1 279.584 803.352 279.32 802.458 279.32ZM816.429 289.154C815.212 289.154 814.119 288.897 813.151 288.384C812.183 287.871 811.428 287.159 810.885 286.25C810.343 285.326 810.071 284.285 810.071 283.126C810.071 281.967 810.343 280.933 810.885 280.024C811.428 279.115 812.176 278.403 813.129 277.89C814.097 277.377 815.197 277.12 816.429 277.12C817.588 277.12 818.6 277.355 819.465 277.824C820.345 278.293 821.005 278.968 821.445 279.848L819.333 281.08C818.996 280.537 818.571 280.134 818.057 279.87C817.559 279.591 817.009 279.452 816.407 279.452C815.381 279.452 814.53 279.789 813.855 280.464C813.181 281.124 812.843 282.011 812.843 283.126C812.843 284.241 813.173 285.135 813.833 285.81C814.508 286.47 815.366 286.8 816.407 286.8C817.009 286.8 817.559 286.668 818.057 286.404C818.571 286.125 818.996 285.715 819.333 285.172L821.445 286.404C820.991 287.284 820.323 287.966 819.443 288.45C818.578 288.919 817.573 289.154 816.429 289.154ZM828.931 289.154C827.743 289.154 826.672 288.897 825.719 288.384C824.765 287.871 824.017 287.159 823.475 286.25C822.947 285.326 822.683 284.285 822.683 283.126C822.683 281.967 822.947 280.933 823.475 280.024C824.017 279.115 824.765 278.403 825.719 277.89C826.672 277.377 827.743 277.12 828.931 277.12C830.133 277.12 831.211 277.377 832.165 277.89C833.118 278.403 833.859 279.115 834.387 280.024C834.929 280.933 835.201 281.967 835.201 283.126C835.201 284.285 834.929 285.326 834.387 286.25C833.859 287.159 833.118 287.871 832.165 288.384C831.211 288.897 830.133 289.154 828.931 289.154ZM828.931 286.8C829.943 286.8 830.779 286.463 831.439 285.788C832.099 285.113 832.429 284.226 832.429 283.126C832.429 282.026 832.099 281.139 831.439 280.464C830.779 279.789 829.943 279.452 828.931 279.452C827.919 279.452 827.083 279.789 826.423 280.464C825.777 281.139 825.455 282.026 825.455 283.126C825.455 284.226 825.777 285.113 826.423 285.788C827.083 286.463 827.919 286.8 828.931 286.8ZM844.496 277.12C845.978 277.12 847.166 277.553 848.06 278.418C848.955 279.283 849.402 280.567 849.402 282.268V289H846.652V282.62C846.652 281.593 846.41 280.823 845.926 280.31C845.442 279.782 844.753 279.518 843.858 279.518C842.846 279.518 842.047 279.826 841.46 280.442C840.874 281.043 840.58 281.916 840.58 283.06V289H837.83V277.252H840.448V278.77C840.903 278.227 841.475 277.817 842.164 277.538C842.854 277.259 843.631 277.12 844.496 277.12ZM864.504 272.676V289H861.864V287.482C861.41 288.039 860.845 288.457 860.17 288.736C859.51 289.015 858.777 289.154 857.97 289.154C856.841 289.154 855.822 288.905 854.912 288.406C854.018 287.907 853.314 287.203 852.8 286.294C852.287 285.37 852.03 284.314 852.03 283.126C852.03 281.938 852.287 280.889 852.8 279.98C853.314 279.071 854.018 278.367 854.912 277.868C855.822 277.369 856.841 277.12 857.97 277.12C858.748 277.12 859.459 277.252 860.104 277.516C860.75 277.78 861.3 278.176 861.754 278.704V272.676H864.504ZM858.3 286.8C858.96 286.8 859.554 286.653 860.082 286.36C860.61 286.052 861.028 285.619 861.336 285.062C861.644 284.505 861.798 283.859 861.798 283.126C861.798 282.393 861.644 281.747 861.336 281.19C861.028 280.633 860.61 280.207 860.082 279.914C859.554 279.606 858.96 279.452 858.3 279.452C857.64 279.452 857.046 279.606 856.518 279.914C855.99 280.207 855.572 280.633 855.264 281.19C854.956 281.747 854.802 282.393 854.802 283.126C854.802 283.859 854.956 284.505 855.264 285.062C855.572 285.619 855.99 286.052 856.518 286.36C857.046 286.653 857.64 286.8 858.3 286.8ZM872.59 277.12C874.321 277.12 875.641 277.538 876.55 278.374C877.474 279.195 877.936 280.442 877.936 282.114V289H875.34V287.57C875.003 288.083 874.519 288.479 873.888 288.758C873.272 289.022 872.524 289.154 871.644 289.154C870.764 289.154 869.994 289.007 869.334 288.714C868.674 288.406 868.161 287.988 867.794 287.46C867.442 286.917 867.266 286.309 867.266 285.634C867.266 284.578 867.655 283.735 868.432 283.104C869.224 282.459 870.463 282.136 872.15 282.136H875.186V281.96C875.186 281.139 874.937 280.508 874.438 280.068C873.954 279.628 873.228 279.408 872.26 279.408C871.6 279.408 870.947 279.511 870.302 279.716C869.671 279.921 869.136 280.207 868.696 280.574L867.618 278.572C868.234 278.103 868.975 277.743 869.84 277.494C870.705 277.245 871.622 277.12 872.59 277.12ZM872.216 287.152C872.905 287.152 873.514 286.998 874.042 286.69C874.585 286.367 874.966 285.913 875.186 285.326V283.962H872.348C870.764 283.962 869.972 284.483 869.972 285.524C869.972 286.023 870.17 286.419 870.566 286.712C870.962 287.005 871.512 287.152 872.216 287.152ZM884.083 278.968C884.875 277.736 886.268 277.12 888.263 277.12V279.738C888.028 279.694 887.816 279.672 887.625 279.672C886.554 279.672 885.718 279.987 885.117 280.618C884.516 281.234 884.215 282.129 884.215 283.302V289H881.465V277.252H884.083V278.968ZM902.026 277.252L896.526 289.946C896.012 291.222 895.389 292.117 894.656 292.63C893.922 293.158 893.035 293.422 891.994 293.422C891.407 293.422 890.828 293.327 890.256 293.136C889.684 292.945 889.214 292.681 888.848 292.344L889.948 290.32C890.212 290.569 890.52 290.767 890.872 290.914C891.238 291.061 891.605 291.134 891.972 291.134C892.456 291.134 892.852 291.009 893.16 290.76C893.482 290.511 893.776 290.093 894.04 289.506L894.238 289.044L889.112 277.252H891.972L895.668 285.942L899.386 277.252H902.026ZM611.116 304.252L606.782 316H604.142L601.106 307.904L598.026 316H595.386L591.074 304.252H593.67L596.772 312.92L600.006 304.252H602.316L605.484 312.964L608.674 304.252H611.116ZM617.965 316.154C616.777 316.154 615.706 315.897 614.753 315.384C613.8 314.871 613.052 314.159 612.509 313.25C611.981 312.326 611.717 311.285 611.717 310.126C611.717 308.967 611.981 307.933 612.509 307.024C613.052 306.115 613.8 305.403 614.753 304.89C615.706 304.377 616.777 304.12 617.965 304.12C619.168 304.12 620.246 304.377 621.199 304.89C622.152 305.403 622.893 306.115 623.421 307.024C623.964 307.933 624.235 308.967 624.235 310.126C624.235 311.285 623.964 312.326 623.421 313.25C622.893 314.159 622.152 314.871 621.199 315.384C620.246 315.897 619.168 316.154 617.965 316.154ZM617.965 313.8C618.977 313.8 619.813 313.463 620.473 312.788C621.133 312.113 621.463 311.226 621.463 310.126C621.463 309.026 621.133 308.139 620.473 307.464C619.813 306.789 618.977 306.452 617.965 306.452C616.953 306.452 616.117 306.789 615.457 307.464C614.812 308.139 614.489 309.026 614.489 310.126C614.489 311.226 614.812 312.113 615.457 312.788C616.117 313.463 616.953 313.8 617.965 313.8ZM641.693 304.12C643.174 304.12 644.347 304.553 645.213 305.418C646.078 306.269 646.511 307.552 646.511 309.268V316H643.761V309.62C643.761 308.593 643.533 307.823 643.079 307.31C642.624 306.782 641.971 306.518 641.121 306.518C640.197 306.518 639.456 306.826 638.899 307.442C638.341 308.043 638.063 308.909 638.063 310.038V316H635.313V309.62C635.313 308.593 635.085 307.823 634.631 307.31C634.176 306.782 633.523 306.518 632.673 306.518C631.734 306.518 630.986 306.819 630.429 307.42C629.886 308.021 629.615 308.894 629.615 310.038V316H626.865V304.252H629.483V305.748C629.923 305.22 630.473 304.817 631.133 304.538C631.793 304.259 632.526 304.12 633.333 304.12C634.213 304.12 634.99 304.289 635.665 304.626C636.354 304.949 636.897 305.433 637.293 306.078C637.777 305.462 638.4 304.985 639.163 304.648C639.925 304.296 640.769 304.12 641.693 304.12ZM661.176 310.192C661.176 310.383 661.161 310.654 661.132 311.006H651.914C652.075 311.871 652.493 312.561 653.168 313.074C653.857 313.573 654.708 313.822 655.72 313.822C657.011 313.822 658.074 313.397 658.91 312.546L660.384 314.24C659.856 314.871 659.189 315.347 658.382 315.67C657.575 315.993 656.666 316.154 655.654 316.154C654.363 316.154 653.227 315.897 652.244 315.384C651.261 314.871 650.499 314.159 649.956 313.25C649.428 312.326 649.164 311.285 649.164 310.126C649.164 308.982 649.421 307.955 649.934 307.046C650.462 306.122 651.188 305.403 652.112 304.89C653.036 304.377 654.077 304.12 655.236 304.12C656.38 304.12 657.399 304.377 658.294 304.89C659.203 305.389 659.907 306.1 660.406 307.024C660.919 307.933 661.176 308.989 661.176 310.192ZM655.236 306.32C654.356 306.32 653.608 306.584 652.992 307.112C652.391 307.625 652.024 308.315 651.892 309.18H658.558C658.441 308.329 658.081 307.64 657.48 307.112C656.879 306.584 656.131 306.32 655.236 306.32ZM670.484 304.12C671.965 304.12 673.153 304.553 674.048 305.418C674.942 306.283 675.39 307.567 675.39 309.268V316H672.64V309.62C672.64 308.593 672.398 307.823 671.914 307.31C671.43 306.782 670.74 306.518 669.846 306.518C668.834 306.518 668.034 306.826 667.448 307.442C666.861 308.043 666.568 308.916 666.568 310.06V316H663.818V304.252H666.436V305.77C666.89 305.227 667.462 304.817 668.152 304.538C668.841 304.259 669.618 304.12 670.484 304.12ZM684.958 304.252H687.708V316H684.958V304.252ZM686.344 302.316C685.846 302.316 685.428 302.162 685.09 301.854C684.753 301.531 684.584 301.135 684.584 300.666C684.584 300.197 684.753 299.808 685.09 299.5C685.428 299.177 685.846 299.016 686.344 299.016C686.843 299.016 687.261 299.17 687.598 299.478C687.936 299.771 688.104 300.145 688.104 300.6C688.104 301.084 687.936 301.495 687.598 301.832C687.276 302.155 686.858 302.316 686.344 302.316ZM697.984 304.12C699.465 304.12 700.653 304.553 701.548 305.418C702.442 306.283 702.89 307.567 702.89 309.268V316H700.14V309.62C700.14 308.593 699.898 307.823 699.414 307.31C698.93 306.782 698.24 306.518 697.346 306.518C696.334 306.518 695.534 306.826 694.948 307.442C694.361 308.043 694.068 308.916 694.068 310.06V316H691.318V304.252H693.936V305.77C694.39 305.227 694.962 304.817 695.652 304.538C696.341 304.259 697.118 304.12 697.984 304.12ZM719.52 315.362C719.198 315.626 718.802 315.824 718.332 315.956C717.878 316.088 717.394 316.154 716.88 316.154C715.59 316.154 714.592 315.817 713.888 315.142C713.184 314.467 712.832 313.485 712.832 312.194V306.54H710.896V304.34H712.832V301.656H715.582V304.34H718.728V306.54H715.582V312.128C715.582 312.7 715.722 313.14 716 313.448C716.279 313.741 716.682 313.888 717.21 313.888C717.826 313.888 718.34 313.727 718.75 313.404L719.52 315.362ZM732.44 310.192C732.44 310.383 732.425 310.654 732.396 311.006H723.178C723.339 311.871 723.757 312.561 724.432 313.074C725.121 313.573 725.972 313.822 726.984 313.822C728.274 313.822 729.338 313.397 730.174 312.546L731.648 314.24C731.12 314.871 730.452 315.347 729.646 315.67C728.839 315.993 727.93 316.154 726.918 316.154C725.627 316.154 724.49 315.897 723.508 315.384C722.525 314.871 721.762 314.159 721.22 313.25C720.692 312.326 720.428 311.285 720.428 310.126C720.428 308.982 720.684 307.955 721.198 307.046C721.726 306.122 722.452 305.403 723.376 304.89C724.3 304.377 725.341 304.12 726.5 304.12C727.644 304.12 728.663 304.377 729.558 304.89C730.467 305.389 731.171 306.1 731.67 307.024C732.183 307.933 732.44 308.989 732.44 310.192ZM726.5 306.32C725.62 306.32 724.872 306.584 724.256 307.112C723.654 307.625 723.288 308.315 723.156 309.18H729.822C729.704 308.329 729.345 307.64 728.744 307.112C728.142 306.584 727.394 306.32 726.5 306.32ZM740.471 316.154C739.254 316.154 738.161 315.897 737.193 315.384C736.225 314.871 735.47 314.159 734.927 313.25C734.385 312.326 734.113 311.285 734.113 310.126C734.113 308.967 734.385 307.933 734.927 307.024C735.47 306.115 736.218 305.403 737.171 304.89C738.139 304.377 739.239 304.12 740.471 304.12C741.63 304.12 742.642 304.355 743.507 304.824C744.387 305.293 745.047 305.968 745.487 306.848L743.375 308.08C743.038 307.537 742.613 307.134 742.099 306.87C741.601 306.591 741.051 306.452 740.449 306.452C739.423 306.452 738.572 306.789 737.897 307.464C737.223 308.124 736.885 309.011 736.885 310.126C736.885 311.241 737.215 312.135 737.875 312.81C738.55 313.47 739.408 313.8 740.449 313.8C741.051 313.8 741.601 313.668 742.099 313.404C742.613 313.125 743.038 312.715 743.375 312.172L745.487 313.404C745.033 314.284 744.365 314.966 743.485 315.45C742.62 315.919 741.615 316.154 740.471 316.154ZM754.423 304.12C755.904 304.12 757.092 304.553 757.987 305.418C758.882 306.283 759.329 307.567 759.329 309.268V316H756.579V309.62C756.579 308.593 756.337 307.823 755.853 307.31C755.369 306.782 754.68 306.518 753.785 306.518C752.773 306.518 751.974 306.826 751.387 307.442C750.8 308.043 750.507 308.916 750.507 310.06V316H747.757V299.676H750.507V305.616C750.962 305.132 751.519 304.765 752.179 304.516C752.854 304.252 753.602 304.12 754.423 304.12Z" fill="#202030"/>
<path fill-rule="evenodd" clip-rule="evenodd" d="M300.81 250.092C307.149 258.397 308.85 267.171 315.075 269.744C321.3 272.317 331.936 276.643 338.161 265.531C344.386 254.419 359.33 224.71 352.425 203.07C345.521 181.43 309.298 132.883 296.734 135.69C284.17 138.498 276.362 200.846 277.041 219.913C277.72 238.98 294.471 241.787 300.81 250.092V250.092Z" stroke="#202030" stroke-width="5" stroke-miterlimit="10" stroke-linejoin="round"/>
<path fill-rule="evenodd" clip-rule="evenodd" d="M360.569 266.762C354.929 270.694 350.442 278.339 348.264 283.801C346.085 289.262 339.039 297.52 347.499 299.529C355.959 301.538 387.318 302.712 399.023 295.853C410.729 288.994 420.554 264.315 417.734 258.375C414.913 252.436 391.627 258.816 382.1 260.213C372.572 261.611 366.208 262.831 360.569 266.762V266.762Z" stroke="#202030" stroke-width="5" stroke-miterlimit="10" stroke-linejoin="round"/>
<path d="M333.081 332.644C332.465 328.859 332.126 323.5 331.723 317.118C331.673 316.326 331.622 315.519 331.57 314.697C331.094 307.263 330.484 298.659 329.254 289.735C326.8 271.923 323.41 248.4 318.349 225.75C315.817 214.418 311.766 200.109 307.945 186.814C307.552 185.446 307.161 184.089 306.775 182.747C303.404 171.034 300.365 160.476 298.91 153.924C297.287 146.613 296.514 140.609 296.521 137.466C296.522 136.678 296.573 136.102 296.659 135.74C296.667 135.707 296.675 135.677 296.683 135.649C296.748 135.732 296.825 135.844 296.913 135.993C297.18 136.446 297.505 137.155 297.883 138.163C300.932 146.278 309.911 175.025 316.282 202.985C322.656 230.954 332.719 282.882 336.109 305.923C337.801 317.428 338.095 325.118 337.886 330.48C337.72 334.714 337.243 337.494 336.882 339.593C336.786 340.153 336.698 340.665 336.627 341.143C336.546 341.682 336.443 342.05 336.337 342.28C336.284 342.396 336.24 342.454 336.215 342.481C336.191 342.468 336.154 342.442 336.102 342.393C335.956 342.256 335.773 342.008 335.565 341.625C334.731 340.089 333.775 336.914 333.081 332.644ZM336.248 342.496C336.248 342.496 336.246 342.496 336.244 342.495C336.247 342.495 336.248 342.496 336.248 342.496Z" fill="#202030" stroke="black"/>
<path fill-rule="evenodd" clip-rule="evenodd" d="M334.678 321.038C335.335 321.524 339.748 302.193 350.256 292.968C360.765 283.744 386.656 271.497 397.728 265.693C408.799 259.889 415.824 258.999 416.686 258.145C417.548 257.291 414.627 255.249 402.899 260.566C391.17 265.883 357.684 279.969 346.314 290.047C334.944 300.126 334.021 320.551 334.678 321.038V321.038Z" fill="#202030"/>
<path fill-rule="evenodd" clip-rule="evenodd" d="M1317.8 62.3642C1310.28 11.2344 1296.1 -54.3624 1248.65 -76.8271C1201.19 -99.2917 1092.17 -86.3601 1033.05 -72.4284C973.919 -58.4967 915.579 -23.0298 893.891 6.76743C872.202 36.5647 867.618 93.3597 902.909 106.36C938.197 119.36 1051.74 84.1615 1072 106.36C1092.26 128.558 973 203.889 1033.05 258.616C1093.09 313.342 1233.9 259.483 1282.79 229.952C1331.68 200.421 1325.31 113.494 1317.8 62.3642Z" fill="#C45653"/>
<path d="M1396.97 384.076C1414.62 366.479 1411.34 333.181 1343.57 245.029C1310.52 202.031 1292.31 183.908 1261.29 178.769C1111.13 170.22 1042.26 169.289 1071.1 279.897C1099.95 390.505 1098.84 375.193 1151.41 430.941C1203.98 486.689 1379.32 401.672 1396.97 384.076Z" stroke="#202030" stroke-width="7" stroke-dasharray="20 7"/>
<circle cx="1113.5" cy="235.5" r="13.5" fill="white"/>
<circle cx="997" cy="380" r="25" fill="#423B0B"/>
<circle cx="428.5" cy="48.5" r="12.5" fill="#C45653"/>
</g>
<defs>
<clipPath id="clip0">
<rect width="1200" height="473" fill="white"/>
</clipPath>
</defs>
</svg>
