<svg width="414" height="324" viewBox="0 0 414 324" fill="none" xmlns="http://www.w3.org/2000/svg">
<g clip-path="url(#clip0)">
<rect width="414" height="324" fill="white"/>
<path d="M130.491 150.291C131.322 150.291 132.354 150.162 133.587 149.904L133.157 152.57C132.698 152.771 131.996 152.957 131.05 153.129C130.132 153.33 129.158 153.43 128.126 153.43C126.176 153.43 124.772 152.871 123.912 151.753C123.08 150.635 122.665 148.944 122.665 146.679V135.155H119.784V132.661L122.665 132.317V128.662L126.879 127.716V132.231L132.383 131.758V135.155H126.879V145.862C126.879 147.496 127.137 148.643 127.653 149.302C128.197 149.961 129.143 150.291 130.491 150.291ZM145.997 150.119C147.717 150.119 150.01 149.703 152.877 148.872L153.565 151.452C152.218 152.025 150.756 152.498 149.179 152.871C147.602 153.244 146.069 153.43 144.578 153.43C141.654 153.43 139.418 152.527 137.87 150.721C136.351 148.915 135.591 146.478 135.591 143.411C135.591 139.914 136.465 137.119 138.214 135.026C139.963 132.905 142.428 131.844 145.61 131.844C147.674 131.844 149.294 132.26 150.469 133.091C151.673 133.894 152.504 135.098 152.963 136.703C153.45 138.28 153.694 140.301 153.694 142.766L140.106 143.669C140.192 145.819 140.737 147.439 141.74 148.528C142.772 149.589 144.191 150.119 145.997 150.119ZM144.965 135.112C143.818 135.112 142.915 135.284 142.256 135.628C141.597 135.972 141.095 136.56 140.751 137.391C140.436 138.194 140.221 139.34 140.106 140.831L149.48 140.014C149.48 138.409 149.122 137.19 148.405 136.359C147.717 135.528 146.57 135.112 144.965 135.112ZM165.833 153.43C162.823 153.43 160.515 152.584 158.91 150.893C157.333 149.202 156.545 146.751 156.545 143.54C156.545 141.189 156.961 139.14 157.792 137.391C158.623 135.614 159.799 134.252 161.318 133.306C162.866 132.331 164.658 131.844 166.693 131.844C168.04 131.844 169.33 132.016 170.563 132.36C171.796 132.675 172.77 133.062 173.487 133.521L173.1 139.068H170.219L169.66 135.886C168.571 135.37 167.238 135.112 165.661 135.112C163.97 135.112 162.766 135.714 162.049 136.918C161.361 138.093 161.017 139.985 161.017 142.594C161.017 145.088 161.533 146.966 162.565 148.227C163.626 149.488 165.045 150.119 166.822 150.119C167.825 150.119 168.843 150.019 169.875 149.818C170.907 149.589 172.054 149.288 173.315 148.915L173.917 151.581C172.426 152.183 171.05 152.642 169.789 152.957C168.556 153.272 167.238 153.43 165.833 153.43ZM199.634 150.291V153H192.453V139.283C192.453 138.079 192.095 137.147 191.378 136.488C190.69 135.8 189.673 135.456 188.325 135.456C187.293 135.456 186.319 135.714 185.401 136.23C184.513 136.746 183.767 137.434 183.165 138.294V148.571C183.165 149.058 183.223 149.417 183.337 149.646C183.481 149.847 183.739 149.961 184.111 149.99L186.261 150.291V153H175.984V150.291L177.962 149.99C178.335 149.961 178.593 149.847 178.736 149.646C178.88 149.417 178.951 149.058 178.951 148.571V123.846C178.951 123.33 178.88 122.972 178.736 122.771C178.593 122.542 178.335 122.413 177.962 122.384L175.984 122.126V119.46H183.165V134.854C184.083 133.908 185.115 133.177 186.261 132.661C187.408 132.116 188.626 131.844 189.916 131.844C192.095 131.844 193.758 132.432 194.904 133.607C196.08 134.754 196.667 136.244 196.667 138.079V148.571C196.667 149.087 196.725 149.445 196.839 149.646C196.983 149.847 197.241 149.961 197.613 149.99L199.634 150.291ZM225.887 150.291V153H218.706V139.283C218.706 138.05 218.362 137.104 217.674 136.445C216.986 135.786 215.968 135.456 214.621 135.456C213.56 135.456 212.571 135.728 211.654 136.273C210.736 136.789 209.991 137.477 209.418 138.337V148.571C209.418 149.058 209.489 149.417 209.633 149.646C209.776 149.847 210.034 149.961 210.407 149.99L212.514 150.291V153H202.237V150.291L204.258 149.99C204.63 149.961 204.874 149.847 204.989 149.646C205.132 149.417 205.204 149.058 205.204 148.571V136.488C205.204 136.058 205.118 135.743 204.946 135.542C204.802 135.341 204.544 135.227 204.172 135.198L202.237 134.94V132.274H208.687L209.031 135.284C211.123 132.991 213.517 131.844 216.212 131.844C218.362 131.844 220.01 132.432 221.157 133.607C222.332 134.754 222.92 136.244 222.92 138.079V148.571C222.92 149.058 222.991 149.417 223.135 149.646C223.278 149.847 223.536 149.961 223.909 149.99L225.887 150.291ZM237.897 153.43C234.858 153.43 232.507 152.513 230.845 150.678C229.211 148.815 228.394 146.364 228.394 143.325C228.394 141.118 228.838 139.154 229.727 137.434C230.615 135.685 231.877 134.324 233.511 133.349C235.173 132.346 237.123 131.844 239.359 131.844C242.426 131.844 244.777 132.761 246.411 134.596C248.073 136.431 248.905 138.853 248.905 141.863C248.905 144.042 248.46 146.02 247.572 147.797C246.683 149.546 245.407 150.922 243.745 151.925C242.082 152.928 240.133 153.43 237.897 153.43ZM239.23 150.119C241.122 150.119 242.455 149.531 243.229 148.356C244.031 147.152 244.433 145.274 244.433 142.723C244.433 140.258 243.874 138.38 242.756 137.09C241.666 135.771 240.09 135.112 238.026 135.112C236.134 135.112 234.801 135.714 234.027 136.918C233.253 138.093 232.866 139.971 232.866 142.551C232.866 145.045 233.41 146.937 234.5 148.227C235.589 149.488 237.166 150.119 239.23 150.119ZM251.61 150.291L253.631 149.99C254.004 149.961 254.248 149.847 254.362 149.646C254.506 149.417 254.577 149.058 254.577 148.571V123.76C254.577 123.273 254.506 122.929 254.362 122.728C254.248 122.527 254.004 122.413 253.631 122.384L251.61 122.126V119.46H258.791V148.571C258.791 149.058 258.863 149.417 259.006 149.646C259.15 149.847 259.408 149.961 259.78 149.99L261.758 150.291V153H251.61V150.291ZM283.776 133.564C282.916 134.195 281.884 134.582 280.68 134.725C281.167 135.327 281.54 136.044 281.798 136.875C282.056 137.706 282.185 138.552 282.185 139.412C282.185 140.989 281.769 142.408 280.938 143.669C280.135 144.902 279.017 145.876 277.584 146.593C276.179 147.281 274.588 147.625 272.811 147.625C272.496 147.625 272.051 147.596 271.478 147.539L270.446 149.818C270.446 150.305 270.79 150.606 271.478 150.721C272.94 150.979 274.459 151.208 276.036 151.409C276.609 151.495 277.154 151.581 277.67 151.667C278.215 151.753 278.731 151.839 279.218 151.925C280.623 152.154 281.683 152.613 282.4 153.301C283.145 154.018 283.518 154.992 283.518 156.225C283.518 157.572 283.074 158.819 282.185 159.966C281.296 161.113 280.049 162.03 278.444 162.718C276.867 163.406 275.076 163.75 273.069 163.75C271.148 163.75 269.371 163.521 267.737 163.062C266.103 162.603 264.842 161.987 263.953 161.213L264.899 155.795H267.694L267.737 158.891C268.425 159.35 269.357 159.708 270.532 159.966C271.707 160.253 273.012 160.396 274.445 160.396C276.079 160.396 277.34 160.109 278.229 159.536C279.118 158.991 279.562 158.246 279.562 157.3C279.562 156.354 278.86 155.781 277.455 155.58C275.964 155.322 274.961 155.164 274.445 155.107C272.496 154.792 270.89 154.519 269.629 154.29C268.597 154.089 267.823 153.702 267.307 153.129C266.791 152.584 266.533 151.796 266.533 150.764L269.027 146.98C267.536 146.435 266.361 145.547 265.501 144.314C264.67 143.053 264.254 141.548 264.254 139.799C264.254 138.28 264.627 136.918 265.372 135.714C266.117 134.481 267.207 133.521 268.64 132.833C270.102 132.145 271.822 131.801 273.8 131.801C276.753 131.801 278.745 131.758 279.777 131.672C280.809 131.586 282.142 131.328 283.776 130.898V133.564ZM273.499 144.701C275.018 144.701 276.108 144.285 276.767 143.454C277.426 142.623 277.756 141.347 277.756 139.627C277.756 136.302 276.151 134.639 272.94 134.639C271.306 134.639 270.188 135.026 269.586 135.8C268.984 136.545 268.683 137.807 268.683 139.584C268.683 141.247 269.084 142.522 269.887 143.411C270.69 144.271 271.894 144.701 273.499 144.701ZM305.706 150.291V153H299.17L298.783 149.947C297.608 151.094 296.447 151.968 295.3 152.57C294.182 153.143 292.992 153.43 291.731 153.43C289.982 153.43 288.592 152.928 287.56 151.925C286.528 150.893 286.012 149.503 286.012 147.754C286.012 146.034 286.542 144.629 287.603 143.54C288.664 142.451 290.183 141.777 292.161 141.519L298.568 140.702V138.036C298.568 136.975 298.224 136.187 297.536 135.671C296.848 135.126 295.83 134.854 294.483 134.854C293.078 134.854 291.817 135.112 290.699 135.628L290.14 138.638H287.345L286.958 133.564C289.939 132.417 292.663 131.844 295.128 131.844C297.278 131.844 299.084 132.374 300.546 133.435C302.008 134.467 302.739 135.943 302.739 137.864V148.571C302.739 149.058 302.796 149.417 302.911 149.646C303.054 149.847 303.312 149.961 303.685 149.99L305.706 150.291ZM290.355 147.41C290.355 148.27 290.584 148.944 291.043 149.431C291.53 149.89 292.175 150.119 292.978 150.119C294.583 150.119 296.447 149.101 298.568 147.066V143.411L293.279 144.314C292.333 144.457 291.602 144.801 291.086 145.346C290.599 145.862 290.355 146.55 290.355 147.41ZM321.424 131.844C323.946 131.844 325.91 132.776 327.315 134.639C328.719 136.474 329.422 139.011 329.422 142.25C329.422 144.343 328.963 146.249 328.046 147.969C327.157 149.66 325.91 150.993 324.305 151.968C322.728 152.943 320.965 153.43 319.016 153.43C317.611 153.43 316.264 153.172 314.974 152.656V158.891C314.974 159.378 315.045 159.722 315.189 159.923C315.332 160.152 315.59 160.281 315.963 160.31L318.715 160.611V163.32H307.707V160.611L309.814 160.31C310.186 160.281 310.43 160.152 310.545 159.923C310.688 159.722 310.76 159.378 310.76 158.891V136.66C310.76 136.144 310.688 135.786 310.545 135.585C310.43 135.356 310.186 135.227 309.814 135.198L307.793 134.94V132.274H314.458L314.802 134.854C316.579 132.847 318.786 131.844 321.424 131.844ZM320.048 150.119C321.825 150.119 323.086 149.474 323.832 148.184C324.577 146.894 324.95 144.945 324.95 142.336C324.95 139.985 324.505 138.194 323.617 136.961C322.728 135.728 321.467 135.112 319.833 135.112C318.858 135.112 317.941 135.384 317.081 135.929C316.221 136.445 315.518 137.104 314.974 137.907V148.829C316.378 149.689 318.07 150.119 320.048 150.119Z" fill="#202030"/>
<path d="M133.587 149.904L134.574 150.063L134.806 148.627L133.382 148.925L133.587 149.904ZM133.157 152.57L133.558 153.486L134.057 153.268L134.144 152.729L133.157 152.57ZM131.05 153.129L130.871 152.145L130.853 152.148L130.836 152.152L131.05 153.129ZM123.912 151.753L123.109 152.35L123.114 152.356L123.119 152.363L123.912 151.753ZM122.665 135.155H123.665V134.155H122.665V135.155ZM119.784 135.155H118.784V136.155H119.784V135.155ZM119.784 132.661L119.665 131.668L118.784 131.773V132.661H119.784ZM122.665 132.317L122.783 133.31L123.665 133.205V132.317H122.665ZM122.665 128.662L122.446 127.686L121.665 127.862V128.662H122.665ZM126.879 127.716H127.879V126.467L126.66 126.74L126.879 127.716ZM126.879 132.231H125.879V133.321L126.964 133.227L126.879 132.231ZM132.383 131.758H133.383V130.668L132.297 130.762L132.383 131.758ZM132.383 135.155V136.155H133.383V135.155H132.383ZM126.879 135.155V134.155H125.879V135.155H126.879ZM127.653 149.302L126.865 149.918L126.873 149.929L126.882 149.939L127.653 149.302ZM130.491 151.291C131.416 151.291 132.522 151.148 133.792 150.883L133.382 148.925C132.186 149.176 131.228 149.291 130.491 149.291V151.291ZM132.599 149.745L132.169 152.411L134.144 152.729L134.574 150.063L132.599 149.745ZM132.756 151.654C132.406 151.807 131.797 151.977 130.871 152.145L131.229 154.113C132.195 153.937 132.99 153.735 133.558 153.486L132.756 151.654ZM130.836 152.152C129.995 152.336 129.093 152.43 128.126 152.43V154.43C129.223 154.43 130.269 154.323 131.263 154.106L130.836 152.152ZM128.126 152.43C126.36 152.43 125.309 151.93 124.704 151.143L123.119 152.363C124.234 153.812 125.992 154.43 128.126 154.43V152.43ZM124.714 151.156C124.069 150.289 123.665 148.852 123.665 146.679H121.665C121.665 149.035 122.092 150.981 123.109 152.35L124.714 151.156ZM123.665 146.679V135.155H121.665V146.679H123.665ZM122.665 134.155H119.784V136.155H122.665V134.155ZM120.784 135.155V132.661H118.784V135.155H120.784ZM119.902 133.654L122.783 133.31L122.546 131.324L119.665 131.668L119.902 133.654ZM123.665 132.317V128.662H121.665V132.317H123.665ZM122.884 129.638L127.098 128.692L126.66 126.74L122.446 127.686L122.884 129.638ZM125.879 127.716V132.231H127.879V127.716H125.879ZM126.964 133.227L132.468 132.754L132.297 130.762L126.793 131.235L126.964 133.227ZM131.383 131.758V135.155H133.383V131.758H131.383ZM132.383 134.155H126.879V136.155H132.383V134.155ZM125.879 135.155V145.862H127.879V135.155H125.879ZM125.879 145.862C125.879 147.539 126.131 148.98 126.865 149.918L128.44 148.686C128.142 148.305 127.879 147.453 127.879 145.862H125.879ZM126.882 149.939C127.704 150.934 129.017 151.291 130.491 151.291V149.291C129.27 149.291 128.691 148.989 128.424 148.665L126.882 149.939ZM152.877 148.872L153.843 148.614L153.58 147.627L152.598 147.912L152.877 148.872ZM153.565 151.452L153.956 152.372L154.755 152.032L154.531 151.194L153.565 151.452ZM137.87 150.721L137.105 151.365L137.111 151.372L137.87 150.721ZM138.214 135.026L138.981 135.667L138.986 135.662L138.214 135.026ZM150.469 133.091L149.891 133.907L149.903 133.915L149.914 133.923L150.469 133.091ZM152.963 136.703L152.001 136.978L152.004 136.988L152.008 136.998L152.963 136.703ZM153.694 142.766L153.76 143.764L154.694 143.702V142.766H153.694ZM140.106 143.669L140.04 142.671L139.068 142.736L139.107 143.709L140.106 143.669ZM141.74 148.528L141.004 149.205L141.014 149.216L141.023 149.225L141.74 148.528ZM140.751 137.391L139.827 137.009L139.823 137.017L139.82 137.025L140.751 137.391ZM140.106 140.831L139.109 140.754L139.018 141.93L140.193 141.827L140.106 140.831ZM149.48 140.014L149.567 141.01L150.48 140.931V140.014H149.48ZM148.405 136.359L147.635 136.997L147.641 137.004L147.647 137.012L148.405 136.359ZM145.997 151.119C147.856 151.119 150.254 150.674 153.155 149.832L152.598 147.912C149.766 148.733 147.578 149.119 145.997 149.119V151.119ZM151.911 149.13L152.599 151.71L154.531 151.194L153.843 148.614L151.911 149.13ZM153.173 150.532C151.883 151.081 150.476 151.537 148.949 151.898L149.409 153.844C151.035 153.46 152.552 152.97 153.956 152.372L153.173 150.532ZM148.949 151.898C147.441 152.254 145.985 152.43 144.578 152.43V154.43C146.152 154.43 147.763 154.233 149.409 153.844L148.949 151.898ZM144.578 152.43C141.873 152.43 139.944 151.605 138.629 150.07L137.111 151.372C138.891 153.449 141.435 154.43 144.578 154.43V152.43ZM138.635 150.077C137.308 148.5 136.591 146.315 136.591 143.411H134.591C134.591 146.642 135.393 149.33 137.105 151.365L138.635 150.077ZM136.591 143.411C136.591 140.081 137.421 137.534 138.981 135.667L137.447 134.385C135.509 136.703 134.591 139.747 134.591 143.411H136.591ZM138.986 135.662C140.513 133.809 142.674 132.844 145.61 132.844V130.844C142.182 130.844 139.412 132 137.442 134.39L138.986 135.662ZM145.61 132.844C147.553 132.844 148.944 133.237 149.891 133.907L151.046 132.275C149.643 131.282 147.795 130.844 145.61 130.844V132.844ZM149.914 133.923C150.891 134.574 151.597 135.563 152.001 136.978L153.924 136.428C153.411 134.632 152.455 133.213 151.024 132.259L149.914 133.923ZM152.008 136.998C152.455 138.445 152.694 140.356 152.694 142.766H154.694C154.694 140.245 154.446 138.115 153.918 136.408L152.008 136.998ZM153.628 141.768L140.04 142.671L140.172 144.667L153.76 143.764L153.628 141.768ZM139.107 143.709C139.198 145.991 139.781 147.877 141.004 149.205L142.475 147.851C141.692 147 141.186 145.647 141.105 143.629L139.107 143.709ZM141.023 149.225C142.284 150.521 143.985 151.119 145.997 151.119V149.119C144.397 149.119 143.26 148.657 142.457 147.831L141.023 149.225ZM144.965 134.112C143.736 134.112 142.652 134.293 141.793 134.741L142.718 136.515C143.178 136.275 143.9 136.112 144.965 136.112V134.112ZM141.793 134.741C140.884 135.216 140.241 136.008 139.827 137.009L141.675 137.773C141.949 137.112 142.309 136.728 142.718 136.515L141.793 134.741ZM139.82 137.025C139.451 137.964 139.226 139.226 139.109 140.754L141.103 140.908C141.215 139.455 141.42 138.423 141.682 137.757L139.82 137.025ZM140.193 141.827L149.567 141.01L149.393 139.018L140.019 139.835L140.193 141.827ZM150.48 140.014C150.48 138.277 150.094 136.787 149.162 135.706L147.647 137.012C148.149 137.594 148.48 138.54 148.48 140.014H150.48ZM149.175 135.721C148.219 134.566 146.72 134.112 144.965 134.112V136.112C146.421 136.112 147.214 136.489 147.635 136.997L149.175 135.721ZM158.91 150.893L158.179 151.575L158.185 151.581L158.91 150.893ZM157.792 137.391L158.695 137.82L158.698 137.815L157.792 137.391ZM161.318 133.306L161.847 134.155L161.851 134.152L161.318 133.306ZM170.563 132.36L170.294 133.323L170.305 133.326L170.315 133.329L170.563 132.36ZM173.487 133.521L174.485 133.591L174.526 132.999L174.026 132.679L173.487 133.521ZM173.1 139.068V140.068H174.033L174.098 139.138L173.1 139.068ZM170.219 139.068L169.234 139.241L169.379 140.068H170.219V139.068ZM169.66 135.886L170.645 135.713L170.555 135.204L170.088 134.982L169.66 135.886ZM162.049 136.918L161.19 136.407L161.186 136.413L162.049 136.918ZM162.565 148.227L161.791 148.86L161.8 148.871L162.565 148.227ZM169.875 149.818L170.066 150.8L170.079 150.797L170.092 150.794L169.875 149.818ZM173.315 148.915L174.29 148.695L174.055 147.654L173.032 147.956L173.315 148.915ZM173.917 151.581L174.291 152.508L175.08 152.19L174.892 151.361L173.917 151.581ZM169.789 152.957L169.546 151.987L169.541 151.988L169.789 152.957ZM165.833 152.43C163.013 152.43 161.001 151.643 159.635 150.205L158.185 151.581C160.03 153.525 162.633 154.43 165.833 154.43V152.43ZM159.641 150.211C158.295 148.766 157.545 146.597 157.545 143.54H155.545C155.545 146.905 156.372 149.637 158.179 151.575L159.641 150.211ZM157.545 143.54C157.545 141.307 157.94 139.409 158.695 137.82L156.889 136.962C155.982 138.87 155.545 141.072 155.545 143.54H157.545ZM158.698 137.815C159.455 136.195 160.507 134.989 161.847 134.155L160.789 132.457C159.09 133.515 157.791 135.032 156.886 136.967L158.698 137.815ZM161.851 134.152C163.222 133.289 164.824 132.844 166.693 132.844V130.844C164.491 130.844 162.51 131.374 160.785 132.46L161.851 134.152ZM166.693 132.844C167.954 132.844 169.154 133.005 170.294 133.323L170.832 131.397C169.507 131.027 168.126 130.844 166.693 130.844V132.844ZM170.315 133.329C171.491 133.629 172.354 133.983 172.948 134.363L174.026 132.679C173.187 132.142 172.101 131.721 170.811 131.391L170.315 133.329ZM172.489 133.451L172.102 138.998L174.098 139.138L174.485 133.591L172.489 133.451ZM173.1 138.068H170.219V140.068H173.1V138.068ZM171.204 138.895L170.645 135.713L168.675 136.059L169.234 139.241L171.204 138.895ZM170.088 134.982C168.83 134.386 167.342 134.112 165.661 134.112V136.112C167.133 136.112 168.311 136.354 169.232 136.79L170.088 134.982ZM165.661 134.112C163.703 134.112 162.127 134.833 161.19 136.407L162.908 137.429C163.405 136.595 164.237 136.112 165.661 136.112V134.112ZM161.186 136.413C160.358 137.827 160.017 139.943 160.017 142.594H162.017C162.017 140.027 162.364 138.36 162.912 137.423L161.186 136.413ZM160.017 142.594C160.017 145.202 160.553 147.347 161.791 148.86L163.339 147.594C162.513 146.584 162.017 144.974 162.017 142.594H160.017ZM161.8 148.871C163.067 150.377 164.776 151.119 166.822 151.119V149.119C165.314 149.119 164.185 148.599 163.33 147.583L161.8 148.871ZM166.822 151.119C167.892 151.119 168.974 151.012 170.066 150.8L169.684 148.836C168.712 149.025 167.758 149.119 166.822 149.119V151.119ZM170.092 150.794C171.151 150.559 172.32 150.252 173.598 149.874L173.032 147.956C171.787 148.324 170.663 148.618 169.658 148.842L170.092 150.794ZM172.34 149.135L172.942 151.801L174.892 151.361L174.29 148.695L172.34 149.135ZM173.543 150.654C172.085 151.242 170.754 151.685 169.546 151.987L170.032 153.927C171.347 153.598 172.767 153.124 174.291 152.508L173.543 150.654ZM169.541 151.988C168.397 152.281 167.163 152.43 165.833 152.43V154.43C167.313 154.43 168.715 154.264 170.037 153.926L169.541 151.988ZM199.634 150.291H200.634V149.429L199.782 149.302L199.634 150.291ZM199.634 153V154H200.634V153H199.634ZM192.453 153H191.453V154H192.453V153ZM191.378 136.488L190.671 137.195L190.686 137.21L190.701 137.224L191.378 136.488ZM185.401 136.23L184.911 135.358L184.899 135.365L185.401 136.23ZM183.165 138.294L182.346 137.721L182.165 137.979V138.294H183.165ZM183.337 149.646L182.443 150.093L182.478 150.163L182.524 150.227L183.337 149.646ZM184.111 149.99L184.25 149L184.219 148.995L184.188 148.993L184.111 149.99ZM186.261 150.291H187.261V149.421L186.4 149.301L186.261 150.291ZM186.261 153V154H187.261V153H186.261ZM175.984 153H174.984V154H175.984V153ZM175.984 150.291L175.834 149.302L174.984 149.432V150.291H175.984ZM177.962 149.99L177.886 148.993L177.849 148.996L177.812 149.001L177.962 149.99ZM178.736 149.646L179.55 150.227L179.568 150.202L179.584 150.176L178.736 149.646ZM178.736 122.771L177.888 123.301L177.905 123.327L177.923 123.352L178.736 122.771ZM177.962 122.384L177.833 123.376L177.859 123.379L177.886 123.381L177.962 122.384ZM175.984 122.126H174.984V123.004L175.855 123.118L175.984 122.126ZM175.984 119.46V118.46H174.984V119.46H175.984ZM183.165 119.46H184.165V118.46H183.165V119.46ZM183.165 134.854H182.165V137.322L183.883 135.55L183.165 134.854ZM186.261 132.661L186.672 133.573L186.681 133.569L186.69 133.564L186.261 132.661ZM194.904 133.607L194.189 134.305L194.197 134.314L194.206 134.323L194.904 133.607ZM196.839 149.646L195.971 150.142L195.996 150.186L196.026 150.227L196.839 149.646ZM197.613 149.99L197.761 149.001L197.726 148.996L197.69 148.993L197.613 149.99ZM198.634 150.291V153H200.634V150.291H198.634ZM199.634 152H192.453V154H199.634V152ZM193.453 153V139.283H191.453V153H193.453ZM193.453 139.283C193.453 137.87 193.025 136.644 192.055 135.752L190.701 137.224C191.165 137.651 191.453 138.288 191.453 139.283H193.453ZM192.085 135.781C191.147 134.843 189.834 134.456 188.325 134.456V136.456C189.511 136.456 190.233 136.757 190.671 137.195L192.085 135.781ZM188.325 134.456C187.118 134.456 185.975 134.76 184.911 135.358L185.892 137.102C186.662 136.668 187.469 136.456 188.325 136.456V134.456ZM184.899 135.365C183.882 135.956 183.03 136.744 182.346 137.721L183.985 138.867C184.505 138.124 185.143 137.536 185.904 137.095L184.899 135.365ZM182.165 138.294V148.571H184.165V138.294H182.165ZM182.165 148.571C182.165 149.098 182.221 149.649 182.443 150.093L184.232 149.199C184.235 149.204 184.214 149.164 184.196 149.047C184.178 148.935 184.165 148.778 184.165 148.571H182.165ZM182.524 150.227C182.912 150.771 183.521 150.948 184.035 150.987L184.188 148.993C184.136 148.989 184.099 148.983 184.075 148.977C184.051 148.972 184.042 148.967 184.045 148.969C184.048 148.97 184.063 148.977 184.084 148.994C184.106 149.011 184.13 149.035 184.151 149.065L182.524 150.227ZM183.973 150.98L186.123 151.281L186.4 149.301L184.25 149L183.973 150.98ZM185.261 150.291V153H187.261V150.291H185.261ZM186.261 152H175.984V154H186.261V152ZM176.984 153V150.291H174.984V153H176.984ZM176.135 151.28L178.113 150.979L177.812 149.001L175.834 149.302L176.135 151.28ZM178.039 150.987C178.553 150.948 179.162 150.771 179.55 150.227L177.923 149.065C177.944 149.035 177.968 149.011 177.99 148.994C178.011 148.977 178.026 148.97 178.029 148.969C178.032 148.967 178.023 148.972 177.999 148.977C177.974 148.983 177.937 148.989 177.886 148.993L178.039 150.987ZM179.584 150.176C179.879 149.705 179.951 149.116 179.951 148.571H177.951C177.951 148.769 177.937 148.912 177.917 149.009C177.897 149.109 177.878 149.133 177.888 149.116L179.584 150.176ZM179.951 148.571V123.846H177.951V148.571H179.951ZM179.951 123.846C179.951 123.307 179.89 122.666 179.55 122.19L177.923 123.352C177.882 123.296 177.897 123.285 177.917 123.386C177.936 123.481 177.951 123.629 177.951 123.846H179.951ZM179.584 122.241C179.214 121.648 178.599 121.43 178.039 121.387L177.886 123.381C177.979 123.388 178.004 123.404 177.988 123.397C177.979 123.392 177.962 123.382 177.941 123.364C177.921 123.345 177.902 123.323 177.888 123.301L179.584 122.241ZM178.092 121.392L176.114 121.134L175.855 123.118L177.833 123.376L178.092 121.392ZM176.984 122.126V119.46H174.984V122.126H176.984ZM175.984 120.46H183.165V118.46H175.984V120.46ZM182.165 119.46V134.854H184.165V119.46H182.165ZM183.883 135.55C184.717 134.69 185.646 134.035 186.672 133.573L185.851 131.749C184.584 132.319 183.448 133.126 182.447 134.158L183.883 135.55ZM186.69 133.564C187.701 133.084 188.772 132.844 189.916 132.844V130.844C188.48 130.844 187.115 131.148 185.832 131.758L186.69 133.564ZM189.916 132.844C191.917 132.844 193.286 133.38 194.189 134.305L195.62 132.909C194.23 131.484 192.273 130.844 189.916 130.844V132.844ZM194.206 134.323C195.165 135.258 195.667 136.479 195.667 138.079H197.667C197.667 136.01 196.994 134.249 195.603 132.891L194.206 134.323ZM195.667 138.079V148.571H197.667V138.079H195.667ZM195.667 148.571C195.667 149.096 195.714 149.693 195.971 150.142L197.708 149.15C197.734 149.196 197.717 149.189 197.698 149.069C197.68 148.959 197.667 148.796 197.667 148.571H195.667ZM196.026 150.227C196.414 150.771 197.023 150.948 197.537 150.987L197.69 148.993C197.638 148.989 197.601 148.983 197.577 148.977C197.553 148.972 197.544 148.967 197.547 148.969C197.55 148.97 197.565 148.977 197.586 148.994C197.608 149.011 197.632 149.035 197.653 149.065L196.026 150.227ZM197.466 150.979L199.487 151.28L199.782 149.302L197.761 149.001L197.466 150.979ZM225.887 150.291H226.887V149.432L226.037 149.302L225.887 150.291ZM225.887 153V154H226.887V153H225.887ZM218.706 153H217.706V154H218.706V153ZM217.674 136.445L216.982 137.167V137.167L217.674 136.445ZM211.654 136.273L212.144 137.145L212.154 137.139L212.164 137.133L211.654 136.273ZM209.418 138.337L208.585 137.782L208.418 138.034V138.337H209.418ZM209.633 149.646L208.785 150.176L208.801 150.202L208.819 150.227L209.633 149.646ZM210.407 149.99L210.548 149L210.516 148.995L210.483 148.993L210.407 149.99ZM212.514 150.291H213.514V149.424L212.655 149.301L212.514 150.291ZM212.514 153V154H213.514V153H212.514ZM202.237 153H201.237V154H202.237V153ZM202.237 150.291L202.089 149.302L201.237 149.429V150.291H202.237ZM204.258 149.99L204.181 148.993L204.145 148.996L204.11 149.001L204.258 149.99ZM204.989 149.646L204.141 149.116L204.13 149.133L204.12 149.15L204.989 149.646ZM204.946 135.542L204.132 136.123L204.158 136.159L204.186 136.193L204.946 135.542ZM204.172 135.198L204.039 136.189L204.067 136.193L204.095 136.195L204.172 135.198ZM202.237 134.94H201.237V135.816L202.104 135.931L202.237 134.94ZM202.237 132.274V131.274H201.237V132.274H202.237ZM208.687 132.274L209.68 132.16L209.579 131.274H208.687V132.274ZM209.031 135.284L208.037 135.398L208.287 137.583L209.769 135.958L209.031 135.284ZM221.157 133.607L220.441 134.305L220.449 134.314L220.458 134.323L221.157 133.607ZM223.135 149.646L222.287 150.176L222.303 150.202L222.321 150.227L223.135 149.646ZM223.909 149.99L224.059 149.001L224.022 148.996L223.985 148.993L223.909 149.99ZM224.887 150.291V153H226.887V150.291H224.887ZM225.887 152H218.706V154H225.887V152ZM219.706 153V139.283H217.706V153H219.706ZM219.706 139.283C219.706 137.862 219.304 136.622 218.365 135.723L216.982 137.167C217.419 137.587 217.706 138.239 217.706 139.283H219.706ZM218.365 135.723C217.426 134.823 216.119 134.456 214.621 134.456V136.456C215.817 136.456 216.545 136.749 216.982 137.167L218.365 135.723ZM214.621 134.456C213.379 134.456 212.214 134.777 211.143 135.413L212.164 137.133C212.928 136.679 213.741 136.456 214.621 136.456V134.456ZM211.163 135.401C210.111 135.993 209.248 136.789 208.585 137.782L210.25 138.892C210.734 138.165 211.361 137.585 212.144 137.145L211.163 135.401ZM208.418 138.337V148.571H210.418V138.337H208.418ZM208.418 148.571C208.418 149.116 208.49 149.705 208.785 150.176L210.481 149.116C210.491 149.133 210.472 149.109 210.452 149.009C210.432 148.912 210.418 148.769 210.418 148.571H208.418ZM208.819 150.227C209.207 150.771 209.816 150.948 210.33 150.987L210.483 148.993C210.432 148.989 210.395 148.983 210.37 148.977C210.346 148.972 210.337 148.967 210.34 148.969C210.343 148.97 210.358 148.977 210.379 148.994C210.401 149.011 210.425 149.035 210.446 149.065L208.819 150.227ZM210.265 150.98L212.372 151.281L212.655 149.301L210.548 149L210.265 150.98ZM211.514 150.291V153H213.514V150.291H211.514ZM212.514 152H202.237V154H212.514V152ZM203.237 153V150.291H201.237V153H203.237ZM202.384 151.28L204.405 150.979L204.11 149.001L202.089 149.302L202.384 151.28ZM204.334 150.987C204.829 150.949 205.496 150.774 205.857 150.142L204.12 149.15C204.148 149.101 204.182 149.061 204.218 149.03C204.252 149 204.281 148.984 204.294 148.978C204.307 148.972 204.306 148.974 204.286 148.978C204.266 148.983 204.232 148.989 204.181 148.993L204.334 150.987ZM205.837 150.176C206.131 149.705 206.204 149.116 206.204 148.571H204.204C204.204 148.769 204.189 148.912 204.169 149.009C204.149 149.109 204.13 149.133 204.141 149.116L205.837 150.176ZM206.204 148.571V136.488H204.204V148.571H206.204ZM206.204 136.488C206.204 135.959 206.104 135.357 205.705 134.891L204.186 136.193C204.156 136.157 204.161 136.144 204.174 136.192C204.188 136.242 204.204 136.336 204.204 136.488H206.204ZM205.759 134.961C205.371 134.417 204.762 134.24 204.248 134.201L204.095 136.195C204.147 136.199 204.183 136.205 204.208 136.211C204.232 136.216 204.241 136.221 204.238 136.219C204.235 136.218 204.22 136.211 204.199 136.194C204.177 136.177 204.153 136.153 204.132 136.123L205.759 134.961ZM204.304 134.207L202.369 133.949L202.104 135.931L204.039 136.189L204.304 134.207ZM203.237 134.94V132.274H201.237V134.94H203.237ZM202.237 133.274H208.687V131.274H202.237V133.274ZM207.693 132.388L208.037 135.398L210.024 135.17L209.68 132.16L207.693 132.388ZM209.769 135.958C211.704 133.838 213.842 132.844 216.212 132.844V130.844C213.192 130.844 210.542 132.144 208.292 134.61L209.769 135.958ZM216.212 132.844C218.179 132.844 219.535 133.377 220.441 134.305L221.872 132.909C220.484 131.486 218.544 130.844 216.212 130.844V132.844ZM220.458 134.323C221.417 135.258 221.92 136.479 221.92 138.079H223.92C223.92 136.01 223.247 134.249 221.855 132.891L220.458 134.323ZM221.92 138.079V148.571H223.92V138.079H221.92ZM221.92 148.571C221.92 149.116 221.992 149.705 222.287 150.176L223.983 149.116C223.993 149.133 223.974 149.109 223.954 149.009C223.934 148.912 223.92 148.769 223.92 148.571H221.92ZM222.321 150.227C222.709 150.771 223.318 150.948 223.832 150.987L223.985 148.993C223.934 148.989 223.897 148.983 223.872 148.977C223.848 148.972 223.839 148.967 223.842 148.969C223.845 148.97 223.86 148.977 223.881 148.994C223.903 149.011 223.927 149.035 223.948 149.065L222.321 150.227ZM223.758 150.979L225.736 151.28L226.037 149.302L224.059 149.001L223.758 150.979ZM230.845 150.678L230.093 151.337L230.098 151.343L230.104 151.35L230.845 150.678ZM229.727 137.434L230.615 137.893L230.618 137.887L229.727 137.434ZM233.511 133.349L234.023 134.208L234.027 134.205L233.511 133.349ZM246.411 134.596L245.664 135.261L245.67 135.268L246.411 134.596ZM247.572 147.797L248.463 148.25L248.466 148.244L247.572 147.797ZM243.745 151.925L244.261 152.781L243.745 151.925ZM243.229 148.356L242.397 147.801L242.393 147.806L243.229 148.356ZM242.756 137.09L241.985 137.727L241.992 137.736L242 137.745L242.756 137.09ZM234.027 136.918L234.862 137.468L234.868 137.459L234.027 136.918ZM234.5 148.227L233.736 148.872L233.743 148.881L234.5 148.227ZM237.897 152.43C235.071 152.43 233.017 151.586 231.586 150.006L230.104 151.35C231.998 153.44 234.645 154.43 237.897 154.43V152.43ZM231.597 150.019C230.157 148.377 229.394 146.178 229.394 143.325H227.394C227.394 146.549 228.265 149.253 230.093 151.337L231.597 150.019ZM229.394 143.325C229.394 141.255 229.809 139.452 230.615 137.893L228.838 136.975C227.867 138.856 227.394 140.98 227.394 143.325H229.394ZM230.618 137.887C231.424 136.301 232.556 135.083 234.023 134.208L232.998 132.49C231.197 133.565 229.807 135.069 228.835 136.981L230.618 137.887ZM234.027 134.205C235.512 133.309 237.277 132.844 239.359 132.844V130.844C236.969 130.844 234.835 131.382 232.994 132.493L234.027 134.205ZM239.359 132.844C242.217 132.844 244.265 133.691 245.664 135.261L247.157 133.931C245.288 131.832 242.635 130.844 239.359 130.844V132.844ZM245.67 135.268C247.131 136.88 247.905 139.045 247.905 141.863H249.905C249.905 138.661 249.015 135.981 247.152 133.924L245.67 135.268ZM247.905 141.863C247.905 143.902 247.49 145.724 246.677 147.35L248.466 148.244C249.431 146.315 249.905 144.182 249.905 141.863H247.905ZM246.68 147.344C245.875 148.928 244.729 150.163 243.228 151.069L244.261 152.781C246.086 151.68 247.491 150.164 248.463 148.25L246.68 147.344ZM243.228 151.069C241.744 151.965 239.979 152.43 237.897 152.43V154.43C240.287 154.43 242.42 153.892 244.261 152.781L243.228 151.069ZM239.23 151.119C241.33 151.119 243.044 150.455 244.064 148.906L242.393 147.806C241.865 148.608 240.914 149.119 239.23 149.119V151.119ZM244.061 148.911C245.028 147.459 245.433 145.34 245.433 142.723H243.433C243.433 145.209 243.034 146.845 242.397 147.801L244.061 148.911ZM245.433 142.723C245.433 140.122 244.844 137.973 243.511 136.435L242 137.745C242.903 138.787 243.433 140.393 243.433 142.723H245.433ZM243.527 136.453C242.208 134.857 240.32 134.112 238.026 134.112V136.112C239.859 136.112 241.125 136.686 241.985 137.727L243.527 136.453ZM238.026 134.112C235.916 134.112 234.201 134.797 233.185 136.377L234.868 137.459C235.4 136.631 236.351 136.112 238.026 136.112V134.112ZM233.191 136.368C232.253 137.794 231.866 139.916 231.866 142.551H233.866C233.866 140.026 234.253 138.393 234.862 137.468L233.191 136.368ZM231.866 142.551C231.866 145.172 232.436 147.333 233.736 148.872L235.264 147.582C234.385 146.541 233.866 144.918 233.866 142.551H231.866ZM233.743 148.881C235.066 150.413 236.95 151.119 239.23 151.119V149.119C237.381 149.119 236.112 148.564 235.256 147.573L233.743 148.881ZM251.61 150.291L251.463 149.302L250.61 149.429V150.291H251.61ZM253.631 149.99L253.555 148.993L253.519 148.996L253.484 149.001L253.631 149.99ZM254.362 149.646L253.514 149.116L253.504 149.133L253.494 149.15L254.362 149.646ZM254.362 122.728L253.494 123.224L253.519 123.268L253.549 123.309L254.362 122.728ZM253.631 122.384L253.505 123.376L253.53 123.379L253.555 123.381L253.631 122.384ZM251.61 122.126H250.61V123.006L251.484 123.118L251.61 122.126ZM251.61 119.46V118.46H250.61V119.46H251.61ZM258.791 119.46H259.791V118.46H258.791V119.46ZM259.006 149.646L258.158 150.176L258.175 150.202L258.193 150.227L259.006 149.646ZM259.78 149.99L259.931 149.001L259.894 148.996L259.857 148.993L259.78 149.99ZM261.758 150.291H262.758V149.432L261.909 149.302L261.758 150.291ZM261.758 153V154H262.758V153H261.758ZM251.61 153H250.61V154H251.61V153ZM251.758 151.28L253.779 150.979L253.484 149.001L251.463 149.302L251.758 151.28ZM253.708 150.987C254.203 150.949 254.869 150.774 255.231 150.142L253.494 149.15C253.522 149.101 253.556 149.061 253.591 149.03C253.626 149 253.654 148.984 253.668 148.978C253.681 148.972 253.68 148.974 253.66 148.978C253.64 148.983 253.606 148.989 253.555 148.993L253.708 150.987ZM255.21 150.176C255.505 149.705 255.577 149.116 255.577 148.571H253.577C253.577 148.769 253.562 148.912 253.543 149.009C253.523 149.109 253.504 149.133 253.514 149.116L255.21 150.176ZM255.577 148.571V123.76H253.577V148.571H255.577ZM255.577 123.76C255.577 123.235 255.512 122.617 255.176 122.147L253.549 123.309C253.513 123.259 253.526 123.251 253.545 123.34C253.562 123.425 253.577 123.561 253.577 123.76H255.577ZM255.231 122.232C254.869 121.6 254.203 121.425 253.708 121.387L253.555 123.381C253.606 123.385 253.64 123.391 253.66 123.396C253.68 123.4 253.681 123.402 253.668 123.396C253.654 123.39 253.626 123.374 253.591 123.344C253.556 123.313 253.522 123.273 253.494 123.224L255.231 122.232ZM253.758 121.392L251.737 121.134L251.484 123.118L253.505 123.376L253.758 121.392ZM252.61 122.126V119.46H250.61V122.126H252.61ZM251.61 120.46H258.791V118.46H251.61V120.46ZM257.791 119.46V148.571H259.791V119.46H257.791ZM257.791 148.571C257.791 149.116 257.864 149.705 258.158 150.176L259.854 149.116C259.865 149.133 259.846 149.109 259.826 149.009C259.806 148.912 259.791 148.769 259.791 148.571H257.791ZM258.193 150.227C258.581 150.771 259.19 150.948 259.704 150.987L259.857 148.993C259.805 148.989 259.768 148.983 259.744 148.977C259.719 148.972 259.711 148.967 259.713 148.969C259.717 148.97 259.732 148.977 259.753 148.994C259.775 149.011 259.799 149.035 259.82 149.065L258.193 150.227ZM259.63 150.979L261.608 151.28L261.909 149.302L259.931 149.001L259.63 150.979ZM260.758 150.291V153H262.758V150.291H260.758ZM261.758 152H251.61V154H261.758V152ZM252.61 153V150.291H250.61V153H252.61ZM283.776 133.564L284.367 134.37L284.776 134.071V133.564H283.776ZM280.68 134.725L280.562 133.732L278.763 133.946L279.903 135.354L280.68 134.725ZM281.798 136.875L282.753 136.579L281.798 136.875ZM280.938 143.669L280.103 143.119L280.1 143.123L280.938 143.669ZM277.584 146.593L278.024 147.491L278.031 147.487L277.584 146.593ZM271.478 147.539L271.577 146.544L270.863 146.473L270.567 147.126L271.478 147.539ZM270.446 149.818L269.535 149.405L269.446 149.602V149.818H270.446ZM271.478 150.721L271.652 149.736L271.642 149.735L271.478 150.721ZM276.036 151.409L276.184 150.42L276.173 150.418L276.162 150.417L276.036 151.409ZM277.67 151.667L277.506 152.653L277.514 152.655L277.67 151.667ZM279.218 151.925L279.044 152.91L279.057 152.912L279.218 151.925ZM282.4 153.301L283.093 152.58L283.092 152.58L282.4 153.301ZM282.185 159.966L281.395 159.353L282.185 159.966ZM278.444 162.718L278.05 161.799L278.044 161.801L278.444 162.718ZM267.737 163.062L267.467 164.025L267.737 163.062ZM263.953 161.213L262.968 161.041L262.871 161.597L263.296 161.967L263.953 161.213ZM264.899 155.795V154.795H264.058L263.914 155.623L264.899 155.795ZM267.694 155.795L268.694 155.781L268.68 154.795H267.694V155.795ZM267.737 158.891L266.737 158.905L266.744 159.431L267.182 159.723L267.737 158.891ZM270.532 159.966L270.769 158.994L270.758 158.992L270.746 158.989L270.532 159.966ZM278.229 159.536L277.706 158.683L277.697 158.689L277.687 158.696L278.229 159.536ZM277.455 155.58L277.284 156.565L277.299 156.568L277.314 156.57L277.455 155.58ZM274.445 155.107L274.285 156.094L274.31 156.098L274.335 156.101L274.445 155.107ZM269.629 154.29L269.438 155.272L269.45 155.274L269.629 154.29ZM267.307 153.129L268.05 152.46L268.042 152.451L268.033 152.441L267.307 153.129ZM266.533 150.764L265.698 150.214L265.533 150.464V150.764H266.533ZM269.027 146.98L269.862 147.53L270.558 146.475L269.37 146.041L269.027 146.98ZM265.501 144.314L264.666 144.864L264.673 144.875L264.681 144.886L265.501 144.314ZM265.372 135.714L266.222 136.24L266.228 136.231L265.372 135.714ZM268.64 132.833L268.214 131.928L268.207 131.931L268.64 132.833ZM279.777 131.672L279.86 132.669L279.777 131.672ZM283.776 130.898H284.776V129.601L283.521 129.931L283.776 130.898ZM276.767 143.454L275.983 142.833L276.767 143.454ZM269.586 135.8L270.364 136.428L270.37 136.421L270.375 136.414L269.586 135.8ZM269.887 143.411L269.145 144.081L269.15 144.087L269.156 144.093L269.887 143.411ZM283.185 132.758C282.482 133.273 281.618 133.606 280.562 133.732L280.798 135.718C282.15 135.557 283.35 135.116 284.367 134.37L283.185 132.758ZM279.903 135.354C280.301 135.846 280.618 136.446 280.843 137.171L282.753 136.579C282.462 135.641 282.034 134.808 281.457 134.096L279.903 135.354ZM280.843 137.171C281.071 137.908 281.185 138.654 281.185 139.412H283.185C283.185 138.45 283.04 137.505 282.753 136.579L280.843 137.171ZM281.185 139.412C281.185 140.802 280.822 142.028 280.103 143.119L281.773 144.219C282.717 142.787 283.185 141.175 283.185 139.412H281.185ZM280.1 143.123C279.403 144.194 278.426 145.054 277.137 145.699L278.031 147.487C279.609 146.699 280.868 145.609 281.776 144.215L280.1 143.123ZM277.144 145.695C275.894 146.307 274.457 146.625 272.811 146.625V148.625C274.72 148.625 276.465 148.255 278.024 147.491L277.144 145.695ZM272.811 146.625C272.545 146.625 272.14 146.6 271.577 146.544L271.378 148.534C271.963 148.592 272.446 148.625 272.811 148.625V146.625ZM270.567 147.126L269.535 149.405L271.357 150.231L272.389 147.952L270.567 147.126ZM269.446 149.818C269.446 150.328 269.641 150.808 270.045 151.162C270.412 151.483 270.875 151.634 271.314 151.707L271.642 149.735C271.525 149.715 271.447 149.691 271.4 149.672C271.353 149.654 271.348 149.644 271.362 149.657C271.38 149.672 271.407 149.704 271.427 149.749C271.446 149.792 271.446 149.82 271.446 149.818H269.446ZM271.304 151.706C272.783 151.967 274.318 152.198 275.91 152.401L276.162 150.417C274.6 150.218 273.097 149.991 271.652 149.736L271.304 151.706ZM275.888 152.398C276.456 152.483 276.995 152.568 277.506 152.653L277.834 150.681C277.312 150.594 276.762 150.507 276.184 150.42L275.888 152.398ZM277.514 152.655C278.053 152.74 278.563 152.825 279.044 152.91L279.392 150.94C278.898 150.853 278.376 150.766 277.826 150.679L277.514 152.655ZM279.057 152.912C280.344 153.122 281.188 153.523 281.707 154.022L283.092 152.58C282.179 151.703 280.901 151.187 279.379 150.938L279.057 152.912ZM281.707 154.022C282.219 154.514 282.518 155.208 282.518 156.225H284.518C284.518 154.777 284.072 153.521 283.093 152.58L281.707 154.022ZM282.518 156.225C282.518 157.333 282.158 158.368 281.395 159.353L282.975 160.579C283.989 159.271 284.518 157.812 284.518 156.225H282.518ZM281.395 159.353C280.629 160.341 279.531 161.164 278.05 161.799L278.838 163.637C280.568 162.896 281.963 161.884 282.975 160.579L281.395 159.353ZM278.044 161.801C276.613 162.426 274.961 162.75 273.069 162.75V164.75C275.191 164.75 277.122 164.386 278.844 163.635L278.044 161.801ZM273.069 162.75C271.228 162.75 269.543 162.53 268.007 162.099L267.467 164.025C269.199 164.511 271.069 164.75 273.069 164.75V162.75ZM268.007 162.099C266.458 161.664 265.349 161.102 264.61 160.459L263.296 161.967C264.335 162.872 265.748 163.542 267.467 164.025L268.007 162.099ZM264.938 161.385L265.884 155.967L263.914 155.623L262.968 161.041L264.938 161.385ZM264.899 156.795H267.694V154.795H264.899V156.795ZM266.694 155.809L266.737 158.905L268.737 158.877L268.694 155.781L266.694 155.809ZM267.182 159.723C268.009 160.274 269.071 160.669 270.318 160.943L270.746 158.989C269.642 158.747 268.84 158.425 268.292 158.059L267.182 159.723ZM270.295 160.938C271.561 161.246 272.946 161.396 274.445 161.396V159.396C273.077 159.396 271.854 159.259 270.769 158.994L270.295 160.938ZM274.445 161.396C276.174 161.396 277.655 161.096 278.771 160.376L277.687 158.696C277.025 159.122 275.984 159.396 274.445 159.396V161.396ZM278.752 160.389C279.901 159.684 280.562 158.634 280.562 157.3H278.562C278.562 157.858 278.335 158.298 277.706 158.683L278.752 160.389ZM280.562 157.3C280.562 156.542 280.263 155.872 279.668 155.386C279.117 154.936 278.386 154.703 277.596 154.59L277.314 156.57C277.929 156.658 278.251 156.811 278.403 156.935C278.51 157.023 278.562 157.112 278.562 157.3H280.562ZM277.626 154.595C276.139 154.337 275.106 154.174 274.555 154.113L274.335 156.101C274.816 156.154 275.789 156.307 277.284 156.565L277.626 154.595ZM274.605 154.12C272.659 153.805 271.06 153.534 269.808 153.306L269.45 155.274C270.72 155.505 272.333 155.778 274.285 156.094L274.605 154.12ZM269.82 153.308C268.925 153.134 268.376 152.822 268.05 152.46L266.564 153.798C267.27 154.582 268.269 155.044 269.438 155.272L269.82 153.308ZM268.033 152.441C267.75 152.143 267.533 151.637 267.533 150.764H265.533C265.533 151.955 265.832 153.026 266.581 153.817L268.033 152.441ZM267.368 151.314L269.862 147.53L268.192 146.43L265.698 150.214L267.368 151.314ZM269.37 146.041C268.061 145.562 267.057 144.796 266.321 143.742L264.681 144.886C265.665 146.297 267.012 147.308 268.684 147.919L269.37 146.041ZM266.336 143.764C265.628 142.69 265.254 141.384 265.254 139.799H263.254C263.254 141.712 263.711 143.415 264.666 144.864L266.336 143.764ZM265.254 139.799C265.254 138.452 265.582 137.275 266.222 136.24L264.522 135.188C263.671 136.561 263.254 138.108 263.254 139.799H265.254ZM266.228 136.231C266.862 135.182 267.796 134.347 269.073 133.735L268.207 131.931C266.617 132.695 265.373 133.78 264.516 135.197L266.228 136.231ZM269.066 133.738C270.368 133.125 271.937 132.801 273.8 132.801V130.801C271.707 130.801 269.836 131.165 268.214 131.928L269.066 133.738ZM273.8 132.801C276.747 132.801 278.78 132.759 279.86 132.669L279.694 130.675C278.71 130.757 276.758 130.801 273.8 130.801V132.801ZM279.86 132.669C280.974 132.576 282.371 132.302 284.03 131.865L283.521 129.931C281.913 130.354 280.643 130.596 279.694 130.675L279.86 132.669ZM282.776 130.898V133.564H284.776V130.898H282.776ZM273.499 145.701C275.186 145.701 276.63 145.236 277.55 144.075L275.983 142.833C275.586 143.334 274.851 143.701 273.499 143.701V145.701ZM277.55 144.075C278.414 142.987 278.756 141.443 278.756 139.627H276.756C276.756 141.251 276.439 142.258 275.983 142.833L277.55 144.075ZM278.756 139.627C278.756 137.819 278.32 136.277 277.271 135.191C276.216 134.099 274.709 133.639 272.94 133.639V135.639C274.382 135.639 275.282 136.01 275.833 136.581C276.389 137.157 276.756 138.11 276.756 139.627H278.756ZM272.94 133.639C271.2 133.639 269.685 134.044 268.797 135.186L270.375 136.414C270.691 136.008 271.412 135.639 272.94 135.639V133.639ZM268.808 135.172C267.983 136.193 267.683 137.749 267.683 139.584H269.683C269.683 137.864 269.985 136.897 270.364 136.428L268.808 135.172ZM267.683 139.584C267.683 141.398 268.121 142.948 269.145 144.081L270.629 142.741C270.047 142.097 269.683 141.095 269.683 139.584H267.683ZM269.156 144.093C270.209 145.222 271.721 145.701 273.499 145.701V143.701C272.066 143.701 271.17 143.32 270.618 142.729L269.156 144.093ZM305.706 150.291H306.706V149.429L305.853 149.302L305.706 150.291ZM305.706 153V154H306.706V153H305.706ZM299.17 153L298.178 153.126L298.289 154H299.17V153ZM298.783 149.947L299.775 149.821L299.522 147.829L298.085 149.231L298.783 149.947ZM295.3 152.57L295.756 153.46L295.765 153.455L295.3 152.57ZM287.56 151.925L286.853 152.632L286.863 152.642L287.56 151.925ZM287.603 143.54L288.319 144.238L287.603 143.54ZM292.161 141.519L292.034 140.527L292.032 140.527L292.161 141.519ZM298.568 140.702L298.694 141.694L299.568 141.583V140.702H298.568ZM297.536 135.671L296.915 136.455L296.926 136.463L296.936 136.471L297.536 135.671ZM290.699 135.628L290.28 134.72L289.81 134.937L289.716 135.445L290.699 135.628ZM290.14 138.638V139.638H290.971L291.123 138.821L290.14 138.638ZM287.345 138.638L286.348 138.714L286.418 139.638H287.345V138.638ZM286.958 133.564L286.599 132.631L285.904 132.898L285.961 133.64L286.958 133.564ZM300.546 133.435L299.959 134.244L299.969 134.252L300.546 133.435ZM302.911 149.646L302.017 150.093L302.052 150.163L302.097 150.227L302.911 149.646ZM303.685 149.99L303.832 149.001L303.797 148.996L303.762 148.993L303.685 149.99ZM291.043 149.431L290.315 150.116L290.336 150.138L290.358 150.159L291.043 149.431ZM298.568 147.066L299.26 147.788L299.568 147.492V147.066H298.568ZM298.568 143.411H299.568V142.226L298.4 142.425L298.568 143.411ZM293.279 144.314L293.429 145.303L293.438 145.301L293.447 145.3L293.279 144.314ZM291.086 145.346L290.36 144.658L290.359 144.659L291.086 145.346ZM304.706 150.291V153H306.706V150.291H304.706ZM305.706 152H299.17V154H305.706V152ZM300.162 152.874L299.775 149.821L297.791 150.073L298.178 153.126L300.162 152.874ZM298.085 149.231C296.961 150.328 295.877 151.138 294.835 151.685L295.765 153.455C297.016 152.798 298.254 151.86 299.481 150.663L298.085 149.231ZM294.844 151.68C293.867 152.181 292.834 152.43 291.731 152.43V154.43C293.15 154.43 294.496 154.106 295.756 153.46L294.844 151.68ZM291.731 152.43C290.183 152.43 289.064 151.992 288.257 151.208L286.863 152.642C288.12 153.864 289.781 154.43 291.731 154.43V152.43ZM288.267 151.218C287.459 150.41 287.012 149.294 287.012 147.754H285.012C285.012 149.712 285.597 151.376 286.853 152.632L288.267 151.218ZM287.012 147.754C287.012 146.257 287.465 145.115 288.319 144.238L286.886 142.842C285.62 144.143 285.012 145.811 285.012 147.754H287.012ZM288.319 144.238C289.18 143.354 290.466 142.749 292.29 142.511L292.032 140.527C289.9 140.805 288.147 141.548 286.886 142.842L288.319 144.238ZM292.287 142.511L298.694 141.694L298.441 139.71L292.034 140.527L292.287 142.511ZM299.568 140.702V138.036H297.568V140.702H299.568ZM299.568 138.036C299.568 136.742 299.135 135.62 298.136 134.871L296.936 136.471C297.313 136.754 297.568 137.208 297.568 138.036H299.568ZM298.157 134.887C297.219 134.145 295.941 133.854 294.483 133.854V135.854C295.719 135.854 296.476 136.108 296.915 136.455L298.157 134.887ZM294.483 133.854C292.954 133.854 291.547 134.135 290.28 134.72L291.118 136.536C292.087 136.089 293.203 135.854 294.483 135.854V133.854ZM289.716 135.445L289.157 138.455L291.123 138.821L291.682 135.811L289.716 135.445ZM290.14 137.638H287.345V139.638H290.14V137.638ZM288.342 138.562L287.955 133.488L285.961 133.64L286.348 138.714L288.342 138.562ZM287.317 134.497C290.216 133.382 292.816 132.844 295.128 132.844V130.844C292.51 130.844 289.663 131.452 286.599 132.631L287.317 134.497ZM295.128 132.844C297.108 132.844 298.698 133.33 299.959 134.244L301.133 132.626C299.47 131.419 297.448 130.844 295.128 130.844V132.844ZM299.969 134.252C301.144 135.081 301.739 136.24 301.739 137.864H303.739C303.739 135.646 302.872 133.853 301.123 132.618L299.969 134.252ZM301.739 137.864V148.571H303.739V137.864H301.739ZM301.739 148.571C301.739 149.098 301.795 149.649 302.017 150.093L303.805 149.199C303.808 149.204 303.788 149.164 303.769 149.047C303.751 148.935 303.739 148.778 303.739 148.571H301.739ZM302.097 150.227C302.486 150.771 303.095 150.948 303.608 150.987L303.762 148.993C303.71 148.989 303.673 148.983 303.649 148.977C303.624 148.972 303.615 148.967 303.618 148.969C303.621 148.97 303.636 148.977 303.658 148.994C303.68 149.011 303.703 149.035 303.725 149.065L302.097 150.227ZM303.538 150.979L305.559 151.28L305.853 149.302L303.832 149.001L303.538 150.979ZM289.355 147.41C289.355 148.449 289.636 149.395 290.315 150.116L291.771 148.746C291.533 148.492 291.355 148.091 291.355 147.41H289.355ZM290.358 150.159C291.066 150.826 291.974 151.119 292.978 151.119V149.119C292.376 149.119 291.994 148.953 291.728 148.703L290.358 150.159ZM292.978 151.119C294.985 151.119 297.092 149.868 299.26 147.788L297.876 146.344C295.801 148.335 294.181 149.119 292.978 149.119V151.119ZM299.568 147.066V143.411H297.568V147.066H299.568ZM298.4 142.425L293.111 143.328L293.447 145.3L298.736 144.397L298.4 142.425ZM293.129 143.325C292.024 143.493 291.067 143.912 290.36 144.658L291.812 146.034C292.137 145.691 292.642 145.422 293.429 145.303L293.129 143.325ZM290.359 144.659C289.661 145.399 289.355 146.352 289.355 147.41H291.355C291.355 146.748 291.537 146.325 291.813 146.033L290.359 144.659ZM327.315 134.639L326.516 135.241L326.521 135.247L327.315 134.639ZM328.046 147.969L327.163 147.498L327.161 147.504L328.046 147.969ZM324.305 151.968L323.786 151.113L323.779 151.117L324.305 151.968ZM314.974 152.656L315.345 151.728L313.974 151.179V152.656H314.974ZM315.189 159.923L316.037 159.393L316.02 159.367L316.003 159.342L315.189 159.923ZM315.963 160.31L316.072 159.316L316.056 159.314L316.04 159.313L315.963 160.31ZM318.715 160.611H319.715V159.714L318.824 159.617L318.715 160.611ZM318.715 163.32V164.32H319.715V163.32H318.715ZM307.707 163.32H306.707V164.32H307.707V163.32ZM307.707 160.611L307.565 159.621L306.707 159.744V160.611H307.707ZM309.814 160.31L309.737 159.313L309.705 159.315L309.672 159.32L309.814 160.31ZM310.545 159.923L309.731 159.342L309.685 159.406L309.65 159.476L310.545 159.923ZM310.545 135.585L309.65 136.032L309.685 136.102L309.731 136.166L310.545 135.585ZM309.814 135.198L309.687 136.19L309.712 136.193L309.737 136.195L309.814 135.198ZM307.793 134.94H306.793V135.82L307.666 135.932L307.793 134.94ZM307.793 132.274V131.274H306.793V132.274H307.793ZM314.458 132.274L315.449 132.142L315.333 131.274H314.458V132.274ZM314.802 134.854L313.811 134.986L314.1 137.155L315.55 135.517L314.802 134.854ZM323.617 136.961L324.428 136.376L323.617 136.961ZM317.081 135.929L317.595 136.786L317.606 136.78L317.616 136.774L317.081 135.929ZM314.974 137.907L314.146 137.345L313.974 137.6V137.907H314.974ZM314.974 148.829H313.974V149.389L314.452 149.682L314.974 148.829ZM321.424 132.844C323.662 132.844 325.318 133.651 326.516 135.241L328.113 134.037C326.503 131.9 324.231 130.844 321.424 130.844V132.844ZM326.521 135.247C327.747 136.849 328.422 139.144 328.422 142.25H330.422C330.422 138.877 329.691 136.098 328.109 134.031L326.521 135.247ZM328.422 142.25C328.422 144.191 327.998 145.934 327.163 147.498L328.928 148.44C329.928 146.564 330.422 144.494 330.422 142.25H328.422ZM327.161 147.504C326.355 149.037 325.233 150.234 323.786 151.113L324.824 152.823C326.587 151.752 327.959 150.283 328.931 148.434L327.161 147.504ZM323.779 151.117C322.369 151.989 320.789 152.43 319.016 152.43V154.43C321.141 154.43 323.088 153.896 324.831 152.819L323.779 151.117ZM319.016 152.43C317.737 152.43 316.516 152.196 315.345 151.728L314.602 153.584C316.012 154.148 317.485 154.43 319.016 154.43V152.43ZM313.974 152.656V158.891H315.974V152.656H313.974ZM313.974 158.891C313.974 159.416 314.039 160.034 314.375 160.504L316.003 159.342C316.038 159.392 316.025 159.4 316.007 159.311C315.989 159.226 315.974 159.09 315.974 158.891H313.974ZM314.341 160.453C314.711 161.046 315.327 161.264 315.886 161.307L316.04 159.313C315.946 159.306 315.922 159.29 315.937 159.297C315.946 159.302 315.963 159.312 315.984 159.33C316.005 159.349 316.023 159.371 316.037 159.393L314.341 160.453ZM315.854 161.304L318.606 161.605L318.824 159.617L316.072 159.316L315.854 161.304ZM317.715 160.611V163.32H319.715V160.611H317.715ZM318.715 162.32H307.707V164.32H318.715V162.32ZM308.707 163.32V160.611H306.707V163.32H308.707ZM307.848 161.601L309.955 161.3L309.672 159.32L307.565 159.621L307.848 161.601ZM309.891 161.307C310.438 161.265 311.102 161.044 311.439 160.37L309.65 159.476C309.669 159.438 309.695 159.401 309.728 159.369C309.759 159.337 309.789 159.318 309.808 159.308C309.843 159.29 309.832 159.306 309.737 159.313L309.891 161.307ZM311.359 160.504C311.694 160.034 311.76 159.416 311.76 158.891H309.76C309.76 159.09 309.745 159.226 309.727 159.311C309.708 159.4 309.695 159.392 309.731 159.342L311.359 160.504ZM311.76 158.891V136.66H309.76V158.891H311.76ZM311.76 136.66C311.76 136.121 311.698 135.48 311.359 135.004L309.731 136.166C309.691 136.11 309.705 136.099 309.725 136.2C309.744 136.295 309.76 136.443 309.76 136.66H311.76ZM311.439 135.138C311.102 134.464 310.438 134.243 309.891 134.201L309.737 136.195C309.832 136.202 309.843 136.218 309.808 136.2C309.789 136.19 309.759 136.171 309.728 136.139C309.695 136.107 309.669 136.07 309.65 136.032L311.439 135.138ZM309.94 134.206L307.919 133.948L307.666 135.932L309.687 136.19L309.94 134.206ZM308.793 134.94V132.274H306.793V134.94H308.793ZM307.793 133.274H314.458V131.274H307.793V133.274ZM313.467 132.406L313.811 134.986L315.793 134.722L315.449 132.142L313.467 132.406ZM315.55 135.517C317.141 133.721 319.078 132.844 321.424 132.844V130.844C318.495 130.844 316.017 131.974 314.053 134.191L315.55 135.517ZM320.048 151.119C322.101 151.119 323.736 150.348 324.698 148.684L322.966 147.684C322.437 148.6 321.549 149.119 320.048 149.119V151.119ZM324.698 148.684C325.574 147.167 325.95 145.006 325.95 142.336H323.95C323.95 144.884 323.58 146.621 322.966 147.684L324.698 148.684ZM325.95 142.336C325.95 139.883 325.49 137.849 324.428 136.376L322.806 137.546C323.521 138.538 323.95 140.088 323.95 142.336H325.95ZM324.428 136.376C323.335 134.861 321.76 134.112 319.833 134.112V136.112C321.174 136.112 322.121 136.596 322.806 137.546L324.428 136.376ZM319.833 134.112C318.66 134.112 317.558 134.443 316.546 135.084L317.616 136.774C318.323 136.326 319.056 136.112 319.833 136.112V134.112ZM316.566 135.072C315.586 135.66 314.775 136.418 314.146 137.345L315.801 138.469C316.262 137.79 316.856 137.23 317.595 136.786L316.566 135.072ZM313.974 137.907V148.829H315.974V137.907H313.974ZM314.452 149.682C316.042 150.656 317.923 151.119 320.048 151.119V149.119C318.217 149.119 316.714 148.722 315.496 147.976L314.452 149.682Z" fill="black"/>
<path d="M158.56 179.077C157.966 179.077 157.43 178.949 156.954 178.692C156.477 178.435 156.103 178.08 155.832 177.625C155.568 177.163 155.436 176.642 155.436 176.063C155.436 175.484 155.568 174.967 155.832 174.512C156.103 174.057 156.477 173.702 156.954 173.445C157.43 173.188 157.966 173.06 158.56 173.06C159.161 173.06 159.7 173.188 160.177 173.445C160.653 173.702 161.024 174.057 161.288 174.512C161.559 174.967 161.695 175.484 161.695 176.063C161.695 176.642 161.559 177.163 161.288 177.625C161.024 178.08 160.653 178.435 160.177 178.692C159.7 178.949 159.161 179.077 158.56 179.077ZM158.56 177.9C159.066 177.9 159.484 177.731 159.814 177.394C160.144 177.057 160.309 176.613 160.309 176.063C160.309 175.513 160.144 175.069 159.814 174.732C159.484 174.395 159.066 174.226 158.56 174.226C158.054 174.226 157.636 174.395 157.306 174.732C156.983 175.069 156.822 175.513 156.822 176.063C156.822 176.613 156.983 177.057 157.306 177.394C157.636 177.731 158.054 177.9 158.56 177.9ZM166.54 178.681C166.379 178.813 166.181 178.912 165.946 178.978C165.719 179.044 165.477 179.077 165.22 179.077C164.575 179.077 164.076 178.908 163.724 178.571C163.372 178.234 163.196 177.742 163.196 177.097V174.27H162.228V173.17H163.196V171.828H164.571V173.17H166.144V174.27H164.571V177.064C164.571 177.35 164.641 177.57 164.78 177.724C164.92 177.871 165.121 177.944 165.385 177.944C165.693 177.944 165.95 177.863 166.155 177.702L166.54 178.681ZM171.063 178.681C170.902 178.813 170.704 178.912 170.469 178.978C170.242 179.044 170 179.077 169.743 179.077C169.098 179.077 168.599 178.908 168.247 178.571C167.895 178.234 167.719 177.742 167.719 177.097V174.27H166.751V173.17H167.719V171.828H169.094V173.17H170.667V174.27H169.094V177.064C169.094 177.35 169.164 177.57 169.303 177.724C169.442 177.871 169.644 177.944 169.908 177.944C170.216 177.944 170.473 177.863 170.678 177.702L171.063 178.681ZM174.438 173.06C175.303 173.06 175.963 173.269 176.418 173.687C176.88 174.098 177.111 174.721 177.111 175.557V179H175.813V178.285C175.644 178.542 175.402 178.74 175.087 178.879C174.779 179.011 174.405 179.077 173.965 179.077C173.525 179.077 173.14 179.004 172.81 178.857C172.48 178.703 172.223 178.494 172.04 178.23C171.864 177.959 171.776 177.654 171.776 177.317C171.776 176.789 171.97 176.367 172.359 176.052C172.755 175.729 173.375 175.568 174.218 175.568H175.736V175.48C175.736 175.069 175.611 174.754 175.362 174.534C175.12 174.314 174.757 174.204 174.273 174.204C173.943 174.204 173.617 174.255 173.294 174.358C172.979 174.461 172.711 174.604 172.491 174.787L171.952 173.786C172.26 173.551 172.63 173.372 173.063 173.247C173.496 173.122 173.954 173.06 174.438 173.06ZM174.251 178.076C174.596 178.076 174.9 177.999 175.164 177.845C175.435 177.684 175.626 177.456 175.736 177.163V176.481H174.317C173.525 176.481 173.129 176.741 173.129 177.262C173.129 177.511 173.228 177.709 173.426 177.856C173.624 178.003 173.899 178.076 174.251 178.076ZM187.931 173.126L185.764 179H184.444L182.926 174.952L181.386 179H180.066L177.91 173.126H179.208L180.759 177.46L182.376 173.126H183.531L185.115 177.482L186.71 173.126H187.931ZM190.938 173.06C191.803 173.06 192.463 173.269 192.918 173.687C193.38 174.098 193.611 174.721 193.611 175.557V179H192.313V178.285C192.144 178.542 191.902 178.74 191.587 178.879C191.279 179.011 190.905 179.077 190.465 179.077C190.025 179.077 189.64 179.004 189.31 178.857C188.98 178.703 188.723 178.494 188.54 178.23C188.364 177.959 188.276 177.654 188.276 177.317C188.276 176.789 188.47 176.367 188.859 176.052C189.255 175.729 189.875 175.568 190.718 175.568H192.236V175.48C192.236 175.069 192.111 174.754 191.862 174.534C191.62 174.314 191.257 174.204 190.773 174.204C190.443 174.204 190.117 174.255 189.794 174.358C189.479 174.461 189.211 174.604 188.991 174.787L188.452 173.786C188.76 173.551 189.13 173.372 189.563 173.247C189.996 173.122 190.454 173.06 190.938 173.06ZM190.751 178.076C191.096 178.076 191.4 177.999 191.664 177.845C191.935 177.684 192.126 177.456 192.236 177.163V176.481H190.817C190.025 176.481 189.629 176.741 189.629 177.262C189.629 177.511 189.728 177.709 189.926 177.856C190.124 178.003 190.399 178.076 190.751 178.076ZM195.09 171.3H196.278L196.179 174.347H195.178L195.09 171.3ZM199.608 179.077C199.131 179.077 198.665 179.015 198.211 178.89C197.756 178.765 197.393 178.608 197.122 178.417L197.65 177.372C197.914 177.548 198.229 177.691 198.596 177.801C198.97 177.904 199.336 177.955 199.696 177.955C200.517 177.955 200.928 177.739 200.928 177.306C200.928 177.101 200.821 176.958 200.609 176.877C200.403 176.796 200.07 176.719 199.608 176.646C199.124 176.573 198.728 176.488 198.42 176.393C198.119 176.298 197.855 176.133 197.628 175.898C197.408 175.656 197.298 175.322 197.298 174.897C197.298 174.34 197.529 173.896 197.991 173.566C198.46 173.229 199.091 173.06 199.883 173.06C200.286 173.06 200.689 173.108 201.093 173.203C201.496 173.291 201.826 173.412 202.083 173.566L201.555 174.611C201.056 174.318 200.495 174.171 199.872 174.171C199.468 174.171 199.16 174.233 198.948 174.358C198.742 174.475 198.64 174.633 198.64 174.831C198.64 175.051 198.75 175.209 198.97 175.304C199.197 175.392 199.545 175.476 200.015 175.557C200.484 175.63 200.869 175.715 201.17 175.81C201.47 175.905 201.727 176.067 201.94 176.294C202.16 176.521 202.27 176.844 202.27 177.262C202.27 177.812 202.031 178.252 201.555 178.582C201.078 178.912 200.429 179.077 199.608 179.077ZM209.189 179.077C208.58 179.077 208.034 178.949 207.55 178.692C207.066 178.435 206.688 178.08 206.417 177.625C206.145 177.163 206.01 176.642 206.01 176.063C206.01 175.484 206.145 174.967 206.417 174.512C206.688 174.057 207.062 173.702 207.539 173.445C208.023 173.188 208.573 173.06 209.189 173.06C209.768 173.06 210.274 173.177 210.707 173.412C211.147 173.647 211.477 173.984 211.697 174.424L210.641 175.04C210.472 174.769 210.259 174.567 210.003 174.435C209.753 174.296 209.478 174.226 209.178 174.226C208.664 174.226 208.239 174.395 207.902 174.732C207.564 175.062 207.396 175.506 207.396 176.063C207.396 176.62 207.561 177.068 207.891 177.405C208.228 177.735 208.657 177.9 209.178 177.9C209.478 177.9 209.753 177.834 210.003 177.702C210.259 177.563 210.472 177.357 210.641 177.086L211.697 177.702C211.469 178.142 211.136 178.483 210.696 178.725C210.263 178.96 209.761 179.077 209.189 179.077ZM215.439 179.077C214.845 179.077 214.31 178.949 213.833 178.692C213.357 178.435 212.983 178.08 212.711 177.625C212.447 177.163 212.315 176.642 212.315 176.063C212.315 175.484 212.447 174.967 212.711 174.512C212.983 174.057 213.357 173.702 213.833 173.445C214.31 173.188 214.845 173.06 215.439 173.06C216.041 173.06 216.58 173.188 217.056 173.445C217.533 173.702 217.903 174.057 218.167 174.512C218.439 174.967 218.574 175.484 218.574 176.063C218.574 176.642 218.439 177.163 218.167 177.625C217.903 178.08 217.533 178.435 217.056 178.692C216.58 178.949 216.041 179.077 215.439 179.077ZM215.439 177.9C215.945 177.9 216.363 177.731 216.693 177.394C217.023 177.057 217.188 176.613 217.188 176.063C217.188 175.513 217.023 175.069 216.693 174.732C216.363 174.395 215.945 174.226 215.439 174.226C214.933 174.226 214.515 174.395 214.185 174.732C213.863 175.069 213.701 175.513 213.701 176.063C213.701 176.613 213.863 177.057 214.185 177.394C214.515 177.731 214.933 177.9 215.439 177.9ZM227.303 173.06C228.044 173.06 228.631 173.276 229.063 173.709C229.496 174.134 229.712 174.776 229.712 175.634V179H228.337V175.81C228.337 175.297 228.224 174.912 227.996 174.655C227.769 174.391 227.443 174.259 227.017 174.259C226.555 174.259 226.185 174.413 225.906 174.721C225.628 175.022 225.488 175.454 225.488 176.019V179H224.113V175.81C224.113 175.297 224 174.912 223.772 174.655C223.545 174.391 223.219 174.259 222.793 174.259C222.324 174.259 221.95 174.409 221.671 174.71C221.4 175.011 221.264 175.447 221.264 176.019V179H219.889V173.126H221.198V173.874C221.418 173.61 221.693 173.408 222.023 173.269C222.353 173.13 222.72 173.06 223.123 173.06C223.563 173.06 223.952 173.144 224.289 173.313C224.634 173.474 224.905 173.716 225.103 174.039C225.345 173.731 225.657 173.493 226.038 173.324C226.42 173.148 226.841 173.06 227.303 173.06ZM238.883 173.06C239.624 173.06 240.211 173.276 240.643 173.709C241.076 174.134 241.292 174.776 241.292 175.634V179H239.917V175.81C239.917 175.297 239.804 174.912 239.576 174.655C239.349 174.391 239.023 174.259 238.597 174.259C238.135 174.259 237.765 174.413 237.486 174.721C237.208 175.022 237.068 175.454 237.068 176.019V179H235.693V175.81C235.693 175.297 235.58 174.912 235.352 174.655C235.125 174.391 234.799 174.259 234.373 174.259C233.904 174.259 233.53 174.409 233.251 174.71C232.98 175.011 232.844 175.447 232.844 176.019V179H231.469V173.126H232.778V173.874C232.998 173.61 233.273 173.408 233.603 173.269C233.933 173.13 234.3 173.06 234.703 173.06C235.143 173.06 235.532 173.144 235.869 173.313C236.214 173.474 236.485 173.716 236.683 174.039C236.925 173.731 237.237 173.493 237.618 173.324C238 173.148 238.421 173.06 238.883 173.06ZM248.736 173.126V179H247.427V178.252C247.207 178.516 246.932 178.721 246.602 178.868C246.272 179.007 245.917 179.077 245.535 179.077C244.751 179.077 244.131 178.861 243.676 178.428C243.229 177.988 243.005 177.339 243.005 176.481V173.126H244.38V176.294C244.38 176.822 244.498 177.218 244.732 177.482C244.974 177.739 245.315 177.867 245.755 177.867C246.247 177.867 246.635 177.717 246.921 177.416C247.215 177.108 247.361 176.668 247.361 176.096V173.126H248.736ZM253.87 173.06C254.61 173.06 255.204 173.276 255.652 173.709C256.099 174.142 256.323 174.783 256.323 175.634V179H254.948V175.81C254.948 175.297 254.827 174.912 254.585 174.655C254.343 174.391 253.998 174.259 253.551 174.259C253.045 174.259 252.645 174.413 252.352 174.721C252.058 175.022 251.912 175.458 251.912 176.03V179H250.537V173.126H251.846V173.885C252.073 173.614 252.359 173.408 252.704 173.269C253.048 173.13 253.437 173.06 253.87 173.06ZM258.067 173.126H259.442V179H258.067V173.126ZM258.76 172.158C258.511 172.158 258.302 172.081 258.133 171.927C257.964 171.766 257.88 171.568 257.88 171.333C257.88 171.098 257.964 170.904 258.133 170.75C258.302 170.589 258.511 170.508 258.76 170.508C259.009 170.508 259.218 170.585 259.387 170.739C259.556 170.886 259.64 171.073 259.64 171.3C259.64 171.542 259.556 171.747 259.387 171.916C259.226 172.077 259.017 172.158 258.76 172.158ZM264.778 178.681C264.616 178.813 264.418 178.912 264.184 178.978C263.956 179.044 263.714 179.077 263.458 179.077C262.812 179.077 262.314 178.908 261.962 178.571C261.61 178.234 261.434 177.742 261.434 177.097V174.27H260.466V173.17H261.434V171.828H262.809V173.17H264.382V174.27H262.809V177.064C262.809 177.35 262.878 177.57 263.018 177.724C263.157 177.871 263.359 177.944 263.623 177.944C263.931 177.944 264.187 177.863 264.393 177.702L264.778 178.681ZM271.301 173.126L268.551 179.473C268.295 180.111 267.983 180.558 267.616 180.815C267.25 181.079 266.806 181.211 266.285 181.211C265.992 181.211 265.702 181.163 265.416 181.068C265.13 180.973 264.896 180.841 264.712 180.672L265.262 179.66C265.394 179.785 265.548 179.884 265.724 179.957C265.908 180.03 266.091 180.067 266.274 180.067C266.516 180.067 266.714 180.005 266.868 179.88C267.03 179.755 267.176 179.546 267.308 179.253L267.407 179.022L264.844 173.126H266.274L268.122 177.471L269.981 173.126H271.301ZM277.588 171.872C277.008 171.872 276.719 172.187 276.719 172.818V173.17H278.336V174.27H276.763V179H275.388V174.27H274.42V173.17H275.388V172.796C275.388 172.165 275.571 171.67 275.938 171.311C276.304 170.944 276.821 170.761 277.489 170.761C278.017 170.761 278.431 170.867 278.732 171.08L278.347 172.114C278.112 171.953 277.859 171.872 277.588 171.872ZM281.815 179.077C281.221 179.077 280.686 178.949 280.209 178.692C279.733 178.435 279.359 178.08 279.087 177.625C278.823 177.163 278.691 176.642 278.691 176.063C278.691 175.484 278.823 174.967 279.087 174.512C279.359 174.057 279.733 173.702 280.209 173.445C280.686 173.188 281.221 173.06 281.815 173.06C282.417 173.06 282.956 173.188 283.432 173.445C283.909 173.702 284.279 174.057 284.543 174.512C284.815 174.967 284.95 175.484 284.95 176.063C284.95 176.642 284.815 177.163 284.543 177.625C284.279 178.08 283.909 178.435 283.432 178.692C282.956 178.949 282.417 179.077 281.815 179.077ZM281.815 177.9C282.321 177.9 282.739 177.731 283.069 177.394C283.399 177.057 283.564 176.613 283.564 176.063C283.564 175.513 283.399 175.069 283.069 174.732C282.739 174.395 282.321 174.226 281.815 174.226C281.309 174.226 280.891 174.395 280.561 174.732C280.239 175.069 280.077 175.513 280.077 176.063C280.077 176.613 280.239 177.057 280.561 177.394C280.891 177.731 281.309 177.9 281.815 177.9ZM287.574 173.984C287.97 173.368 288.667 173.06 289.664 173.06V174.369C289.547 174.347 289.441 174.336 289.345 174.336C288.81 174.336 288.392 174.494 288.091 174.809C287.791 175.117 287.64 175.564 287.64 176.151V179H286.265V173.126H287.574V173.984ZM138.663 186.06C139.235 186.06 139.745 186.185 140.192 186.434C140.647 186.683 141.003 187.035 141.259 187.49C141.516 187.945 141.644 188.469 141.644 189.063C141.644 189.657 141.516 190.185 141.259 190.647C141.003 191.102 140.647 191.454 140.192 191.703C139.745 191.952 139.235 192.077 138.663 192.077C137.871 192.077 137.244 191.813 136.782 191.285V194.134H135.407V186.126H136.716V186.896C136.944 186.617 137.222 186.408 137.552 186.269C137.89 186.13 138.26 186.06 138.663 186.06ZM138.509 190.9C139.015 190.9 139.43 190.731 139.752 190.394C140.082 190.057 140.247 189.613 140.247 189.063C140.247 188.513 140.082 188.069 139.752 187.732C139.43 187.395 139.015 187.226 138.509 187.226C138.179 187.226 137.882 187.303 137.618 187.457C137.354 187.604 137.145 187.816 136.991 188.095C136.837 188.374 136.76 188.696 136.76 189.063C136.76 189.43 136.837 189.752 136.991 190.031C137.145 190.31 137.354 190.526 137.618 190.68C137.882 190.827 138.179 190.9 138.509 190.9ZM145.588 192.077C144.994 192.077 144.459 191.949 143.982 191.692C143.506 191.435 143.132 191.08 142.86 190.625C142.596 190.163 142.464 189.642 142.464 189.063C142.464 188.484 142.596 187.967 142.86 187.512C143.132 187.057 143.506 186.702 143.982 186.445C144.459 186.188 144.994 186.06 145.588 186.06C146.19 186.06 146.729 186.188 147.205 186.445C147.682 186.702 148.052 187.057 148.316 187.512C148.588 187.967 148.723 188.484 148.723 189.063C148.723 189.642 148.588 190.163 148.316 190.625C148.052 191.08 147.682 191.435 147.205 191.692C146.729 191.949 146.19 192.077 145.588 192.077ZM145.588 190.9C146.094 190.9 146.512 190.731 146.842 190.394C147.172 190.057 147.337 189.613 147.337 189.063C147.337 188.513 147.172 188.069 146.842 187.732C146.512 187.395 146.094 187.226 145.588 187.226C145.082 187.226 144.664 187.395 144.334 187.732C144.012 188.069 143.85 188.513 143.85 189.063C143.85 189.613 144.012 190.057 144.334 190.394C144.664 190.731 145.082 190.9 145.588 190.9ZM151.853 192.077C151.377 192.077 150.911 192.015 150.456 191.89C150.002 191.765 149.639 191.608 149.367 191.417L149.895 190.372C150.159 190.548 150.475 190.691 150.841 190.801C151.215 190.904 151.582 190.955 151.941 190.955C152.763 190.955 153.173 190.739 153.173 190.306C153.173 190.101 153.067 189.958 152.854 189.877C152.649 189.796 152.315 189.719 151.853 189.646C151.369 189.573 150.973 189.488 150.665 189.393C150.365 189.298 150.101 189.133 149.873 188.898C149.653 188.656 149.543 188.322 149.543 187.897C149.543 187.34 149.774 186.896 150.236 186.566C150.706 186.229 151.336 186.06 152.128 186.06C152.532 186.06 152.935 186.108 153.338 186.203C153.742 186.291 154.072 186.412 154.328 186.566L153.8 187.611C153.302 187.318 152.741 187.171 152.117 187.171C151.714 187.171 151.406 187.233 151.193 187.358C150.988 187.475 150.885 187.633 150.885 187.831C150.885 188.051 150.995 188.209 151.215 188.304C151.443 188.392 151.791 188.476 152.26 188.557C152.73 188.63 153.115 188.715 153.415 188.81C153.716 188.905 153.973 189.067 154.185 189.294C154.405 189.521 154.515 189.844 154.515 190.262C154.515 190.812 154.277 191.252 153.8 191.582C153.324 191.912 152.675 192.077 151.853 192.077ZM159.23 191.681C159.069 191.813 158.871 191.912 158.636 191.978C158.409 192.044 158.167 192.077 157.91 192.077C157.265 192.077 156.766 191.908 156.414 191.571C156.062 191.234 155.886 190.742 155.886 190.097V187.27H154.918V186.17H155.886V184.828H157.261V186.17H158.834V187.27H157.261V190.064C157.261 190.35 157.331 190.57 157.47 190.724C157.61 190.871 157.811 190.944 158.075 190.944C158.383 190.944 158.64 190.863 158.845 190.702L159.23 191.681ZM159.957 188.37H162.982V189.514H159.957V188.37ZM166.301 192.077C165.825 192.077 165.359 192.015 164.904 191.89C164.45 191.765 164.087 191.608 163.815 191.417L164.343 190.372C164.607 190.548 164.923 190.691 165.289 190.801C165.663 190.904 166.03 190.955 166.389 190.955C167.211 190.955 167.621 190.739 167.621 190.306C167.621 190.101 167.515 189.958 167.302 189.877C167.097 189.796 166.763 189.719 166.301 189.646C165.817 189.573 165.421 189.488 165.113 189.393C164.813 189.298 164.549 189.133 164.321 188.898C164.101 188.656 163.991 188.322 163.991 187.897C163.991 187.34 164.222 186.896 164.684 186.566C165.154 186.229 165.784 186.06 166.576 186.06C166.98 186.06 167.383 186.108 167.786 186.203C168.19 186.291 168.52 186.412 168.776 186.566L168.248 187.611C167.75 187.318 167.189 187.171 166.565 187.171C166.162 187.171 165.854 187.233 165.641 187.358C165.436 187.475 165.333 187.633 165.333 187.831C165.333 188.051 165.443 188.209 165.663 188.304C165.891 188.392 166.239 188.476 166.708 188.557C167.178 188.63 167.563 188.715 167.863 188.81C168.164 188.905 168.421 189.067 168.633 189.294C168.853 189.521 168.963 189.844 168.963 190.262C168.963 190.812 168.725 191.252 168.248 191.582C167.772 191.912 167.123 192.077 166.301 192.077ZM175.67 189.096C175.67 189.191 175.662 189.327 175.648 189.503H171.039C171.119 189.936 171.328 190.28 171.666 190.537C172.01 190.786 172.436 190.911 172.942 190.911C173.587 190.911 174.119 190.698 174.537 190.273L175.274 191.12C175.01 191.435 174.676 191.674 174.273 191.835C173.869 191.996 173.415 192.077 172.909 192.077C172.263 192.077 171.695 191.949 171.204 191.692C170.712 191.435 170.331 191.08 170.06 190.625C169.796 190.163 169.664 189.642 169.664 189.063C169.664 188.491 169.792 187.978 170.049 187.523C170.313 187.061 170.676 186.702 171.138 186.445C171.6 186.188 172.12 186.06 172.7 186.06C173.272 186.06 173.781 186.188 174.229 186.445C174.683 186.694 175.035 187.05 175.285 187.512C175.541 187.967 175.67 188.495 175.67 189.096ZM172.7 187.16C172.26 187.16 171.886 187.292 171.578 187.556C171.277 187.813 171.094 188.157 171.028 188.59H174.361C174.302 188.165 174.122 187.82 173.822 187.556C173.521 187.292 173.147 187.16 172.7 187.16ZM179.685 192.077C179.077 192.077 178.53 191.949 178.046 191.692C177.562 191.435 177.185 191.08 176.913 190.625C176.642 190.163 176.506 189.642 176.506 189.063C176.506 188.484 176.642 187.967 176.913 187.512C177.185 187.057 177.559 186.702 178.035 186.445C178.519 186.188 179.069 186.06 179.685 186.06C180.265 186.06 180.771 186.177 181.203 186.412C181.643 186.647 181.973 186.984 182.193 187.424L181.137 188.04C180.969 187.769 180.756 187.567 180.499 187.435C180.25 187.296 179.975 187.226 179.674 187.226C179.161 187.226 178.736 187.395 178.398 187.732C178.061 188.062 177.892 188.506 177.892 189.063C177.892 189.62 178.057 190.068 178.387 190.405C178.725 190.735 179.154 190.9 179.674 190.9C179.975 190.9 180.25 190.834 180.499 190.702C180.756 190.563 180.969 190.357 181.137 190.086L182.193 190.702C181.966 191.142 181.632 191.483 181.192 191.725C180.76 191.96 180.257 192.077 179.685 192.077ZM185.936 192.077C185.342 192.077 184.807 191.949 184.33 191.692C183.853 191.435 183.479 191.08 183.208 190.625C182.944 190.163 182.812 189.642 182.812 189.063C182.812 188.484 182.944 187.967 183.208 187.512C183.479 187.057 183.853 186.702 184.33 186.445C184.807 186.188 185.342 186.06 185.936 186.06C186.537 186.06 187.076 186.188 187.553 186.445C188.03 186.702 188.4 187.057 188.664 187.512C188.935 187.967 189.071 188.484 189.071 189.063C189.071 189.642 188.935 190.163 188.664 190.625C188.4 191.08 188.03 191.435 187.553 191.692C187.076 191.949 186.537 192.077 185.936 192.077ZM185.936 190.9C186.442 190.9 186.86 190.731 187.19 190.394C187.52 190.057 187.685 189.613 187.685 189.063C187.685 188.513 187.52 188.069 187.19 187.732C186.86 187.395 186.442 187.226 185.936 187.226C185.43 187.226 185.012 187.395 184.682 187.732C184.359 188.069 184.198 188.513 184.198 189.063C184.198 189.613 184.359 190.057 184.682 190.394C185.012 190.731 185.43 190.9 185.936 190.9ZM193.719 186.06C194.46 186.06 195.054 186.276 195.501 186.709C195.948 187.142 196.172 187.783 196.172 188.634V192H194.797V188.81C194.797 188.297 194.676 187.912 194.434 187.655C194.192 187.391 193.847 187.259 193.4 187.259C192.894 187.259 192.494 187.413 192.201 187.721C191.908 188.022 191.761 188.458 191.761 189.03V192H190.386V186.126H191.695V186.885C191.922 186.614 192.208 186.408 192.553 186.269C192.898 186.13 193.286 186.06 193.719 186.06ZM203.723 183.838V192H202.403V191.241C202.176 191.52 201.893 191.729 201.556 191.868C201.226 192.007 200.859 192.077 200.456 192.077C199.891 192.077 199.382 191.952 198.927 191.703C198.48 191.454 198.128 191.102 197.871 190.647C197.614 190.185 197.486 189.657 197.486 189.063C197.486 188.469 197.614 187.945 197.871 187.49C198.128 187.035 198.48 186.683 198.927 186.434C199.382 186.185 199.891 186.06 200.456 186.06C200.845 186.06 201.2 186.126 201.523 186.258C201.846 186.39 202.121 186.588 202.348 186.852V183.838H203.723ZM200.621 190.9C200.951 190.9 201.248 190.827 201.512 190.68C201.776 190.526 201.985 190.31 202.139 190.031C202.293 189.752 202.37 189.43 202.37 189.063C202.37 188.696 202.293 188.374 202.139 188.095C201.985 187.816 201.776 187.604 201.512 187.457C201.248 187.303 200.951 187.226 200.621 187.226C200.291 187.226 199.994 187.303 199.73 187.457C199.466 187.604 199.257 187.816 199.103 188.095C198.949 188.374 198.872 188.696 198.872 189.063C198.872 189.43 198.949 189.752 199.103 190.031C199.257 190.31 199.466 190.526 199.73 190.68C199.994 190.827 200.291 190.9 200.621 190.9ZM207.766 186.06C208.631 186.06 209.291 186.269 209.746 186.687C210.208 187.098 210.439 187.721 210.439 188.557V192H209.141V191.285C208.972 191.542 208.73 191.74 208.415 191.879C208.107 192.011 207.733 192.077 207.293 192.077C206.853 192.077 206.468 192.004 206.138 191.857C205.808 191.703 205.551 191.494 205.368 191.23C205.192 190.959 205.104 190.654 205.104 190.317C205.104 189.789 205.298 189.367 205.687 189.052C206.083 188.729 206.702 188.568 207.546 188.568H209.064V188.48C209.064 188.069 208.939 187.754 208.69 187.534C208.448 187.314 208.085 187.204 207.601 187.204C207.271 187.204 206.944 187.255 206.622 187.358C206.306 187.461 206.039 187.604 205.819 187.787L205.28 186.786C205.588 186.551 205.958 186.372 206.391 186.247C206.823 186.122 207.282 186.06 207.766 186.06ZM207.579 191.076C207.923 191.076 208.228 190.999 208.492 190.845C208.763 190.684 208.954 190.456 209.064 190.163V189.481H207.645C206.853 189.481 206.457 189.741 206.457 190.262C206.457 190.511 206.556 190.709 206.754 190.856C206.952 191.003 207.227 191.076 207.579 191.076ZM213.512 186.984C213.908 186.368 214.605 186.06 215.602 186.06V187.369C215.485 187.347 215.379 187.336 215.283 187.336C214.748 187.336 214.33 187.494 214.029 187.809C213.729 188.117 213.578 188.564 213.578 189.151V192H212.203V186.126H213.512V186.984ZM222.484 186.126L219.734 192.473C219.477 193.111 219.165 193.558 218.799 193.815C218.432 194.079 217.988 194.211 217.468 194.211C217.174 194.211 216.885 194.163 216.599 194.068C216.313 193.973 216.078 193.841 215.895 193.672L216.445 192.66C216.577 192.785 216.731 192.884 216.907 192.957C217.09 193.03 217.273 193.067 217.457 193.067C217.699 193.067 217.897 193.005 218.051 192.88C218.212 192.755 218.359 192.546 218.491 192.253L218.59 192.022L216.027 186.126H217.457L219.305 190.471L221.164 186.126H222.484ZM235.546 186.126L233.379 192H232.059L230.541 187.952L229.001 192H227.681L225.525 186.126H226.823L228.374 190.46L229.991 186.126H231.146L232.73 190.482L234.325 186.126H235.546ZM238.97 192.077C238.376 192.077 237.841 191.949 237.364 191.692C236.888 191.435 236.514 191.08 236.242 190.625C235.978 190.163 235.846 189.642 235.846 189.063C235.846 188.484 235.978 187.967 236.242 187.512C236.514 187.057 236.888 186.702 237.364 186.445C237.841 186.188 238.376 186.06 238.97 186.06C239.572 186.06 240.111 186.188 240.587 186.445C241.064 186.702 241.434 187.057 241.698 187.512C241.97 187.967 242.105 188.484 242.105 189.063C242.105 189.642 241.97 190.163 241.698 190.625C241.434 191.08 241.064 191.435 240.587 191.692C240.111 191.949 239.572 192.077 238.97 192.077ZM238.97 190.9C239.476 190.9 239.894 190.731 240.224 190.394C240.554 190.057 240.719 189.613 240.719 189.063C240.719 188.513 240.554 188.069 240.224 187.732C239.894 187.395 239.476 187.226 238.97 187.226C238.464 187.226 238.046 187.395 237.716 187.732C237.394 188.069 237.232 188.513 237.232 189.063C237.232 189.613 237.394 190.057 237.716 190.394C238.046 190.731 238.464 190.9 238.97 190.9ZM250.834 186.06C251.575 186.06 252.161 186.276 252.594 186.709C253.027 187.134 253.243 187.776 253.243 188.634V192H251.868V188.81C251.868 188.297 251.754 187.912 251.527 187.655C251.3 187.391 250.973 187.259 250.548 187.259C250.086 187.259 249.716 187.413 249.437 187.721C249.158 188.022 249.019 188.454 249.019 189.019V192H247.644V188.81C247.644 188.297 247.53 187.912 247.303 187.655C247.076 187.391 246.749 187.259 246.324 187.259C245.855 187.259 245.481 187.409 245.202 187.71C244.931 188.011 244.795 188.447 244.795 189.019V192H243.42V186.126H244.729V186.874C244.949 186.61 245.224 186.408 245.554 186.269C245.884 186.13 246.251 186.06 246.654 186.06C247.094 186.06 247.483 186.144 247.82 186.313C248.165 186.474 248.436 186.716 248.634 187.039C248.876 186.731 249.188 186.493 249.569 186.324C249.95 186.148 250.372 186.06 250.834 186.06ZM260.576 189.096C260.576 189.191 260.569 189.327 260.554 189.503H255.945C256.026 189.936 256.235 190.28 256.572 190.537C256.917 190.786 257.342 190.911 257.848 190.911C258.493 190.911 259.025 190.698 259.443 190.273L260.18 191.12C259.916 191.435 259.582 191.674 259.179 191.835C258.776 191.996 258.321 192.077 257.815 192.077C257.17 192.077 256.601 191.949 256.11 191.692C255.619 191.435 255.237 191.08 254.966 190.625C254.702 190.163 254.57 189.642 254.57 189.063C254.57 188.491 254.698 187.978 254.955 187.523C255.219 187.061 255.582 186.702 256.044 186.445C256.506 186.188 257.027 186.06 257.606 186.06C258.178 186.06 258.688 186.188 259.135 186.445C259.59 186.694 259.942 187.05 260.191 187.512C260.448 187.967 260.576 188.495 260.576 189.096ZM257.606 187.16C257.166 187.16 256.792 187.292 256.484 187.556C256.183 187.813 256 188.157 255.934 188.59H259.267C259.208 188.165 259.029 187.82 258.728 187.556C258.427 187.292 258.053 187.16 257.606 187.16ZM265.23 186.06C265.97 186.06 266.564 186.276 267.012 186.709C267.459 187.142 267.683 187.783 267.683 188.634V192H266.308V188.81C266.308 188.297 266.187 187.912 265.945 187.655C265.703 187.391 265.358 187.259 264.911 187.259C264.405 187.259 264.005 187.413 263.712 187.721C263.418 188.022 263.272 188.458 263.272 189.03V192H261.897V186.126H263.206V186.885C263.433 186.614 263.719 186.408 264.064 186.269C264.408 186.13 264.797 186.06 265.23 186.06ZM272.467 186.126H273.842V192H272.467V186.126ZM273.16 185.158C272.911 185.158 272.702 185.081 272.533 184.927C272.364 184.766 272.28 184.568 272.28 184.333C272.28 184.098 272.364 183.904 272.533 183.75C272.702 183.589 272.911 183.508 273.16 183.508C273.409 183.508 273.618 183.585 273.787 183.739C273.956 183.886 274.04 184.073 274.04 184.3C274.04 184.542 273.956 184.747 273.787 184.916C273.626 185.077 273.417 185.158 273.16 185.158ZM278.98 186.06C279.72 186.06 280.314 186.276 280.762 186.709C281.209 187.142 281.433 187.783 281.433 188.634V192H280.058V188.81C280.058 188.297 279.937 187.912 279.695 187.655C279.453 187.391 279.108 187.259 278.661 187.259C278.155 187.259 277.755 187.413 277.462 187.721C277.168 188.022 277.022 188.458 277.022 189.03V192H275.647V186.126H276.956V186.885C277.183 186.614 277.469 186.408 277.814 186.269C278.158 186.13 278.547 186.06 278.98 186.06ZM289.748 191.681C289.587 191.813 289.389 191.912 289.154 191.978C288.927 192.044 288.685 192.077 288.428 192.077C287.783 192.077 287.284 191.908 286.932 191.571C286.58 191.234 286.404 190.742 286.404 190.097V187.27H285.436V186.17H286.404V184.828H287.779V186.17H289.352V187.27H287.779V190.064C287.779 190.35 287.849 190.57 287.988 190.724C288.127 190.871 288.329 190.944 288.593 190.944C288.901 190.944 289.158 190.863 289.363 190.702L289.748 191.681ZM296.208 189.096C296.208 189.191 296.2 189.327 296.186 189.503H291.577C291.657 189.936 291.866 190.28 292.204 190.537C292.548 190.786 292.974 190.911 293.48 190.911C294.125 190.911 294.657 190.698 295.075 190.273L295.812 191.12C295.548 191.435 295.214 191.674 294.811 191.835C294.407 191.996 293.953 192.077 293.447 192.077C292.801 192.077 292.233 191.949 291.742 191.692C291.25 191.435 290.869 191.08 290.598 190.625C290.334 190.163 290.202 189.642 290.202 189.063C290.202 188.491 290.33 187.978 290.587 187.523C290.851 187.061 291.214 186.702 291.676 186.445C292.138 186.188 292.658 186.06 293.238 186.06C293.81 186.06 294.319 186.188 294.767 186.445C295.221 186.694 295.573 187.05 295.823 187.512C296.079 187.967 296.208 188.495 296.208 189.096ZM293.238 187.16C292.798 187.16 292.424 187.292 292.116 187.556C291.815 187.813 291.632 188.157 291.566 188.59H294.899C294.84 188.165 294.66 187.82 294.36 187.556C294.059 187.292 293.685 187.16 293.238 187.16ZM300.223 192.077C299.615 192.077 299.068 191.949 298.584 191.692C298.1 191.435 297.723 191.08 297.451 190.625C297.18 190.163 297.044 189.642 297.044 189.063C297.044 188.484 297.18 187.967 297.451 187.512C297.723 187.057 298.097 186.702 298.573 186.445C299.057 186.188 299.607 186.06 300.223 186.06C300.803 186.06 301.309 186.177 301.741 186.412C302.181 186.647 302.511 186.984 302.731 187.424L301.675 188.04C301.507 187.769 301.294 187.567 301.037 187.435C300.788 187.296 300.513 187.226 300.212 187.226C299.699 187.226 299.274 187.395 298.936 187.732C298.599 188.062 298.43 188.506 298.43 189.063C298.43 189.62 298.595 190.068 298.925 190.405C299.263 190.735 299.692 190.9 300.212 190.9C300.513 190.9 300.788 190.834 301.037 190.702C301.294 190.563 301.507 190.357 301.675 190.086L302.731 190.702C302.504 191.142 302.17 191.483 301.73 191.725C301.298 191.96 300.795 192.077 300.223 192.077ZM307.199 186.06C307.94 186.06 308.534 186.276 308.981 186.709C309.429 187.142 309.652 187.783 309.652 188.634V192H308.277V188.81C308.277 188.297 308.156 187.912 307.914 187.655C307.672 187.391 307.328 187.259 306.88 187.259C306.374 187.259 305.975 187.413 305.681 187.721C305.388 188.022 305.241 188.458 305.241 189.03V192H303.866V183.838H305.241V186.808C305.469 186.566 305.747 186.383 306.077 186.258C306.415 186.126 306.789 186.06 307.199 186.06Z" fill="#202030"/>
<path fill-rule="evenodd" clip-rule="evenodd" d="M460.667 22.5116C457.262 -0.631157 450.842 -30.3221 429.345 -40.4902C407.847 -50.6583 358.467 -44.8051 331.684 -38.4992C304.901 -32.1934 278.475 -16.1401 268.651 -2.65302C258.827 10.834 256.75 36.541 272.736 42.4252C288.721 48.3093 340.153 32.3777 349.329 42.4252C358.505 52.4727 304.485 86.5697 331.684 111.34C358.883 136.111 422.664 111.733 444.81 98.3664C466.956 85 464.072 45.6544 460.667 22.5116Z" fill="#C45653"/>
<path d="M128.557 47.2838C135.671 36.0939 139.685 27.0783 81.0574 -27.74C57.4744 -49.7905 45.2342 -58.7873 27.8634 -59.5426C-54.032 -53.9531 -91.1888 -49.6963 -60.7322 10.9295C-30.2756 71.5553 -30.4154 74.2107 2.86062 90.8766C36.1366 107.543 121.443 58.4737 128.557 47.2838Z" fill="#EFD5D2" stroke="#EFD5D2" stroke-width="8"/>
<path d="M410.296 341.262C416.805 331.782 420.61 324.227 374.096 282.321C355.385 265.464 345.555 258.714 331.022 258.94C262.062 267.476 230.691 272.754 253.295 320.767C275.899 368.781 275.653 370.956 302.754 382.946C329.855 394.937 403.786 350.741 410.296 341.262Z" fill="#E3CCB5" stroke="#E3CCB5" stroke-width="8"/>
<path d="M155.558 -15.795C148.844 -8.98978 135.819 20.4493 156.168 36.4316C166.094 44.2271 184.756 26.2017 195.296 23.9957C246.894 8.89871 270.663 1.16591 264.547 -25.401C258.431 -51.9679 258.279 -47.9553 242.053 -56.9363C225.827 -65.9173 162.272 -22.6001 155.558 -15.795Z" stroke="#423B0B" stroke-width="3" stroke-dasharray="12 7"/>
<circle cx="29.5" cy="67.5" r="6.5" fill="white"/>
<circle cx="280.5" cy="300.5" r="6.5" fill="white"/>
<circle cx="368.5" cy="90.5" r="6.5" fill="white"/>
<path d="M400 264.5C501.5 295 499.666 133.437 468.916 93.4373C453.917 73.9269 445.654 65.7037 431.581 63.3719C363.442 59.4926 332.191 59.0701 345.28 109.259C358.369 159.448 357.867 152.5 381.721 177.796C405.575 203.092 298.5 234 400 264.5Z" stroke="#202030" stroke-width="3" stroke-dasharray="14 7"/>
<circle cx="380" cy="230" r="12" fill="#423B0B"/>
<path d="M282.662 326.667C299.488 322.963 312.322 299.544 292.396 286.792C281.725 279.962 218.274 301.935 194.364 295.559C134.588 279.618 128.212 274.836 110.277 274.836C92.3427 274.836 87.5014 325.576 110.277 334.186C133.053 342.796 265.836 330.37 282.662 326.667Z" stroke="#C45653" stroke-width="3" stroke-dasharray="12 5"/>
<path d="M-0.169277 232.5C48.7684 165.999 28.2217 218.335 48.7683 155.616C58.7902 125.024 62.4308 110.574 59.9379 97.0729C42.3499 38.7566 33.2728 13.3015 -0.1691 71.5589C-33.611 129.816 -28.5876 122.802 -40.2567 165.999C-51.9258 209.196 -49.107 299.001 -0.169277 232.5Z" stroke="#202030" stroke-width="3" stroke-dasharray="12 7"/>
<path d="M140.219 315.91C145.985 306.494 149.179 298.869 98.4049 250.671C77.981 231.283 67.4348 223.315 52.7338 222.284C-16.3722 225.253 -47.6882 228.072 -20.5999 280.616C6.48848 333.159 6.42913 335.428 34.9277 350.424C63.4263 365.419 134.453 325.326 140.219 315.91Z" fill="#423B0B" stroke="#423B0B" stroke-width="7"/>
<circle cx="165" cy="21" r="5" fill="#C45653"/>
<path fill-rule="evenodd" clip-rule="evenodd" d="M93.2615 161.934C95.4609 164.815 96.0509 167.86 98.2109 168.752C100.371 169.645 104.061 171.146 106.221 167.291C108.381 163.435 113.566 153.127 111.17 145.618C108.775 138.11 96.2064 121.266 91.847 122.24C87.4877 123.214 84.7785 144.847 85.0142 151.462C85.25 158.078 91.0621 159.052 93.2615 161.934V161.934Z" stroke="#202030" stroke-width="2" stroke-miterlimit="10" stroke-linejoin="round"/>
<path fill-rule="evenodd" clip-rule="evenodd" d="M113.996 167.718C112.039 169.082 110.482 171.735 109.727 173.63C108.971 175.525 106.526 178.39 109.461 179.087C112.397 179.784 123.277 180.191 127.339 177.811C131.4 175.432 134.809 166.869 133.831 164.808C132.852 162.747 124.772 164.961 121.467 165.446C118.161 165.931 115.953 166.354 113.996 167.718V167.718Z" stroke="#202030" stroke-width="2" stroke-miterlimit="10" stroke-linejoin="round"/>
<path fill-rule="evenodd" clip-rule="evenodd" d="M105.013 186.55C105.24 186.719 106.772 180.011 110.418 176.811C114.064 173.61 123.048 169.361 126.889 167.347C130.731 165.333 133.168 165.024 133.467 164.728C133.766 164.431 132.753 163.723 128.683 165.568C124.614 167.413 112.995 172.3 109.05 175.797C105.105 179.294 104.785 186.381 105.013 186.55V186.55Z" fill="#202030"/>
<path fill-rule="evenodd" clip-rule="evenodd" d="M102.959 175.712C103.81 181.892 103.804 187.631 104.287 190.605C104.771 193.578 105.628 195.105 105.86 193.551C106.093 191.997 106.858 189.28 105.681 181.28C104.504 173.28 101.011 155.258 98.7991 145.55C96.587 135.843 93.4694 125.861 92.4083 123.036C91.3473 120.212 91.3046 123.522 92.4328 128.604C93.561 133.685 97.4232 145.674 99.1775 153.525C100.932 161.377 102.107 169.532 102.959 175.712V175.712Z" fill="#202030"/>
</g>
<defs>
<clipPath id="clip0">
<rect width="414" height="324" fill="white"/>
</clipPath>
</defs>
</svg>
