<svg width="43" height="43" viewBox="0 0 43 43" fill="none" xmlns="http://www.w3.org/2000/svg">
<path d="M41.5 21.5C41.5 32.5457 32.5457 41.5 21.5 41.5C10.4543 41.5 1.5 32.5457 1.5 21.5C1.5 10.4543 10.4543 1.5 21.5 1.5C32.5457 1.5 41.5 10.4543 41.5 21.5Z" stroke="#202030" stroke-width="3"/>
<path d="M27.0448 11H16.9552C13.6714 11 11 13.6714 11 16.9552V27.045C11 30.3286 13.6714 33 16.9552 33H27.045C30.3286 33 33 30.3286 33 27.045V16.9552C33 13.6714 30.3286 11 27.0448 11V11ZM22 28.0155C18.683 28.0155 15.9845 25.317 15.9845 22C15.9845 18.683 18.683 15.9845 22 15.9845C25.317 15.9845 28.0155 18.683 28.0155 22C28.0155 25.317 25.317 28.0155 22 28.0155ZM28.1593 17.4032C27.1791 17.4032 26.3818 16.6059 26.3818 15.6257C26.3818 14.6455 27.1791 13.848 28.1593 13.848C29.1395 13.848 29.937 14.6455 29.937 15.6257C29.937 16.6059 29.1395 17.4032 28.1593 17.4032Z" fill="#202030"/>
<path d="M21.9999 17.2743C19.3942 17.2743 17.2742 19.3942 17.2742 22C17.2742 24.6057 19.3942 26.7257 21.9999 26.7257C24.6057 26.7257 26.7256 24.6057 26.7256 22C26.7256 19.3942 24.6057 17.2743 21.9999 17.2743Z" fill="#202030"/>
<path d="M28.1593 15.1379C27.8904 15.1379 27.6715 15.3568 27.6715 15.6257C27.6715 15.8946 27.8904 16.1135 28.1593 16.1135C28.4283 16.1135 28.6472 15.8948 28.6472 15.6257C28.6472 15.3566 28.4283 15.1379 28.1593 15.1379Z" fill="#202030"/>
</svg>
