<svg width="319" height="192" viewBox="0 0 319 192" fill="none" xmlns="http://www.w3.org/2000/svg">
<g clip-path="url(#clip0)">
<circle cx="295.5" cy="130.5" r="20.5" fill="#EFD5D2"/>
<circle cx="298.5" cy="128.5" r="20" stroke="#202030" stroke-linecap="round" stroke-dasharray="2 5"/>
<path d="M199.772 28.2599C142.847 -1.95332 76.0953 -6.98881 48.9881 8.6213C17.1371 29.5691 3.80938 90.197 1.1269 117.892C-7.00527 165.025 -3.67334 194.936 -0.990856 204H166.735C133.19 156.062 132.004 150.12 129.039 144.581C122.301 131.992 125.792 130.481 127.345 128.467C139.543 120.813 164.335 127.628 175.206 131.992C199.603 139.646 224.056 143.909 233.233 145.084C255.935 149.516 260.763 122.928 262.458 110.339C265.564 95.4004 256.697 58.4731 199.772 28.2599Z" fill="#C45653"/>
<path d="M167 210C226.766 181.739 264.748 150.087 253.018 138.783C220.404 122.453 201.791 98.4574 223.973 80C256.309 60.0928 265.865 57.9565 291 54" stroke="#202030" stroke-width="2" stroke-dasharray="10 4"/>
<path d="M196.5 145C201.301 154.943 206.735 158.955 203.071 170.986C188.443 166.57 175.254 162.144 166.5 152.5C160.431 146.732 153.5 140 155.5 129.5C159.592 127.329 164.929 127.247 171.5 127.247C183.176 127.388 190.035 136.44 196.5 145Z" fill="#423B0B" stroke="#423B0B"/>
<path d="M195.5 139C200.301 148.943 206.586 155.708 202.922 167.74C188.294 163.324 175.105 158.898 166.351 149.253C160.282 143.485 153.351 136.753 155.351 126.253C159.443 124.083 164.78 124 171.351 124C183.027 124.141 189.035 130.44 195.5 139Z" stroke="#202030"/>
<path d="M232.491 152.5C227.309 162.25 227.285 166.391 215.414 170.547C209.496 161.431 204.523 152.27 208 134C209.065 125.696 211.107 112.247 220.759 107.654C223.5 106.35 228.607 108.7 232.491 114C239.278 123.501 235.574 142.226 232.491 152.5Z" fill="#423B0B" stroke="#423B0B"/>
<path d="M230.354 151.439C225.172 161.189 225.147 165.33 213.277 169.486C207.359 160.37 202.386 151.209 205.863 132.939C206.928 124.634 208.97 111.186 218.622 106.593C221.363 105.289 226.47 107.639 230.354 112.939C237.141 122.44 233.437 141.165 230.354 151.439Z" stroke="#202030"/>
<path d="M257.516 168.966C248.068 174.678 245.657 177.409 233.335 174.89C232.928 164.029 234.147 155.402 246.5 141.5C251.673 134.916 268.203 123.527 278.844 124.532C281.866 124.818 282 127.44 282 134.5C282.955 146.138 265.432 161.726 257.516 168.966Z" fill="#423B0B" stroke="#423B0B"/>
<path d="M254.517 166.966C245.068 172.678 242.657 175.409 230.335 172.89C229.928 162.03 231.647 155.902 244 142C249.173 135.416 265.203 121.527 275.844 122.532C278.866 122.818 279.5 126.44 279.5 133.5C280.455 145.138 262.432 159.726 254.517 166.966Z" stroke="#202030"/>
<circle cx="275" cy="166" r="6" fill="#202030"/>
<path d="M-26 103C-21.3456 140.024 -11.4239 146.065 18.0737 133.14C31.003 124.673 39.5045 122.524 54.8947 121.419C74.4211 128.116 75.1839 138.226 80 151" stroke="#423B0B" stroke-width="2" stroke-dasharray="7 5"/>
</g>
<defs>
<clipPath id="clip0">
<rect width="333" height="193" fill="white" transform="translate(-14)"/>
</clipPath>
</defs>
</svg>
