<svg width="44" height="43" viewBox="0 0 44 43" fill="none" xmlns="http://www.w3.org/2000/svg">
<path d="M43.5 21.5C43.5 33.3741 33.8741 43 22 43C10.1259 43 0.5 33.3741 0.5 21.5C0.5 9.62588 10.1259 0 22 0C33.8741 0 43.5 9.62588 43.5 21.5Z" fill="#202030"/>
<path d="M14.8875 11C13.4439 11 12.5 11.9796 12.5 13.2671C12.5 14.5262 13.4158 15.5337 14.8321 15.5337H14.8595C16.3314 15.5337 17.2474 14.5262 17.2474 13.2671C17.2199 11.9796 16.3314 11 14.8875 11Z" fill="#E3CCB5"/>
<path d="M12.7495 17.3252H16.9699V30.4453H12.7495V17.3252Z" fill="#E3CCB5"/>
<path d="M27.3288 17.0171C25.0521 17.0171 23.5254 19.2278 23.5254 19.2278V17.325H19.3049V30.4453H23.5252V23.1184C23.5252 22.7262 23.5527 22.3346 23.6642 22.0541C23.9693 21.2708 24.6636 20.4594 25.8295 20.4594C27.3567 20.4594 27.9675 21.6626 27.9675 23.4264V30.4453H32.1875V22.9224C32.1875 18.8924 30.1053 17.0171 27.3288 17.0171Z" fill="#E3CCB5"/>
</svg>
