<svg width="43" height="43" viewBox="0 0 43 43" fill="none" xmlns="http://www.w3.org/2000/svg">
<path d="M41.5 21.5C41.5 32.5457 32.5457 41.5 21.5 41.5C10.4543 41.5 1.5 32.5457 1.5 21.5C1.5 10.4543 10.4543 1.5 21.5 1.5C32.5457 1.5 41.5 10.4543 41.5 21.5Z" stroke="#202030" stroke-width="3"/>
<path d="M14.3875 12C12.9439 12 12 12.8968 12 14.0754C12 15.2281 12.9158 16.1504 14.3321 16.1504H14.3595C15.8314 16.1504 16.7474 15.2281 16.7474 14.0754C16.7199 12.8968 15.8314 12 14.3875 12Z" fill="#202030"/>
<path d="M12.2495 17.7905H16.4699V29.8018H12.2495V17.7905Z" fill="#202030"/>
<path d="M26.8288 17.5085C24.5521 17.5085 23.0254 19.5324 23.0254 19.5324V17.7905H18.8049V29.8018H23.0252V23.0942C23.0252 22.7351 23.0527 22.3766 23.1642 22.1198C23.4693 21.4027 24.1636 20.6599 25.3295 20.6599C26.8567 20.6599 27.4675 21.7614 27.4675 23.3761V29.8018H31.6875V22.9147C31.6875 19.2253 29.6053 17.5085 26.8288 17.5085Z" fill="#202030"/>
</svg>
