<svg width="43" height="43" viewBox="0 0 43 43" fill="none" xmlns="http://www.w3.org/2000/svg">
<path d="M43 21.5C43 33.3741 33.3741 43 21.5 43C9.62588 43 0 33.3741 0 21.5C0 9.62588 9.62588 0 21.5 0C33.3741 0 43 9.62588 43 21.5Z" fill="#202030"/>
<path d="M30.328 14.2386L32.0834 12.5592V12.1917H26.0022L21.6682 22.979L16.7375 12.1917H10.3611V12.5592L12.4117 15.0278C12.6115 15.2102 12.716 15.477 12.6895 15.7456V25.4467C12.7527 25.7959 12.639 26.1552 12.3934 26.4092L10.0834 29.2087V29.5717H16.633V29.2041L14.323 26.4092C14.0727 26.1543 13.9545 25.8014 14.0049 25.4467V17.0555L19.7542 29.5762H20.4225L25.366 17.0555V27.0297C25.366 27.2928 25.366 27.3469 25.1937 27.5192L23.4154 29.2398V29.6083H32.043V29.2407L30.3289 27.5623C30.1785 27.4487 30.1006 27.258 30.1327 27.0728V14.7281C30.1006 14.542 30.1776 14.3513 30.328 14.2386Z" fill="#E3CCB5"/>
</svg>
