<svg width="43" height="43" viewBox="0 0 43 43" fill="none" xmlns="http://www.w3.org/2000/svg">
<path d="M41.5 21.5C41.5 32.5457 32.5457 41.5 21.5 41.5C10.4543 41.5 1.5 32.5457 1.5 21.5C1.5 10.4543 10.4543 1.5 21.5 1.5C32.5457 1.5 41.5 10.4543 41.5 21.5Z" stroke="#202030" stroke-width="3"/>
<g clip-path="url(#clip0)">
<path d="M30.328 14.2385L32.0834 12.5592V12.1916H26.0022L21.6682 22.9789L16.7375 12.1916H10.3611V12.5592L12.4117 15.0278C12.6115 15.2102 12.716 15.4769 12.6895 15.7455V25.4466C12.7527 25.7958 12.639 26.1552 12.3934 26.4091L10.0834 29.2086V29.5716H16.633V29.204L14.323 26.4091C14.0727 26.1543 13.9545 25.8013 14.0049 25.4466V17.0554L19.7542 29.5762H20.4225L25.366 17.0554V27.0297C25.366 27.2928 25.366 27.3468 25.1937 27.5192L23.4154 29.2398V29.6083H32.043V29.2407L30.3289 27.5623C30.1785 27.4486 30.1006 27.2579 30.1327 27.0728V14.728C30.1006 14.5419 30.1776 14.3513 30.328 14.2385Z" fill="#202030"/>
</g>
<defs>
<clipPath id="clip0">
<rect width="22" height="22" fill="white" transform="translate(11 11)"/>
</clipPath>
</defs>
</svg>
