<svg width="278" height="193" viewBox="0 0 278 193" fill="none" xmlns="http://www.w3.org/2000/svg">
<g clip-path="url(#clip0)">
<path d="M277.728 40.1893C273.328 104.989 245.895 147.856 232.728 161.189C230.868 163.189 228.909 164.781 225.728 166.689C220.728 169.689 214.728 171.68 211.228 170.689C184.728 163.189 125.728 149.189 102.728 112.689C79.728 76.1895 73.3094 30 124 30C145 30 157 30 175.228 52.1895C185.728 35.5228 210.428 1.78934 225.228 0.189345C240.028 -1.41066 254.395 7.52268 259.728 12.1893C274.528 21.3893 277.895 34.6893 277.728 40.1893Z" fill="#EFD5D2" stroke="#EFD5D2"/>
<circle cx="104" cy="162" r="19" fill="#C45653"/>
<path d="M41.5 135C46.3005 144.943 51.7349 148.955 48.0705 160.986C33.443 156.57 20.254 152.144 11.5 142.5C5.43093 136.732 -1.5 130 0.500047 119.5C4.59158 117.329 9.92939 117.247 16.5 117.247C28.1757 117.388 35.0353 126.44 41.5 135Z" fill="#423B0B" stroke="#423B0B"/>
<path d="M40.5 129C45.3005 138.943 51.5859 145.708 47.9216 157.74C33.2941 153.324 20.1051 148.898 11.3511 139.253C5.282 133.485 -1.64893 126.753 0.351121 116.253C4.44266 114.083 9.78046 114 16.3511 114C28.0268 114.141 34.0353 120.44 40.5 129Z" stroke="#202030"/>
<circle cx="101" cy="160" r="18.5" stroke="#202030" stroke-dasharray="5 2"/>
<circle cx="245.5" cy="45.5" r="14.5" fill="#202030"/>
<circle cx="48.5" cy="91.5" r="21.5" fill="#202030"/>
<path d="M312 98C292.511 100.369 322.492 141.108 256.918 153C226.416 149.98 171.672 88.0901 112 132.685" stroke="#423B0B" stroke-width="3" stroke-dasharray="15 4"/>
<path d="M87.6437 284.982C85.0165 265.526 44.6784 296.044 31.9191 230.634C34.5353 200.095 95.6944 144.536 50.3134 85.4593" stroke="#EFD5D2" stroke-width="3" stroke-dasharray="15 4"/>
<path d="M84.6437 284.982C82.0165 265.526 41.6784 296.044 28.9191 230.634C31.5353 200.095 92.6944 144.536 47.3134 85.4593" stroke="#423B0B" stroke-width="2"/>
</g>
<defs>
<clipPath id="clip0">
<rect width="278" height="193" fill="white"/>
</clipPath>
</defs>
</svg>
