<svg width="43" height="43" viewBox="0 0 43 43" fill="none" xmlns="http://www.w3.org/2000/svg">
<path d="M41.5 21.5C41.5 32.5457 32.5457 41.5 21.5 41.5C10.4543 41.5 1.5 32.5457 1.5 21.5C1.5 10.4543 10.4543 1.5 21.5 1.5C32.5457 1.5 41.5 10.4543 41.5 21.5Z" stroke="#202030" stroke-width="3"/>
<g clip-path="url(#clip0)">
<path d="M33 15.1786C32.1819 15.5375 31.3101 15.7754 30.4012 15.8909C31.3363 15.3326 32.0499 14.4554 32.3854 13.398C31.5136 13.9177 30.5511 14.2849 29.5254 14.4898C28.6976 13.6084 27.5179 13.0625 26.2309 13.0625C23.7339 13.0625 21.7236 15.0893 21.7236 17.5739C21.7236 17.9314 21.7539 18.2751 21.8281 18.6024C18.0785 18.4195 14.7606 16.6224 12.5317 13.8848C12.1426 14.5599 11.9144 15.3326 11.9144 16.1645C11.9144 17.7265 12.7188 19.1111 13.9177 19.9127C13.1931 19.899 12.4822 19.6886 11.88 19.3573C11.88 19.371 11.88 19.3889 11.88 19.4067C11.88 21.5985 13.4434 23.419 15.4935 23.8384C15.1264 23.9388 14.7262 23.9869 14.311 23.9869C14.0222 23.9869 13.7307 23.9704 13.4571 23.9099C14.0415 25.696 15.6998 27.0091 17.6715 27.0518C16.137 28.2521 14.1886 28.9754 12.0794 28.9754C11.7095 28.9754 11.3547 28.9589 11 28.9135C12.9979 30.2019 15.3656 30.9375 17.919 30.9375C26.2185 30.9375 30.756 24.0625 30.756 18.1033C30.756 17.9039 30.7491 17.7114 30.7395 17.5203C31.6346 16.885 32.3867 16.0916 33 15.1786Z" fill="#202030"/>
</g>
<defs>
<clipPath id="clip0">
<rect width="22" height="22" fill="white" transform="translate(11 11)"/>
</clipPath>
</defs>
</svg>
