<svg width="44" height="43" viewBox="0 0 44 43" fill="none" xmlns="http://www.w3.org/2000/svg">
<path d="M43.5 21.5C43.5 33.3741 33.8741 43 22 43C10.1259 43 0.5 33.3741 0.5 21.5C0.5 9.62588 10.1259 0 22 0C33.8741 0 43.5 9.62588 43.5 21.5Z" fill="#202030"/>
<path d="M33.5 15.1786C32.6819 15.5375 31.8101 15.7754 30.9012 15.8909C31.8363 15.3326 32.5499 14.4554 32.8854 13.398C32.0136 13.9177 31.0511 14.2849 30.0254 14.4898C29.1976 13.6084 28.0179 13.0625 26.7309 13.0625C24.2339 13.0625 22.2236 15.0893 22.2236 17.5739C22.2236 17.9314 22.2539 18.2751 22.3281 18.6024C18.5785 18.4195 15.2606 16.6224 13.0317 13.8848C12.6426 14.5599 12.4144 15.3326 12.4144 16.1645C12.4144 17.7265 13.2188 19.1111 14.4177 19.9127C13.6931 19.899 12.9822 19.6886 12.38 19.3573C12.38 19.371 12.38 19.3889 12.38 19.4067C12.38 21.5985 13.9434 23.419 15.9935 23.8384C15.6264 23.9388 15.2262 23.9869 14.811 23.9869C14.5222 23.9869 14.2307 23.9704 13.9571 23.9099C14.5415 25.696 16.1998 27.0091 18.1715 27.0518C16.637 28.2521 14.6886 28.9754 12.5794 28.9754C12.2095 28.9754 11.8547 28.9589 11.5 28.9135C13.4979 30.2019 15.8656 30.9375 18.419 30.9375C26.7185 30.9375 31.256 24.0625 31.256 18.1033C31.256 17.9039 31.2491 17.7114 31.2395 17.5203C32.1346 16.885 32.8867 16.0916 33.5 15.1786Z" fill="#E3CCB5"/>
</svg>
